M48
; DRILL file {KiCad 5.1.5+dfsg1-2build2} date Thu May  5 11:30:30 2022
; FORMAT={-:-/ absolute / metric / decimal}
; #@! TF.CreationDate,2022-05-05T11:30:30+01:00
; #@! TF.GenerationSoftware,Kicad,Pcbnew,5.1.5+dfsg1-2build2
FMAT,2
METRIC
T1C0.800
T2C1.000
T3C2.500
%
G90
G05
T1
X85.1Y20.6
X85.1Y12.98
X90.18Y20.6
X90.18Y12.98
X85.2Y31.32
X85.2Y23.7
X90.28Y31.32
X90.28Y23.7
T2
X83.3Y41.3
X87.2Y40.8
X90.1Y37.8
X92.4Y52.0
X93.5Y41.2
X93.6Y47.3
X93.6Y32.3
X94.6Y24.6
X95.9Y45.6
X96.7Y37.0
X97.4Y27.6
X97.8Y45.6
X100.8Y50.6
X100.8Y48.06
X100.8Y45.52
X100.8Y42.98
X100.8Y40.44
X100.8Y37.9
X100.8Y35.36
X100.8Y32.82
X100.8Y30.28
X100.8Y27.74
X100.8Y25.2
X100.8Y22.66
X100.8Y20.12
X100.8Y17.58
X100.8Y15.04
X100.8Y12.5
X89.3Y57.0
X91.84Y57.0
X94.38Y57.0
X96.92Y57.0
X91.5Y8.9
X94.04Y8.9
X89.3Y60.5
X91.84Y60.5
X94.38Y60.5
X96.92Y60.5
T3
X102.5Y61.5
X83.5Y61.5
X83.5Y3.5
X102.5Y3.5
T0
M30
