G04 #@! TF.GenerationSoftware,KiCad,Pcbnew,5.1.5+dfsg1-2build2*
G04 #@! TF.CreationDate,2022-05-11T13:02:20+01:00*
G04 #@! TF.ProjectId,rrl-interface,72726c2d-696e-4746-9572-666163652e6b,rev?*
G04 #@! TF.SameCoordinates,Original*
G04 #@! TF.FileFunction,Paste,Bot*
G04 #@! TF.FilePolarity,Positive*
%FSLAX46Y46*%
G04 Gerber Fmt 4.6, Leading zero omitted, Abs format (unit mm)*
G04 Created by KiCad (PCBNEW 5.1.5+dfsg1-2build2) date 2022-05-11 13:02:20*
%MOMM*%
%LPD*%
G04 APERTURE LIST*
%ADD10C,0.100000*%
%ADD11R,1.400000X0.300000*%
G04 APERTURE END LIST*
D10*
G36*
X67480142Y-186151174D02*
G01*
X67503803Y-186154684D01*
X67527007Y-186160496D01*
X67549529Y-186168554D01*
X67571153Y-186178782D01*
X67591670Y-186191079D01*
X67610883Y-186205329D01*
X67628607Y-186221393D01*
X67644671Y-186239117D01*
X67658921Y-186258330D01*
X67671218Y-186278847D01*
X67681446Y-186300471D01*
X67689504Y-186322993D01*
X67695316Y-186346197D01*
X67698826Y-186369858D01*
X67700000Y-186393750D01*
X67700000Y-186881250D01*
X67698826Y-186905142D01*
X67695316Y-186928803D01*
X67689504Y-186952007D01*
X67681446Y-186974529D01*
X67671218Y-186996153D01*
X67658921Y-187016670D01*
X67644671Y-187035883D01*
X67628607Y-187053607D01*
X67610883Y-187069671D01*
X67591670Y-187083921D01*
X67571153Y-187096218D01*
X67549529Y-187106446D01*
X67527007Y-187114504D01*
X67503803Y-187120316D01*
X67480142Y-187123826D01*
X67456250Y-187125000D01*
X66543750Y-187125000D01*
X66519858Y-187123826D01*
X66496197Y-187120316D01*
X66472993Y-187114504D01*
X66450471Y-187106446D01*
X66428847Y-187096218D01*
X66408330Y-187083921D01*
X66389117Y-187069671D01*
X66371393Y-187053607D01*
X66355329Y-187035883D01*
X66341079Y-187016670D01*
X66328782Y-186996153D01*
X66318554Y-186974529D01*
X66310496Y-186952007D01*
X66304684Y-186928803D01*
X66301174Y-186905142D01*
X66300000Y-186881250D01*
X66300000Y-186393750D01*
X66301174Y-186369858D01*
X66304684Y-186346197D01*
X66310496Y-186322993D01*
X66318554Y-186300471D01*
X66328782Y-186278847D01*
X66341079Y-186258330D01*
X66355329Y-186239117D01*
X66371393Y-186221393D01*
X66389117Y-186205329D01*
X66408330Y-186191079D01*
X66428847Y-186178782D01*
X66450471Y-186168554D01*
X66472993Y-186160496D01*
X66496197Y-186154684D01*
X66519858Y-186151174D01*
X66543750Y-186150000D01*
X67456250Y-186150000D01*
X67480142Y-186151174D01*
G37*
G36*
X67480142Y-184276174D02*
G01*
X67503803Y-184279684D01*
X67527007Y-184285496D01*
X67549529Y-184293554D01*
X67571153Y-184303782D01*
X67591670Y-184316079D01*
X67610883Y-184330329D01*
X67628607Y-184346393D01*
X67644671Y-184364117D01*
X67658921Y-184383330D01*
X67671218Y-184403847D01*
X67681446Y-184425471D01*
X67689504Y-184447993D01*
X67695316Y-184471197D01*
X67698826Y-184494858D01*
X67700000Y-184518750D01*
X67700000Y-185006250D01*
X67698826Y-185030142D01*
X67695316Y-185053803D01*
X67689504Y-185077007D01*
X67681446Y-185099529D01*
X67671218Y-185121153D01*
X67658921Y-185141670D01*
X67644671Y-185160883D01*
X67628607Y-185178607D01*
X67610883Y-185194671D01*
X67591670Y-185208921D01*
X67571153Y-185221218D01*
X67549529Y-185231446D01*
X67527007Y-185239504D01*
X67503803Y-185245316D01*
X67480142Y-185248826D01*
X67456250Y-185250000D01*
X66543750Y-185250000D01*
X66519858Y-185248826D01*
X66496197Y-185245316D01*
X66472993Y-185239504D01*
X66450471Y-185231446D01*
X66428847Y-185221218D01*
X66408330Y-185208921D01*
X66389117Y-185194671D01*
X66371393Y-185178607D01*
X66355329Y-185160883D01*
X66341079Y-185141670D01*
X66328782Y-185121153D01*
X66318554Y-185099529D01*
X66310496Y-185077007D01*
X66304684Y-185053803D01*
X66301174Y-185030142D01*
X66300000Y-185006250D01*
X66300000Y-184518750D01*
X66301174Y-184494858D01*
X66304684Y-184471197D01*
X66310496Y-184447993D01*
X66318554Y-184425471D01*
X66328782Y-184403847D01*
X66341079Y-184383330D01*
X66355329Y-184364117D01*
X66371393Y-184346393D01*
X66389117Y-184330329D01*
X66408330Y-184316079D01*
X66428847Y-184303782D01*
X66450471Y-184293554D01*
X66472993Y-184285496D01*
X66496197Y-184279684D01*
X66519858Y-184276174D01*
X66543750Y-184275000D01*
X67456250Y-184275000D01*
X67480142Y-184276174D01*
G37*
G36*
X77080142Y-186251174D02*
G01*
X77103803Y-186254684D01*
X77127007Y-186260496D01*
X77149529Y-186268554D01*
X77171153Y-186278782D01*
X77191670Y-186291079D01*
X77210883Y-186305329D01*
X77228607Y-186321393D01*
X77244671Y-186339117D01*
X77258921Y-186358330D01*
X77271218Y-186378847D01*
X77281446Y-186400471D01*
X77289504Y-186422993D01*
X77295316Y-186446197D01*
X77298826Y-186469858D01*
X77300000Y-186493750D01*
X77300000Y-186981250D01*
X77298826Y-187005142D01*
X77295316Y-187028803D01*
X77289504Y-187052007D01*
X77281446Y-187074529D01*
X77271218Y-187096153D01*
X77258921Y-187116670D01*
X77244671Y-187135883D01*
X77228607Y-187153607D01*
X77210883Y-187169671D01*
X77191670Y-187183921D01*
X77171153Y-187196218D01*
X77149529Y-187206446D01*
X77127007Y-187214504D01*
X77103803Y-187220316D01*
X77080142Y-187223826D01*
X77056250Y-187225000D01*
X76143750Y-187225000D01*
X76119858Y-187223826D01*
X76096197Y-187220316D01*
X76072993Y-187214504D01*
X76050471Y-187206446D01*
X76028847Y-187196218D01*
X76008330Y-187183921D01*
X75989117Y-187169671D01*
X75971393Y-187153607D01*
X75955329Y-187135883D01*
X75941079Y-187116670D01*
X75928782Y-187096153D01*
X75918554Y-187074529D01*
X75910496Y-187052007D01*
X75904684Y-187028803D01*
X75901174Y-187005142D01*
X75900000Y-186981250D01*
X75900000Y-186493750D01*
X75901174Y-186469858D01*
X75904684Y-186446197D01*
X75910496Y-186422993D01*
X75918554Y-186400471D01*
X75928782Y-186378847D01*
X75941079Y-186358330D01*
X75955329Y-186339117D01*
X75971393Y-186321393D01*
X75989117Y-186305329D01*
X76008330Y-186291079D01*
X76028847Y-186278782D01*
X76050471Y-186268554D01*
X76072993Y-186260496D01*
X76096197Y-186254684D01*
X76119858Y-186251174D01*
X76143750Y-186250000D01*
X77056250Y-186250000D01*
X77080142Y-186251174D01*
G37*
G36*
X77080142Y-184376174D02*
G01*
X77103803Y-184379684D01*
X77127007Y-184385496D01*
X77149529Y-184393554D01*
X77171153Y-184403782D01*
X77191670Y-184416079D01*
X77210883Y-184430329D01*
X77228607Y-184446393D01*
X77244671Y-184464117D01*
X77258921Y-184483330D01*
X77271218Y-184503847D01*
X77281446Y-184525471D01*
X77289504Y-184547993D01*
X77295316Y-184571197D01*
X77298826Y-184594858D01*
X77300000Y-184618750D01*
X77300000Y-185106250D01*
X77298826Y-185130142D01*
X77295316Y-185153803D01*
X77289504Y-185177007D01*
X77281446Y-185199529D01*
X77271218Y-185221153D01*
X77258921Y-185241670D01*
X77244671Y-185260883D01*
X77228607Y-185278607D01*
X77210883Y-185294671D01*
X77191670Y-185308921D01*
X77171153Y-185321218D01*
X77149529Y-185331446D01*
X77127007Y-185339504D01*
X77103803Y-185345316D01*
X77080142Y-185348826D01*
X77056250Y-185350000D01*
X76143750Y-185350000D01*
X76119858Y-185348826D01*
X76096197Y-185345316D01*
X76072993Y-185339504D01*
X76050471Y-185331446D01*
X76028847Y-185321218D01*
X76008330Y-185308921D01*
X75989117Y-185294671D01*
X75971393Y-185278607D01*
X75955329Y-185260883D01*
X75941079Y-185241670D01*
X75928782Y-185221153D01*
X75918554Y-185199529D01*
X75910496Y-185177007D01*
X75904684Y-185153803D01*
X75901174Y-185130142D01*
X75900000Y-185106250D01*
X75900000Y-184618750D01*
X75901174Y-184594858D01*
X75904684Y-184571197D01*
X75910496Y-184547993D01*
X75918554Y-184525471D01*
X75928782Y-184503847D01*
X75941079Y-184483330D01*
X75955329Y-184464117D01*
X75971393Y-184446393D01*
X75989117Y-184430329D01*
X76008330Y-184416079D01*
X76028847Y-184403782D01*
X76050471Y-184393554D01*
X76072993Y-184385496D01*
X76096197Y-184379684D01*
X76119858Y-184376174D01*
X76143750Y-184375000D01*
X77056250Y-184375000D01*
X77080142Y-184376174D01*
G37*
G36*
X64130142Y-181901174D02*
G01*
X64153803Y-181904684D01*
X64177007Y-181910496D01*
X64199529Y-181918554D01*
X64221153Y-181928782D01*
X64241670Y-181941079D01*
X64260883Y-181955329D01*
X64278607Y-181971393D01*
X64294671Y-181989117D01*
X64308921Y-182008330D01*
X64321218Y-182028847D01*
X64331446Y-182050471D01*
X64339504Y-182072993D01*
X64345316Y-182096197D01*
X64348826Y-182119858D01*
X64350000Y-182143750D01*
X64350000Y-183056250D01*
X64348826Y-183080142D01*
X64345316Y-183103803D01*
X64339504Y-183127007D01*
X64331446Y-183149529D01*
X64321218Y-183171153D01*
X64308921Y-183191670D01*
X64294671Y-183210883D01*
X64278607Y-183228607D01*
X64260883Y-183244671D01*
X64241670Y-183258921D01*
X64221153Y-183271218D01*
X64199529Y-183281446D01*
X64177007Y-183289504D01*
X64153803Y-183295316D01*
X64130142Y-183298826D01*
X64106250Y-183300000D01*
X63618750Y-183300000D01*
X63594858Y-183298826D01*
X63571197Y-183295316D01*
X63547993Y-183289504D01*
X63525471Y-183281446D01*
X63503847Y-183271218D01*
X63483330Y-183258921D01*
X63464117Y-183244671D01*
X63446393Y-183228607D01*
X63430329Y-183210883D01*
X63416079Y-183191670D01*
X63403782Y-183171153D01*
X63393554Y-183149529D01*
X63385496Y-183127007D01*
X63379684Y-183103803D01*
X63376174Y-183080142D01*
X63375000Y-183056250D01*
X63375000Y-182143750D01*
X63376174Y-182119858D01*
X63379684Y-182096197D01*
X63385496Y-182072993D01*
X63393554Y-182050471D01*
X63403782Y-182028847D01*
X63416079Y-182008330D01*
X63430329Y-181989117D01*
X63446393Y-181971393D01*
X63464117Y-181955329D01*
X63483330Y-181941079D01*
X63503847Y-181928782D01*
X63525471Y-181918554D01*
X63547993Y-181910496D01*
X63571197Y-181904684D01*
X63594858Y-181901174D01*
X63618750Y-181900000D01*
X64106250Y-181900000D01*
X64130142Y-181901174D01*
G37*
G36*
X66005142Y-181901174D02*
G01*
X66028803Y-181904684D01*
X66052007Y-181910496D01*
X66074529Y-181918554D01*
X66096153Y-181928782D01*
X66116670Y-181941079D01*
X66135883Y-181955329D01*
X66153607Y-181971393D01*
X66169671Y-181989117D01*
X66183921Y-182008330D01*
X66196218Y-182028847D01*
X66206446Y-182050471D01*
X66214504Y-182072993D01*
X66220316Y-182096197D01*
X66223826Y-182119858D01*
X66225000Y-182143750D01*
X66225000Y-183056250D01*
X66223826Y-183080142D01*
X66220316Y-183103803D01*
X66214504Y-183127007D01*
X66206446Y-183149529D01*
X66196218Y-183171153D01*
X66183921Y-183191670D01*
X66169671Y-183210883D01*
X66153607Y-183228607D01*
X66135883Y-183244671D01*
X66116670Y-183258921D01*
X66096153Y-183271218D01*
X66074529Y-183281446D01*
X66052007Y-183289504D01*
X66028803Y-183295316D01*
X66005142Y-183298826D01*
X65981250Y-183300000D01*
X65493750Y-183300000D01*
X65469858Y-183298826D01*
X65446197Y-183295316D01*
X65422993Y-183289504D01*
X65400471Y-183281446D01*
X65378847Y-183271218D01*
X65358330Y-183258921D01*
X65339117Y-183244671D01*
X65321393Y-183228607D01*
X65305329Y-183210883D01*
X65291079Y-183191670D01*
X65278782Y-183171153D01*
X65268554Y-183149529D01*
X65260496Y-183127007D01*
X65254684Y-183103803D01*
X65251174Y-183080142D01*
X65250000Y-183056250D01*
X65250000Y-182143750D01*
X65251174Y-182119858D01*
X65254684Y-182096197D01*
X65260496Y-182072993D01*
X65268554Y-182050471D01*
X65278782Y-182028847D01*
X65291079Y-182008330D01*
X65305329Y-181989117D01*
X65321393Y-181971393D01*
X65339117Y-181955329D01*
X65358330Y-181941079D01*
X65378847Y-181928782D01*
X65400471Y-181918554D01*
X65422993Y-181910496D01*
X65446197Y-181904684D01*
X65469858Y-181901174D01*
X65493750Y-181900000D01*
X65981250Y-181900000D01*
X66005142Y-181901174D01*
G37*
D11*
X61400000Y-180400000D03*
X61400000Y-179900000D03*
X61400000Y-179400000D03*
X61400000Y-178900000D03*
X61400000Y-178400000D03*
X65800000Y-178400000D03*
X65800000Y-178900000D03*
X65800000Y-179400000D03*
X65800000Y-179900000D03*
X65800000Y-180400000D03*
D10*
G36*
X22730142Y-188601174D02*
G01*
X22753803Y-188604684D01*
X22777007Y-188610496D01*
X22799529Y-188618554D01*
X22821153Y-188628782D01*
X22841670Y-188641079D01*
X22860883Y-188655329D01*
X22878607Y-188671393D01*
X22894671Y-188689117D01*
X22908921Y-188708330D01*
X22921218Y-188728847D01*
X22931446Y-188750471D01*
X22939504Y-188772993D01*
X22945316Y-188796197D01*
X22948826Y-188819858D01*
X22950000Y-188843750D01*
X22950000Y-189756250D01*
X22948826Y-189780142D01*
X22945316Y-189803803D01*
X22939504Y-189827007D01*
X22931446Y-189849529D01*
X22921218Y-189871153D01*
X22908921Y-189891670D01*
X22894671Y-189910883D01*
X22878607Y-189928607D01*
X22860883Y-189944671D01*
X22841670Y-189958921D01*
X22821153Y-189971218D01*
X22799529Y-189981446D01*
X22777007Y-189989504D01*
X22753803Y-189995316D01*
X22730142Y-189998826D01*
X22706250Y-190000000D01*
X22218750Y-190000000D01*
X22194858Y-189998826D01*
X22171197Y-189995316D01*
X22147993Y-189989504D01*
X22125471Y-189981446D01*
X22103847Y-189971218D01*
X22083330Y-189958921D01*
X22064117Y-189944671D01*
X22046393Y-189928607D01*
X22030329Y-189910883D01*
X22016079Y-189891670D01*
X22003782Y-189871153D01*
X21993554Y-189849529D01*
X21985496Y-189827007D01*
X21979684Y-189803803D01*
X21976174Y-189780142D01*
X21975000Y-189756250D01*
X21975000Y-188843750D01*
X21976174Y-188819858D01*
X21979684Y-188796197D01*
X21985496Y-188772993D01*
X21993554Y-188750471D01*
X22003782Y-188728847D01*
X22016079Y-188708330D01*
X22030329Y-188689117D01*
X22046393Y-188671393D01*
X22064117Y-188655329D01*
X22083330Y-188641079D01*
X22103847Y-188628782D01*
X22125471Y-188618554D01*
X22147993Y-188610496D01*
X22171197Y-188604684D01*
X22194858Y-188601174D01*
X22218750Y-188600000D01*
X22706250Y-188600000D01*
X22730142Y-188601174D01*
G37*
G36*
X24605142Y-188601174D02*
G01*
X24628803Y-188604684D01*
X24652007Y-188610496D01*
X24674529Y-188618554D01*
X24696153Y-188628782D01*
X24716670Y-188641079D01*
X24735883Y-188655329D01*
X24753607Y-188671393D01*
X24769671Y-188689117D01*
X24783921Y-188708330D01*
X24796218Y-188728847D01*
X24806446Y-188750471D01*
X24814504Y-188772993D01*
X24820316Y-188796197D01*
X24823826Y-188819858D01*
X24825000Y-188843750D01*
X24825000Y-189756250D01*
X24823826Y-189780142D01*
X24820316Y-189803803D01*
X24814504Y-189827007D01*
X24806446Y-189849529D01*
X24796218Y-189871153D01*
X24783921Y-189891670D01*
X24769671Y-189910883D01*
X24753607Y-189928607D01*
X24735883Y-189944671D01*
X24716670Y-189958921D01*
X24696153Y-189971218D01*
X24674529Y-189981446D01*
X24652007Y-189989504D01*
X24628803Y-189995316D01*
X24605142Y-189998826D01*
X24581250Y-190000000D01*
X24093750Y-190000000D01*
X24069858Y-189998826D01*
X24046197Y-189995316D01*
X24022993Y-189989504D01*
X24000471Y-189981446D01*
X23978847Y-189971218D01*
X23958330Y-189958921D01*
X23939117Y-189944671D01*
X23921393Y-189928607D01*
X23905329Y-189910883D01*
X23891079Y-189891670D01*
X23878782Y-189871153D01*
X23868554Y-189849529D01*
X23860496Y-189827007D01*
X23854684Y-189803803D01*
X23851174Y-189780142D01*
X23850000Y-189756250D01*
X23850000Y-188843750D01*
X23851174Y-188819858D01*
X23854684Y-188796197D01*
X23860496Y-188772993D01*
X23868554Y-188750471D01*
X23878782Y-188728847D01*
X23891079Y-188708330D01*
X23905329Y-188689117D01*
X23921393Y-188671393D01*
X23939117Y-188655329D01*
X23958330Y-188641079D01*
X23978847Y-188628782D01*
X24000471Y-188618554D01*
X24022993Y-188610496D01*
X24046197Y-188604684D01*
X24069858Y-188601174D01*
X24093750Y-188600000D01*
X24581250Y-188600000D01*
X24605142Y-188601174D01*
G37*
M02*
