G04 #@! TF.GenerationSoftware,KiCad,Pcbnew,5.1.5+dfsg1-2build2*
G04 #@! TF.CreationDate,2022-05-05T11:30:34+01:00*
G04 #@! TF.ProjectId,rrl-interface,72726c2d-696e-4746-9572-666163652e6b,rev?*
G04 #@! TF.SameCoordinates,Original*
G04 #@! TF.FileFunction,Copper,L2,Bot*
G04 #@! TF.FilePolarity,Positive*
%FSLAX46Y46*%
G04 Gerber Fmt 4.6, Leading zero omitted, Abs format (unit mm)*
G04 Created by KiCad (PCBNEW 5.1.5+dfsg1-2build2) date 2022-05-05 11:30:34*
%MOMM*%
%LPD*%
G04 APERTURE LIST*
%ADD10O,1.600000X1.600000*%
%ADD11R,1.600000X1.600000*%
%ADD12R,1.700000X1.700000*%
%ADD13O,1.700000X1.700000*%
%ADD14C,0.100000*%
%ADD15R,0.300000X1.400000*%
%ADD16C,2.000000*%
%ADD17C,1.000000*%
%ADD18C,0.300000*%
%ADD19C,0.254000*%
G04 APERTURE END LIST*
D10*
X85200000Y31320000D03*
X90280000Y23700000D03*
X90280000Y31320000D03*
D11*
X85200000Y23700000D03*
X85100000Y12980000D03*
D10*
X90180000Y20600000D03*
X90180000Y12980000D03*
X85100000Y20600000D03*
D12*
X91500000Y8900000D03*
D13*
X94040000Y8900000D03*
G04 #@! TA.AperFunction,SMDPad,CuDef*
D14*
G36*
X97105142Y54798826D02*
G01*
X97128803Y54795316D01*
X97152007Y54789504D01*
X97174529Y54781446D01*
X97196153Y54771218D01*
X97216670Y54758921D01*
X97235883Y54744671D01*
X97253607Y54728607D01*
X97269671Y54710883D01*
X97283921Y54691670D01*
X97296218Y54671153D01*
X97306446Y54649529D01*
X97314504Y54627007D01*
X97320316Y54603803D01*
X97323826Y54580142D01*
X97325000Y54556250D01*
X97325000Y53643750D01*
X97323826Y53619858D01*
X97320316Y53596197D01*
X97314504Y53572993D01*
X97306446Y53550471D01*
X97296218Y53528847D01*
X97283921Y53508330D01*
X97269671Y53489117D01*
X97253607Y53471393D01*
X97235883Y53455329D01*
X97216670Y53441079D01*
X97196153Y53428782D01*
X97174529Y53418554D01*
X97152007Y53410496D01*
X97128803Y53404684D01*
X97105142Y53401174D01*
X97081250Y53400000D01*
X96593750Y53400000D01*
X96569858Y53401174D01*
X96546197Y53404684D01*
X96522993Y53410496D01*
X96500471Y53418554D01*
X96478847Y53428782D01*
X96458330Y53441079D01*
X96439117Y53455329D01*
X96421393Y53471393D01*
X96405329Y53489117D01*
X96391079Y53508330D01*
X96378782Y53528847D01*
X96368554Y53550471D01*
X96360496Y53572993D01*
X96354684Y53596197D01*
X96351174Y53619858D01*
X96350000Y53643750D01*
X96350000Y54556250D01*
X96351174Y54580142D01*
X96354684Y54603803D01*
X96360496Y54627007D01*
X96368554Y54649529D01*
X96378782Y54671153D01*
X96391079Y54691670D01*
X96405329Y54710883D01*
X96421393Y54728607D01*
X96439117Y54744671D01*
X96458330Y54758921D01*
X96478847Y54771218D01*
X96500471Y54781446D01*
X96522993Y54789504D01*
X96546197Y54795316D01*
X96569858Y54798826D01*
X96593750Y54800000D01*
X97081250Y54800000D01*
X97105142Y54798826D01*
G37*
G04 #@! TD.AperFunction*
G04 #@! TA.AperFunction,SMDPad,CuDef*
G36*
X95230142Y54798826D02*
G01*
X95253803Y54795316D01*
X95277007Y54789504D01*
X95299529Y54781446D01*
X95321153Y54771218D01*
X95341670Y54758921D01*
X95360883Y54744671D01*
X95378607Y54728607D01*
X95394671Y54710883D01*
X95408921Y54691670D01*
X95421218Y54671153D01*
X95431446Y54649529D01*
X95439504Y54627007D01*
X95445316Y54603803D01*
X95448826Y54580142D01*
X95450000Y54556250D01*
X95450000Y53643750D01*
X95448826Y53619858D01*
X95445316Y53596197D01*
X95439504Y53572993D01*
X95431446Y53550471D01*
X95421218Y53528847D01*
X95408921Y53508330D01*
X95394671Y53489117D01*
X95378607Y53471393D01*
X95360883Y53455329D01*
X95341670Y53441079D01*
X95321153Y53428782D01*
X95299529Y53418554D01*
X95277007Y53410496D01*
X95253803Y53404684D01*
X95230142Y53401174D01*
X95206250Y53400000D01*
X94718750Y53400000D01*
X94694858Y53401174D01*
X94671197Y53404684D01*
X94647993Y53410496D01*
X94625471Y53418554D01*
X94603847Y53428782D01*
X94583330Y53441079D01*
X94564117Y53455329D01*
X94546393Y53471393D01*
X94530329Y53489117D01*
X94516079Y53508330D01*
X94503782Y53528847D01*
X94493554Y53550471D01*
X94485496Y53572993D01*
X94479684Y53596197D01*
X94476174Y53619858D01*
X94475000Y53643750D01*
X94475000Y54556250D01*
X94476174Y54580142D01*
X94479684Y54603803D01*
X94485496Y54627007D01*
X94493554Y54649529D01*
X94503782Y54671153D01*
X94516079Y54691670D01*
X94530329Y54710883D01*
X94546393Y54728607D01*
X94564117Y54744671D01*
X94583330Y54758921D01*
X94603847Y54771218D01*
X94625471Y54781446D01*
X94647993Y54789504D01*
X94671197Y54795316D01*
X94694858Y54798826D01*
X94718750Y54800000D01*
X95206250Y54800000D01*
X95230142Y54798826D01*
G37*
G04 #@! TD.AperFunction*
G04 #@! TA.AperFunction,SMDPad,CuDef*
G36*
X88480142Y52723826D02*
G01*
X88503803Y52720316D01*
X88527007Y52714504D01*
X88549529Y52706446D01*
X88571153Y52696218D01*
X88591670Y52683921D01*
X88610883Y52669671D01*
X88628607Y52653607D01*
X88644671Y52635883D01*
X88658921Y52616670D01*
X88671218Y52596153D01*
X88681446Y52574529D01*
X88689504Y52552007D01*
X88695316Y52528803D01*
X88698826Y52505142D01*
X88700000Y52481250D01*
X88700000Y51993750D01*
X88698826Y51969858D01*
X88695316Y51946197D01*
X88689504Y51922993D01*
X88681446Y51900471D01*
X88671218Y51878847D01*
X88658921Y51858330D01*
X88644671Y51839117D01*
X88628607Y51821393D01*
X88610883Y51805329D01*
X88591670Y51791079D01*
X88571153Y51778782D01*
X88549529Y51768554D01*
X88527007Y51760496D01*
X88503803Y51754684D01*
X88480142Y51751174D01*
X88456250Y51750000D01*
X87543750Y51750000D01*
X87519858Y51751174D01*
X87496197Y51754684D01*
X87472993Y51760496D01*
X87450471Y51768554D01*
X87428847Y51778782D01*
X87408330Y51791079D01*
X87389117Y51805329D01*
X87371393Y51821393D01*
X87355329Y51839117D01*
X87341079Y51858330D01*
X87328782Y51878847D01*
X87318554Y51900471D01*
X87310496Y51922993D01*
X87304684Y51946197D01*
X87301174Y51969858D01*
X87300000Y51993750D01*
X87300000Y52481250D01*
X87301174Y52505142D01*
X87304684Y52528803D01*
X87310496Y52552007D01*
X87318554Y52574529D01*
X87328782Y52596153D01*
X87341079Y52616670D01*
X87355329Y52635883D01*
X87371393Y52653607D01*
X87389117Y52669671D01*
X87408330Y52683921D01*
X87428847Y52696218D01*
X87450471Y52706446D01*
X87472993Y52714504D01*
X87496197Y52720316D01*
X87519858Y52723826D01*
X87543750Y52725000D01*
X88456250Y52725000D01*
X88480142Y52723826D01*
G37*
G04 #@! TD.AperFunction*
G04 #@! TA.AperFunction,SMDPad,CuDef*
G36*
X88480142Y50848826D02*
G01*
X88503803Y50845316D01*
X88527007Y50839504D01*
X88549529Y50831446D01*
X88571153Y50821218D01*
X88591670Y50808921D01*
X88610883Y50794671D01*
X88628607Y50778607D01*
X88644671Y50760883D01*
X88658921Y50741670D01*
X88671218Y50721153D01*
X88681446Y50699529D01*
X88689504Y50677007D01*
X88695316Y50653803D01*
X88698826Y50630142D01*
X88700000Y50606250D01*
X88700000Y50118750D01*
X88698826Y50094858D01*
X88695316Y50071197D01*
X88689504Y50047993D01*
X88681446Y50025471D01*
X88671218Y50003847D01*
X88658921Y49983330D01*
X88644671Y49964117D01*
X88628607Y49946393D01*
X88610883Y49930329D01*
X88591670Y49916079D01*
X88571153Y49903782D01*
X88549529Y49893554D01*
X88527007Y49885496D01*
X88503803Y49879684D01*
X88480142Y49876174D01*
X88456250Y49875000D01*
X87543750Y49875000D01*
X87519858Y49876174D01*
X87496197Y49879684D01*
X87472993Y49885496D01*
X87450471Y49893554D01*
X87428847Y49903782D01*
X87408330Y49916079D01*
X87389117Y49930329D01*
X87371393Y49946393D01*
X87355329Y49964117D01*
X87341079Y49983330D01*
X87328782Y50003847D01*
X87318554Y50025471D01*
X87310496Y50047993D01*
X87304684Y50071197D01*
X87301174Y50094858D01*
X87300000Y50118750D01*
X87300000Y50606250D01*
X87301174Y50630142D01*
X87304684Y50653803D01*
X87310496Y50677007D01*
X87318554Y50699529D01*
X87328782Y50721153D01*
X87341079Y50741670D01*
X87355329Y50760883D01*
X87371393Y50778607D01*
X87389117Y50794671D01*
X87408330Y50808921D01*
X87428847Y50821218D01*
X87450471Y50831446D01*
X87472993Y50839504D01*
X87496197Y50845316D01*
X87519858Y50848826D01*
X87543750Y50850000D01*
X88456250Y50850000D01*
X88480142Y50848826D01*
G37*
G04 #@! TD.AperFunction*
G04 #@! TA.AperFunction,SMDPad,CuDef*
G36*
X97105142Y64198826D02*
G01*
X97128803Y64195316D01*
X97152007Y64189504D01*
X97174529Y64181446D01*
X97196153Y64171218D01*
X97216670Y64158921D01*
X97235883Y64144671D01*
X97253607Y64128607D01*
X97269671Y64110883D01*
X97283921Y64091670D01*
X97296218Y64071153D01*
X97306446Y64049529D01*
X97314504Y64027007D01*
X97320316Y64003803D01*
X97323826Y63980142D01*
X97325000Y63956250D01*
X97325000Y63043750D01*
X97323826Y63019858D01*
X97320316Y62996197D01*
X97314504Y62972993D01*
X97306446Y62950471D01*
X97296218Y62928847D01*
X97283921Y62908330D01*
X97269671Y62889117D01*
X97253607Y62871393D01*
X97235883Y62855329D01*
X97216670Y62841079D01*
X97196153Y62828782D01*
X97174529Y62818554D01*
X97152007Y62810496D01*
X97128803Y62804684D01*
X97105142Y62801174D01*
X97081250Y62800000D01*
X96593750Y62800000D01*
X96569858Y62801174D01*
X96546197Y62804684D01*
X96522993Y62810496D01*
X96500471Y62818554D01*
X96478847Y62828782D01*
X96458330Y62841079D01*
X96439117Y62855329D01*
X96421393Y62871393D01*
X96405329Y62889117D01*
X96391079Y62908330D01*
X96378782Y62928847D01*
X96368554Y62950471D01*
X96360496Y62972993D01*
X96354684Y62996197D01*
X96351174Y63019858D01*
X96350000Y63043750D01*
X96350000Y63956250D01*
X96351174Y63980142D01*
X96354684Y64003803D01*
X96360496Y64027007D01*
X96368554Y64049529D01*
X96378782Y64071153D01*
X96391079Y64091670D01*
X96405329Y64110883D01*
X96421393Y64128607D01*
X96439117Y64144671D01*
X96458330Y64158921D01*
X96478847Y64171218D01*
X96500471Y64181446D01*
X96522993Y64189504D01*
X96546197Y64195316D01*
X96569858Y64198826D01*
X96593750Y64200000D01*
X97081250Y64200000D01*
X97105142Y64198826D01*
G37*
G04 #@! TD.AperFunction*
G04 #@! TA.AperFunction,SMDPad,CuDef*
G36*
X95230142Y64198826D02*
G01*
X95253803Y64195316D01*
X95277007Y64189504D01*
X95299529Y64181446D01*
X95321153Y64171218D01*
X95341670Y64158921D01*
X95360883Y64144671D01*
X95378607Y64128607D01*
X95394671Y64110883D01*
X95408921Y64091670D01*
X95421218Y64071153D01*
X95431446Y64049529D01*
X95439504Y64027007D01*
X95445316Y64003803D01*
X95448826Y63980142D01*
X95450000Y63956250D01*
X95450000Y63043750D01*
X95448826Y63019858D01*
X95445316Y62996197D01*
X95439504Y62972993D01*
X95431446Y62950471D01*
X95421218Y62928847D01*
X95408921Y62908330D01*
X95394671Y62889117D01*
X95378607Y62871393D01*
X95360883Y62855329D01*
X95341670Y62841079D01*
X95321153Y62828782D01*
X95299529Y62818554D01*
X95277007Y62810496D01*
X95253803Y62804684D01*
X95230142Y62801174D01*
X95206250Y62800000D01*
X94718750Y62800000D01*
X94694858Y62801174D01*
X94671197Y62804684D01*
X94647993Y62810496D01*
X94625471Y62818554D01*
X94603847Y62828782D01*
X94583330Y62841079D01*
X94564117Y62855329D01*
X94546393Y62871393D01*
X94530329Y62889117D01*
X94516079Y62908330D01*
X94503782Y62928847D01*
X94493554Y62950471D01*
X94485496Y62972993D01*
X94479684Y62996197D01*
X94476174Y63019858D01*
X94475000Y63043750D01*
X94475000Y63956250D01*
X94476174Y63980142D01*
X94479684Y64003803D01*
X94485496Y64027007D01*
X94493554Y64049529D01*
X94503782Y64071153D01*
X94516079Y64091670D01*
X94530329Y64110883D01*
X94546393Y64128607D01*
X94564117Y64144671D01*
X94583330Y64158921D01*
X94603847Y64171218D01*
X94625471Y64181446D01*
X94647993Y64189504D01*
X94671197Y64195316D01*
X94694858Y64198826D01*
X94718750Y64200000D01*
X95206250Y64200000D01*
X95230142Y64198826D01*
G37*
G04 #@! TD.AperFunction*
D12*
X100800000Y50600000D03*
D13*
X100800000Y48060000D03*
X100800000Y45520000D03*
X100800000Y42980000D03*
X100800000Y40440000D03*
X100800000Y37900000D03*
X100800000Y35360000D03*
X100800000Y32820000D03*
X100800000Y30280000D03*
X100800000Y27740000D03*
X100800000Y25200000D03*
X100800000Y22660000D03*
X100800000Y20120000D03*
X100800000Y17580000D03*
X100800000Y15040000D03*
X100800000Y12500000D03*
D12*
X96920000Y60500000D03*
D13*
X94380000Y60500000D03*
X91840000Y60500000D03*
X89300000Y60500000D03*
X89300000Y57000000D03*
X91840000Y57000000D03*
X94380000Y57000000D03*
D12*
X96920000Y57000000D03*
D15*
X85500000Y47800000D03*
X85000000Y47800000D03*
X84500000Y47800000D03*
X84000000Y47800000D03*
X83500000Y47800000D03*
X83500000Y52200000D03*
X84000000Y52200000D03*
X84500000Y52200000D03*
X85000000Y52200000D03*
X85500000Y52200000D03*
D16*
X93600000Y47300000D03*
X87200000Y40800000D03*
X93500000Y41200000D03*
X90100000Y37800000D03*
X92400000Y52000000D03*
X96700000Y37000000D03*
X95900000Y45600000D03*
X97400000Y27600000D03*
X93600000Y32300000D03*
X97800000Y45600000D03*
X94600000Y24600000D03*
X83300000Y41300000D03*
D17*
X98950000Y50600000D02*
X98600000Y50250000D01*
X100800000Y50600000D02*
X98950000Y50600000D01*
X98600000Y50250000D02*
X98600000Y48700000D01*
X98600000Y48700000D02*
X97700000Y47800000D01*
X97700000Y47800000D02*
X94200000Y47800000D01*
X94200000Y47800000D02*
X94100000Y47800000D01*
X94100000Y47800000D02*
X93600000Y47300000D01*
X93600000Y47300000D02*
X93600000Y47300000D01*
X85200000Y38800000D02*
X87200000Y40800000D01*
X85200000Y31320000D02*
X85200000Y38800000D01*
X90180000Y10220000D02*
X91500000Y8900000D01*
X90180000Y12980000D02*
X90180000Y10220000D01*
X90280000Y23700000D02*
X89148630Y23700000D01*
X88724315Y23275685D02*
X88724315Y21924315D01*
X89148630Y23700000D02*
X88724315Y23275685D01*
X88200000Y21400000D02*
X88200000Y21100000D01*
X88724315Y21924315D02*
X88200000Y21400000D01*
X88158189Y19858189D02*
X88158189Y19641811D01*
X88200000Y21100000D02*
X88158189Y19858189D01*
X88900000Y18900000D02*
X88900000Y14600000D01*
X88158189Y19641811D02*
X88900000Y18900000D01*
X88900000Y14600000D02*
X90180000Y12980000D01*
X100800000Y40440000D02*
X94260000Y40440000D01*
X94260000Y40440000D02*
X93500000Y41200000D01*
X93500000Y41200000D02*
X93500000Y41200000D01*
X90100000Y31500000D02*
X90280000Y31320000D01*
X90100000Y37800000D02*
X90100000Y31500000D01*
X83400000Y23700000D02*
X83100000Y23400000D01*
X85200000Y23700000D02*
X83400000Y23700000D01*
X83300000Y12980000D02*
X85100000Y12980000D01*
X83100000Y13180000D02*
X83300000Y12980000D01*
X83100000Y23400000D02*
X83100000Y13180000D01*
X89560000Y5940000D02*
X85100000Y10400000D01*
X94040000Y5940000D02*
X89560000Y5940000D01*
X85100000Y12980000D02*
X85100000Y10400000D01*
X94040000Y5940000D02*
X94040000Y8900000D01*
X90660000Y20120000D02*
X90180000Y20600000D01*
X100800000Y20120000D02*
X90660000Y20120000D01*
X85100000Y20600000D02*
X86200000Y21700000D01*
X86200000Y21700000D02*
X86400000Y21700000D01*
X86400000Y21700000D02*
X87300000Y22600000D01*
X87300000Y22600000D02*
X87300000Y24300000D01*
X87300000Y24300000D02*
X89000000Y26000000D01*
X89000000Y26000000D02*
X91000000Y26000000D01*
X95280000Y30280000D02*
X100800000Y30280000D01*
X91000000Y26000000D02*
X95280000Y30280000D01*
X96920000Y60500000D02*
X96920000Y57000000D01*
D18*
X85500000Y52200000D02*
X85500000Y50500000D01*
X85500000Y50500000D02*
X85800000Y50200000D01*
D17*
X86123027Y49876973D02*
X85800000Y50200000D01*
X87514473Y49876973D02*
X86123027Y49876973D01*
X88000000Y50362500D02*
X87514473Y49876973D01*
X96920000Y54182500D02*
X96837500Y54100000D01*
X96920000Y57000000D02*
X96920000Y54182500D01*
X96920000Y63417500D02*
X96837500Y63500000D01*
X96920000Y60500000D02*
X96920000Y63417500D01*
X88700000Y50362500D02*
X89062500Y50000000D01*
X88000000Y50362500D02*
X88700000Y50362500D01*
X89062500Y50000000D02*
X96500000Y50000000D01*
X96837500Y50337500D02*
X96500000Y50000000D01*
X96837500Y54100000D02*
X96837500Y50337500D01*
X100800000Y45520000D02*
X102920000Y45520000D01*
X102920000Y45520000D02*
X103500000Y44940000D01*
X103500000Y44940000D02*
X103500000Y36300000D01*
X102560000Y35360000D02*
X100800000Y35360000D01*
X103500000Y36300000D02*
X102560000Y35360000D01*
X102560000Y35360000D02*
X102560000Y35340000D01*
X102560000Y35340000D02*
X103500000Y34400000D01*
X103500000Y34400000D02*
X103500000Y26500000D01*
X102200000Y25200000D02*
X100800000Y25200000D01*
X103500000Y26500000D02*
X102200000Y25200000D01*
X102540000Y15040000D02*
X100800000Y15040000D01*
X103300000Y15800000D02*
X102540000Y15040000D01*
X103300000Y24000000D02*
X103300000Y15800000D01*
X102200000Y25100000D02*
X103300000Y24000000D01*
X102200000Y25200000D02*
X102200000Y25100000D01*
X103500000Y55900000D02*
X103500000Y44940000D01*
X102400000Y57000000D02*
X103500000Y55900000D01*
X96920000Y57000000D02*
X102400000Y57000000D01*
X94380000Y60500000D02*
X94380000Y57000000D01*
D18*
X84500000Y52200000D02*
X84500000Y53800000D01*
X85000000Y52200000D02*
X84700000Y52200000D01*
X84700000Y52200000D02*
X84500000Y52200000D01*
X94380000Y62917500D02*
X94962500Y63500000D01*
X94380000Y60500000D02*
X94380000Y62917500D01*
X94380000Y54682500D02*
X94962500Y54100000D01*
X84500000Y53800000D02*
X93100000Y53800000D01*
X93100000Y53800000D02*
X94300000Y55000000D01*
X94300000Y55000000D02*
X94380000Y54682500D01*
X94380000Y57000000D02*
X94300000Y55000000D01*
X83500000Y48800000D02*
X83500000Y47800000D01*
X83500000Y50200000D02*
X83500000Y48800000D01*
X84500000Y51200000D02*
X83500000Y50200000D01*
X84500000Y52200000D02*
X84500000Y51200000D01*
X97200000Y45600000D02*
X97200000Y45600000D01*
X88000000Y52237500D02*
X92162500Y52237500D01*
X92162500Y52237500D02*
X92400000Y52000000D01*
X92400000Y52000000D02*
X92400000Y52000000D01*
X100800000Y27740000D02*
X97540000Y27740000D01*
X97540000Y27740000D02*
X97400000Y27600000D01*
X97400000Y27600000D02*
X97400000Y27600000D01*
X98340000Y45600000D02*
X97800000Y45600000D01*
X100800000Y48060000D02*
X98340000Y45600000D01*
X85500000Y46700000D02*
X85500000Y47800000D01*
X86100000Y46100000D02*
X85500000Y46700000D01*
D17*
X94920000Y42980000D02*
X100800000Y42980000D01*
X91800000Y46100000D02*
X94920000Y42980000D01*
X86100000Y46100000D02*
X91800000Y46100000D01*
D18*
X85000000Y47800000D02*
X85000000Y45100000D01*
X85000000Y45100000D02*
X85000000Y45000000D01*
X85000000Y45000000D02*
X85600000Y44400000D01*
D17*
X92700000Y37400000D02*
X92700000Y37400000D01*
X86600000Y44400000D02*
X85600000Y44400000D01*
X92700000Y38300000D02*
X86600000Y44400000D01*
X92700000Y37400000D02*
X92700000Y38300000D01*
X97280000Y32820000D02*
X92700000Y37400000D01*
X100800000Y32820000D02*
X97280000Y32820000D01*
X100800000Y22660000D02*
X96540000Y22660000D01*
X96540000Y22660000D02*
X94600000Y24600000D01*
X94600000Y24600000D02*
X94600000Y24600000D01*
X83300000Y42714213D02*
X83685787Y43100000D01*
X83300000Y41300000D02*
X83300000Y42714213D01*
D18*
X84500000Y43914213D02*
X83685787Y43100000D01*
X84500000Y47800000D02*
X84500000Y43914213D01*
X84000000Y47800000D02*
X84000000Y46400000D01*
X84000000Y46400000D02*
X83300000Y45700000D01*
D17*
X83200000Y45700000D02*
X83300000Y45700000D01*
X80725010Y43225010D02*
X83200000Y45700000D01*
X80725010Y7874990D02*
X80725010Y43225010D01*
X84325010Y7874990D02*
X80725010Y7874990D01*
X96000000Y2700000D02*
X89500000Y2700000D01*
X89500000Y2700000D02*
X84325010Y7874990D01*
X100800000Y7500000D02*
X96000000Y2700000D01*
X100800000Y12500000D02*
X100800000Y7500000D01*
X91840000Y60500000D02*
X91840000Y57000000D01*
D18*
X83500000Y52200000D02*
X83500000Y53900000D01*
X83500000Y53900000D02*
X83500000Y54200000D01*
X83500000Y54200000D02*
X82800000Y54900000D01*
D17*
X91840000Y61702081D02*
X90542081Y63000000D01*
X91840000Y60500000D02*
X91840000Y61702081D01*
X90542081Y63000000D02*
X88600000Y63000000D01*
X88600000Y63000000D02*
X87100000Y61500000D01*
X87100000Y61500000D02*
X87100000Y58600000D01*
X87100000Y58600000D02*
X85600000Y57100000D01*
X85600000Y57100000D02*
X82900000Y57100000D01*
X82800000Y57000000D02*
X82800000Y54900000D01*
X82900000Y57100000D02*
X82800000Y57000000D01*
X89300000Y60500000D02*
X89300000Y57000000D01*
D18*
X84000000Y52200000D02*
X84000000Y54500000D01*
X84000000Y54500000D02*
X84700000Y55200000D01*
D17*
X87500000Y55200000D02*
X89300000Y57000000D01*
X84700000Y55200000D02*
X87500000Y55200000D01*
D19*
G36*
X85163553Y43346324D02*
G01*
X85377501Y43281423D01*
X85544248Y43265000D01*
X86129869Y43265000D01*
X86972992Y42421877D01*
X86723088Y42372168D01*
X86425537Y42248918D01*
X86157748Y42069987D01*
X85930013Y41842252D01*
X85751082Y41574463D01*
X85627832Y41276912D01*
X85565000Y40961033D01*
X85565000Y40770132D01*
X84436860Y39641991D01*
X84393552Y39606449D01*
X84251717Y39433623D01*
X84195384Y39328230D01*
X84146324Y39236446D01*
X84081423Y39022498D01*
X84059509Y38800000D01*
X84065001Y38744239D01*
X84065000Y32204284D01*
X83928320Y31999727D01*
X83820147Y31738574D01*
X83765000Y31461335D01*
X83765000Y31178665D01*
X83820147Y30901426D01*
X83928320Y30640273D01*
X84085363Y30405241D01*
X84285241Y30205363D01*
X84520273Y30048320D01*
X84781426Y29940147D01*
X85058665Y29885000D01*
X85341335Y29885000D01*
X85618574Y29940147D01*
X85879727Y30048320D01*
X86114759Y30205363D01*
X86314637Y30405241D01*
X86471680Y30640273D01*
X86579853Y30901426D01*
X86635000Y31178665D01*
X86635000Y31461335D01*
X86579853Y31738574D01*
X86471680Y31999727D01*
X86335000Y32204284D01*
X86335000Y38329869D01*
X87170132Y39165000D01*
X87361033Y39165000D01*
X87676912Y39227832D01*
X87974463Y39351082D01*
X88242252Y39530013D01*
X88469987Y39757748D01*
X88648918Y40025537D01*
X88772168Y40323088D01*
X88821877Y40572991D01*
X89959868Y39435000D01*
X89938967Y39435000D01*
X89623088Y39372168D01*
X89325537Y39248918D01*
X89057748Y39069987D01*
X88830013Y38842252D01*
X88651082Y38574463D01*
X88527832Y38276912D01*
X88465000Y37961033D01*
X88465000Y37638967D01*
X88527832Y37323088D01*
X88651082Y37025537D01*
X88830013Y36757748D01*
X88965000Y36622761D01*
X88965001Y31895145D01*
X88900147Y31738574D01*
X88845000Y31461335D01*
X88845000Y31178665D01*
X88900147Y30901426D01*
X89008320Y30640273D01*
X89165363Y30405241D01*
X89365241Y30205363D01*
X89600273Y30048320D01*
X89861426Y29940147D01*
X90138665Y29885000D01*
X90421335Y29885000D01*
X90698574Y29940147D01*
X90959727Y30048320D01*
X91194759Y30205363D01*
X91394637Y30405241D01*
X91551680Y30640273D01*
X91659853Y30901426D01*
X91715000Y31178665D01*
X91715000Y31461335D01*
X91659853Y31738574D01*
X91551680Y31999727D01*
X91394637Y32234759D01*
X91235000Y32394396D01*
X91235000Y36622761D01*
X91369987Y36757748D01*
X91548918Y37025537D01*
X91594292Y37135079D01*
X91646324Y36963553D01*
X91740195Y36787932D01*
X91751716Y36766377D01*
X91893551Y36593551D01*
X91936865Y36558004D01*
X96438009Y32056859D01*
X96473551Y32013551D01*
X96646377Y31871716D01*
X96843553Y31766324D01*
X96988027Y31722498D01*
X97057500Y31701423D01*
X97279999Y31679509D01*
X97335751Y31685000D01*
X99834893Y31685000D01*
X99853368Y31666525D01*
X100027760Y31550000D01*
X99853368Y31433475D01*
X99834893Y31415000D01*
X95335751Y31415000D01*
X95279999Y31420491D01*
X95224248Y31415000D01*
X95057501Y31398577D01*
X94843553Y31333676D01*
X94646377Y31228284D01*
X94473551Y31086449D01*
X94438009Y31043141D01*
X90529869Y27135000D01*
X89055751Y27135000D01*
X88999999Y27140491D01*
X88944248Y27135000D01*
X88777501Y27118577D01*
X88563553Y27053676D01*
X88366377Y26948284D01*
X88193551Y26806449D01*
X88158011Y26763143D01*
X86536860Y25141991D01*
X86493552Y25106449D01*
X86400361Y24992895D01*
X86354494Y25030537D01*
X86244180Y25089502D01*
X86124482Y25125812D01*
X86000000Y25138072D01*
X84400000Y25138072D01*
X84275518Y25125812D01*
X84155820Y25089502D01*
X84045506Y25030537D01*
X83948815Y24951185D01*
X83869463Y24854494D01*
X83859043Y24835000D01*
X83455751Y24835000D01*
X83399999Y24840491D01*
X83344248Y24835000D01*
X83177501Y24818577D01*
X82963553Y24753676D01*
X82766377Y24648284D01*
X82593551Y24506449D01*
X82558004Y24463135D01*
X82336865Y24241996D01*
X82293551Y24206449D01*
X82151716Y24033623D01*
X82048937Y23841335D01*
X82046324Y23836446D01*
X81981423Y23622498D01*
X81959509Y23400000D01*
X81965000Y23344248D01*
X81965001Y13235761D01*
X81959509Y13180000D01*
X81981423Y12957502D01*
X82046324Y12743554D01*
X82057579Y12722498D01*
X82151717Y12546377D01*
X82293552Y12373551D01*
X82336859Y12338010D01*
X82458007Y12216861D01*
X82493551Y12173551D01*
X82666377Y12031716D01*
X82863553Y11926324D01*
X83077501Y11861423D01*
X83244248Y11845000D01*
X83244249Y11845000D01*
X83300000Y11839509D01*
X83355752Y11845000D01*
X83759043Y11845000D01*
X83769463Y11825506D01*
X83848815Y11728815D01*
X83945506Y11649463D01*
X83965001Y11639043D01*
X83965001Y10455761D01*
X83959509Y10400000D01*
X83981423Y10177502D01*
X84046324Y9963554D01*
X84046325Y9963553D01*
X84151717Y9766377D01*
X84293552Y9593551D01*
X84336860Y9558009D01*
X88718009Y5176859D01*
X88753551Y5133551D01*
X88926377Y4991716D01*
X89123553Y4886324D01*
X89337501Y4821423D01*
X89504248Y4805000D01*
X89504257Y4805000D01*
X89559999Y4799510D01*
X89615741Y4805000D01*
X93984248Y4805000D01*
X94040000Y4799509D01*
X94095751Y4805000D01*
X94095752Y4805000D01*
X94262499Y4821423D01*
X94476447Y4886324D01*
X94673623Y4991716D01*
X94846449Y5133551D01*
X94988284Y5306377D01*
X95093676Y5503553D01*
X95158577Y5717501D01*
X95180491Y5940000D01*
X95175000Y5995752D01*
X95175000Y7934893D01*
X95193475Y7953368D01*
X95355990Y8196589D01*
X95467932Y8466842D01*
X95525000Y8753740D01*
X95525000Y9046260D01*
X95467932Y9333158D01*
X95355990Y9603411D01*
X95193475Y9846632D01*
X94986632Y10053475D01*
X94743411Y10215990D01*
X94473158Y10327932D01*
X94186260Y10385000D01*
X93893740Y10385000D01*
X93606842Y10327932D01*
X93336589Y10215990D01*
X93093368Y10053475D01*
X92961513Y9921620D01*
X92939502Y9994180D01*
X92880537Y10104494D01*
X92801185Y10201185D01*
X92704494Y10280537D01*
X92594180Y10339502D01*
X92474482Y10375812D01*
X92350000Y10388072D01*
X91617059Y10388072D01*
X91315000Y10690131D01*
X91315000Y12095716D01*
X91451680Y12300273D01*
X91559853Y12561426D01*
X91615000Y12838665D01*
X91615000Y13121335D01*
X91559853Y13398574D01*
X91451680Y13659727D01*
X91294637Y13894759D01*
X91094759Y14094637D01*
X90859727Y14251680D01*
X90598574Y14359853D01*
X90524662Y14374555D01*
X90035000Y14994283D01*
X90035000Y18844257D01*
X90040490Y18900001D01*
X90035000Y18955745D01*
X90035000Y18955752D01*
X90018577Y19122499D01*
X90003566Y19171982D01*
X90038665Y19165000D01*
X90038942Y19165000D01*
X90199213Y19079334D01*
X90223553Y19066324D01*
X90437501Y19001423D01*
X90660000Y18979509D01*
X90715752Y18985000D01*
X99834893Y18985000D01*
X99853368Y18966525D01*
X100035534Y18844805D01*
X99918645Y18775178D01*
X99702412Y18580269D01*
X99528359Y18346920D01*
X99403175Y18084099D01*
X99358524Y17936890D01*
X99479845Y17707000D01*
X100673000Y17707000D01*
X100673000Y17727000D01*
X100927000Y17727000D01*
X100927000Y17707000D01*
X100947000Y17707000D01*
X100947000Y17453000D01*
X100927000Y17453000D01*
X100927000Y17433000D01*
X100673000Y17433000D01*
X100673000Y17453000D01*
X99479845Y17453000D01*
X99358524Y17223110D01*
X99403175Y17075901D01*
X99528359Y16813080D01*
X99702412Y16579731D01*
X99918645Y16384822D01*
X100035534Y16315195D01*
X99853368Y16193475D01*
X99646525Y15986632D01*
X99484010Y15743411D01*
X99372068Y15473158D01*
X99315000Y15186260D01*
X99315000Y14893740D01*
X99372068Y14606842D01*
X99484010Y14336589D01*
X99646525Y14093368D01*
X99853368Y13886525D01*
X100027760Y13770000D01*
X99853368Y13653475D01*
X99646525Y13446632D01*
X99484010Y13203411D01*
X99372068Y12933158D01*
X99315000Y12646260D01*
X99315000Y12353740D01*
X99372068Y12066842D01*
X99484010Y11796589D01*
X99646525Y11553368D01*
X99665000Y11534893D01*
X99665001Y7970133D01*
X95529869Y3835000D01*
X89970132Y3835000D01*
X85167006Y8638125D01*
X85131459Y8681439D01*
X84958633Y8823274D01*
X84761457Y8928666D01*
X84547509Y8993567D01*
X84380762Y9009990D01*
X84380761Y9009990D01*
X84325010Y9015481D01*
X84269259Y9009990D01*
X81860010Y9009990D01*
X81860010Y40512175D01*
X82030013Y40257748D01*
X82257748Y40030013D01*
X82525537Y39851082D01*
X82823088Y39727832D01*
X83138967Y39665000D01*
X83461033Y39665000D01*
X83776912Y39727832D01*
X84074463Y39851082D01*
X84342252Y40030013D01*
X84569987Y40257748D01*
X84748918Y40525537D01*
X84872168Y40823088D01*
X84935000Y41138967D01*
X84935000Y41461033D01*
X84872168Y41776912D01*
X84748918Y42074463D01*
X84569987Y42342252D01*
X84549234Y42363005D01*
X84634070Y42466378D01*
X84739462Y42663554D01*
X84804364Y42877500D01*
X84826277Y43099999D01*
X84823557Y43127613D01*
X85027815Y43331870D01*
X85057764Y43356449D01*
X85084244Y43388715D01*
X85163553Y43346324D01*
G37*
X85163553Y43346324D02*
X85377501Y43281423D01*
X85544248Y43265000D01*
X86129869Y43265000D01*
X86972992Y42421877D01*
X86723088Y42372168D01*
X86425537Y42248918D01*
X86157748Y42069987D01*
X85930013Y41842252D01*
X85751082Y41574463D01*
X85627832Y41276912D01*
X85565000Y40961033D01*
X85565000Y40770132D01*
X84436860Y39641991D01*
X84393552Y39606449D01*
X84251717Y39433623D01*
X84195384Y39328230D01*
X84146324Y39236446D01*
X84081423Y39022498D01*
X84059509Y38800000D01*
X84065001Y38744239D01*
X84065000Y32204284D01*
X83928320Y31999727D01*
X83820147Y31738574D01*
X83765000Y31461335D01*
X83765000Y31178665D01*
X83820147Y30901426D01*
X83928320Y30640273D01*
X84085363Y30405241D01*
X84285241Y30205363D01*
X84520273Y30048320D01*
X84781426Y29940147D01*
X85058665Y29885000D01*
X85341335Y29885000D01*
X85618574Y29940147D01*
X85879727Y30048320D01*
X86114759Y30205363D01*
X86314637Y30405241D01*
X86471680Y30640273D01*
X86579853Y30901426D01*
X86635000Y31178665D01*
X86635000Y31461335D01*
X86579853Y31738574D01*
X86471680Y31999727D01*
X86335000Y32204284D01*
X86335000Y38329869D01*
X87170132Y39165000D01*
X87361033Y39165000D01*
X87676912Y39227832D01*
X87974463Y39351082D01*
X88242252Y39530013D01*
X88469987Y39757748D01*
X88648918Y40025537D01*
X88772168Y40323088D01*
X88821877Y40572991D01*
X89959868Y39435000D01*
X89938967Y39435000D01*
X89623088Y39372168D01*
X89325537Y39248918D01*
X89057748Y39069987D01*
X88830013Y38842252D01*
X88651082Y38574463D01*
X88527832Y38276912D01*
X88465000Y37961033D01*
X88465000Y37638967D01*
X88527832Y37323088D01*
X88651082Y37025537D01*
X88830013Y36757748D01*
X88965000Y36622761D01*
X88965001Y31895145D01*
X88900147Y31738574D01*
X88845000Y31461335D01*
X88845000Y31178665D01*
X88900147Y30901426D01*
X89008320Y30640273D01*
X89165363Y30405241D01*
X89365241Y30205363D01*
X89600273Y30048320D01*
X89861426Y29940147D01*
X90138665Y29885000D01*
X90421335Y29885000D01*
X90698574Y29940147D01*
X90959727Y30048320D01*
X91194759Y30205363D01*
X91394637Y30405241D01*
X91551680Y30640273D01*
X91659853Y30901426D01*
X91715000Y31178665D01*
X91715000Y31461335D01*
X91659853Y31738574D01*
X91551680Y31999727D01*
X91394637Y32234759D01*
X91235000Y32394396D01*
X91235000Y36622761D01*
X91369987Y36757748D01*
X91548918Y37025537D01*
X91594292Y37135079D01*
X91646324Y36963553D01*
X91740195Y36787932D01*
X91751716Y36766377D01*
X91893551Y36593551D01*
X91936865Y36558004D01*
X96438009Y32056859D01*
X96473551Y32013551D01*
X96646377Y31871716D01*
X96843553Y31766324D01*
X96988027Y31722498D01*
X97057500Y31701423D01*
X97279999Y31679509D01*
X97335751Y31685000D01*
X99834893Y31685000D01*
X99853368Y31666525D01*
X100027760Y31550000D01*
X99853368Y31433475D01*
X99834893Y31415000D01*
X95335751Y31415000D01*
X95279999Y31420491D01*
X95224248Y31415000D01*
X95057501Y31398577D01*
X94843553Y31333676D01*
X94646377Y31228284D01*
X94473551Y31086449D01*
X94438009Y31043141D01*
X90529869Y27135000D01*
X89055751Y27135000D01*
X88999999Y27140491D01*
X88944248Y27135000D01*
X88777501Y27118577D01*
X88563553Y27053676D01*
X88366377Y26948284D01*
X88193551Y26806449D01*
X88158011Y26763143D01*
X86536860Y25141991D01*
X86493552Y25106449D01*
X86400361Y24992895D01*
X86354494Y25030537D01*
X86244180Y25089502D01*
X86124482Y25125812D01*
X86000000Y25138072D01*
X84400000Y25138072D01*
X84275518Y25125812D01*
X84155820Y25089502D01*
X84045506Y25030537D01*
X83948815Y24951185D01*
X83869463Y24854494D01*
X83859043Y24835000D01*
X83455751Y24835000D01*
X83399999Y24840491D01*
X83344248Y24835000D01*
X83177501Y24818577D01*
X82963553Y24753676D01*
X82766377Y24648284D01*
X82593551Y24506449D01*
X82558004Y24463135D01*
X82336865Y24241996D01*
X82293551Y24206449D01*
X82151716Y24033623D01*
X82048937Y23841335D01*
X82046324Y23836446D01*
X81981423Y23622498D01*
X81959509Y23400000D01*
X81965000Y23344248D01*
X81965001Y13235761D01*
X81959509Y13180000D01*
X81981423Y12957502D01*
X82046324Y12743554D01*
X82057579Y12722498D01*
X82151717Y12546377D01*
X82293552Y12373551D01*
X82336859Y12338010D01*
X82458007Y12216861D01*
X82493551Y12173551D01*
X82666377Y12031716D01*
X82863553Y11926324D01*
X83077501Y11861423D01*
X83244248Y11845000D01*
X83244249Y11845000D01*
X83300000Y11839509D01*
X83355752Y11845000D01*
X83759043Y11845000D01*
X83769463Y11825506D01*
X83848815Y11728815D01*
X83945506Y11649463D01*
X83965001Y11639043D01*
X83965001Y10455761D01*
X83959509Y10400000D01*
X83981423Y10177502D01*
X84046324Y9963554D01*
X84046325Y9963553D01*
X84151717Y9766377D01*
X84293552Y9593551D01*
X84336860Y9558009D01*
X88718009Y5176859D01*
X88753551Y5133551D01*
X88926377Y4991716D01*
X89123553Y4886324D01*
X89337501Y4821423D01*
X89504248Y4805000D01*
X89504257Y4805000D01*
X89559999Y4799510D01*
X89615741Y4805000D01*
X93984248Y4805000D01*
X94040000Y4799509D01*
X94095751Y4805000D01*
X94095752Y4805000D01*
X94262499Y4821423D01*
X94476447Y4886324D01*
X94673623Y4991716D01*
X94846449Y5133551D01*
X94988284Y5306377D01*
X95093676Y5503553D01*
X95158577Y5717501D01*
X95180491Y5940000D01*
X95175000Y5995752D01*
X95175000Y7934893D01*
X95193475Y7953368D01*
X95355990Y8196589D01*
X95467932Y8466842D01*
X95525000Y8753740D01*
X95525000Y9046260D01*
X95467932Y9333158D01*
X95355990Y9603411D01*
X95193475Y9846632D01*
X94986632Y10053475D01*
X94743411Y10215990D01*
X94473158Y10327932D01*
X94186260Y10385000D01*
X93893740Y10385000D01*
X93606842Y10327932D01*
X93336589Y10215990D01*
X93093368Y10053475D01*
X92961513Y9921620D01*
X92939502Y9994180D01*
X92880537Y10104494D01*
X92801185Y10201185D01*
X92704494Y10280537D01*
X92594180Y10339502D01*
X92474482Y10375812D01*
X92350000Y10388072D01*
X91617059Y10388072D01*
X91315000Y10690131D01*
X91315000Y12095716D01*
X91451680Y12300273D01*
X91559853Y12561426D01*
X91615000Y12838665D01*
X91615000Y13121335D01*
X91559853Y13398574D01*
X91451680Y13659727D01*
X91294637Y13894759D01*
X91094759Y14094637D01*
X90859727Y14251680D01*
X90598574Y14359853D01*
X90524662Y14374555D01*
X90035000Y14994283D01*
X90035000Y18844257D01*
X90040490Y18900001D01*
X90035000Y18955745D01*
X90035000Y18955752D01*
X90018577Y19122499D01*
X90003566Y19171982D01*
X90038665Y19165000D01*
X90038942Y19165000D01*
X90199213Y19079334D01*
X90223553Y19066324D01*
X90437501Y19001423D01*
X90660000Y18979509D01*
X90715752Y18985000D01*
X99834893Y18985000D01*
X99853368Y18966525D01*
X100035534Y18844805D01*
X99918645Y18775178D01*
X99702412Y18580269D01*
X99528359Y18346920D01*
X99403175Y18084099D01*
X99358524Y17936890D01*
X99479845Y17707000D01*
X100673000Y17707000D01*
X100673000Y17727000D01*
X100927000Y17727000D01*
X100927000Y17707000D01*
X100947000Y17707000D01*
X100947000Y17453000D01*
X100927000Y17453000D01*
X100927000Y17433000D01*
X100673000Y17433000D01*
X100673000Y17453000D01*
X99479845Y17453000D01*
X99358524Y17223110D01*
X99403175Y17075901D01*
X99528359Y16813080D01*
X99702412Y16579731D01*
X99918645Y16384822D01*
X100035534Y16315195D01*
X99853368Y16193475D01*
X99646525Y15986632D01*
X99484010Y15743411D01*
X99372068Y15473158D01*
X99315000Y15186260D01*
X99315000Y14893740D01*
X99372068Y14606842D01*
X99484010Y14336589D01*
X99646525Y14093368D01*
X99853368Y13886525D01*
X100027760Y13770000D01*
X99853368Y13653475D01*
X99646525Y13446632D01*
X99484010Y13203411D01*
X99372068Y12933158D01*
X99315000Y12646260D01*
X99315000Y12353740D01*
X99372068Y12066842D01*
X99484010Y11796589D01*
X99646525Y11553368D01*
X99665000Y11534893D01*
X99665001Y7970133D01*
X95529869Y3835000D01*
X89970132Y3835000D01*
X85167006Y8638125D01*
X85131459Y8681439D01*
X84958633Y8823274D01*
X84761457Y8928666D01*
X84547509Y8993567D01*
X84380762Y9009990D01*
X84380761Y9009990D01*
X84325010Y9015481D01*
X84269259Y9009990D01*
X81860010Y9009990D01*
X81860010Y40512175D01*
X82030013Y40257748D01*
X82257748Y40030013D01*
X82525537Y39851082D01*
X82823088Y39727832D01*
X83138967Y39665000D01*
X83461033Y39665000D01*
X83776912Y39727832D01*
X84074463Y39851082D01*
X84342252Y40030013D01*
X84569987Y40257748D01*
X84748918Y40525537D01*
X84872168Y40823088D01*
X84935000Y41138967D01*
X84935000Y41461033D01*
X84872168Y41776912D01*
X84748918Y42074463D01*
X84569987Y42342252D01*
X84549234Y42363005D01*
X84634070Y42466378D01*
X84739462Y42663554D01*
X84804364Y42877500D01*
X84826277Y43099999D01*
X84823557Y43127613D01*
X85027815Y43331870D01*
X85057764Y43356449D01*
X85084244Y43388715D01*
X85163553Y43346324D01*
G36*
X102365000Y33929868D02*
G01*
X102365001Y26970133D01*
X101747488Y26352619D01*
X101746632Y26353475D01*
X101564466Y26475195D01*
X101681355Y26544822D01*
X101897588Y26739731D01*
X102071641Y26973080D01*
X102196825Y27235901D01*
X102241476Y27383110D01*
X102120155Y27613000D01*
X100927000Y27613000D01*
X100927000Y27593000D01*
X100673000Y27593000D01*
X100673000Y27613000D01*
X99479845Y27613000D01*
X99358524Y27383110D01*
X99403175Y27235901D01*
X99528359Y26973080D01*
X99702412Y26739731D01*
X99918645Y26544822D01*
X100035534Y26475195D01*
X99853368Y26353475D01*
X99646525Y26146632D01*
X99484010Y25903411D01*
X99372068Y25633158D01*
X99315000Y25346260D01*
X99315000Y25053740D01*
X99372068Y24766842D01*
X99484010Y24496589D01*
X99646525Y24253368D01*
X99853368Y24046525D01*
X100027760Y23930000D01*
X99853368Y23813475D01*
X99834893Y23795000D01*
X97010132Y23795000D01*
X96235000Y24570131D01*
X96235000Y24761033D01*
X96172168Y25076912D01*
X96048918Y25374463D01*
X95869987Y25642252D01*
X95642252Y25869987D01*
X95374463Y26048918D01*
X95076912Y26172168D01*
X94761033Y26235000D01*
X94438967Y26235000D01*
X94123088Y26172168D01*
X93825537Y26048918D01*
X93557748Y25869987D01*
X93330013Y25642252D01*
X93151082Y25374463D01*
X93027832Y25076912D01*
X92965000Y24761033D01*
X92965000Y24438967D01*
X93027832Y24123088D01*
X93151082Y23825537D01*
X93330013Y23557748D01*
X93557748Y23330013D01*
X93825537Y23151082D01*
X94123088Y23027832D01*
X94438967Y22965000D01*
X94629869Y22965000D01*
X95698009Y21896859D01*
X95733551Y21853551D01*
X95906377Y21711716D01*
X96103553Y21606324D01*
X96317501Y21541423D01*
X96484248Y21525000D01*
X96484257Y21525000D01*
X96539999Y21519510D01*
X96595741Y21525000D01*
X99834893Y21525000D01*
X99853368Y21506525D01*
X100027760Y21390000D01*
X99853368Y21273475D01*
X99834893Y21255000D01*
X91461922Y21255000D01*
X91451680Y21279727D01*
X91294637Y21514759D01*
X91094759Y21714637D01*
X90859727Y21871680D01*
X90598574Y21979853D01*
X90321335Y22035000D01*
X90038665Y22035000D01*
X89859315Y21999325D01*
X89859315Y22321021D01*
X89861426Y22320147D01*
X90138665Y22265000D01*
X90421335Y22265000D01*
X90698574Y22320147D01*
X90959727Y22428320D01*
X91194759Y22585363D01*
X91394637Y22785241D01*
X91551680Y23020273D01*
X91659853Y23281426D01*
X91715000Y23558665D01*
X91715000Y23841335D01*
X91659853Y24118574D01*
X91551680Y24379727D01*
X91394637Y24614759D01*
X91194759Y24814637D01*
X91111211Y24870462D01*
X91222499Y24881423D01*
X91436447Y24946324D01*
X91633623Y25051716D01*
X91806449Y25193551D01*
X91841996Y25236865D01*
X95750132Y29145000D01*
X99834893Y29145000D01*
X99853368Y29126525D01*
X100035534Y29004805D01*
X99918645Y28935178D01*
X99702412Y28740269D01*
X99528359Y28506920D01*
X99403175Y28244099D01*
X99358524Y28096890D01*
X99479845Y27867000D01*
X100673000Y27867000D01*
X100673000Y27887000D01*
X100927000Y27887000D01*
X100927000Y27867000D01*
X102120155Y27867000D01*
X102241476Y28096890D01*
X102196825Y28244099D01*
X102071641Y28506920D01*
X101897588Y28740269D01*
X101681355Y28935178D01*
X101564466Y29004805D01*
X101746632Y29126525D01*
X101953475Y29333368D01*
X102115990Y29576589D01*
X102227932Y29846842D01*
X102285000Y30133740D01*
X102285000Y30426260D01*
X102227932Y30713158D01*
X102115990Y30983411D01*
X101953475Y31226632D01*
X101746632Y31433475D01*
X101572240Y31550000D01*
X101746632Y31666525D01*
X101953475Y31873368D01*
X102115990Y32116589D01*
X102227932Y32386842D01*
X102285000Y32673740D01*
X102285000Y32966260D01*
X102227932Y33253158D01*
X102115990Y33523411D01*
X101953475Y33766632D01*
X101746632Y33973475D01*
X101572240Y34090000D01*
X101746632Y34206525D01*
X101765107Y34225000D01*
X102069869Y34225000D01*
X102365000Y33929868D01*
G37*
X102365000Y33929868D02*
X102365001Y26970133D01*
X101747488Y26352619D01*
X101746632Y26353475D01*
X101564466Y26475195D01*
X101681355Y26544822D01*
X101897588Y26739731D01*
X102071641Y26973080D01*
X102196825Y27235901D01*
X102241476Y27383110D01*
X102120155Y27613000D01*
X100927000Y27613000D01*
X100927000Y27593000D01*
X100673000Y27593000D01*
X100673000Y27613000D01*
X99479845Y27613000D01*
X99358524Y27383110D01*
X99403175Y27235901D01*
X99528359Y26973080D01*
X99702412Y26739731D01*
X99918645Y26544822D01*
X100035534Y26475195D01*
X99853368Y26353475D01*
X99646525Y26146632D01*
X99484010Y25903411D01*
X99372068Y25633158D01*
X99315000Y25346260D01*
X99315000Y25053740D01*
X99372068Y24766842D01*
X99484010Y24496589D01*
X99646525Y24253368D01*
X99853368Y24046525D01*
X100027760Y23930000D01*
X99853368Y23813475D01*
X99834893Y23795000D01*
X97010132Y23795000D01*
X96235000Y24570131D01*
X96235000Y24761033D01*
X96172168Y25076912D01*
X96048918Y25374463D01*
X95869987Y25642252D01*
X95642252Y25869987D01*
X95374463Y26048918D01*
X95076912Y26172168D01*
X94761033Y26235000D01*
X94438967Y26235000D01*
X94123088Y26172168D01*
X93825537Y26048918D01*
X93557748Y25869987D01*
X93330013Y25642252D01*
X93151082Y25374463D01*
X93027832Y25076912D01*
X92965000Y24761033D01*
X92965000Y24438967D01*
X93027832Y24123088D01*
X93151082Y23825537D01*
X93330013Y23557748D01*
X93557748Y23330013D01*
X93825537Y23151082D01*
X94123088Y23027832D01*
X94438967Y22965000D01*
X94629869Y22965000D01*
X95698009Y21896859D01*
X95733551Y21853551D01*
X95906377Y21711716D01*
X96103553Y21606324D01*
X96317501Y21541423D01*
X96484248Y21525000D01*
X96484257Y21525000D01*
X96539999Y21519510D01*
X96595741Y21525000D01*
X99834893Y21525000D01*
X99853368Y21506525D01*
X100027760Y21390000D01*
X99853368Y21273475D01*
X99834893Y21255000D01*
X91461922Y21255000D01*
X91451680Y21279727D01*
X91294637Y21514759D01*
X91094759Y21714637D01*
X90859727Y21871680D01*
X90598574Y21979853D01*
X90321335Y22035000D01*
X90038665Y22035000D01*
X89859315Y21999325D01*
X89859315Y22321021D01*
X89861426Y22320147D01*
X90138665Y22265000D01*
X90421335Y22265000D01*
X90698574Y22320147D01*
X90959727Y22428320D01*
X91194759Y22585363D01*
X91394637Y22785241D01*
X91551680Y23020273D01*
X91659853Y23281426D01*
X91715000Y23558665D01*
X91715000Y23841335D01*
X91659853Y24118574D01*
X91551680Y24379727D01*
X91394637Y24614759D01*
X91194759Y24814637D01*
X91111211Y24870462D01*
X91222499Y24881423D01*
X91436447Y24946324D01*
X91633623Y25051716D01*
X91806449Y25193551D01*
X91841996Y25236865D01*
X95750132Y29145000D01*
X99834893Y29145000D01*
X99853368Y29126525D01*
X100035534Y29004805D01*
X99918645Y28935178D01*
X99702412Y28740269D01*
X99528359Y28506920D01*
X99403175Y28244099D01*
X99358524Y28096890D01*
X99479845Y27867000D01*
X100673000Y27867000D01*
X100673000Y27887000D01*
X100927000Y27887000D01*
X100927000Y27867000D01*
X102120155Y27867000D01*
X102241476Y28096890D01*
X102196825Y28244099D01*
X102071641Y28506920D01*
X101897588Y28740269D01*
X101681355Y28935178D01*
X101564466Y29004805D01*
X101746632Y29126525D01*
X101953475Y29333368D01*
X102115990Y29576589D01*
X102227932Y29846842D01*
X102285000Y30133740D01*
X102285000Y30426260D01*
X102227932Y30713158D01*
X102115990Y30983411D01*
X101953475Y31226632D01*
X101746632Y31433475D01*
X101572240Y31550000D01*
X101746632Y31666525D01*
X101953475Y31873368D01*
X102115990Y32116589D01*
X102227932Y32386842D01*
X102285000Y32673740D01*
X102285000Y32966260D01*
X102227932Y33253158D01*
X102115990Y33523411D01*
X101953475Y33766632D01*
X101746632Y33973475D01*
X101572240Y34090000D01*
X101746632Y34206525D01*
X101765107Y34225000D01*
X102069869Y34225000D01*
X102365000Y33929868D01*
G36*
X102365001Y36770133D02*
G01*
X102089869Y36495000D01*
X101765107Y36495000D01*
X101746632Y36513475D01*
X101564466Y36635195D01*
X101681355Y36704822D01*
X101897588Y36899731D01*
X102071641Y37133080D01*
X102196825Y37395901D01*
X102241476Y37543110D01*
X102120155Y37773000D01*
X100927000Y37773000D01*
X100927000Y37753000D01*
X100673000Y37753000D01*
X100673000Y37773000D01*
X99479845Y37773000D01*
X99358524Y37543110D01*
X99403175Y37395901D01*
X99528359Y37133080D01*
X99702412Y36899731D01*
X99918645Y36704822D01*
X100035534Y36635195D01*
X99853368Y36513475D01*
X99646525Y36306632D01*
X99484010Y36063411D01*
X99372068Y35793158D01*
X99315000Y35506260D01*
X99315000Y35213740D01*
X99372068Y34926842D01*
X99484010Y34656589D01*
X99646525Y34413368D01*
X99853368Y34206525D01*
X100027760Y34090000D01*
X99853368Y33973475D01*
X99834893Y33955000D01*
X97750132Y33955000D01*
X93835000Y37870131D01*
X93835000Y38244248D01*
X93840491Y38300000D01*
X93818577Y38522499D01*
X93753676Y38736447D01*
X93648284Y38933623D01*
X93541989Y39063144D01*
X93541987Y39063146D01*
X93506449Y39106449D01*
X93463146Y39141987D01*
X92944924Y39660209D01*
X93023088Y39627832D01*
X93338967Y39565000D01*
X93537080Y39565000D01*
X93626377Y39491716D01*
X93823553Y39386324D01*
X94037501Y39321423D01*
X94204248Y39305000D01*
X94204257Y39305000D01*
X94259999Y39299510D01*
X94315741Y39305000D01*
X99834893Y39305000D01*
X99853368Y39286525D01*
X100035534Y39164805D01*
X99918645Y39095178D01*
X99702412Y38900269D01*
X99528359Y38666920D01*
X99403175Y38404099D01*
X99358524Y38256890D01*
X99479845Y38027000D01*
X100673000Y38027000D01*
X100673000Y38047000D01*
X100927000Y38047000D01*
X100927000Y38027000D01*
X102120155Y38027000D01*
X102241476Y38256890D01*
X102196825Y38404099D01*
X102071641Y38666920D01*
X101897588Y38900269D01*
X101681355Y39095178D01*
X101564466Y39164805D01*
X101746632Y39286525D01*
X101953475Y39493368D01*
X102115990Y39736589D01*
X102227932Y40006842D01*
X102285000Y40293740D01*
X102285000Y40586260D01*
X102227932Y40873158D01*
X102115990Y41143411D01*
X101953475Y41386632D01*
X101746632Y41593475D01*
X101572240Y41710000D01*
X101746632Y41826525D01*
X101953475Y42033368D01*
X102115990Y42276589D01*
X102227932Y42546842D01*
X102285000Y42833740D01*
X102285000Y43126260D01*
X102227932Y43413158D01*
X102115990Y43683411D01*
X101953475Y43926632D01*
X101746632Y44133475D01*
X101572240Y44250000D01*
X101746632Y44366525D01*
X101765107Y44385000D01*
X102365000Y44385000D01*
X102365001Y36770133D01*
G37*
X102365001Y36770133D02*
X102089869Y36495000D01*
X101765107Y36495000D01*
X101746632Y36513475D01*
X101564466Y36635195D01*
X101681355Y36704822D01*
X101897588Y36899731D01*
X102071641Y37133080D01*
X102196825Y37395901D01*
X102241476Y37543110D01*
X102120155Y37773000D01*
X100927000Y37773000D01*
X100927000Y37753000D01*
X100673000Y37753000D01*
X100673000Y37773000D01*
X99479845Y37773000D01*
X99358524Y37543110D01*
X99403175Y37395901D01*
X99528359Y37133080D01*
X99702412Y36899731D01*
X99918645Y36704822D01*
X100035534Y36635195D01*
X99853368Y36513475D01*
X99646525Y36306632D01*
X99484010Y36063411D01*
X99372068Y35793158D01*
X99315000Y35506260D01*
X99315000Y35213740D01*
X99372068Y34926842D01*
X99484010Y34656589D01*
X99646525Y34413368D01*
X99853368Y34206525D01*
X100027760Y34090000D01*
X99853368Y33973475D01*
X99834893Y33955000D01*
X97750132Y33955000D01*
X93835000Y37870131D01*
X93835000Y38244248D01*
X93840491Y38300000D01*
X93818577Y38522499D01*
X93753676Y38736447D01*
X93648284Y38933623D01*
X93541989Y39063144D01*
X93541987Y39063146D01*
X93506449Y39106449D01*
X93463146Y39141987D01*
X92944924Y39660209D01*
X93023088Y39627832D01*
X93338967Y39565000D01*
X93537080Y39565000D01*
X93626377Y39491716D01*
X93823553Y39386324D01*
X94037501Y39321423D01*
X94204248Y39305000D01*
X94204257Y39305000D01*
X94259999Y39299510D01*
X94315741Y39305000D01*
X99834893Y39305000D01*
X99853368Y39286525D01*
X100035534Y39164805D01*
X99918645Y39095178D01*
X99702412Y38900269D01*
X99528359Y38666920D01*
X99403175Y38404099D01*
X99358524Y38256890D01*
X99479845Y38027000D01*
X100673000Y38027000D01*
X100673000Y38047000D01*
X100927000Y38047000D01*
X100927000Y38027000D01*
X102120155Y38027000D01*
X102241476Y38256890D01*
X102196825Y38404099D01*
X102071641Y38666920D01*
X101897588Y38900269D01*
X101681355Y39095178D01*
X101564466Y39164805D01*
X101746632Y39286525D01*
X101953475Y39493368D01*
X102115990Y39736589D01*
X102227932Y40006842D01*
X102285000Y40293740D01*
X102285000Y40586260D01*
X102227932Y40873158D01*
X102115990Y41143411D01*
X101953475Y41386632D01*
X101746632Y41593475D01*
X101572240Y41710000D01*
X101746632Y41826525D01*
X101953475Y42033368D01*
X102115990Y42276589D01*
X102227932Y42546842D01*
X102285000Y42833740D01*
X102285000Y43126260D01*
X102227932Y43413158D01*
X102115990Y43683411D01*
X101953475Y43926632D01*
X101746632Y44133475D01*
X101572240Y44250000D01*
X101746632Y44366525D01*
X101765107Y44385000D01*
X102365000Y44385000D01*
X102365001Y36770133D01*
G36*
X99358524Y47703110D02*
G01*
X99403175Y47555901D01*
X99528359Y47293080D01*
X99702412Y47059731D01*
X99918645Y46864822D01*
X100035534Y46795195D01*
X99853368Y46673475D01*
X99646525Y46466632D01*
X99484010Y46223411D01*
X99372068Y45953158D01*
X99315000Y45666260D01*
X99315000Y45373740D01*
X99372068Y45086842D01*
X99484010Y44816589D01*
X99646525Y44573368D01*
X99853368Y44366525D01*
X100027760Y44250000D01*
X99853368Y44133475D01*
X99834893Y44115000D01*
X95390132Y44115000D01*
X93827008Y45678123D01*
X94076912Y45727832D01*
X94374463Y45851082D01*
X94642252Y46030013D01*
X94869987Y46257748D01*
X95048918Y46525537D01*
X95106686Y46665000D01*
X97644249Y46665000D01*
X97700000Y46659509D01*
X97755751Y46665000D01*
X97755752Y46665000D01*
X97922499Y46681423D01*
X98136447Y46746324D01*
X98333623Y46851716D01*
X98506449Y46993551D01*
X98541995Y47036864D01*
X99363140Y47858008D01*
X99406449Y47893551D01*
X99438822Y47932998D01*
X99479844Y47932998D01*
X99358524Y47703110D01*
G37*
X99358524Y47703110D02*
X99403175Y47555901D01*
X99528359Y47293080D01*
X99702412Y47059731D01*
X99918645Y46864822D01*
X100035534Y46795195D01*
X99853368Y46673475D01*
X99646525Y46466632D01*
X99484010Y46223411D01*
X99372068Y45953158D01*
X99315000Y45666260D01*
X99315000Y45373740D01*
X99372068Y45086842D01*
X99484010Y44816589D01*
X99646525Y44573368D01*
X99853368Y44366525D01*
X100027760Y44250000D01*
X99853368Y44133475D01*
X99834893Y44115000D01*
X95390132Y44115000D01*
X93827008Y45678123D01*
X94076912Y45727832D01*
X94374463Y45851082D01*
X94642252Y46030013D01*
X94869987Y46257748D01*
X95048918Y46525537D01*
X95106686Y46665000D01*
X97644249Y46665000D01*
X97700000Y46659509D01*
X97755751Y46665000D01*
X97755752Y46665000D01*
X97922499Y46681423D01*
X98136447Y46746324D01*
X98333623Y46851716D01*
X98506449Y46993551D01*
X98541995Y47036864D01*
X99363140Y47858008D01*
X99406449Y47893551D01*
X99438822Y47932998D01*
X99479844Y47932998D01*
X99358524Y47703110D01*
G36*
X93849188Y64324482D02*
G01*
X93836928Y64200000D01*
X93840000Y63785750D01*
X93998750Y63627000D01*
X94835500Y63627000D01*
X94835500Y63647000D01*
X95089500Y63647000D01*
X95089500Y63627000D01*
X95109500Y63627000D01*
X95109500Y63373000D01*
X95089500Y63373000D01*
X95089500Y62323750D01*
X95248250Y62165000D01*
X95450000Y62161928D01*
X95574482Y62174188D01*
X95694180Y62210498D01*
X95785001Y62259043D01*
X95785000Y61917683D01*
X95715506Y61880537D01*
X95618815Y61801185D01*
X95539463Y61704494D01*
X95480498Y61594180D01*
X95456034Y61513534D01*
X95380269Y61597588D01*
X95146920Y61771641D01*
X94884099Y61896825D01*
X94736890Y61941476D01*
X94507000Y61820155D01*
X94507000Y60627000D01*
X94527000Y60627000D01*
X94527000Y60373000D01*
X94507000Y60373000D01*
X94507000Y59179845D01*
X94736890Y59058524D01*
X94884099Y59103175D01*
X95146920Y59228359D01*
X95380269Y59402412D01*
X95456034Y59486466D01*
X95480498Y59405820D01*
X95539463Y59295506D01*
X95618815Y59198815D01*
X95715506Y59119463D01*
X95785000Y59082317D01*
X95785001Y58417683D01*
X95715506Y58380537D01*
X95618815Y58301185D01*
X95539463Y58204494D01*
X95480498Y58094180D01*
X95456034Y58013534D01*
X95380269Y58097588D01*
X95146920Y58271641D01*
X94884099Y58396825D01*
X94736890Y58441476D01*
X94507000Y58320155D01*
X94507000Y57127000D01*
X94527000Y57127000D01*
X94527000Y56873000D01*
X94507000Y56873000D01*
X94507000Y55679845D01*
X94736890Y55558524D01*
X94884099Y55603175D01*
X95146920Y55728359D01*
X95380269Y55902412D01*
X95456034Y55986466D01*
X95480498Y55905820D01*
X95539463Y55795506D01*
X95618815Y55698815D01*
X95715506Y55619463D01*
X95785001Y55582317D01*
X95785001Y55340957D01*
X95694180Y55389502D01*
X95574482Y55425812D01*
X95450000Y55438072D01*
X95248250Y55435000D01*
X95089500Y55276250D01*
X95089500Y54227000D01*
X95109500Y54227000D01*
X95109500Y53973000D01*
X95089500Y53973000D01*
X95089500Y52923750D01*
X95248250Y52765000D01*
X95450000Y52761928D01*
X95574482Y52774188D01*
X95694180Y52810498D01*
X95702500Y52814945D01*
X95702501Y51135000D01*
X89534310Y51135000D01*
X89506449Y51168949D01*
X89333623Y51310784D01*
X89213639Y51374916D01*
X89230537Y51395506D01*
X89289502Y51505820D01*
X89325812Y51625518D01*
X89338072Y51750000D01*
X89335000Y51951750D01*
X89176250Y52110500D01*
X88127000Y52110500D01*
X88127000Y52090500D01*
X87873000Y52090500D01*
X87873000Y52110500D01*
X86823750Y52110500D01*
X86665000Y51951750D01*
X86661928Y51750000D01*
X86674188Y51625518D01*
X86710498Y51505820D01*
X86769463Y51395506D01*
X86848815Y51298815D01*
X86926564Y51235008D01*
X86920208Y51229792D01*
X86810542Y51096164D01*
X86765541Y51011973D01*
X86593158Y51011973D01*
X86563143Y51041988D01*
X86433622Y51148283D01*
X86285000Y51227723D01*
X86285000Y51468808D01*
X86288072Y51500000D01*
X86288072Y52725000D01*
X86661928Y52725000D01*
X86665000Y52523250D01*
X86823750Y52364500D01*
X87873000Y52364500D01*
X87873000Y53201250D01*
X88127000Y53201250D01*
X88127000Y52364500D01*
X89176250Y52364500D01*
X89335000Y52523250D01*
X89338072Y52725000D01*
X89325812Y52849482D01*
X89289502Y52969180D01*
X89230537Y53079494D01*
X89151185Y53176185D01*
X89054494Y53255537D01*
X88944180Y53314502D01*
X88824482Y53350812D01*
X88700000Y53363072D01*
X88285750Y53360000D01*
X88127000Y53201250D01*
X87873000Y53201250D01*
X87714250Y53360000D01*
X87300000Y53363072D01*
X87175518Y53350812D01*
X87055820Y53314502D01*
X86945506Y53255537D01*
X86848815Y53176185D01*
X86769463Y53079494D01*
X86710498Y52969180D01*
X86674188Y52849482D01*
X86661928Y52725000D01*
X86288072Y52725000D01*
X86288072Y52900000D01*
X86275812Y53024482D01*
X86239502Y53144180D01*
X86180537Y53254494D01*
X86101185Y53351185D01*
X86041704Y53400000D01*
X93836928Y53400000D01*
X93849188Y53275518D01*
X93885498Y53155820D01*
X93944463Y53045506D01*
X94023815Y52948815D01*
X94120506Y52869463D01*
X94230820Y52810498D01*
X94350518Y52774188D01*
X94475000Y52761928D01*
X94676750Y52765000D01*
X94835500Y52923750D01*
X94835500Y53973000D01*
X93998750Y53973000D01*
X93840000Y53814250D01*
X93836928Y53400000D01*
X86041704Y53400000D01*
X86004494Y53430537D01*
X85894180Y53489502D01*
X85774482Y53525812D01*
X85650000Y53538072D01*
X85350000Y53538072D01*
X85246698Y53527898D01*
X85181750Y53535000D01*
X85149503Y53502753D01*
X85105820Y53489502D01*
X84999141Y53432480D01*
X84903346Y53485621D01*
X84850785Y53502465D01*
X84818250Y53535000D01*
X84785000Y53531364D01*
X84785000Y54065000D01*
X87444249Y54065000D01*
X87500000Y54059509D01*
X87555751Y54065000D01*
X87555752Y54065000D01*
X87722499Y54081423D01*
X87936447Y54146324D01*
X88133623Y54251716D01*
X88306449Y54393551D01*
X88341996Y54436865D01*
X88705131Y54800000D01*
X93836928Y54800000D01*
X93840000Y54385750D01*
X93998750Y54227000D01*
X94835500Y54227000D01*
X94835500Y55276250D01*
X94676750Y55435000D01*
X94475000Y55438072D01*
X94350518Y55425812D01*
X94230820Y55389502D01*
X94120506Y55330537D01*
X94023815Y55251185D01*
X93944463Y55154494D01*
X93885498Y55044180D01*
X93849188Y54924482D01*
X93836928Y54800000D01*
X88705131Y54800000D01*
X89420132Y55515000D01*
X89446260Y55515000D01*
X89733158Y55572068D01*
X90003411Y55684010D01*
X90246632Y55846525D01*
X90453475Y56053368D01*
X90570000Y56227760D01*
X90686525Y56053368D01*
X90893368Y55846525D01*
X91136589Y55684010D01*
X91406842Y55572068D01*
X91693740Y55515000D01*
X91986260Y55515000D01*
X92273158Y55572068D01*
X92543411Y55684010D01*
X92786632Y55846525D01*
X92993475Y56053368D01*
X93115195Y56235534D01*
X93184822Y56118645D01*
X93379731Y55902412D01*
X93613080Y55728359D01*
X93875901Y55603175D01*
X94023110Y55558524D01*
X94253000Y55679845D01*
X94253000Y56873000D01*
X94233000Y56873000D01*
X94233000Y57127000D01*
X94253000Y57127000D01*
X94253000Y58320155D01*
X94023110Y58441476D01*
X93875901Y58396825D01*
X93613080Y58271641D01*
X93379731Y58097588D01*
X93184822Y57881355D01*
X93115195Y57764466D01*
X92993475Y57946632D01*
X92975000Y57965107D01*
X92975000Y59534893D01*
X92993475Y59553368D01*
X93115195Y59735534D01*
X93184822Y59618645D01*
X93379731Y59402412D01*
X93613080Y59228359D01*
X93875901Y59103175D01*
X94023110Y59058524D01*
X94253000Y59179845D01*
X94253000Y60373000D01*
X94233000Y60373000D01*
X94233000Y60627000D01*
X94253000Y60627000D01*
X94253000Y61820155D01*
X94023110Y61941476D01*
X93875901Y61896825D01*
X93613080Y61771641D01*
X93379731Y61597588D01*
X93184822Y61381355D01*
X93115195Y61264466D01*
X92993475Y61446632D01*
X92975000Y61465107D01*
X92975000Y61646329D01*
X92980491Y61702081D01*
X92958577Y61924580D01*
X92893676Y62138528D01*
X92788284Y62335704D01*
X92681989Y62465225D01*
X92681987Y62465227D01*
X92646449Y62508530D01*
X92603146Y62544068D01*
X92347214Y62800000D01*
X93836928Y62800000D01*
X93849188Y62675518D01*
X93885498Y62555820D01*
X93944463Y62445506D01*
X94023815Y62348815D01*
X94120506Y62269463D01*
X94230820Y62210498D01*
X94350518Y62174188D01*
X94475000Y62161928D01*
X94676750Y62165000D01*
X94835500Y62323750D01*
X94835500Y63373000D01*
X93998750Y63373000D01*
X93840000Y63214250D01*
X93836928Y62800000D01*
X92347214Y62800000D01*
X91384076Y63763136D01*
X91348530Y63806449D01*
X91175704Y63948284D01*
X90978528Y64053676D01*
X90764580Y64118577D01*
X90597833Y64135000D01*
X90597832Y64135000D01*
X90542081Y64140491D01*
X90486330Y64135000D01*
X88655741Y64135000D01*
X88599999Y64140490D01*
X88544257Y64135000D01*
X88544248Y64135000D01*
X88377501Y64118577D01*
X88163553Y64053676D01*
X87966377Y63948284D01*
X87793551Y63806449D01*
X87758008Y63763140D01*
X86336865Y62341996D01*
X86293551Y62306449D01*
X86151716Y62133623D01*
X86051604Y61946324D01*
X86046324Y61936446D01*
X85981423Y61722498D01*
X85959509Y61500000D01*
X85965000Y61444248D01*
X85965001Y59070133D01*
X85129869Y58235000D01*
X82955741Y58235000D01*
X82899999Y58240490D01*
X82844258Y58235000D01*
X82844248Y58235000D01*
X82677501Y58218577D01*
X82463553Y58153676D01*
X82266377Y58048284D01*
X82093551Y57906449D01*
X82058004Y57863135D01*
X82036865Y57841996D01*
X81993551Y57806449D01*
X81851716Y57633623D01*
X81758651Y57459509D01*
X81746324Y57436446D01*
X81681423Y57222498D01*
X81659509Y57000000D01*
X81665000Y56944248D01*
X81665001Y54844248D01*
X81681424Y54677501D01*
X81746325Y54463553D01*
X81851717Y54266377D01*
X81993552Y54093551D01*
X82166378Y53951716D01*
X82363554Y53846324D01*
X82577502Y53781423D01*
X82715001Y53767881D01*
X82715000Y52931196D01*
X82711928Y52900000D01*
X82711928Y51500000D01*
X82724188Y51375518D01*
X82760498Y51255820D01*
X82819463Y51145506D01*
X82898815Y51048815D01*
X82995506Y50969463D01*
X83105820Y50910498D01*
X83225518Y50874188D01*
X83350000Y50861928D01*
X83650000Y50861928D01*
X83750000Y50871777D01*
X83850000Y50861928D01*
X84150000Y50861928D01*
X84253302Y50872102D01*
X84318250Y50865000D01*
X84350497Y50897247D01*
X84394180Y50910498D01*
X84500859Y50967520D01*
X84596654Y50914379D01*
X84649215Y50897535D01*
X84681750Y50865000D01*
X84715001Y50868636D01*
X84715001Y50538562D01*
X84714217Y50530605D01*
X84681423Y50422498D01*
X84659509Y50200000D01*
X84681423Y49977502D01*
X84746324Y49763554D01*
X84851717Y49566378D01*
X84958012Y49436857D01*
X85265153Y49129716D01*
X85250000Y49128223D01*
X85150000Y49138072D01*
X84850000Y49138072D01*
X84750000Y49128223D01*
X84650000Y49138072D01*
X84350000Y49138072D01*
X84250000Y49128223D01*
X84150000Y49138072D01*
X83850000Y49138072D01*
X83746698Y49127898D01*
X83681750Y49135000D01*
X83649503Y49102753D01*
X83605820Y49089502D01*
X83495506Y49030537D01*
X83455525Y48997725D01*
X83318250Y49135000D01*
X83215771Y49123794D01*
X83096654Y49085621D01*
X82987273Y49024943D01*
X82891831Y48944092D01*
X82813997Y48846174D01*
X82756761Y48734954D01*
X82722323Y48614704D01*
X82712006Y48490046D01*
X82715000Y48085750D01*
X82873750Y47927000D01*
X83211928Y47927000D01*
X83211928Y47673000D01*
X82873750Y47673000D01*
X82715000Y47514250D01*
X82712006Y47109954D01*
X82722323Y46985296D01*
X82756761Y46865046D01*
X82807252Y46766932D01*
X82763553Y46753676D01*
X82566377Y46648284D01*
X82393551Y46506449D01*
X82358009Y46463141D01*
X80660000Y44765131D01*
X80660000Y61685656D01*
X81615000Y61685656D01*
X81615000Y61314344D01*
X81687439Y60950166D01*
X81829534Y60607118D01*
X82035825Y60298382D01*
X82298382Y60035825D01*
X82607118Y59829534D01*
X82950166Y59687439D01*
X83314344Y59615000D01*
X83685656Y59615000D01*
X84049834Y59687439D01*
X84392882Y59829534D01*
X84701618Y60035825D01*
X84964175Y60298382D01*
X85170466Y60607118D01*
X85312561Y60950166D01*
X85385000Y61314344D01*
X85385000Y61685656D01*
X85312561Y62049834D01*
X85170466Y62392882D01*
X84964175Y62701618D01*
X84701618Y62964175D01*
X84392882Y63170466D01*
X84049834Y63312561D01*
X83685656Y63385000D01*
X83314344Y63385000D01*
X82950166Y63312561D01*
X82607118Y63170466D01*
X82298382Y62964175D01*
X82035825Y62701618D01*
X81829534Y62392882D01*
X81687439Y62049834D01*
X81615000Y61685656D01*
X80660000Y61685656D01*
X80660000Y64340000D01*
X93853895Y64340000D01*
X93849188Y64324482D01*
G37*
X93849188Y64324482D02*
X93836928Y64200000D01*
X93840000Y63785750D01*
X93998750Y63627000D01*
X94835500Y63627000D01*
X94835500Y63647000D01*
X95089500Y63647000D01*
X95089500Y63627000D01*
X95109500Y63627000D01*
X95109500Y63373000D01*
X95089500Y63373000D01*
X95089500Y62323750D01*
X95248250Y62165000D01*
X95450000Y62161928D01*
X95574482Y62174188D01*
X95694180Y62210498D01*
X95785001Y62259043D01*
X95785000Y61917683D01*
X95715506Y61880537D01*
X95618815Y61801185D01*
X95539463Y61704494D01*
X95480498Y61594180D01*
X95456034Y61513534D01*
X95380269Y61597588D01*
X95146920Y61771641D01*
X94884099Y61896825D01*
X94736890Y61941476D01*
X94507000Y61820155D01*
X94507000Y60627000D01*
X94527000Y60627000D01*
X94527000Y60373000D01*
X94507000Y60373000D01*
X94507000Y59179845D01*
X94736890Y59058524D01*
X94884099Y59103175D01*
X95146920Y59228359D01*
X95380269Y59402412D01*
X95456034Y59486466D01*
X95480498Y59405820D01*
X95539463Y59295506D01*
X95618815Y59198815D01*
X95715506Y59119463D01*
X95785000Y59082317D01*
X95785001Y58417683D01*
X95715506Y58380537D01*
X95618815Y58301185D01*
X95539463Y58204494D01*
X95480498Y58094180D01*
X95456034Y58013534D01*
X95380269Y58097588D01*
X95146920Y58271641D01*
X94884099Y58396825D01*
X94736890Y58441476D01*
X94507000Y58320155D01*
X94507000Y57127000D01*
X94527000Y57127000D01*
X94527000Y56873000D01*
X94507000Y56873000D01*
X94507000Y55679845D01*
X94736890Y55558524D01*
X94884099Y55603175D01*
X95146920Y55728359D01*
X95380269Y55902412D01*
X95456034Y55986466D01*
X95480498Y55905820D01*
X95539463Y55795506D01*
X95618815Y55698815D01*
X95715506Y55619463D01*
X95785001Y55582317D01*
X95785001Y55340957D01*
X95694180Y55389502D01*
X95574482Y55425812D01*
X95450000Y55438072D01*
X95248250Y55435000D01*
X95089500Y55276250D01*
X95089500Y54227000D01*
X95109500Y54227000D01*
X95109500Y53973000D01*
X95089500Y53973000D01*
X95089500Y52923750D01*
X95248250Y52765000D01*
X95450000Y52761928D01*
X95574482Y52774188D01*
X95694180Y52810498D01*
X95702500Y52814945D01*
X95702501Y51135000D01*
X89534310Y51135000D01*
X89506449Y51168949D01*
X89333623Y51310784D01*
X89213639Y51374916D01*
X89230537Y51395506D01*
X89289502Y51505820D01*
X89325812Y51625518D01*
X89338072Y51750000D01*
X89335000Y51951750D01*
X89176250Y52110500D01*
X88127000Y52110500D01*
X88127000Y52090500D01*
X87873000Y52090500D01*
X87873000Y52110500D01*
X86823750Y52110500D01*
X86665000Y51951750D01*
X86661928Y51750000D01*
X86674188Y51625518D01*
X86710498Y51505820D01*
X86769463Y51395506D01*
X86848815Y51298815D01*
X86926564Y51235008D01*
X86920208Y51229792D01*
X86810542Y51096164D01*
X86765541Y51011973D01*
X86593158Y51011973D01*
X86563143Y51041988D01*
X86433622Y51148283D01*
X86285000Y51227723D01*
X86285000Y51468808D01*
X86288072Y51500000D01*
X86288072Y52725000D01*
X86661928Y52725000D01*
X86665000Y52523250D01*
X86823750Y52364500D01*
X87873000Y52364500D01*
X87873000Y53201250D01*
X88127000Y53201250D01*
X88127000Y52364500D01*
X89176250Y52364500D01*
X89335000Y52523250D01*
X89338072Y52725000D01*
X89325812Y52849482D01*
X89289502Y52969180D01*
X89230537Y53079494D01*
X89151185Y53176185D01*
X89054494Y53255537D01*
X88944180Y53314502D01*
X88824482Y53350812D01*
X88700000Y53363072D01*
X88285750Y53360000D01*
X88127000Y53201250D01*
X87873000Y53201250D01*
X87714250Y53360000D01*
X87300000Y53363072D01*
X87175518Y53350812D01*
X87055820Y53314502D01*
X86945506Y53255537D01*
X86848815Y53176185D01*
X86769463Y53079494D01*
X86710498Y52969180D01*
X86674188Y52849482D01*
X86661928Y52725000D01*
X86288072Y52725000D01*
X86288072Y52900000D01*
X86275812Y53024482D01*
X86239502Y53144180D01*
X86180537Y53254494D01*
X86101185Y53351185D01*
X86041704Y53400000D01*
X93836928Y53400000D01*
X93849188Y53275518D01*
X93885498Y53155820D01*
X93944463Y53045506D01*
X94023815Y52948815D01*
X94120506Y52869463D01*
X94230820Y52810498D01*
X94350518Y52774188D01*
X94475000Y52761928D01*
X94676750Y52765000D01*
X94835500Y52923750D01*
X94835500Y53973000D01*
X93998750Y53973000D01*
X93840000Y53814250D01*
X93836928Y53400000D01*
X86041704Y53400000D01*
X86004494Y53430537D01*
X85894180Y53489502D01*
X85774482Y53525812D01*
X85650000Y53538072D01*
X85350000Y53538072D01*
X85246698Y53527898D01*
X85181750Y53535000D01*
X85149503Y53502753D01*
X85105820Y53489502D01*
X84999141Y53432480D01*
X84903346Y53485621D01*
X84850785Y53502465D01*
X84818250Y53535000D01*
X84785000Y53531364D01*
X84785000Y54065000D01*
X87444249Y54065000D01*
X87500000Y54059509D01*
X87555751Y54065000D01*
X87555752Y54065000D01*
X87722499Y54081423D01*
X87936447Y54146324D01*
X88133623Y54251716D01*
X88306449Y54393551D01*
X88341996Y54436865D01*
X88705131Y54800000D01*
X93836928Y54800000D01*
X93840000Y54385750D01*
X93998750Y54227000D01*
X94835500Y54227000D01*
X94835500Y55276250D01*
X94676750Y55435000D01*
X94475000Y55438072D01*
X94350518Y55425812D01*
X94230820Y55389502D01*
X94120506Y55330537D01*
X94023815Y55251185D01*
X93944463Y55154494D01*
X93885498Y55044180D01*
X93849188Y54924482D01*
X93836928Y54800000D01*
X88705131Y54800000D01*
X89420132Y55515000D01*
X89446260Y55515000D01*
X89733158Y55572068D01*
X90003411Y55684010D01*
X90246632Y55846525D01*
X90453475Y56053368D01*
X90570000Y56227760D01*
X90686525Y56053368D01*
X90893368Y55846525D01*
X91136589Y55684010D01*
X91406842Y55572068D01*
X91693740Y55515000D01*
X91986260Y55515000D01*
X92273158Y55572068D01*
X92543411Y55684010D01*
X92786632Y55846525D01*
X92993475Y56053368D01*
X93115195Y56235534D01*
X93184822Y56118645D01*
X93379731Y55902412D01*
X93613080Y55728359D01*
X93875901Y55603175D01*
X94023110Y55558524D01*
X94253000Y55679845D01*
X94253000Y56873000D01*
X94233000Y56873000D01*
X94233000Y57127000D01*
X94253000Y57127000D01*
X94253000Y58320155D01*
X94023110Y58441476D01*
X93875901Y58396825D01*
X93613080Y58271641D01*
X93379731Y58097588D01*
X93184822Y57881355D01*
X93115195Y57764466D01*
X92993475Y57946632D01*
X92975000Y57965107D01*
X92975000Y59534893D01*
X92993475Y59553368D01*
X93115195Y59735534D01*
X93184822Y59618645D01*
X93379731Y59402412D01*
X93613080Y59228359D01*
X93875901Y59103175D01*
X94023110Y59058524D01*
X94253000Y59179845D01*
X94253000Y60373000D01*
X94233000Y60373000D01*
X94233000Y60627000D01*
X94253000Y60627000D01*
X94253000Y61820155D01*
X94023110Y61941476D01*
X93875901Y61896825D01*
X93613080Y61771641D01*
X93379731Y61597588D01*
X93184822Y61381355D01*
X93115195Y61264466D01*
X92993475Y61446632D01*
X92975000Y61465107D01*
X92975000Y61646329D01*
X92980491Y61702081D01*
X92958577Y61924580D01*
X92893676Y62138528D01*
X92788284Y62335704D01*
X92681989Y62465225D01*
X92681987Y62465227D01*
X92646449Y62508530D01*
X92603146Y62544068D01*
X92347214Y62800000D01*
X93836928Y62800000D01*
X93849188Y62675518D01*
X93885498Y62555820D01*
X93944463Y62445506D01*
X94023815Y62348815D01*
X94120506Y62269463D01*
X94230820Y62210498D01*
X94350518Y62174188D01*
X94475000Y62161928D01*
X94676750Y62165000D01*
X94835500Y62323750D01*
X94835500Y63373000D01*
X93998750Y63373000D01*
X93840000Y63214250D01*
X93836928Y62800000D01*
X92347214Y62800000D01*
X91384076Y63763136D01*
X91348530Y63806449D01*
X91175704Y63948284D01*
X90978528Y64053676D01*
X90764580Y64118577D01*
X90597833Y64135000D01*
X90597832Y64135000D01*
X90542081Y64140491D01*
X90486330Y64135000D01*
X88655741Y64135000D01*
X88599999Y64140490D01*
X88544257Y64135000D01*
X88544248Y64135000D01*
X88377501Y64118577D01*
X88163553Y64053676D01*
X87966377Y63948284D01*
X87793551Y63806449D01*
X87758008Y63763140D01*
X86336865Y62341996D01*
X86293551Y62306449D01*
X86151716Y62133623D01*
X86051604Y61946324D01*
X86046324Y61936446D01*
X85981423Y61722498D01*
X85959509Y61500000D01*
X85965000Y61444248D01*
X85965001Y59070133D01*
X85129869Y58235000D01*
X82955741Y58235000D01*
X82899999Y58240490D01*
X82844258Y58235000D01*
X82844248Y58235000D01*
X82677501Y58218577D01*
X82463553Y58153676D01*
X82266377Y58048284D01*
X82093551Y57906449D01*
X82058004Y57863135D01*
X82036865Y57841996D01*
X81993551Y57806449D01*
X81851716Y57633623D01*
X81758651Y57459509D01*
X81746324Y57436446D01*
X81681423Y57222498D01*
X81659509Y57000000D01*
X81665000Y56944248D01*
X81665001Y54844248D01*
X81681424Y54677501D01*
X81746325Y54463553D01*
X81851717Y54266377D01*
X81993552Y54093551D01*
X82166378Y53951716D01*
X82363554Y53846324D01*
X82577502Y53781423D01*
X82715001Y53767881D01*
X82715000Y52931196D01*
X82711928Y52900000D01*
X82711928Y51500000D01*
X82724188Y51375518D01*
X82760498Y51255820D01*
X82819463Y51145506D01*
X82898815Y51048815D01*
X82995506Y50969463D01*
X83105820Y50910498D01*
X83225518Y50874188D01*
X83350000Y50861928D01*
X83650000Y50861928D01*
X83750000Y50871777D01*
X83850000Y50861928D01*
X84150000Y50861928D01*
X84253302Y50872102D01*
X84318250Y50865000D01*
X84350497Y50897247D01*
X84394180Y50910498D01*
X84500859Y50967520D01*
X84596654Y50914379D01*
X84649215Y50897535D01*
X84681750Y50865000D01*
X84715001Y50868636D01*
X84715001Y50538562D01*
X84714217Y50530605D01*
X84681423Y50422498D01*
X84659509Y50200000D01*
X84681423Y49977502D01*
X84746324Y49763554D01*
X84851717Y49566378D01*
X84958012Y49436857D01*
X85265153Y49129716D01*
X85250000Y49128223D01*
X85150000Y49138072D01*
X84850000Y49138072D01*
X84750000Y49128223D01*
X84650000Y49138072D01*
X84350000Y49138072D01*
X84250000Y49128223D01*
X84150000Y49138072D01*
X83850000Y49138072D01*
X83746698Y49127898D01*
X83681750Y49135000D01*
X83649503Y49102753D01*
X83605820Y49089502D01*
X83495506Y49030537D01*
X83455525Y48997725D01*
X83318250Y49135000D01*
X83215771Y49123794D01*
X83096654Y49085621D01*
X82987273Y49024943D01*
X82891831Y48944092D01*
X82813997Y48846174D01*
X82756761Y48734954D01*
X82722323Y48614704D01*
X82712006Y48490046D01*
X82715000Y48085750D01*
X82873750Y47927000D01*
X83211928Y47927000D01*
X83211928Y47673000D01*
X82873750Y47673000D01*
X82715000Y47514250D01*
X82712006Y47109954D01*
X82722323Y46985296D01*
X82756761Y46865046D01*
X82807252Y46766932D01*
X82763553Y46753676D01*
X82566377Y46648284D01*
X82393551Y46506449D01*
X82358009Y46463141D01*
X80660000Y44765131D01*
X80660000Y61685656D01*
X81615000Y61685656D01*
X81615000Y61314344D01*
X81687439Y60950166D01*
X81829534Y60607118D01*
X82035825Y60298382D01*
X82298382Y60035825D01*
X82607118Y59829534D01*
X82950166Y59687439D01*
X83314344Y59615000D01*
X83685656Y59615000D01*
X84049834Y59687439D01*
X84392882Y59829534D01*
X84701618Y60035825D01*
X84964175Y60298382D01*
X85170466Y60607118D01*
X85312561Y60950166D01*
X85385000Y61314344D01*
X85385000Y61685656D01*
X85312561Y62049834D01*
X85170466Y62392882D01*
X84964175Y62701618D01*
X84701618Y62964175D01*
X84392882Y63170466D01*
X84049834Y63312561D01*
X83685656Y63385000D01*
X83314344Y63385000D01*
X82950166Y63312561D01*
X82607118Y63170466D01*
X82298382Y62964175D01*
X82035825Y62701618D01*
X81829534Y62392882D01*
X81687439Y62049834D01*
X81615000Y61685656D01*
X80660000Y61685656D01*
X80660000Y64340000D01*
X93853895Y64340000D01*
X93849188Y64324482D01*
G36*
X102365000Y55429868D02*
G01*
X102365001Y46655000D01*
X101765107Y46655000D01*
X101746632Y46673475D01*
X101564466Y46795195D01*
X101681355Y46864822D01*
X101897588Y47059731D01*
X102071641Y47293080D01*
X102196825Y47555901D01*
X102241476Y47703110D01*
X102120155Y47933000D01*
X100927000Y47933000D01*
X100927000Y47913000D01*
X100673000Y47913000D01*
X100673000Y47933000D01*
X100653000Y47933000D01*
X100653000Y48187000D01*
X100673000Y48187000D01*
X100673000Y48207000D01*
X100927000Y48207000D01*
X100927000Y48187000D01*
X102120155Y48187000D01*
X102241476Y48416890D01*
X102196825Y48564099D01*
X102071641Y48826920D01*
X101897588Y49060269D01*
X101813534Y49136034D01*
X101894180Y49160498D01*
X102004494Y49219463D01*
X102101185Y49298815D01*
X102180537Y49395506D01*
X102239502Y49505820D01*
X102275812Y49625518D01*
X102288072Y49750000D01*
X102288072Y51450000D01*
X102275812Y51574482D01*
X102239502Y51694180D01*
X102180537Y51804494D01*
X102101185Y51901185D01*
X102004494Y51980537D01*
X101894180Y52039502D01*
X101774482Y52075812D01*
X101650000Y52088072D01*
X99950000Y52088072D01*
X99825518Y52075812D01*
X99705820Y52039502D01*
X99595506Y51980537D01*
X99498815Y51901185D01*
X99419463Y51804494D01*
X99382317Y51735000D01*
X99005752Y51735000D01*
X98950000Y51740491D01*
X98894248Y51735000D01*
X98727501Y51718577D01*
X98513553Y51653676D01*
X98316377Y51548284D01*
X98143551Y51406449D01*
X98108004Y51363135D01*
X97972500Y51227631D01*
X97972500Y53743853D01*
X97973676Y53746053D01*
X98038577Y53960001D01*
X98055000Y54126748D01*
X98055000Y54126749D01*
X98060491Y54182500D01*
X98055000Y54238252D01*
X98055000Y55582317D01*
X98124494Y55619463D01*
X98221185Y55698815D01*
X98300537Y55795506D01*
X98337683Y55865000D01*
X101929869Y55865000D01*
X102365000Y55429868D01*
G37*
X102365000Y55429868D02*
X102365001Y46655000D01*
X101765107Y46655000D01*
X101746632Y46673475D01*
X101564466Y46795195D01*
X101681355Y46864822D01*
X101897588Y47059731D01*
X102071641Y47293080D01*
X102196825Y47555901D01*
X102241476Y47703110D01*
X102120155Y47933000D01*
X100927000Y47933000D01*
X100927000Y47913000D01*
X100673000Y47913000D01*
X100673000Y47933000D01*
X100653000Y47933000D01*
X100653000Y48187000D01*
X100673000Y48187000D01*
X100673000Y48207000D01*
X100927000Y48207000D01*
X100927000Y48187000D01*
X102120155Y48187000D01*
X102241476Y48416890D01*
X102196825Y48564099D01*
X102071641Y48826920D01*
X101897588Y49060269D01*
X101813534Y49136034D01*
X101894180Y49160498D01*
X102004494Y49219463D01*
X102101185Y49298815D01*
X102180537Y49395506D01*
X102239502Y49505820D01*
X102275812Y49625518D01*
X102288072Y49750000D01*
X102288072Y51450000D01*
X102275812Y51574482D01*
X102239502Y51694180D01*
X102180537Y51804494D01*
X102101185Y51901185D01*
X102004494Y51980537D01*
X101894180Y52039502D01*
X101774482Y52075812D01*
X101650000Y52088072D01*
X99950000Y52088072D01*
X99825518Y52075812D01*
X99705820Y52039502D01*
X99595506Y51980537D01*
X99498815Y51901185D01*
X99419463Y51804494D01*
X99382317Y51735000D01*
X99005752Y51735000D01*
X98950000Y51740491D01*
X98894248Y51735000D01*
X98727501Y51718577D01*
X98513553Y51653676D01*
X98316377Y51548284D01*
X98143551Y51406449D01*
X98108004Y51363135D01*
X97972500Y51227631D01*
X97972500Y53743853D01*
X97973676Y53746053D01*
X98038577Y53960001D01*
X98055000Y54126748D01*
X98055000Y54126749D01*
X98060491Y54182500D01*
X98055000Y54238252D01*
X98055000Y55582317D01*
X98124494Y55619463D01*
X98221185Y55698815D01*
X98300537Y55795506D01*
X98337683Y55865000D01*
X101929869Y55865000D01*
X102365000Y55429868D01*
M02*
