M48
; DRILL file {KiCad 5.1.5+dfsg1-2build2} date Fri Dec 16 12:04:55 2022
; FORMAT={-:-/ absolute / metric / decimal}
; #@! TF.CreationDate,2022-12-16T12:04:55+00:00
; #@! TF.GenerationSoftware,Kicad,Pcbnew,5.1.5+dfsg1-2build2
FMAT,2
METRIC
T1C0.800
T2C1.000
T3C2.500
%
G90
G05
T1
X24.92Y-179.0
X24.92Y-186.62
X30.0Y-179.0
X30.0Y-186.62
X34.92Y-179.0
X34.92Y-186.62
X40.0Y-179.0
X40.0Y-186.62
T2
X70.6Y-179.18
X70.6Y-181.72
X70.6Y-184.26
X70.6Y-186.8
X64.6Y-179.2
X64.6Y-181.74
X64.6Y-184.28
X64.6Y-186.82
X74.375Y-179.18
X74.375Y-181.72
X74.375Y-184.26
X74.375Y-186.8
X21.84Y-192.6
X24.38Y-192.6
X26.92Y-192.6
X29.46Y-192.6
X32.0Y-192.6
X34.54Y-192.6
X37.08Y-192.6
X39.62Y-192.6
X42.16Y-192.6
X44.7Y-192.6
X47.24Y-192.6
X49.78Y-192.6
X52.32Y-192.6
X54.86Y-192.6
X57.4Y-192.6
X59.94Y-192.6
X51.0Y-179.18
X51.0Y-181.72
X51.0Y-184.26
X51.0Y-186.8
X16.2Y-182.26
X16.2Y-184.8
X54.8Y-179.18
X54.8Y-181.72
X54.8Y-184.26
X54.8Y-186.8
X60.8Y-179.18
X60.8Y-181.72
X60.8Y-184.26
X60.8Y-186.8
T3
X74.5Y-173.5
X16.5Y-192.5
X16.5Y-173.5
X74.5Y-192.5
T0
M30
