G04 #@! TF.GenerationSoftware,KiCad,Pcbnew,5.1.5+dfsg1-2build2*
G04 #@! TF.CreationDate,2022-12-16T12:04:58+00:00*
G04 #@! TF.ProjectId,rrl-interface,72726c2d-696e-4746-9572-666163652e6b,rev?*
G04 #@! TF.SameCoordinates,Original*
G04 #@! TF.FileFunction,Paste,Bot*
G04 #@! TF.FilePolarity,Positive*
%FSLAX46Y46*%
G04 Gerber Fmt 4.6, Leading zero omitted, Abs format (unit mm)*
G04 Created by KiCad (PCBNEW 5.1.5+dfsg1-2build2) date 2022-12-16 12:04:58*
%MOMM*%
%LPD*%
G04 APERTURE LIST*
%ADD10C,0.100000*%
%ADD11R,1.400000X0.300000*%
G04 APERTURE END LIST*
D10*
G36*
X48480142Y-180176174D02*
G01*
X48503803Y-180179684D01*
X48527007Y-180185496D01*
X48549529Y-180193554D01*
X48571153Y-180203782D01*
X48591670Y-180216079D01*
X48610883Y-180230329D01*
X48628607Y-180246393D01*
X48644671Y-180264117D01*
X48658921Y-180283330D01*
X48671218Y-180303847D01*
X48681446Y-180325471D01*
X48689504Y-180347993D01*
X48695316Y-180371197D01*
X48698826Y-180394858D01*
X48700000Y-180418750D01*
X48700000Y-180906250D01*
X48698826Y-180930142D01*
X48695316Y-180953803D01*
X48689504Y-180977007D01*
X48681446Y-180999529D01*
X48671218Y-181021153D01*
X48658921Y-181041670D01*
X48644671Y-181060883D01*
X48628607Y-181078607D01*
X48610883Y-181094671D01*
X48591670Y-181108921D01*
X48571153Y-181121218D01*
X48549529Y-181131446D01*
X48527007Y-181139504D01*
X48503803Y-181145316D01*
X48480142Y-181148826D01*
X48456250Y-181150000D01*
X47543750Y-181150000D01*
X47519858Y-181148826D01*
X47496197Y-181145316D01*
X47472993Y-181139504D01*
X47450471Y-181131446D01*
X47428847Y-181121218D01*
X47408330Y-181108921D01*
X47389117Y-181094671D01*
X47371393Y-181078607D01*
X47355329Y-181060883D01*
X47341079Y-181041670D01*
X47328782Y-181021153D01*
X47318554Y-180999529D01*
X47310496Y-180977007D01*
X47304684Y-180953803D01*
X47301174Y-180930142D01*
X47300000Y-180906250D01*
X47300000Y-180418750D01*
X47301174Y-180394858D01*
X47304684Y-180371197D01*
X47310496Y-180347993D01*
X47318554Y-180325471D01*
X47328782Y-180303847D01*
X47341079Y-180283330D01*
X47355329Y-180264117D01*
X47371393Y-180246393D01*
X47389117Y-180230329D01*
X47408330Y-180216079D01*
X47428847Y-180203782D01*
X47450471Y-180193554D01*
X47472993Y-180185496D01*
X47496197Y-180179684D01*
X47519858Y-180176174D01*
X47543750Y-180175000D01*
X48456250Y-180175000D01*
X48480142Y-180176174D01*
G37*
G36*
X48480142Y-182051174D02*
G01*
X48503803Y-182054684D01*
X48527007Y-182060496D01*
X48549529Y-182068554D01*
X48571153Y-182078782D01*
X48591670Y-182091079D01*
X48610883Y-182105329D01*
X48628607Y-182121393D01*
X48644671Y-182139117D01*
X48658921Y-182158330D01*
X48671218Y-182178847D01*
X48681446Y-182200471D01*
X48689504Y-182222993D01*
X48695316Y-182246197D01*
X48698826Y-182269858D01*
X48700000Y-182293750D01*
X48700000Y-182781250D01*
X48698826Y-182805142D01*
X48695316Y-182828803D01*
X48689504Y-182852007D01*
X48681446Y-182874529D01*
X48671218Y-182896153D01*
X48658921Y-182916670D01*
X48644671Y-182935883D01*
X48628607Y-182953607D01*
X48610883Y-182969671D01*
X48591670Y-182983921D01*
X48571153Y-182996218D01*
X48549529Y-183006446D01*
X48527007Y-183014504D01*
X48503803Y-183020316D01*
X48480142Y-183023826D01*
X48456250Y-183025000D01*
X47543750Y-183025000D01*
X47519858Y-183023826D01*
X47496197Y-183020316D01*
X47472993Y-183014504D01*
X47450471Y-183006446D01*
X47428847Y-182996218D01*
X47408330Y-182983921D01*
X47389117Y-182969671D01*
X47371393Y-182953607D01*
X47355329Y-182935883D01*
X47341079Y-182916670D01*
X47328782Y-182896153D01*
X47318554Y-182874529D01*
X47310496Y-182852007D01*
X47304684Y-182828803D01*
X47301174Y-182805142D01*
X47300000Y-182781250D01*
X47300000Y-182293750D01*
X47301174Y-182269858D01*
X47304684Y-182246197D01*
X47310496Y-182222993D01*
X47318554Y-182200471D01*
X47328782Y-182178847D01*
X47341079Y-182158330D01*
X47355329Y-182139117D01*
X47371393Y-182121393D01*
X47389117Y-182105329D01*
X47408330Y-182091079D01*
X47428847Y-182078782D01*
X47450471Y-182068554D01*
X47472993Y-182060496D01*
X47496197Y-182054684D01*
X47519858Y-182051174D01*
X47543750Y-182050000D01*
X48456250Y-182050000D01*
X48480142Y-182051174D01*
G37*
D11*
X43600000Y-176000000D03*
X43600000Y-175500000D03*
X43600000Y-175000000D03*
X43600000Y-174500000D03*
X43600000Y-174000000D03*
X48000000Y-174000000D03*
X48000000Y-174500000D03*
X48000000Y-175000000D03*
X48000000Y-175500000D03*
X48000000Y-176000000D03*
D10*
G36*
X21080142Y-184251174D02*
G01*
X21103803Y-184254684D01*
X21127007Y-184260496D01*
X21149529Y-184268554D01*
X21171153Y-184278782D01*
X21191670Y-184291079D01*
X21210883Y-184305329D01*
X21228607Y-184321393D01*
X21244671Y-184339117D01*
X21258921Y-184358330D01*
X21271218Y-184378847D01*
X21281446Y-184400471D01*
X21289504Y-184422993D01*
X21295316Y-184446197D01*
X21298826Y-184469858D01*
X21300000Y-184493750D01*
X21300000Y-184981250D01*
X21298826Y-185005142D01*
X21295316Y-185028803D01*
X21289504Y-185052007D01*
X21281446Y-185074529D01*
X21271218Y-185096153D01*
X21258921Y-185116670D01*
X21244671Y-185135883D01*
X21228607Y-185153607D01*
X21210883Y-185169671D01*
X21191670Y-185183921D01*
X21171153Y-185196218D01*
X21149529Y-185206446D01*
X21127007Y-185214504D01*
X21103803Y-185220316D01*
X21080142Y-185223826D01*
X21056250Y-185225000D01*
X20143750Y-185225000D01*
X20119858Y-185223826D01*
X20096197Y-185220316D01*
X20072993Y-185214504D01*
X20050471Y-185206446D01*
X20028847Y-185196218D01*
X20008330Y-185183921D01*
X19989117Y-185169671D01*
X19971393Y-185153607D01*
X19955329Y-185135883D01*
X19941079Y-185116670D01*
X19928782Y-185096153D01*
X19918554Y-185074529D01*
X19910496Y-185052007D01*
X19904684Y-185028803D01*
X19901174Y-185005142D01*
X19900000Y-184981250D01*
X19900000Y-184493750D01*
X19901174Y-184469858D01*
X19904684Y-184446197D01*
X19910496Y-184422993D01*
X19918554Y-184400471D01*
X19928782Y-184378847D01*
X19941079Y-184358330D01*
X19955329Y-184339117D01*
X19971393Y-184321393D01*
X19989117Y-184305329D01*
X20008330Y-184291079D01*
X20028847Y-184278782D01*
X20050471Y-184268554D01*
X20072993Y-184260496D01*
X20096197Y-184254684D01*
X20119858Y-184251174D01*
X20143750Y-184250000D01*
X21056250Y-184250000D01*
X21080142Y-184251174D01*
G37*
G36*
X21080142Y-182376174D02*
G01*
X21103803Y-182379684D01*
X21127007Y-182385496D01*
X21149529Y-182393554D01*
X21171153Y-182403782D01*
X21191670Y-182416079D01*
X21210883Y-182430329D01*
X21228607Y-182446393D01*
X21244671Y-182464117D01*
X21258921Y-182483330D01*
X21271218Y-182503847D01*
X21281446Y-182525471D01*
X21289504Y-182547993D01*
X21295316Y-182571197D01*
X21298826Y-182594858D01*
X21300000Y-182618750D01*
X21300000Y-183106250D01*
X21298826Y-183130142D01*
X21295316Y-183153803D01*
X21289504Y-183177007D01*
X21281446Y-183199529D01*
X21271218Y-183221153D01*
X21258921Y-183241670D01*
X21244671Y-183260883D01*
X21228607Y-183278607D01*
X21210883Y-183294671D01*
X21191670Y-183308921D01*
X21171153Y-183321218D01*
X21149529Y-183331446D01*
X21127007Y-183339504D01*
X21103803Y-183345316D01*
X21080142Y-183348826D01*
X21056250Y-183350000D01*
X20143750Y-183350000D01*
X20119858Y-183348826D01*
X20096197Y-183345316D01*
X20072993Y-183339504D01*
X20050471Y-183331446D01*
X20028847Y-183321218D01*
X20008330Y-183308921D01*
X19989117Y-183294671D01*
X19971393Y-183278607D01*
X19955329Y-183260883D01*
X19941079Y-183241670D01*
X19928782Y-183221153D01*
X19918554Y-183199529D01*
X19910496Y-183177007D01*
X19904684Y-183153803D01*
X19901174Y-183130142D01*
X19900000Y-183106250D01*
X19900000Y-182618750D01*
X19901174Y-182594858D01*
X19904684Y-182571197D01*
X19910496Y-182547993D01*
X19918554Y-182525471D01*
X19928782Y-182503847D01*
X19941079Y-182483330D01*
X19955329Y-182464117D01*
X19971393Y-182446393D01*
X19989117Y-182430329D01*
X20008330Y-182416079D01*
X20028847Y-182403782D01*
X20050471Y-182393554D01*
X20072993Y-182385496D01*
X20096197Y-182379684D01*
X20119858Y-182376174D01*
X20143750Y-182375000D01*
X21056250Y-182375000D01*
X21080142Y-182376174D01*
G37*
G36*
X58299504Y-183801204D02*
G01*
X58323773Y-183804804D01*
X58347571Y-183810765D01*
X58370671Y-183819030D01*
X58392849Y-183829520D01*
X58413893Y-183842133D01*
X58433598Y-183856747D01*
X58451777Y-183873223D01*
X58468253Y-183891402D01*
X58482867Y-183911107D01*
X58495480Y-183932151D01*
X58505970Y-183954329D01*
X58514235Y-183977429D01*
X58520196Y-184001227D01*
X58523796Y-184025496D01*
X58525000Y-184050000D01*
X58525000Y-184550000D01*
X58523796Y-184574504D01*
X58520196Y-184598773D01*
X58514235Y-184622571D01*
X58505970Y-184645671D01*
X58495480Y-184667849D01*
X58482867Y-184688893D01*
X58468253Y-184708598D01*
X58451777Y-184726777D01*
X58433598Y-184743253D01*
X58413893Y-184757867D01*
X58392849Y-184770480D01*
X58370671Y-184780970D01*
X58347571Y-184789235D01*
X58323773Y-184795196D01*
X58299504Y-184798796D01*
X58275000Y-184800000D01*
X57325000Y-184800000D01*
X57300496Y-184798796D01*
X57276227Y-184795196D01*
X57252429Y-184789235D01*
X57229329Y-184780970D01*
X57207151Y-184770480D01*
X57186107Y-184757867D01*
X57166402Y-184743253D01*
X57148223Y-184726777D01*
X57131747Y-184708598D01*
X57117133Y-184688893D01*
X57104520Y-184667849D01*
X57094030Y-184645671D01*
X57085765Y-184622571D01*
X57079804Y-184598773D01*
X57076204Y-184574504D01*
X57075000Y-184550000D01*
X57075000Y-184050000D01*
X57076204Y-184025496D01*
X57079804Y-184001227D01*
X57085765Y-183977429D01*
X57094030Y-183954329D01*
X57104520Y-183932151D01*
X57117133Y-183911107D01*
X57131747Y-183891402D01*
X57148223Y-183873223D01*
X57166402Y-183856747D01*
X57186107Y-183842133D01*
X57207151Y-183829520D01*
X57229329Y-183819030D01*
X57252429Y-183810765D01*
X57276227Y-183804804D01*
X57300496Y-183801204D01*
X57325000Y-183800000D01*
X58275000Y-183800000D01*
X58299504Y-183801204D01*
G37*
G36*
X58299504Y-185701204D02*
G01*
X58323773Y-185704804D01*
X58347571Y-185710765D01*
X58370671Y-185719030D01*
X58392849Y-185729520D01*
X58413893Y-185742133D01*
X58433598Y-185756747D01*
X58451777Y-185773223D01*
X58468253Y-185791402D01*
X58482867Y-185811107D01*
X58495480Y-185832151D01*
X58505970Y-185854329D01*
X58514235Y-185877429D01*
X58520196Y-185901227D01*
X58523796Y-185925496D01*
X58525000Y-185950000D01*
X58525000Y-186450000D01*
X58523796Y-186474504D01*
X58520196Y-186498773D01*
X58514235Y-186522571D01*
X58505970Y-186545671D01*
X58495480Y-186567849D01*
X58482867Y-186588893D01*
X58468253Y-186608598D01*
X58451777Y-186626777D01*
X58433598Y-186643253D01*
X58413893Y-186657867D01*
X58392849Y-186670480D01*
X58370671Y-186680970D01*
X58347571Y-186689235D01*
X58323773Y-186695196D01*
X58299504Y-186698796D01*
X58275000Y-186700000D01*
X57325000Y-186700000D01*
X57300496Y-186698796D01*
X57276227Y-186695196D01*
X57252429Y-186689235D01*
X57229329Y-186680970D01*
X57207151Y-186670480D01*
X57186107Y-186657867D01*
X57166402Y-186643253D01*
X57148223Y-186626777D01*
X57131747Y-186608598D01*
X57117133Y-186588893D01*
X57104520Y-186567849D01*
X57094030Y-186545671D01*
X57085765Y-186522571D01*
X57079804Y-186498773D01*
X57076204Y-186474504D01*
X57075000Y-186450000D01*
X57075000Y-185950000D01*
X57076204Y-185925496D01*
X57079804Y-185901227D01*
X57085765Y-185877429D01*
X57094030Y-185854329D01*
X57104520Y-185832151D01*
X57117133Y-185811107D01*
X57131747Y-185791402D01*
X57148223Y-185773223D01*
X57166402Y-185756747D01*
X57186107Y-185742133D01*
X57207151Y-185729520D01*
X57229329Y-185719030D01*
X57252429Y-185710765D01*
X57276227Y-185704804D01*
X57300496Y-185701204D01*
X57325000Y-185700000D01*
X58275000Y-185700000D01*
X58299504Y-185701204D01*
G37*
G36*
X68099504Y-185701204D02*
G01*
X68123773Y-185704804D01*
X68147571Y-185710765D01*
X68170671Y-185719030D01*
X68192849Y-185729520D01*
X68213893Y-185742133D01*
X68233598Y-185756747D01*
X68251777Y-185773223D01*
X68268253Y-185791402D01*
X68282867Y-185811107D01*
X68295480Y-185832151D01*
X68305970Y-185854329D01*
X68314235Y-185877429D01*
X68320196Y-185901227D01*
X68323796Y-185925496D01*
X68325000Y-185950000D01*
X68325000Y-186450000D01*
X68323796Y-186474504D01*
X68320196Y-186498773D01*
X68314235Y-186522571D01*
X68305970Y-186545671D01*
X68295480Y-186567849D01*
X68282867Y-186588893D01*
X68268253Y-186608598D01*
X68251777Y-186626777D01*
X68233598Y-186643253D01*
X68213893Y-186657867D01*
X68192849Y-186670480D01*
X68170671Y-186680970D01*
X68147571Y-186689235D01*
X68123773Y-186695196D01*
X68099504Y-186698796D01*
X68075000Y-186700000D01*
X67125000Y-186700000D01*
X67100496Y-186698796D01*
X67076227Y-186695196D01*
X67052429Y-186689235D01*
X67029329Y-186680970D01*
X67007151Y-186670480D01*
X66986107Y-186657867D01*
X66966402Y-186643253D01*
X66948223Y-186626777D01*
X66931747Y-186608598D01*
X66917133Y-186588893D01*
X66904520Y-186567849D01*
X66894030Y-186545671D01*
X66885765Y-186522571D01*
X66879804Y-186498773D01*
X66876204Y-186474504D01*
X66875000Y-186450000D01*
X66875000Y-185950000D01*
X66876204Y-185925496D01*
X66879804Y-185901227D01*
X66885765Y-185877429D01*
X66894030Y-185854329D01*
X66904520Y-185832151D01*
X66917133Y-185811107D01*
X66931747Y-185791402D01*
X66948223Y-185773223D01*
X66966402Y-185756747D01*
X66986107Y-185742133D01*
X67007151Y-185729520D01*
X67029329Y-185719030D01*
X67052429Y-185710765D01*
X67076227Y-185704804D01*
X67100496Y-185701204D01*
X67125000Y-185700000D01*
X68075000Y-185700000D01*
X68099504Y-185701204D01*
G37*
G36*
X68099504Y-183801204D02*
G01*
X68123773Y-183804804D01*
X68147571Y-183810765D01*
X68170671Y-183819030D01*
X68192849Y-183829520D01*
X68213893Y-183842133D01*
X68233598Y-183856747D01*
X68251777Y-183873223D01*
X68268253Y-183891402D01*
X68282867Y-183911107D01*
X68295480Y-183932151D01*
X68305970Y-183954329D01*
X68314235Y-183977429D01*
X68320196Y-184001227D01*
X68323796Y-184025496D01*
X68325000Y-184050000D01*
X68325000Y-184550000D01*
X68323796Y-184574504D01*
X68320196Y-184598773D01*
X68314235Y-184622571D01*
X68305970Y-184645671D01*
X68295480Y-184667849D01*
X68282867Y-184688893D01*
X68268253Y-184708598D01*
X68251777Y-184726777D01*
X68233598Y-184743253D01*
X68213893Y-184757867D01*
X68192849Y-184770480D01*
X68170671Y-184780970D01*
X68147571Y-184789235D01*
X68123773Y-184795196D01*
X68099504Y-184798796D01*
X68075000Y-184800000D01*
X67125000Y-184800000D01*
X67100496Y-184798796D01*
X67076227Y-184795196D01*
X67052429Y-184789235D01*
X67029329Y-184780970D01*
X67007151Y-184770480D01*
X66986107Y-184757867D01*
X66966402Y-184743253D01*
X66948223Y-184726777D01*
X66931747Y-184708598D01*
X66917133Y-184688893D01*
X66904520Y-184667849D01*
X66894030Y-184645671D01*
X66885765Y-184622571D01*
X66879804Y-184598773D01*
X66876204Y-184574504D01*
X66875000Y-184550000D01*
X66875000Y-184050000D01*
X66876204Y-184025496D01*
X66879804Y-184001227D01*
X66885765Y-183977429D01*
X66894030Y-183954329D01*
X66904520Y-183932151D01*
X66917133Y-183911107D01*
X66931747Y-183891402D01*
X66948223Y-183873223D01*
X66966402Y-183856747D01*
X66986107Y-183842133D01*
X67007151Y-183829520D01*
X67029329Y-183819030D01*
X67052429Y-183810765D01*
X67076227Y-183804804D01*
X67100496Y-183801204D01*
X67125000Y-183800000D01*
X68075000Y-183800000D01*
X68099504Y-183801204D01*
G37*
G36*
X48499504Y-185701204D02*
G01*
X48523773Y-185704804D01*
X48547571Y-185710765D01*
X48570671Y-185719030D01*
X48592849Y-185729520D01*
X48613893Y-185742133D01*
X48633598Y-185756747D01*
X48651777Y-185773223D01*
X48668253Y-185791402D01*
X48682867Y-185811107D01*
X48695480Y-185832151D01*
X48705970Y-185854329D01*
X48714235Y-185877429D01*
X48720196Y-185901227D01*
X48723796Y-185925496D01*
X48725000Y-185950000D01*
X48725000Y-186450000D01*
X48723796Y-186474504D01*
X48720196Y-186498773D01*
X48714235Y-186522571D01*
X48705970Y-186545671D01*
X48695480Y-186567849D01*
X48682867Y-186588893D01*
X48668253Y-186608598D01*
X48651777Y-186626777D01*
X48633598Y-186643253D01*
X48613893Y-186657867D01*
X48592849Y-186670480D01*
X48570671Y-186680970D01*
X48547571Y-186689235D01*
X48523773Y-186695196D01*
X48499504Y-186698796D01*
X48475000Y-186700000D01*
X47525000Y-186700000D01*
X47500496Y-186698796D01*
X47476227Y-186695196D01*
X47452429Y-186689235D01*
X47429329Y-186680970D01*
X47407151Y-186670480D01*
X47386107Y-186657867D01*
X47366402Y-186643253D01*
X47348223Y-186626777D01*
X47331747Y-186608598D01*
X47317133Y-186588893D01*
X47304520Y-186567849D01*
X47294030Y-186545671D01*
X47285765Y-186522571D01*
X47279804Y-186498773D01*
X47276204Y-186474504D01*
X47275000Y-186450000D01*
X47275000Y-185950000D01*
X47276204Y-185925496D01*
X47279804Y-185901227D01*
X47285765Y-185877429D01*
X47294030Y-185854329D01*
X47304520Y-185832151D01*
X47317133Y-185811107D01*
X47331747Y-185791402D01*
X47348223Y-185773223D01*
X47366402Y-185756747D01*
X47386107Y-185742133D01*
X47407151Y-185729520D01*
X47429329Y-185719030D01*
X47452429Y-185710765D01*
X47476227Y-185704804D01*
X47500496Y-185701204D01*
X47525000Y-185700000D01*
X48475000Y-185700000D01*
X48499504Y-185701204D01*
G37*
G36*
X48499504Y-183801204D02*
G01*
X48523773Y-183804804D01*
X48547571Y-183810765D01*
X48570671Y-183819030D01*
X48592849Y-183829520D01*
X48613893Y-183842133D01*
X48633598Y-183856747D01*
X48651777Y-183873223D01*
X48668253Y-183891402D01*
X48682867Y-183911107D01*
X48695480Y-183932151D01*
X48705970Y-183954329D01*
X48714235Y-183977429D01*
X48720196Y-184001227D01*
X48723796Y-184025496D01*
X48725000Y-184050000D01*
X48725000Y-184550000D01*
X48723796Y-184574504D01*
X48720196Y-184598773D01*
X48714235Y-184622571D01*
X48705970Y-184645671D01*
X48695480Y-184667849D01*
X48682867Y-184688893D01*
X48668253Y-184708598D01*
X48651777Y-184726777D01*
X48633598Y-184743253D01*
X48613893Y-184757867D01*
X48592849Y-184770480D01*
X48570671Y-184780970D01*
X48547571Y-184789235D01*
X48523773Y-184795196D01*
X48499504Y-184798796D01*
X48475000Y-184800000D01*
X47525000Y-184800000D01*
X47500496Y-184798796D01*
X47476227Y-184795196D01*
X47452429Y-184789235D01*
X47429329Y-184780970D01*
X47407151Y-184770480D01*
X47386107Y-184757867D01*
X47366402Y-184743253D01*
X47348223Y-184726777D01*
X47331747Y-184708598D01*
X47317133Y-184688893D01*
X47304520Y-184667849D01*
X47294030Y-184645671D01*
X47285765Y-184622571D01*
X47279804Y-184598773D01*
X47276204Y-184574504D01*
X47275000Y-184550000D01*
X47275000Y-184050000D01*
X47276204Y-184025496D01*
X47279804Y-184001227D01*
X47285765Y-183977429D01*
X47294030Y-183954329D01*
X47304520Y-183932151D01*
X47317133Y-183911107D01*
X47331747Y-183891402D01*
X47348223Y-183873223D01*
X47366402Y-183856747D01*
X47386107Y-183842133D01*
X47407151Y-183829520D01*
X47429329Y-183819030D01*
X47452429Y-183810765D01*
X47476227Y-183804804D01*
X47500496Y-183801204D01*
X47525000Y-183800000D01*
X48475000Y-183800000D01*
X48499504Y-183801204D01*
G37*
M02*
