G04 #@! TF.GenerationSoftware,KiCad,Pcbnew,5.1.5+dfsg1-2build2*
G04 #@! TF.CreationDate,2022-05-11T12:23:00+01:00*
G04 #@! TF.ProjectId,rrl-interface,72726c2d-696e-4746-9572-666163652e6b,rev?*
G04 #@! TF.SameCoordinates,Original*
G04 #@! TF.FileFunction,Copper,L2,Bot*
G04 #@! TF.FilePolarity,Positive*
%FSLAX46Y46*%
G04 Gerber Fmt 4.6, Leading zero omitted, Abs format (unit mm)*
G04 Created by KiCad (PCBNEW 5.1.5+dfsg1-2build2) date 2022-05-11 12:23:00*
%MOMM*%
%LPD*%
G04 APERTURE LIST*
%ADD10O,1.600000X1.600000*%
%ADD11R,1.600000X1.600000*%
%ADD12R,1.700000X1.700000*%
%ADD13O,1.700000X1.700000*%
%ADD14C,0.100000*%
%ADD15R,1.400000X0.300000*%
%ADD16C,1.000000*%
%ADD17C,0.300000*%
%ADD18C,0.250000*%
%ADD19C,0.254000*%
G04 APERTURE END LIST*
D10*
X56480000Y-189120000D03*
X51400000Y-181500000D03*
X51400000Y-189120000D03*
D11*
X56480000Y-181500000D03*
X46400000Y-181600000D03*
D10*
X41320000Y-189220000D03*
X41320000Y-181600000D03*
X46400000Y-189220000D03*
D12*
X22060000Y-192500000D03*
D13*
X24600000Y-192500000D03*
G04 #@! TA.AperFunction,SMDPad,CuDef*
D14*
G36*
X67480142Y-186151174D02*
G01*
X67503803Y-186154684D01*
X67527007Y-186160496D01*
X67549529Y-186168554D01*
X67571153Y-186178782D01*
X67591670Y-186191079D01*
X67610883Y-186205329D01*
X67628607Y-186221393D01*
X67644671Y-186239117D01*
X67658921Y-186258330D01*
X67671218Y-186278847D01*
X67681446Y-186300471D01*
X67689504Y-186322993D01*
X67695316Y-186346197D01*
X67698826Y-186369858D01*
X67700000Y-186393750D01*
X67700000Y-186881250D01*
X67698826Y-186905142D01*
X67695316Y-186928803D01*
X67689504Y-186952007D01*
X67681446Y-186974529D01*
X67671218Y-186996153D01*
X67658921Y-187016670D01*
X67644671Y-187035883D01*
X67628607Y-187053607D01*
X67610883Y-187069671D01*
X67591670Y-187083921D01*
X67571153Y-187096218D01*
X67549529Y-187106446D01*
X67527007Y-187114504D01*
X67503803Y-187120316D01*
X67480142Y-187123826D01*
X67456250Y-187125000D01*
X66543750Y-187125000D01*
X66519858Y-187123826D01*
X66496197Y-187120316D01*
X66472993Y-187114504D01*
X66450471Y-187106446D01*
X66428847Y-187096218D01*
X66408330Y-187083921D01*
X66389117Y-187069671D01*
X66371393Y-187053607D01*
X66355329Y-187035883D01*
X66341079Y-187016670D01*
X66328782Y-186996153D01*
X66318554Y-186974529D01*
X66310496Y-186952007D01*
X66304684Y-186928803D01*
X66301174Y-186905142D01*
X66300000Y-186881250D01*
X66300000Y-186393750D01*
X66301174Y-186369858D01*
X66304684Y-186346197D01*
X66310496Y-186322993D01*
X66318554Y-186300471D01*
X66328782Y-186278847D01*
X66341079Y-186258330D01*
X66355329Y-186239117D01*
X66371393Y-186221393D01*
X66389117Y-186205329D01*
X66408330Y-186191079D01*
X66428847Y-186178782D01*
X66450471Y-186168554D01*
X66472993Y-186160496D01*
X66496197Y-186154684D01*
X66519858Y-186151174D01*
X66543750Y-186150000D01*
X67456250Y-186150000D01*
X67480142Y-186151174D01*
G37*
G04 #@! TD.AperFunction*
G04 #@! TA.AperFunction,SMDPad,CuDef*
G36*
X67480142Y-184276174D02*
G01*
X67503803Y-184279684D01*
X67527007Y-184285496D01*
X67549529Y-184293554D01*
X67571153Y-184303782D01*
X67591670Y-184316079D01*
X67610883Y-184330329D01*
X67628607Y-184346393D01*
X67644671Y-184364117D01*
X67658921Y-184383330D01*
X67671218Y-184403847D01*
X67681446Y-184425471D01*
X67689504Y-184447993D01*
X67695316Y-184471197D01*
X67698826Y-184494858D01*
X67700000Y-184518750D01*
X67700000Y-185006250D01*
X67698826Y-185030142D01*
X67695316Y-185053803D01*
X67689504Y-185077007D01*
X67681446Y-185099529D01*
X67671218Y-185121153D01*
X67658921Y-185141670D01*
X67644671Y-185160883D01*
X67628607Y-185178607D01*
X67610883Y-185194671D01*
X67591670Y-185208921D01*
X67571153Y-185221218D01*
X67549529Y-185231446D01*
X67527007Y-185239504D01*
X67503803Y-185245316D01*
X67480142Y-185248826D01*
X67456250Y-185250000D01*
X66543750Y-185250000D01*
X66519858Y-185248826D01*
X66496197Y-185245316D01*
X66472993Y-185239504D01*
X66450471Y-185231446D01*
X66428847Y-185221218D01*
X66408330Y-185208921D01*
X66389117Y-185194671D01*
X66371393Y-185178607D01*
X66355329Y-185160883D01*
X66341079Y-185141670D01*
X66328782Y-185121153D01*
X66318554Y-185099529D01*
X66310496Y-185077007D01*
X66304684Y-185053803D01*
X66301174Y-185030142D01*
X66300000Y-185006250D01*
X66300000Y-184518750D01*
X66301174Y-184494858D01*
X66304684Y-184471197D01*
X66310496Y-184447993D01*
X66318554Y-184425471D01*
X66328782Y-184403847D01*
X66341079Y-184383330D01*
X66355329Y-184364117D01*
X66371393Y-184346393D01*
X66389117Y-184330329D01*
X66408330Y-184316079D01*
X66428847Y-184303782D01*
X66450471Y-184293554D01*
X66472993Y-184285496D01*
X66496197Y-184279684D01*
X66519858Y-184276174D01*
X66543750Y-184275000D01*
X67456250Y-184275000D01*
X67480142Y-184276174D01*
G37*
G04 #@! TD.AperFunction*
G04 #@! TA.AperFunction,SMDPad,CuDef*
G36*
X77080142Y-186251174D02*
G01*
X77103803Y-186254684D01*
X77127007Y-186260496D01*
X77149529Y-186268554D01*
X77171153Y-186278782D01*
X77191670Y-186291079D01*
X77210883Y-186305329D01*
X77228607Y-186321393D01*
X77244671Y-186339117D01*
X77258921Y-186358330D01*
X77271218Y-186378847D01*
X77281446Y-186400471D01*
X77289504Y-186422993D01*
X77295316Y-186446197D01*
X77298826Y-186469858D01*
X77300000Y-186493750D01*
X77300000Y-186981250D01*
X77298826Y-187005142D01*
X77295316Y-187028803D01*
X77289504Y-187052007D01*
X77281446Y-187074529D01*
X77271218Y-187096153D01*
X77258921Y-187116670D01*
X77244671Y-187135883D01*
X77228607Y-187153607D01*
X77210883Y-187169671D01*
X77191670Y-187183921D01*
X77171153Y-187196218D01*
X77149529Y-187206446D01*
X77127007Y-187214504D01*
X77103803Y-187220316D01*
X77080142Y-187223826D01*
X77056250Y-187225000D01*
X76143750Y-187225000D01*
X76119858Y-187223826D01*
X76096197Y-187220316D01*
X76072993Y-187214504D01*
X76050471Y-187206446D01*
X76028847Y-187196218D01*
X76008330Y-187183921D01*
X75989117Y-187169671D01*
X75971393Y-187153607D01*
X75955329Y-187135883D01*
X75941079Y-187116670D01*
X75928782Y-187096153D01*
X75918554Y-187074529D01*
X75910496Y-187052007D01*
X75904684Y-187028803D01*
X75901174Y-187005142D01*
X75900000Y-186981250D01*
X75900000Y-186493750D01*
X75901174Y-186469858D01*
X75904684Y-186446197D01*
X75910496Y-186422993D01*
X75918554Y-186400471D01*
X75928782Y-186378847D01*
X75941079Y-186358330D01*
X75955329Y-186339117D01*
X75971393Y-186321393D01*
X75989117Y-186305329D01*
X76008330Y-186291079D01*
X76028847Y-186278782D01*
X76050471Y-186268554D01*
X76072993Y-186260496D01*
X76096197Y-186254684D01*
X76119858Y-186251174D01*
X76143750Y-186250000D01*
X77056250Y-186250000D01*
X77080142Y-186251174D01*
G37*
G04 #@! TD.AperFunction*
G04 #@! TA.AperFunction,SMDPad,CuDef*
G36*
X77080142Y-184376174D02*
G01*
X77103803Y-184379684D01*
X77127007Y-184385496D01*
X77149529Y-184393554D01*
X77171153Y-184403782D01*
X77191670Y-184416079D01*
X77210883Y-184430329D01*
X77228607Y-184446393D01*
X77244671Y-184464117D01*
X77258921Y-184483330D01*
X77271218Y-184503847D01*
X77281446Y-184525471D01*
X77289504Y-184547993D01*
X77295316Y-184571197D01*
X77298826Y-184594858D01*
X77300000Y-184618750D01*
X77300000Y-185106250D01*
X77298826Y-185130142D01*
X77295316Y-185153803D01*
X77289504Y-185177007D01*
X77281446Y-185199529D01*
X77271218Y-185221153D01*
X77258921Y-185241670D01*
X77244671Y-185260883D01*
X77228607Y-185278607D01*
X77210883Y-185294671D01*
X77191670Y-185308921D01*
X77171153Y-185321218D01*
X77149529Y-185331446D01*
X77127007Y-185339504D01*
X77103803Y-185345316D01*
X77080142Y-185348826D01*
X77056250Y-185350000D01*
X76143750Y-185350000D01*
X76119858Y-185348826D01*
X76096197Y-185345316D01*
X76072993Y-185339504D01*
X76050471Y-185331446D01*
X76028847Y-185321218D01*
X76008330Y-185308921D01*
X75989117Y-185294671D01*
X75971393Y-185278607D01*
X75955329Y-185260883D01*
X75941079Y-185241670D01*
X75928782Y-185221153D01*
X75918554Y-185199529D01*
X75910496Y-185177007D01*
X75904684Y-185153803D01*
X75901174Y-185130142D01*
X75900000Y-185106250D01*
X75900000Y-184618750D01*
X75901174Y-184594858D01*
X75904684Y-184571197D01*
X75910496Y-184547993D01*
X75918554Y-184525471D01*
X75928782Y-184503847D01*
X75941079Y-184483330D01*
X75955329Y-184464117D01*
X75971393Y-184446393D01*
X75989117Y-184430329D01*
X76008330Y-184416079D01*
X76028847Y-184403782D01*
X76050471Y-184393554D01*
X76072993Y-184385496D01*
X76096197Y-184379684D01*
X76119858Y-184376174D01*
X76143750Y-184375000D01*
X77056250Y-184375000D01*
X77080142Y-184376174D01*
G37*
G04 #@! TD.AperFunction*
G04 #@! TA.AperFunction,SMDPad,CuDef*
G36*
X64130142Y-181901174D02*
G01*
X64153803Y-181904684D01*
X64177007Y-181910496D01*
X64199529Y-181918554D01*
X64221153Y-181928782D01*
X64241670Y-181941079D01*
X64260883Y-181955329D01*
X64278607Y-181971393D01*
X64294671Y-181989117D01*
X64308921Y-182008330D01*
X64321218Y-182028847D01*
X64331446Y-182050471D01*
X64339504Y-182072993D01*
X64345316Y-182096197D01*
X64348826Y-182119858D01*
X64350000Y-182143750D01*
X64350000Y-183056250D01*
X64348826Y-183080142D01*
X64345316Y-183103803D01*
X64339504Y-183127007D01*
X64331446Y-183149529D01*
X64321218Y-183171153D01*
X64308921Y-183191670D01*
X64294671Y-183210883D01*
X64278607Y-183228607D01*
X64260883Y-183244671D01*
X64241670Y-183258921D01*
X64221153Y-183271218D01*
X64199529Y-183281446D01*
X64177007Y-183289504D01*
X64153803Y-183295316D01*
X64130142Y-183298826D01*
X64106250Y-183300000D01*
X63618750Y-183300000D01*
X63594858Y-183298826D01*
X63571197Y-183295316D01*
X63547993Y-183289504D01*
X63525471Y-183281446D01*
X63503847Y-183271218D01*
X63483330Y-183258921D01*
X63464117Y-183244671D01*
X63446393Y-183228607D01*
X63430329Y-183210883D01*
X63416079Y-183191670D01*
X63403782Y-183171153D01*
X63393554Y-183149529D01*
X63385496Y-183127007D01*
X63379684Y-183103803D01*
X63376174Y-183080142D01*
X63375000Y-183056250D01*
X63375000Y-182143750D01*
X63376174Y-182119858D01*
X63379684Y-182096197D01*
X63385496Y-182072993D01*
X63393554Y-182050471D01*
X63403782Y-182028847D01*
X63416079Y-182008330D01*
X63430329Y-181989117D01*
X63446393Y-181971393D01*
X63464117Y-181955329D01*
X63483330Y-181941079D01*
X63503847Y-181928782D01*
X63525471Y-181918554D01*
X63547993Y-181910496D01*
X63571197Y-181904684D01*
X63594858Y-181901174D01*
X63618750Y-181900000D01*
X64106250Y-181900000D01*
X64130142Y-181901174D01*
G37*
G04 #@! TD.AperFunction*
G04 #@! TA.AperFunction,SMDPad,CuDef*
G36*
X66005142Y-181901174D02*
G01*
X66028803Y-181904684D01*
X66052007Y-181910496D01*
X66074529Y-181918554D01*
X66096153Y-181928782D01*
X66116670Y-181941079D01*
X66135883Y-181955329D01*
X66153607Y-181971393D01*
X66169671Y-181989117D01*
X66183921Y-182008330D01*
X66196218Y-182028847D01*
X66206446Y-182050471D01*
X66214504Y-182072993D01*
X66220316Y-182096197D01*
X66223826Y-182119858D01*
X66225000Y-182143750D01*
X66225000Y-183056250D01*
X66223826Y-183080142D01*
X66220316Y-183103803D01*
X66214504Y-183127007D01*
X66206446Y-183149529D01*
X66196218Y-183171153D01*
X66183921Y-183191670D01*
X66169671Y-183210883D01*
X66153607Y-183228607D01*
X66135883Y-183244671D01*
X66116670Y-183258921D01*
X66096153Y-183271218D01*
X66074529Y-183281446D01*
X66052007Y-183289504D01*
X66028803Y-183295316D01*
X66005142Y-183298826D01*
X65981250Y-183300000D01*
X65493750Y-183300000D01*
X65469858Y-183298826D01*
X65446197Y-183295316D01*
X65422993Y-183289504D01*
X65400471Y-183281446D01*
X65378847Y-183271218D01*
X65358330Y-183258921D01*
X65339117Y-183244671D01*
X65321393Y-183228607D01*
X65305329Y-183210883D01*
X65291079Y-183191670D01*
X65278782Y-183171153D01*
X65268554Y-183149529D01*
X65260496Y-183127007D01*
X65254684Y-183103803D01*
X65251174Y-183080142D01*
X65250000Y-183056250D01*
X65250000Y-182143750D01*
X65251174Y-182119858D01*
X65254684Y-182096197D01*
X65260496Y-182072993D01*
X65268554Y-182050471D01*
X65278782Y-182028847D01*
X65291079Y-182008330D01*
X65305329Y-181989117D01*
X65321393Y-181971393D01*
X65339117Y-181955329D01*
X65358330Y-181941079D01*
X65378847Y-181928782D01*
X65400471Y-181918554D01*
X65422993Y-181910496D01*
X65446197Y-181904684D01*
X65469858Y-181901174D01*
X65493750Y-181900000D01*
X65981250Y-181900000D01*
X66005142Y-181901174D01*
G37*
G04 #@! TD.AperFunction*
D12*
X66700000Y-192500000D03*
D13*
X64160000Y-192500000D03*
X61620000Y-192500000D03*
X59080000Y-192500000D03*
X56540000Y-192500000D03*
X54000000Y-192500000D03*
X51460000Y-192500000D03*
X48920000Y-192500000D03*
X46380000Y-192500000D03*
X43840000Y-192500000D03*
X41300000Y-192500000D03*
X38760000Y-192500000D03*
X36220000Y-192500000D03*
X33680000Y-192500000D03*
X31140000Y-192500000D03*
X28600000Y-192500000D03*
D12*
X73500000Y-186920000D03*
D13*
X73500000Y-184380000D03*
X73500000Y-181840000D03*
X73500000Y-179300000D03*
X70000000Y-179300000D03*
X70000000Y-181840000D03*
X70000000Y-184380000D03*
D12*
X70000000Y-186920000D03*
D15*
X61400000Y-180400000D03*
X61400000Y-179900000D03*
X61400000Y-179400000D03*
X61400000Y-178900000D03*
X61400000Y-178400000D03*
X65800000Y-178400000D03*
X65800000Y-178900000D03*
X65800000Y-179400000D03*
X65800000Y-179900000D03*
X65800000Y-180400000D03*
G04 #@! TA.AperFunction,SMDPad,CuDef*
D14*
G36*
X22730142Y-188601174D02*
G01*
X22753803Y-188604684D01*
X22777007Y-188610496D01*
X22799529Y-188618554D01*
X22821153Y-188628782D01*
X22841670Y-188641079D01*
X22860883Y-188655329D01*
X22878607Y-188671393D01*
X22894671Y-188689117D01*
X22908921Y-188708330D01*
X22921218Y-188728847D01*
X22931446Y-188750471D01*
X22939504Y-188772993D01*
X22945316Y-188796197D01*
X22948826Y-188819858D01*
X22950000Y-188843750D01*
X22950000Y-189756250D01*
X22948826Y-189780142D01*
X22945316Y-189803803D01*
X22939504Y-189827007D01*
X22931446Y-189849529D01*
X22921218Y-189871153D01*
X22908921Y-189891670D01*
X22894671Y-189910883D01*
X22878607Y-189928607D01*
X22860883Y-189944671D01*
X22841670Y-189958921D01*
X22821153Y-189971218D01*
X22799529Y-189981446D01*
X22777007Y-189989504D01*
X22753803Y-189995316D01*
X22730142Y-189998826D01*
X22706250Y-190000000D01*
X22218750Y-190000000D01*
X22194858Y-189998826D01*
X22171197Y-189995316D01*
X22147993Y-189989504D01*
X22125471Y-189981446D01*
X22103847Y-189971218D01*
X22083330Y-189958921D01*
X22064117Y-189944671D01*
X22046393Y-189928607D01*
X22030329Y-189910883D01*
X22016079Y-189891670D01*
X22003782Y-189871153D01*
X21993554Y-189849529D01*
X21985496Y-189827007D01*
X21979684Y-189803803D01*
X21976174Y-189780142D01*
X21975000Y-189756250D01*
X21975000Y-188843750D01*
X21976174Y-188819858D01*
X21979684Y-188796197D01*
X21985496Y-188772993D01*
X21993554Y-188750471D01*
X22003782Y-188728847D01*
X22016079Y-188708330D01*
X22030329Y-188689117D01*
X22046393Y-188671393D01*
X22064117Y-188655329D01*
X22083330Y-188641079D01*
X22103847Y-188628782D01*
X22125471Y-188618554D01*
X22147993Y-188610496D01*
X22171197Y-188604684D01*
X22194858Y-188601174D01*
X22218750Y-188600000D01*
X22706250Y-188600000D01*
X22730142Y-188601174D01*
G37*
G04 #@! TD.AperFunction*
G04 #@! TA.AperFunction,SMDPad,CuDef*
G36*
X24605142Y-188601174D02*
G01*
X24628803Y-188604684D01*
X24652007Y-188610496D01*
X24674529Y-188618554D01*
X24696153Y-188628782D01*
X24716670Y-188641079D01*
X24735883Y-188655329D01*
X24753607Y-188671393D01*
X24769671Y-188689117D01*
X24783921Y-188708330D01*
X24796218Y-188728847D01*
X24806446Y-188750471D01*
X24814504Y-188772993D01*
X24820316Y-188796197D01*
X24823826Y-188819858D01*
X24825000Y-188843750D01*
X24825000Y-189756250D01*
X24823826Y-189780142D01*
X24820316Y-189803803D01*
X24814504Y-189827007D01*
X24806446Y-189849529D01*
X24796218Y-189871153D01*
X24783921Y-189891670D01*
X24769671Y-189910883D01*
X24753607Y-189928607D01*
X24735883Y-189944671D01*
X24716670Y-189958921D01*
X24696153Y-189971218D01*
X24674529Y-189981446D01*
X24652007Y-189989504D01*
X24628803Y-189995316D01*
X24605142Y-189998826D01*
X24581250Y-190000000D01*
X24093750Y-190000000D01*
X24069858Y-189998826D01*
X24046197Y-189995316D01*
X24022993Y-189989504D01*
X24000471Y-189981446D01*
X23978847Y-189971218D01*
X23958330Y-189958921D01*
X23939117Y-189944671D01*
X23921393Y-189928607D01*
X23905329Y-189910883D01*
X23891079Y-189891670D01*
X23878782Y-189871153D01*
X23868554Y-189849529D01*
X23860496Y-189827007D01*
X23854684Y-189803803D01*
X23851174Y-189780142D01*
X23850000Y-189756250D01*
X23850000Y-188843750D01*
X23851174Y-188819858D01*
X23854684Y-188796197D01*
X23860496Y-188772993D01*
X23868554Y-188750471D01*
X23878782Y-188728847D01*
X23891079Y-188708330D01*
X23905329Y-188689117D01*
X23921393Y-188671393D01*
X23939117Y-188655329D01*
X23958330Y-188641079D01*
X23978847Y-188628782D01*
X24000471Y-188618554D01*
X24022993Y-188610496D01*
X24046197Y-188604684D01*
X24069858Y-188601174D01*
X24093750Y-188600000D01*
X24581250Y-188600000D01*
X24605142Y-188601174D01*
G37*
G04 #@! TD.AperFunction*
D16*
X41320000Y-181600000D02*
X44220000Y-184500000D01*
X48400000Y-184500000D02*
X51400000Y-181500000D01*
X44220000Y-184500000D02*
X48400000Y-184500000D01*
X46400000Y-192480000D02*
X46380000Y-192500000D01*
D17*
X65800000Y-180400000D02*
X64100000Y-180400000D01*
X64100000Y-180400000D02*
X63800000Y-180700000D01*
D16*
X61620000Y-192500000D02*
X61620000Y-194620000D01*
X61620000Y-194620000D02*
X61040000Y-195200000D01*
X61040000Y-195200000D02*
X52400000Y-195200000D01*
X51460000Y-194260000D02*
X51460000Y-192500000D01*
X52400000Y-195200000D02*
X51460000Y-194260000D01*
X51460000Y-194260000D02*
X51440000Y-194260000D01*
X51440000Y-194260000D02*
X50500000Y-195200000D01*
X50500000Y-195200000D02*
X42600000Y-195200000D01*
X41300000Y-193900000D02*
X41300000Y-192500000D01*
X42600000Y-195200000D02*
X41300000Y-193900000D01*
X31140000Y-194240000D02*
X31140000Y-192500000D01*
X31900000Y-195000000D02*
X31140000Y-194240000D01*
X40100000Y-195000000D02*
X31900000Y-195000000D01*
X41200000Y-193900000D02*
X40100000Y-195000000D01*
X41300000Y-193900000D02*
X41200000Y-193900000D01*
X73500000Y-186920000D02*
X70000000Y-186920000D01*
X66419990Y-190500010D02*
X62299990Y-190500010D01*
X62299990Y-190500010D02*
X61620000Y-191180000D01*
X61620000Y-192500000D02*
X61620000Y-191180000D01*
X67282500Y-186920000D02*
X67000000Y-186637500D01*
X70000000Y-186920000D02*
X67282500Y-186920000D01*
X67000000Y-189920000D02*
X66419990Y-190500010D01*
X67000000Y-186637500D02*
X67000000Y-189920000D01*
X64837500Y-186637500D02*
X67000000Y-186637500D01*
D17*
X63800000Y-181837500D02*
X63800000Y-180700000D01*
X63862500Y-181900000D02*
X63800000Y-181837500D01*
X63862500Y-182600000D02*
X63862500Y-181900000D01*
D16*
X76417500Y-186920000D02*
X76600000Y-186737500D01*
X73500000Y-186920000D02*
X76417500Y-186920000D01*
X63862500Y-185662500D02*
X64837500Y-186637500D01*
X63862500Y-182600000D02*
X63862500Y-185662500D01*
D17*
X65800000Y-179900000D02*
X65800000Y-179600000D01*
X65800000Y-179600000D02*
X65800000Y-179400000D01*
X62400000Y-178400000D02*
X61400000Y-178400000D01*
X63800000Y-178400000D02*
X62400000Y-178400000D01*
X64800000Y-179400000D02*
X63800000Y-178400000D01*
X65800000Y-179400000D02*
X64800000Y-179400000D01*
D18*
X59929999Y-191650001D02*
X59080000Y-192500000D01*
X60529999Y-191050001D02*
X59929999Y-191650001D01*
X60529999Y-180470001D02*
X60529999Y-191050001D01*
X60600000Y-180400000D02*
X60529999Y-180470001D01*
X61400000Y-180400000D02*
X60600000Y-180400000D01*
X48920000Y-191469998D02*
X48920000Y-192500000D01*
X49075001Y-191324999D02*
X49064999Y-191324999D01*
X49200000Y-191200000D02*
X49075001Y-191324999D01*
X58000000Y-191200000D02*
X49200000Y-191200000D01*
X60079989Y-189120011D02*
X58000000Y-191200000D01*
X60079989Y-179948247D02*
X60079989Y-189120011D01*
X49064999Y-191324999D02*
X48920000Y-191469998D01*
X60128236Y-179900000D02*
X60079989Y-179948247D01*
X61400000Y-179900000D02*
X60128236Y-179900000D01*
X38760000Y-191297919D02*
X38760000Y-192500000D01*
X56940000Y-190740000D02*
X56860000Y-190740000D01*
X58900000Y-189500000D02*
X57700000Y-190700000D01*
X39257919Y-190800000D02*
X38760000Y-191297919D01*
X59700000Y-179400000D02*
X59500000Y-179600000D01*
X40500000Y-190800000D02*
X39257919Y-190800000D01*
X61400000Y-179400000D02*
X59700000Y-179400000D01*
X59500000Y-188900000D02*
X57650010Y-190749990D01*
X59500000Y-179600000D02*
X59500000Y-188900000D01*
X56649990Y-190749990D02*
X56640804Y-190740804D01*
X57650010Y-190749990D02*
X56649990Y-190749990D01*
X56640804Y-190740804D02*
X40500000Y-190800000D01*
X56860000Y-190740000D02*
X56640804Y-190740804D01*
D17*
X61400000Y-178900000D02*
X60000000Y-178900000D01*
D18*
X28754998Y-192500000D02*
X28600000Y-192500000D01*
X29297919Y-190600000D02*
X28600000Y-191297919D01*
X39400000Y-189200000D02*
X38000000Y-190600000D01*
X40100000Y-187600000D02*
X39400000Y-188300000D01*
X57300000Y-187600000D02*
X40100000Y-187600000D01*
X38000000Y-190600000D02*
X29297919Y-190600000D01*
X59049990Y-185850010D02*
X57300000Y-187600000D01*
X28600000Y-191297919D02*
X28600000Y-192500000D01*
X39400000Y-188300000D02*
X39400000Y-189200000D01*
X59049990Y-179049990D02*
X59049990Y-185850010D01*
X59199980Y-178900000D02*
X59049990Y-179049990D01*
X61400000Y-178900000D02*
X59199980Y-178900000D01*
X75960000Y-181840000D02*
X73500000Y-181840000D01*
X76000000Y-181800000D02*
X75960000Y-181840000D01*
X75500000Y-176800000D02*
X76000000Y-177300000D01*
X76000000Y-177300000D02*
X76000000Y-181800000D01*
X70000000Y-181840000D02*
X73500000Y-181840000D01*
X67000000Y-176800000D02*
X71400000Y-176800000D01*
X65800000Y-178000000D02*
X67000000Y-176800000D01*
X65800000Y-178400000D02*
X65800000Y-178000000D01*
X71400000Y-176800000D02*
X75500000Y-176800000D01*
X71200000Y-176800000D02*
X71400000Y-176800000D01*
X70000000Y-179300000D02*
X73500000Y-179300000D01*
X69600000Y-178900000D02*
X70000000Y-179300000D01*
X65800000Y-178900000D02*
X69600000Y-178900000D01*
D16*
X22060000Y-189702500D02*
X22462500Y-189300000D01*
X22060000Y-192500000D02*
X22060000Y-189702500D01*
X24600000Y-189562500D02*
X24337500Y-189300000D01*
X24600000Y-192500000D02*
X24600000Y-189562500D01*
D19*
G36*
X77340001Y-183740868D02*
G01*
X77300000Y-183736928D01*
X76885750Y-183740000D01*
X76727000Y-183898750D01*
X76727000Y-184735500D01*
X76747000Y-184735500D01*
X76747000Y-184989500D01*
X76727000Y-184989500D01*
X76727000Y-185009500D01*
X76473000Y-185009500D01*
X76473000Y-184989500D01*
X75423750Y-184989500D01*
X75265000Y-185148250D01*
X75261928Y-185350000D01*
X75274188Y-185474482D01*
X75310498Y-185594180D01*
X75369463Y-185704494D01*
X75435532Y-185785000D01*
X74917683Y-185785000D01*
X74880537Y-185715506D01*
X74801185Y-185618815D01*
X74704494Y-185539463D01*
X74594180Y-185480498D01*
X74513534Y-185456034D01*
X74597588Y-185380269D01*
X74771641Y-185146920D01*
X74896825Y-184884099D01*
X74941476Y-184736890D01*
X74820155Y-184507000D01*
X73627000Y-184507000D01*
X73627000Y-184527000D01*
X73373000Y-184527000D01*
X73373000Y-184507000D01*
X72179845Y-184507000D01*
X72058524Y-184736890D01*
X72103175Y-184884099D01*
X72228359Y-185146920D01*
X72402412Y-185380269D01*
X72486466Y-185456034D01*
X72405820Y-185480498D01*
X72295506Y-185539463D01*
X72198815Y-185618815D01*
X72119463Y-185715506D01*
X72082317Y-185785000D01*
X71417683Y-185785000D01*
X71380537Y-185715506D01*
X71301185Y-185618815D01*
X71204494Y-185539463D01*
X71094180Y-185480498D01*
X71013534Y-185456034D01*
X71097588Y-185380269D01*
X71271641Y-185146920D01*
X71396825Y-184884099D01*
X71441476Y-184736890D01*
X71320155Y-184507000D01*
X70127000Y-184507000D01*
X70127000Y-184527000D01*
X69873000Y-184527000D01*
X69873000Y-184507000D01*
X68679845Y-184507000D01*
X68558524Y-184736890D01*
X68603175Y-184884099D01*
X68728359Y-185146920D01*
X68902412Y-185380269D01*
X68986466Y-185456034D01*
X68905820Y-185480498D01*
X68795506Y-185539463D01*
X68698815Y-185618815D01*
X68619463Y-185715506D01*
X68582317Y-185785000D01*
X68091932Y-185785000D01*
X68079792Y-185770208D01*
X68073436Y-185764992D01*
X68151185Y-185701185D01*
X68230537Y-185604494D01*
X68289502Y-185494180D01*
X68325812Y-185374482D01*
X68338072Y-185250000D01*
X68335000Y-185048250D01*
X68176250Y-184889500D01*
X67127000Y-184889500D01*
X67127000Y-184909500D01*
X66873000Y-184909500D01*
X66873000Y-184889500D01*
X65823750Y-184889500D01*
X65665000Y-185048250D01*
X65661928Y-185250000D01*
X65674188Y-185374482D01*
X65710498Y-185494180D01*
X65714945Y-185502500D01*
X65307632Y-185502500D01*
X64997500Y-185192369D01*
X64997500Y-184275000D01*
X65661928Y-184275000D01*
X65665000Y-184476750D01*
X65823750Y-184635500D01*
X66873000Y-184635500D01*
X66873000Y-183798750D01*
X67127000Y-183798750D01*
X67127000Y-184635500D01*
X68176250Y-184635500D01*
X68335000Y-184476750D01*
X68336549Y-184375000D01*
X75261928Y-184375000D01*
X75265000Y-184576750D01*
X75423750Y-184735500D01*
X76473000Y-184735500D01*
X76473000Y-183898750D01*
X76314250Y-183740000D01*
X75900000Y-183736928D01*
X75775518Y-183749188D01*
X75655820Y-183785498D01*
X75545506Y-183844463D01*
X75448815Y-183923815D01*
X75369463Y-184020506D01*
X75310498Y-184130820D01*
X75274188Y-184250518D01*
X75261928Y-184375000D01*
X68336549Y-184375000D01*
X68338072Y-184275000D01*
X68325812Y-184150518D01*
X68289502Y-184030820D01*
X68230537Y-183920506D01*
X68151185Y-183823815D01*
X68054494Y-183744463D01*
X67944180Y-183685498D01*
X67824482Y-183649188D01*
X67700000Y-183636928D01*
X67285750Y-183640000D01*
X67127000Y-183798750D01*
X66873000Y-183798750D01*
X66743460Y-183669210D01*
X66755537Y-183654494D01*
X66814502Y-183544180D01*
X66850812Y-183424482D01*
X66863072Y-183300000D01*
X66860000Y-182885750D01*
X66701250Y-182727000D01*
X65864500Y-182727000D01*
X65864500Y-183776250D01*
X65883555Y-183795305D01*
X65848815Y-183823815D01*
X65769463Y-183920506D01*
X65710498Y-184030820D01*
X65674188Y-184150518D01*
X65661928Y-184275000D01*
X64997500Y-184275000D01*
X64997500Y-183885055D01*
X65005820Y-183889502D01*
X65125518Y-183925812D01*
X65250000Y-183938072D01*
X65451750Y-183935000D01*
X65610500Y-183776250D01*
X65610500Y-182727000D01*
X65590500Y-182727000D01*
X65590500Y-182473000D01*
X65610500Y-182473000D01*
X65610500Y-181423750D01*
X65864500Y-181423750D01*
X65864500Y-182473000D01*
X66701250Y-182473000D01*
X66860000Y-182314250D01*
X66863072Y-181900000D01*
X66850812Y-181775518D01*
X66814502Y-181655820D01*
X66755537Y-181545506D01*
X66676185Y-181448815D01*
X66579494Y-181369463D01*
X66469180Y-181310498D01*
X66349482Y-181274188D01*
X66225000Y-181261928D01*
X66023250Y-181265000D01*
X65864500Y-181423750D01*
X65610500Y-181423750D01*
X65451750Y-181265000D01*
X65250000Y-181261928D01*
X65125518Y-181274188D01*
X65005820Y-181310498D01*
X64895506Y-181369463D01*
X64798815Y-181448815D01*
X64735008Y-181526564D01*
X64729792Y-181520208D01*
X64596164Y-181410542D01*
X64585000Y-181404575D01*
X64585000Y-181185000D01*
X65068808Y-181185000D01*
X65100000Y-181188072D01*
X66500000Y-181188072D01*
X66624482Y-181175812D01*
X66744180Y-181139502D01*
X66854494Y-181080537D01*
X66951185Y-181001185D01*
X67030537Y-180904494D01*
X67089502Y-180794180D01*
X67125812Y-180674482D01*
X67138072Y-180550000D01*
X67138072Y-180250000D01*
X67127898Y-180146698D01*
X67135000Y-180081750D01*
X67102753Y-180049503D01*
X67089502Y-180005820D01*
X67032480Y-179899141D01*
X67085621Y-179803346D01*
X67102465Y-179750785D01*
X67135000Y-179718250D01*
X67128630Y-179660000D01*
X68557516Y-179660000D01*
X68572068Y-179733158D01*
X68684010Y-180003411D01*
X68846525Y-180246632D01*
X69053368Y-180453475D01*
X69227760Y-180570000D01*
X69053368Y-180686525D01*
X68846525Y-180893368D01*
X68684010Y-181136589D01*
X68572068Y-181406842D01*
X68515000Y-181693740D01*
X68515000Y-181986260D01*
X68572068Y-182273158D01*
X68684010Y-182543411D01*
X68846525Y-182786632D01*
X69053368Y-182993475D01*
X69235534Y-183115195D01*
X69118645Y-183184822D01*
X68902412Y-183379731D01*
X68728359Y-183613080D01*
X68603175Y-183875901D01*
X68558524Y-184023110D01*
X68679845Y-184253000D01*
X69873000Y-184253000D01*
X69873000Y-184233000D01*
X70127000Y-184233000D01*
X70127000Y-184253000D01*
X71320155Y-184253000D01*
X71441476Y-184023110D01*
X71396825Y-183875901D01*
X71271641Y-183613080D01*
X71097588Y-183379731D01*
X70881355Y-183184822D01*
X70764466Y-183115195D01*
X70946632Y-182993475D01*
X71153475Y-182786632D01*
X71278178Y-182600000D01*
X72221822Y-182600000D01*
X72346525Y-182786632D01*
X72553368Y-182993475D01*
X72735534Y-183115195D01*
X72618645Y-183184822D01*
X72402412Y-183379731D01*
X72228359Y-183613080D01*
X72103175Y-183875901D01*
X72058524Y-184023110D01*
X72179845Y-184253000D01*
X73373000Y-184253000D01*
X73373000Y-184233000D01*
X73627000Y-184233000D01*
X73627000Y-184253000D01*
X74820155Y-184253000D01*
X74941476Y-184023110D01*
X74896825Y-183875901D01*
X74771641Y-183613080D01*
X74597588Y-183379731D01*
X74381355Y-183184822D01*
X74264466Y-183115195D01*
X74446632Y-182993475D01*
X74653475Y-182786632D01*
X74778178Y-182600000D01*
X75922678Y-182600000D01*
X75960000Y-182603676D01*
X75997322Y-182600000D01*
X75997333Y-182600000D01*
X76108986Y-182589003D01*
X76252247Y-182545546D01*
X76384276Y-182474974D01*
X76500001Y-182380001D01*
X76518031Y-182358031D01*
X76540001Y-182340001D01*
X76634974Y-182224276D01*
X76705546Y-182092247D01*
X76749003Y-181948986D01*
X76760000Y-181837333D01*
X76763677Y-181800000D01*
X76760000Y-181762667D01*
X76760000Y-177337325D01*
X76763676Y-177300000D01*
X76760000Y-177262675D01*
X76760000Y-177262667D01*
X76749003Y-177151014D01*
X76705546Y-177007753D01*
X76634974Y-176875724D01*
X76540001Y-176759999D01*
X76510998Y-176736197D01*
X76063804Y-176289003D01*
X76040001Y-176259999D01*
X75924276Y-176165026D01*
X75792247Y-176094454D01*
X75648986Y-176050997D01*
X75537333Y-176040000D01*
X75537322Y-176040000D01*
X75500000Y-176036324D01*
X75462678Y-176040000D01*
X67037322Y-176040000D01*
X66999999Y-176036324D01*
X66962676Y-176040000D01*
X66962667Y-176040000D01*
X66851014Y-176050997D01*
X66707753Y-176094454D01*
X66575724Y-176165026D01*
X66459999Y-176259999D01*
X66436201Y-176288997D01*
X65289001Y-177436198D01*
X65259999Y-177459999D01*
X65165026Y-177575724D01*
X65145674Y-177611928D01*
X65100000Y-177611928D01*
X64975518Y-177624188D01*
X64855820Y-177660498D01*
X64745506Y-177719463D01*
X64648815Y-177798815D01*
X64569463Y-177895506D01*
X64510498Y-178005820D01*
X64474188Y-178125518D01*
X64461928Y-178250000D01*
X64461928Y-178550000D01*
X64471777Y-178650000D01*
X64461928Y-178750000D01*
X64461928Y-179050000D01*
X64472102Y-179153302D01*
X64465000Y-179218250D01*
X64497247Y-179250497D01*
X64510498Y-179294180D01*
X64567520Y-179400859D01*
X64514379Y-179496654D01*
X64497535Y-179549215D01*
X64465000Y-179581750D01*
X64468636Y-179615000D01*
X64138552Y-179615000D01*
X64099999Y-179611203D01*
X64061446Y-179615000D01*
X64061439Y-179615000D01*
X63946113Y-179626359D01*
X63798140Y-179671246D01*
X63661767Y-179744138D01*
X63542236Y-179842236D01*
X63517653Y-179872190D01*
X63272185Y-180117658D01*
X63242237Y-180142236D01*
X63217659Y-180172184D01*
X63217655Y-180172188D01*
X63201194Y-180192246D01*
X63144139Y-180261767D01*
X63126814Y-180294180D01*
X63071246Y-180398141D01*
X63026359Y-180546114D01*
X63011203Y-180700000D01*
X63015001Y-180738562D01*
X63015000Y-181503965D01*
X62995208Y-181520208D01*
X62885542Y-181653836D01*
X62804053Y-181806291D01*
X62753872Y-181971715D01*
X62736928Y-182143750D01*
X62736928Y-182448524D01*
X62727500Y-182544249D01*
X62727501Y-185606739D01*
X62722009Y-185662500D01*
X62743923Y-185884998D01*
X62808824Y-186098946D01*
X62839476Y-186156291D01*
X62914217Y-186296123D01*
X63056052Y-186468949D01*
X63099360Y-186504491D01*
X63995508Y-187400640D01*
X64031051Y-187443949D01*
X64203877Y-187585784D01*
X64401053Y-187691176D01*
X64562487Y-187740147D01*
X64615000Y-187756077D01*
X64635993Y-187758144D01*
X64781748Y-187772500D01*
X64781755Y-187772500D01*
X64837499Y-187777990D01*
X64893243Y-187772500D01*
X65865000Y-187772500D01*
X65865001Y-189365010D01*
X62355741Y-189365010D01*
X62299989Y-189359519D01*
X62244238Y-189365010D01*
X62077491Y-189381433D01*
X61863543Y-189446334D01*
X61666367Y-189551726D01*
X61493541Y-189693561D01*
X61457994Y-189736875D01*
X61289999Y-189904870D01*
X61289999Y-181188072D01*
X62100000Y-181188072D01*
X62224482Y-181175812D01*
X62344180Y-181139502D01*
X62454494Y-181080537D01*
X62551185Y-181001185D01*
X62630537Y-180904494D01*
X62689502Y-180794180D01*
X62725812Y-180674482D01*
X62738072Y-180550000D01*
X62738072Y-180250000D01*
X62728223Y-180150000D01*
X62738072Y-180050000D01*
X62738072Y-179750000D01*
X62728223Y-179650000D01*
X62738072Y-179550000D01*
X62738072Y-179250000D01*
X62728223Y-179150000D01*
X62738072Y-179050000D01*
X62738072Y-178750000D01*
X62727898Y-178646698D01*
X62735000Y-178581750D01*
X62702753Y-178549503D01*
X62689502Y-178505820D01*
X62630537Y-178395506D01*
X62597725Y-178355525D01*
X62735000Y-178218250D01*
X62723794Y-178115771D01*
X62685621Y-177996654D01*
X62624943Y-177887273D01*
X62544092Y-177791831D01*
X62446174Y-177713997D01*
X62334954Y-177656761D01*
X62214704Y-177622323D01*
X62090046Y-177612006D01*
X61685750Y-177615000D01*
X61527000Y-177773750D01*
X61527000Y-178111928D01*
X61273000Y-178111928D01*
X61273000Y-177773750D01*
X61114250Y-177615000D01*
X60709954Y-177612006D01*
X60585296Y-177622323D01*
X60465046Y-177656761D01*
X60353826Y-177713997D01*
X60255908Y-177791831D01*
X60175057Y-177887273D01*
X60114379Y-177996654D01*
X60076453Y-178115000D01*
X59961439Y-178115000D01*
X59846113Y-178126359D01*
X59801145Y-178140000D01*
X59237303Y-178140000D01*
X59199980Y-178136324D01*
X59162657Y-178140000D01*
X59162647Y-178140000D01*
X59050994Y-178150997D01*
X58907733Y-178194454D01*
X58775704Y-178265026D01*
X58659979Y-178359999D01*
X58636176Y-178389003D01*
X58538993Y-178486186D01*
X58509989Y-178509989D01*
X58476335Y-178550997D01*
X58415016Y-178625714D01*
X58364906Y-178719463D01*
X58344444Y-178757744D01*
X58300987Y-178901005D01*
X58289990Y-179012658D01*
X58289990Y-179012668D01*
X58286314Y-179049990D01*
X58289990Y-179087313D01*
X58289991Y-185535207D01*
X56985199Y-186840000D01*
X40137322Y-186840000D01*
X40099999Y-186836324D01*
X40062676Y-186840000D01*
X40062667Y-186840000D01*
X39951014Y-186850997D01*
X39807753Y-186894454D01*
X39675724Y-186965026D01*
X39675722Y-186965027D01*
X39675723Y-186965027D01*
X39588996Y-187036201D01*
X39588992Y-187036205D01*
X39559999Y-187059999D01*
X39536205Y-187088992D01*
X38889002Y-187736197D01*
X38859999Y-187759999D01*
X38830498Y-187795947D01*
X38765026Y-187875724D01*
X38718949Y-187961928D01*
X38694454Y-188007754D01*
X38650997Y-188151015D01*
X38640000Y-188262668D01*
X38640000Y-188262678D01*
X38636324Y-188300000D01*
X38640000Y-188337322D01*
X38640000Y-188885198D01*
X37685199Y-189840000D01*
X29335252Y-189840000D01*
X29297919Y-189836323D01*
X29260586Y-189840000D01*
X29148933Y-189850997D01*
X29005672Y-189894454D01*
X28873643Y-189965026D01*
X28757918Y-190059999D01*
X28734120Y-190088998D01*
X28089002Y-190734116D01*
X28059999Y-190757918D01*
X28025464Y-190800000D01*
X27965026Y-190873643D01*
X27934904Y-190929997D01*
X27894454Y-191005673D01*
X27850997Y-191148934D01*
X27844087Y-191219091D01*
X27653368Y-191346525D01*
X27446525Y-191553368D01*
X27284010Y-191796589D01*
X27172068Y-192066842D01*
X27115000Y-192353740D01*
X27115000Y-192646260D01*
X27172068Y-192933158D01*
X27284010Y-193203411D01*
X27446525Y-193446632D01*
X27653368Y-193653475D01*
X27896589Y-193815990D01*
X28166842Y-193927932D01*
X28453740Y-193985000D01*
X28746260Y-193985000D01*
X29033158Y-193927932D01*
X29303411Y-193815990D01*
X29546632Y-193653475D01*
X29753475Y-193446632D01*
X29870000Y-193272240D01*
X29986525Y-193446632D01*
X30005000Y-193465107D01*
X30005000Y-194184249D01*
X29999509Y-194240000D01*
X30018898Y-194436857D01*
X30021423Y-194462498D01*
X30086324Y-194676446D01*
X30191716Y-194873623D01*
X30333551Y-195046449D01*
X30376865Y-195081996D01*
X30634869Y-195340000D01*
X13660000Y-195340000D01*
X13660000Y-192314344D01*
X14615000Y-192314344D01*
X14615000Y-192685656D01*
X14687439Y-193049834D01*
X14829534Y-193392882D01*
X15035825Y-193701618D01*
X15298382Y-193964175D01*
X15607118Y-194170466D01*
X15950166Y-194312561D01*
X16314344Y-194385000D01*
X16685656Y-194385000D01*
X17049834Y-194312561D01*
X17392882Y-194170466D01*
X17701618Y-193964175D01*
X17964175Y-193701618D01*
X18170466Y-193392882D01*
X18312561Y-193049834D01*
X18385000Y-192685656D01*
X18385000Y-192314344D01*
X18312561Y-191950166D01*
X18188229Y-191650000D01*
X20571928Y-191650000D01*
X20571928Y-193350000D01*
X20584188Y-193474482D01*
X20620498Y-193594180D01*
X20679463Y-193704494D01*
X20758815Y-193801185D01*
X20855506Y-193880537D01*
X20965820Y-193939502D01*
X21085518Y-193975812D01*
X21210000Y-193988072D01*
X22910000Y-193988072D01*
X23034482Y-193975812D01*
X23154180Y-193939502D01*
X23264494Y-193880537D01*
X23361185Y-193801185D01*
X23440537Y-193704494D01*
X23499502Y-193594180D01*
X23521513Y-193521620D01*
X23653368Y-193653475D01*
X23896589Y-193815990D01*
X24166842Y-193927932D01*
X24453740Y-193985000D01*
X24746260Y-193985000D01*
X25033158Y-193927932D01*
X25303411Y-193815990D01*
X25546632Y-193653475D01*
X25753475Y-193446632D01*
X25915990Y-193203411D01*
X26027932Y-192933158D01*
X26085000Y-192646260D01*
X26085000Y-192353740D01*
X26027932Y-192066842D01*
X25915990Y-191796589D01*
X25753475Y-191553368D01*
X25735000Y-191534893D01*
X25735000Y-189618251D01*
X25740491Y-189562499D01*
X25718577Y-189340001D01*
X25653676Y-189126054D01*
X25653676Y-189126053D01*
X25548284Y-188928877D01*
X25460979Y-188822495D01*
X25446128Y-188671715D01*
X25395947Y-188506291D01*
X25314458Y-188353836D01*
X25204792Y-188220208D01*
X25071164Y-188110542D01*
X24918709Y-188029053D01*
X24753285Y-187978872D01*
X24581250Y-187961928D01*
X24093750Y-187961928D01*
X23921715Y-187978872D01*
X23756291Y-188029053D01*
X23603836Y-188110542D01*
X23470208Y-188220208D01*
X23400000Y-188305756D01*
X23329792Y-188220208D01*
X23196164Y-188110542D01*
X23043709Y-188029053D01*
X22878285Y-187978872D01*
X22706250Y-187961928D01*
X22218750Y-187961928D01*
X22046715Y-187978872D01*
X21881291Y-188029053D01*
X21728836Y-188110542D01*
X21595208Y-188220208D01*
X21485542Y-188353836D01*
X21404053Y-188506291D01*
X21353872Y-188671715D01*
X21339475Y-188817894D01*
X21296860Y-188860509D01*
X21253552Y-188896051D01*
X21111717Y-189068877D01*
X21064431Y-189157344D01*
X21006324Y-189266054D01*
X20941423Y-189480002D01*
X20919509Y-189702500D01*
X20925001Y-189758261D01*
X20925001Y-191082317D01*
X20855506Y-191119463D01*
X20758815Y-191198815D01*
X20679463Y-191295506D01*
X20620498Y-191405820D01*
X20584188Y-191525518D01*
X20571928Y-191650000D01*
X18188229Y-191650000D01*
X18170466Y-191607118D01*
X17964175Y-191298382D01*
X17701618Y-191035825D01*
X17392882Y-190829534D01*
X17049834Y-190687439D01*
X16685656Y-190615000D01*
X16314344Y-190615000D01*
X15950166Y-190687439D01*
X15607118Y-190829534D01*
X15298382Y-191035825D01*
X15035825Y-191298382D01*
X14829534Y-191607118D01*
X14687439Y-191950166D01*
X14615000Y-192314344D01*
X13660000Y-192314344D01*
X13660000Y-181458665D01*
X39885000Y-181458665D01*
X39885000Y-181741335D01*
X39940147Y-182018574D01*
X40048320Y-182279727D01*
X40205363Y-182514759D01*
X40405241Y-182714637D01*
X40640273Y-182871680D01*
X40901426Y-182979853D01*
X41142718Y-183027850D01*
X43378009Y-185263141D01*
X43413551Y-185306449D01*
X43586377Y-185448284D01*
X43783553Y-185553676D01*
X43997501Y-185618577D01*
X44164248Y-185635000D01*
X44164257Y-185635000D01*
X44219999Y-185640490D01*
X44275741Y-185635000D01*
X48344249Y-185635000D01*
X48400000Y-185640491D01*
X48455751Y-185635000D01*
X48455752Y-185635000D01*
X48622499Y-185618577D01*
X48836447Y-185553676D01*
X49033623Y-185448284D01*
X49206449Y-185306449D01*
X49241996Y-185263135D01*
X51577283Y-182927849D01*
X51818574Y-182879853D01*
X52079727Y-182771680D01*
X52314759Y-182614637D01*
X52514637Y-182414759D01*
X52671680Y-182179727D01*
X52779853Y-181918574D01*
X52835000Y-181641335D01*
X52835000Y-181358665D01*
X52779853Y-181081426D01*
X52671680Y-180820273D01*
X52591317Y-180700000D01*
X55041928Y-180700000D01*
X55041928Y-182300000D01*
X55054188Y-182424482D01*
X55090498Y-182544180D01*
X55149463Y-182654494D01*
X55228815Y-182751185D01*
X55325506Y-182830537D01*
X55435820Y-182889502D01*
X55555518Y-182925812D01*
X55680000Y-182938072D01*
X57280000Y-182938072D01*
X57404482Y-182925812D01*
X57524180Y-182889502D01*
X57634494Y-182830537D01*
X57731185Y-182751185D01*
X57810537Y-182654494D01*
X57869502Y-182544180D01*
X57905812Y-182424482D01*
X57918072Y-182300000D01*
X57918072Y-180700000D01*
X57905812Y-180575518D01*
X57869502Y-180455820D01*
X57810537Y-180345506D01*
X57731185Y-180248815D01*
X57634494Y-180169463D01*
X57524180Y-180110498D01*
X57404482Y-180074188D01*
X57280000Y-180061928D01*
X55680000Y-180061928D01*
X55555518Y-180074188D01*
X55435820Y-180110498D01*
X55325506Y-180169463D01*
X55228815Y-180248815D01*
X55149463Y-180345506D01*
X55090498Y-180455820D01*
X55054188Y-180575518D01*
X55041928Y-180700000D01*
X52591317Y-180700000D01*
X52514637Y-180585241D01*
X52314759Y-180385363D01*
X52079727Y-180228320D01*
X51818574Y-180120147D01*
X51541335Y-180065000D01*
X51258665Y-180065000D01*
X50981426Y-180120147D01*
X50720273Y-180228320D01*
X50485241Y-180385363D01*
X50285363Y-180585241D01*
X50128320Y-180820273D01*
X50020147Y-181081426D01*
X49972151Y-181322717D01*
X47929869Y-183365000D01*
X44690132Y-183365000D01*
X42747850Y-181422718D01*
X42699853Y-181181426D01*
X42591680Y-180920273D01*
X42511317Y-180800000D01*
X44961928Y-180800000D01*
X44961928Y-182400000D01*
X44974188Y-182524482D01*
X45010498Y-182644180D01*
X45069463Y-182754494D01*
X45148815Y-182851185D01*
X45245506Y-182930537D01*
X45355820Y-182989502D01*
X45475518Y-183025812D01*
X45600000Y-183038072D01*
X47200000Y-183038072D01*
X47324482Y-183025812D01*
X47444180Y-182989502D01*
X47554494Y-182930537D01*
X47651185Y-182851185D01*
X47730537Y-182754494D01*
X47789502Y-182644180D01*
X47825812Y-182524482D01*
X47838072Y-182400000D01*
X47838072Y-180800000D01*
X47825812Y-180675518D01*
X47789502Y-180555820D01*
X47730537Y-180445506D01*
X47651185Y-180348815D01*
X47554494Y-180269463D01*
X47444180Y-180210498D01*
X47324482Y-180174188D01*
X47200000Y-180161928D01*
X45600000Y-180161928D01*
X45475518Y-180174188D01*
X45355820Y-180210498D01*
X45245506Y-180269463D01*
X45148815Y-180348815D01*
X45069463Y-180445506D01*
X45010498Y-180555820D01*
X44974188Y-180675518D01*
X44961928Y-180800000D01*
X42511317Y-180800000D01*
X42434637Y-180685241D01*
X42234759Y-180485363D01*
X41999727Y-180328320D01*
X41738574Y-180220147D01*
X41461335Y-180165000D01*
X41178665Y-180165000D01*
X40901426Y-180220147D01*
X40640273Y-180328320D01*
X40405241Y-180485363D01*
X40205363Y-180685241D01*
X40048320Y-180920273D01*
X39940147Y-181181426D01*
X39885000Y-181458665D01*
X13660000Y-181458665D01*
X13660000Y-173314344D01*
X14615000Y-173314344D01*
X14615000Y-173685656D01*
X14687439Y-174049834D01*
X14829534Y-174392882D01*
X15035825Y-174701618D01*
X15298382Y-174964175D01*
X15607118Y-175170466D01*
X15950166Y-175312561D01*
X16314344Y-175385000D01*
X16685656Y-175385000D01*
X17049834Y-175312561D01*
X17392882Y-175170466D01*
X17701618Y-174964175D01*
X17964175Y-174701618D01*
X18170466Y-174392882D01*
X18312561Y-174049834D01*
X18385000Y-173685656D01*
X18385000Y-173314344D01*
X72615000Y-173314344D01*
X72615000Y-173685656D01*
X72687439Y-174049834D01*
X72829534Y-174392882D01*
X73035825Y-174701618D01*
X73298382Y-174964175D01*
X73607118Y-175170466D01*
X73950166Y-175312561D01*
X74314344Y-175385000D01*
X74685656Y-175385000D01*
X75049834Y-175312561D01*
X75392882Y-175170466D01*
X75701618Y-174964175D01*
X75964175Y-174701618D01*
X76170466Y-174392882D01*
X76312561Y-174049834D01*
X76385000Y-173685656D01*
X76385000Y-173314344D01*
X76312561Y-172950166D01*
X76170466Y-172607118D01*
X75964175Y-172298382D01*
X75701618Y-172035825D01*
X75392882Y-171829534D01*
X75049834Y-171687439D01*
X74685656Y-171615000D01*
X74314344Y-171615000D01*
X73950166Y-171687439D01*
X73607118Y-171829534D01*
X73298382Y-172035825D01*
X73035825Y-172298382D01*
X72829534Y-172607118D01*
X72687439Y-172950166D01*
X72615000Y-173314344D01*
X18385000Y-173314344D01*
X18312561Y-172950166D01*
X18170466Y-172607118D01*
X17964175Y-172298382D01*
X17701618Y-172035825D01*
X17392882Y-171829534D01*
X17049834Y-171687439D01*
X16685656Y-171615000D01*
X16314344Y-171615000D01*
X15950166Y-171687439D01*
X15607118Y-171829534D01*
X15298382Y-172035825D01*
X15035825Y-172298382D01*
X14829534Y-172607118D01*
X14687439Y-172950166D01*
X14615000Y-173314344D01*
X13660000Y-173314344D01*
X13660000Y-170660000D01*
X77340000Y-170660000D01*
X77340001Y-183740868D01*
G37*
X77340001Y-183740868D02*
X77300000Y-183736928D01*
X76885750Y-183740000D01*
X76727000Y-183898750D01*
X76727000Y-184735500D01*
X76747000Y-184735500D01*
X76747000Y-184989500D01*
X76727000Y-184989500D01*
X76727000Y-185009500D01*
X76473000Y-185009500D01*
X76473000Y-184989500D01*
X75423750Y-184989500D01*
X75265000Y-185148250D01*
X75261928Y-185350000D01*
X75274188Y-185474482D01*
X75310498Y-185594180D01*
X75369463Y-185704494D01*
X75435532Y-185785000D01*
X74917683Y-185785000D01*
X74880537Y-185715506D01*
X74801185Y-185618815D01*
X74704494Y-185539463D01*
X74594180Y-185480498D01*
X74513534Y-185456034D01*
X74597588Y-185380269D01*
X74771641Y-185146920D01*
X74896825Y-184884099D01*
X74941476Y-184736890D01*
X74820155Y-184507000D01*
X73627000Y-184507000D01*
X73627000Y-184527000D01*
X73373000Y-184527000D01*
X73373000Y-184507000D01*
X72179845Y-184507000D01*
X72058524Y-184736890D01*
X72103175Y-184884099D01*
X72228359Y-185146920D01*
X72402412Y-185380269D01*
X72486466Y-185456034D01*
X72405820Y-185480498D01*
X72295506Y-185539463D01*
X72198815Y-185618815D01*
X72119463Y-185715506D01*
X72082317Y-185785000D01*
X71417683Y-185785000D01*
X71380537Y-185715506D01*
X71301185Y-185618815D01*
X71204494Y-185539463D01*
X71094180Y-185480498D01*
X71013534Y-185456034D01*
X71097588Y-185380269D01*
X71271641Y-185146920D01*
X71396825Y-184884099D01*
X71441476Y-184736890D01*
X71320155Y-184507000D01*
X70127000Y-184507000D01*
X70127000Y-184527000D01*
X69873000Y-184527000D01*
X69873000Y-184507000D01*
X68679845Y-184507000D01*
X68558524Y-184736890D01*
X68603175Y-184884099D01*
X68728359Y-185146920D01*
X68902412Y-185380269D01*
X68986466Y-185456034D01*
X68905820Y-185480498D01*
X68795506Y-185539463D01*
X68698815Y-185618815D01*
X68619463Y-185715506D01*
X68582317Y-185785000D01*
X68091932Y-185785000D01*
X68079792Y-185770208D01*
X68073436Y-185764992D01*
X68151185Y-185701185D01*
X68230537Y-185604494D01*
X68289502Y-185494180D01*
X68325812Y-185374482D01*
X68338072Y-185250000D01*
X68335000Y-185048250D01*
X68176250Y-184889500D01*
X67127000Y-184889500D01*
X67127000Y-184909500D01*
X66873000Y-184909500D01*
X66873000Y-184889500D01*
X65823750Y-184889500D01*
X65665000Y-185048250D01*
X65661928Y-185250000D01*
X65674188Y-185374482D01*
X65710498Y-185494180D01*
X65714945Y-185502500D01*
X65307632Y-185502500D01*
X64997500Y-185192369D01*
X64997500Y-184275000D01*
X65661928Y-184275000D01*
X65665000Y-184476750D01*
X65823750Y-184635500D01*
X66873000Y-184635500D01*
X66873000Y-183798750D01*
X67127000Y-183798750D01*
X67127000Y-184635500D01*
X68176250Y-184635500D01*
X68335000Y-184476750D01*
X68336549Y-184375000D01*
X75261928Y-184375000D01*
X75265000Y-184576750D01*
X75423750Y-184735500D01*
X76473000Y-184735500D01*
X76473000Y-183898750D01*
X76314250Y-183740000D01*
X75900000Y-183736928D01*
X75775518Y-183749188D01*
X75655820Y-183785498D01*
X75545506Y-183844463D01*
X75448815Y-183923815D01*
X75369463Y-184020506D01*
X75310498Y-184130820D01*
X75274188Y-184250518D01*
X75261928Y-184375000D01*
X68336549Y-184375000D01*
X68338072Y-184275000D01*
X68325812Y-184150518D01*
X68289502Y-184030820D01*
X68230537Y-183920506D01*
X68151185Y-183823815D01*
X68054494Y-183744463D01*
X67944180Y-183685498D01*
X67824482Y-183649188D01*
X67700000Y-183636928D01*
X67285750Y-183640000D01*
X67127000Y-183798750D01*
X66873000Y-183798750D01*
X66743460Y-183669210D01*
X66755537Y-183654494D01*
X66814502Y-183544180D01*
X66850812Y-183424482D01*
X66863072Y-183300000D01*
X66860000Y-182885750D01*
X66701250Y-182727000D01*
X65864500Y-182727000D01*
X65864500Y-183776250D01*
X65883555Y-183795305D01*
X65848815Y-183823815D01*
X65769463Y-183920506D01*
X65710498Y-184030820D01*
X65674188Y-184150518D01*
X65661928Y-184275000D01*
X64997500Y-184275000D01*
X64997500Y-183885055D01*
X65005820Y-183889502D01*
X65125518Y-183925812D01*
X65250000Y-183938072D01*
X65451750Y-183935000D01*
X65610500Y-183776250D01*
X65610500Y-182727000D01*
X65590500Y-182727000D01*
X65590500Y-182473000D01*
X65610500Y-182473000D01*
X65610500Y-181423750D01*
X65864500Y-181423750D01*
X65864500Y-182473000D01*
X66701250Y-182473000D01*
X66860000Y-182314250D01*
X66863072Y-181900000D01*
X66850812Y-181775518D01*
X66814502Y-181655820D01*
X66755537Y-181545506D01*
X66676185Y-181448815D01*
X66579494Y-181369463D01*
X66469180Y-181310498D01*
X66349482Y-181274188D01*
X66225000Y-181261928D01*
X66023250Y-181265000D01*
X65864500Y-181423750D01*
X65610500Y-181423750D01*
X65451750Y-181265000D01*
X65250000Y-181261928D01*
X65125518Y-181274188D01*
X65005820Y-181310498D01*
X64895506Y-181369463D01*
X64798815Y-181448815D01*
X64735008Y-181526564D01*
X64729792Y-181520208D01*
X64596164Y-181410542D01*
X64585000Y-181404575D01*
X64585000Y-181185000D01*
X65068808Y-181185000D01*
X65100000Y-181188072D01*
X66500000Y-181188072D01*
X66624482Y-181175812D01*
X66744180Y-181139502D01*
X66854494Y-181080537D01*
X66951185Y-181001185D01*
X67030537Y-180904494D01*
X67089502Y-180794180D01*
X67125812Y-180674482D01*
X67138072Y-180550000D01*
X67138072Y-180250000D01*
X67127898Y-180146698D01*
X67135000Y-180081750D01*
X67102753Y-180049503D01*
X67089502Y-180005820D01*
X67032480Y-179899141D01*
X67085621Y-179803346D01*
X67102465Y-179750785D01*
X67135000Y-179718250D01*
X67128630Y-179660000D01*
X68557516Y-179660000D01*
X68572068Y-179733158D01*
X68684010Y-180003411D01*
X68846525Y-180246632D01*
X69053368Y-180453475D01*
X69227760Y-180570000D01*
X69053368Y-180686525D01*
X68846525Y-180893368D01*
X68684010Y-181136589D01*
X68572068Y-181406842D01*
X68515000Y-181693740D01*
X68515000Y-181986260D01*
X68572068Y-182273158D01*
X68684010Y-182543411D01*
X68846525Y-182786632D01*
X69053368Y-182993475D01*
X69235534Y-183115195D01*
X69118645Y-183184822D01*
X68902412Y-183379731D01*
X68728359Y-183613080D01*
X68603175Y-183875901D01*
X68558524Y-184023110D01*
X68679845Y-184253000D01*
X69873000Y-184253000D01*
X69873000Y-184233000D01*
X70127000Y-184233000D01*
X70127000Y-184253000D01*
X71320155Y-184253000D01*
X71441476Y-184023110D01*
X71396825Y-183875901D01*
X71271641Y-183613080D01*
X71097588Y-183379731D01*
X70881355Y-183184822D01*
X70764466Y-183115195D01*
X70946632Y-182993475D01*
X71153475Y-182786632D01*
X71278178Y-182600000D01*
X72221822Y-182600000D01*
X72346525Y-182786632D01*
X72553368Y-182993475D01*
X72735534Y-183115195D01*
X72618645Y-183184822D01*
X72402412Y-183379731D01*
X72228359Y-183613080D01*
X72103175Y-183875901D01*
X72058524Y-184023110D01*
X72179845Y-184253000D01*
X73373000Y-184253000D01*
X73373000Y-184233000D01*
X73627000Y-184233000D01*
X73627000Y-184253000D01*
X74820155Y-184253000D01*
X74941476Y-184023110D01*
X74896825Y-183875901D01*
X74771641Y-183613080D01*
X74597588Y-183379731D01*
X74381355Y-183184822D01*
X74264466Y-183115195D01*
X74446632Y-182993475D01*
X74653475Y-182786632D01*
X74778178Y-182600000D01*
X75922678Y-182600000D01*
X75960000Y-182603676D01*
X75997322Y-182600000D01*
X75997333Y-182600000D01*
X76108986Y-182589003D01*
X76252247Y-182545546D01*
X76384276Y-182474974D01*
X76500001Y-182380001D01*
X76518031Y-182358031D01*
X76540001Y-182340001D01*
X76634974Y-182224276D01*
X76705546Y-182092247D01*
X76749003Y-181948986D01*
X76760000Y-181837333D01*
X76763677Y-181800000D01*
X76760000Y-181762667D01*
X76760000Y-177337325D01*
X76763676Y-177300000D01*
X76760000Y-177262675D01*
X76760000Y-177262667D01*
X76749003Y-177151014D01*
X76705546Y-177007753D01*
X76634974Y-176875724D01*
X76540001Y-176759999D01*
X76510998Y-176736197D01*
X76063804Y-176289003D01*
X76040001Y-176259999D01*
X75924276Y-176165026D01*
X75792247Y-176094454D01*
X75648986Y-176050997D01*
X75537333Y-176040000D01*
X75537322Y-176040000D01*
X75500000Y-176036324D01*
X75462678Y-176040000D01*
X67037322Y-176040000D01*
X66999999Y-176036324D01*
X66962676Y-176040000D01*
X66962667Y-176040000D01*
X66851014Y-176050997D01*
X66707753Y-176094454D01*
X66575724Y-176165026D01*
X66459999Y-176259999D01*
X66436201Y-176288997D01*
X65289001Y-177436198D01*
X65259999Y-177459999D01*
X65165026Y-177575724D01*
X65145674Y-177611928D01*
X65100000Y-177611928D01*
X64975518Y-177624188D01*
X64855820Y-177660498D01*
X64745506Y-177719463D01*
X64648815Y-177798815D01*
X64569463Y-177895506D01*
X64510498Y-178005820D01*
X64474188Y-178125518D01*
X64461928Y-178250000D01*
X64461928Y-178550000D01*
X64471777Y-178650000D01*
X64461928Y-178750000D01*
X64461928Y-179050000D01*
X64472102Y-179153302D01*
X64465000Y-179218250D01*
X64497247Y-179250497D01*
X64510498Y-179294180D01*
X64567520Y-179400859D01*
X64514379Y-179496654D01*
X64497535Y-179549215D01*
X64465000Y-179581750D01*
X64468636Y-179615000D01*
X64138552Y-179615000D01*
X64099999Y-179611203D01*
X64061446Y-179615000D01*
X64061439Y-179615000D01*
X63946113Y-179626359D01*
X63798140Y-179671246D01*
X63661767Y-179744138D01*
X63542236Y-179842236D01*
X63517653Y-179872190D01*
X63272185Y-180117658D01*
X63242237Y-180142236D01*
X63217659Y-180172184D01*
X63217655Y-180172188D01*
X63201194Y-180192246D01*
X63144139Y-180261767D01*
X63126814Y-180294180D01*
X63071246Y-180398141D01*
X63026359Y-180546114D01*
X63011203Y-180700000D01*
X63015001Y-180738562D01*
X63015000Y-181503965D01*
X62995208Y-181520208D01*
X62885542Y-181653836D01*
X62804053Y-181806291D01*
X62753872Y-181971715D01*
X62736928Y-182143750D01*
X62736928Y-182448524D01*
X62727500Y-182544249D01*
X62727501Y-185606739D01*
X62722009Y-185662500D01*
X62743923Y-185884998D01*
X62808824Y-186098946D01*
X62839476Y-186156291D01*
X62914217Y-186296123D01*
X63056052Y-186468949D01*
X63099360Y-186504491D01*
X63995508Y-187400640D01*
X64031051Y-187443949D01*
X64203877Y-187585784D01*
X64401053Y-187691176D01*
X64562487Y-187740147D01*
X64615000Y-187756077D01*
X64635993Y-187758144D01*
X64781748Y-187772500D01*
X64781755Y-187772500D01*
X64837499Y-187777990D01*
X64893243Y-187772500D01*
X65865000Y-187772500D01*
X65865001Y-189365010D01*
X62355741Y-189365010D01*
X62299989Y-189359519D01*
X62244238Y-189365010D01*
X62077491Y-189381433D01*
X61863543Y-189446334D01*
X61666367Y-189551726D01*
X61493541Y-189693561D01*
X61457994Y-189736875D01*
X61289999Y-189904870D01*
X61289999Y-181188072D01*
X62100000Y-181188072D01*
X62224482Y-181175812D01*
X62344180Y-181139502D01*
X62454494Y-181080537D01*
X62551185Y-181001185D01*
X62630537Y-180904494D01*
X62689502Y-180794180D01*
X62725812Y-180674482D01*
X62738072Y-180550000D01*
X62738072Y-180250000D01*
X62728223Y-180150000D01*
X62738072Y-180050000D01*
X62738072Y-179750000D01*
X62728223Y-179650000D01*
X62738072Y-179550000D01*
X62738072Y-179250000D01*
X62728223Y-179150000D01*
X62738072Y-179050000D01*
X62738072Y-178750000D01*
X62727898Y-178646698D01*
X62735000Y-178581750D01*
X62702753Y-178549503D01*
X62689502Y-178505820D01*
X62630537Y-178395506D01*
X62597725Y-178355525D01*
X62735000Y-178218250D01*
X62723794Y-178115771D01*
X62685621Y-177996654D01*
X62624943Y-177887273D01*
X62544092Y-177791831D01*
X62446174Y-177713997D01*
X62334954Y-177656761D01*
X62214704Y-177622323D01*
X62090046Y-177612006D01*
X61685750Y-177615000D01*
X61527000Y-177773750D01*
X61527000Y-178111928D01*
X61273000Y-178111928D01*
X61273000Y-177773750D01*
X61114250Y-177615000D01*
X60709954Y-177612006D01*
X60585296Y-177622323D01*
X60465046Y-177656761D01*
X60353826Y-177713997D01*
X60255908Y-177791831D01*
X60175057Y-177887273D01*
X60114379Y-177996654D01*
X60076453Y-178115000D01*
X59961439Y-178115000D01*
X59846113Y-178126359D01*
X59801145Y-178140000D01*
X59237303Y-178140000D01*
X59199980Y-178136324D01*
X59162657Y-178140000D01*
X59162647Y-178140000D01*
X59050994Y-178150997D01*
X58907733Y-178194454D01*
X58775704Y-178265026D01*
X58659979Y-178359999D01*
X58636176Y-178389003D01*
X58538993Y-178486186D01*
X58509989Y-178509989D01*
X58476335Y-178550997D01*
X58415016Y-178625714D01*
X58364906Y-178719463D01*
X58344444Y-178757744D01*
X58300987Y-178901005D01*
X58289990Y-179012658D01*
X58289990Y-179012668D01*
X58286314Y-179049990D01*
X58289990Y-179087313D01*
X58289991Y-185535207D01*
X56985199Y-186840000D01*
X40137322Y-186840000D01*
X40099999Y-186836324D01*
X40062676Y-186840000D01*
X40062667Y-186840000D01*
X39951014Y-186850997D01*
X39807753Y-186894454D01*
X39675724Y-186965026D01*
X39675722Y-186965027D01*
X39675723Y-186965027D01*
X39588996Y-187036201D01*
X39588992Y-187036205D01*
X39559999Y-187059999D01*
X39536205Y-187088992D01*
X38889002Y-187736197D01*
X38859999Y-187759999D01*
X38830498Y-187795947D01*
X38765026Y-187875724D01*
X38718949Y-187961928D01*
X38694454Y-188007754D01*
X38650997Y-188151015D01*
X38640000Y-188262668D01*
X38640000Y-188262678D01*
X38636324Y-188300000D01*
X38640000Y-188337322D01*
X38640000Y-188885198D01*
X37685199Y-189840000D01*
X29335252Y-189840000D01*
X29297919Y-189836323D01*
X29260586Y-189840000D01*
X29148933Y-189850997D01*
X29005672Y-189894454D01*
X28873643Y-189965026D01*
X28757918Y-190059999D01*
X28734120Y-190088998D01*
X28089002Y-190734116D01*
X28059999Y-190757918D01*
X28025464Y-190800000D01*
X27965026Y-190873643D01*
X27934904Y-190929997D01*
X27894454Y-191005673D01*
X27850997Y-191148934D01*
X27844087Y-191219091D01*
X27653368Y-191346525D01*
X27446525Y-191553368D01*
X27284010Y-191796589D01*
X27172068Y-192066842D01*
X27115000Y-192353740D01*
X27115000Y-192646260D01*
X27172068Y-192933158D01*
X27284010Y-193203411D01*
X27446525Y-193446632D01*
X27653368Y-193653475D01*
X27896589Y-193815990D01*
X28166842Y-193927932D01*
X28453740Y-193985000D01*
X28746260Y-193985000D01*
X29033158Y-193927932D01*
X29303411Y-193815990D01*
X29546632Y-193653475D01*
X29753475Y-193446632D01*
X29870000Y-193272240D01*
X29986525Y-193446632D01*
X30005000Y-193465107D01*
X30005000Y-194184249D01*
X29999509Y-194240000D01*
X30018898Y-194436857D01*
X30021423Y-194462498D01*
X30086324Y-194676446D01*
X30191716Y-194873623D01*
X30333551Y-195046449D01*
X30376865Y-195081996D01*
X30634869Y-195340000D01*
X13660000Y-195340000D01*
X13660000Y-192314344D01*
X14615000Y-192314344D01*
X14615000Y-192685656D01*
X14687439Y-193049834D01*
X14829534Y-193392882D01*
X15035825Y-193701618D01*
X15298382Y-193964175D01*
X15607118Y-194170466D01*
X15950166Y-194312561D01*
X16314344Y-194385000D01*
X16685656Y-194385000D01*
X17049834Y-194312561D01*
X17392882Y-194170466D01*
X17701618Y-193964175D01*
X17964175Y-193701618D01*
X18170466Y-193392882D01*
X18312561Y-193049834D01*
X18385000Y-192685656D01*
X18385000Y-192314344D01*
X18312561Y-191950166D01*
X18188229Y-191650000D01*
X20571928Y-191650000D01*
X20571928Y-193350000D01*
X20584188Y-193474482D01*
X20620498Y-193594180D01*
X20679463Y-193704494D01*
X20758815Y-193801185D01*
X20855506Y-193880537D01*
X20965820Y-193939502D01*
X21085518Y-193975812D01*
X21210000Y-193988072D01*
X22910000Y-193988072D01*
X23034482Y-193975812D01*
X23154180Y-193939502D01*
X23264494Y-193880537D01*
X23361185Y-193801185D01*
X23440537Y-193704494D01*
X23499502Y-193594180D01*
X23521513Y-193521620D01*
X23653368Y-193653475D01*
X23896589Y-193815990D01*
X24166842Y-193927932D01*
X24453740Y-193985000D01*
X24746260Y-193985000D01*
X25033158Y-193927932D01*
X25303411Y-193815990D01*
X25546632Y-193653475D01*
X25753475Y-193446632D01*
X25915990Y-193203411D01*
X26027932Y-192933158D01*
X26085000Y-192646260D01*
X26085000Y-192353740D01*
X26027932Y-192066842D01*
X25915990Y-191796589D01*
X25753475Y-191553368D01*
X25735000Y-191534893D01*
X25735000Y-189618251D01*
X25740491Y-189562499D01*
X25718577Y-189340001D01*
X25653676Y-189126054D01*
X25653676Y-189126053D01*
X25548284Y-188928877D01*
X25460979Y-188822495D01*
X25446128Y-188671715D01*
X25395947Y-188506291D01*
X25314458Y-188353836D01*
X25204792Y-188220208D01*
X25071164Y-188110542D01*
X24918709Y-188029053D01*
X24753285Y-187978872D01*
X24581250Y-187961928D01*
X24093750Y-187961928D01*
X23921715Y-187978872D01*
X23756291Y-188029053D01*
X23603836Y-188110542D01*
X23470208Y-188220208D01*
X23400000Y-188305756D01*
X23329792Y-188220208D01*
X23196164Y-188110542D01*
X23043709Y-188029053D01*
X22878285Y-187978872D01*
X22706250Y-187961928D01*
X22218750Y-187961928D01*
X22046715Y-187978872D01*
X21881291Y-188029053D01*
X21728836Y-188110542D01*
X21595208Y-188220208D01*
X21485542Y-188353836D01*
X21404053Y-188506291D01*
X21353872Y-188671715D01*
X21339475Y-188817894D01*
X21296860Y-188860509D01*
X21253552Y-188896051D01*
X21111717Y-189068877D01*
X21064431Y-189157344D01*
X21006324Y-189266054D01*
X20941423Y-189480002D01*
X20919509Y-189702500D01*
X20925001Y-189758261D01*
X20925001Y-191082317D01*
X20855506Y-191119463D01*
X20758815Y-191198815D01*
X20679463Y-191295506D01*
X20620498Y-191405820D01*
X20584188Y-191525518D01*
X20571928Y-191650000D01*
X18188229Y-191650000D01*
X18170466Y-191607118D01*
X17964175Y-191298382D01*
X17701618Y-191035825D01*
X17392882Y-190829534D01*
X17049834Y-190687439D01*
X16685656Y-190615000D01*
X16314344Y-190615000D01*
X15950166Y-190687439D01*
X15607118Y-190829534D01*
X15298382Y-191035825D01*
X15035825Y-191298382D01*
X14829534Y-191607118D01*
X14687439Y-191950166D01*
X14615000Y-192314344D01*
X13660000Y-192314344D01*
X13660000Y-181458665D01*
X39885000Y-181458665D01*
X39885000Y-181741335D01*
X39940147Y-182018574D01*
X40048320Y-182279727D01*
X40205363Y-182514759D01*
X40405241Y-182714637D01*
X40640273Y-182871680D01*
X40901426Y-182979853D01*
X41142718Y-183027850D01*
X43378009Y-185263141D01*
X43413551Y-185306449D01*
X43586377Y-185448284D01*
X43783553Y-185553676D01*
X43997501Y-185618577D01*
X44164248Y-185635000D01*
X44164257Y-185635000D01*
X44219999Y-185640490D01*
X44275741Y-185635000D01*
X48344249Y-185635000D01*
X48400000Y-185640491D01*
X48455751Y-185635000D01*
X48455752Y-185635000D01*
X48622499Y-185618577D01*
X48836447Y-185553676D01*
X49033623Y-185448284D01*
X49206449Y-185306449D01*
X49241996Y-185263135D01*
X51577283Y-182927849D01*
X51818574Y-182879853D01*
X52079727Y-182771680D01*
X52314759Y-182614637D01*
X52514637Y-182414759D01*
X52671680Y-182179727D01*
X52779853Y-181918574D01*
X52835000Y-181641335D01*
X52835000Y-181358665D01*
X52779853Y-181081426D01*
X52671680Y-180820273D01*
X52591317Y-180700000D01*
X55041928Y-180700000D01*
X55041928Y-182300000D01*
X55054188Y-182424482D01*
X55090498Y-182544180D01*
X55149463Y-182654494D01*
X55228815Y-182751185D01*
X55325506Y-182830537D01*
X55435820Y-182889502D01*
X55555518Y-182925812D01*
X55680000Y-182938072D01*
X57280000Y-182938072D01*
X57404482Y-182925812D01*
X57524180Y-182889502D01*
X57634494Y-182830537D01*
X57731185Y-182751185D01*
X57810537Y-182654494D01*
X57869502Y-182544180D01*
X57905812Y-182424482D01*
X57918072Y-182300000D01*
X57918072Y-180700000D01*
X57905812Y-180575518D01*
X57869502Y-180455820D01*
X57810537Y-180345506D01*
X57731185Y-180248815D01*
X57634494Y-180169463D01*
X57524180Y-180110498D01*
X57404482Y-180074188D01*
X57280000Y-180061928D01*
X55680000Y-180061928D01*
X55555518Y-180074188D01*
X55435820Y-180110498D01*
X55325506Y-180169463D01*
X55228815Y-180248815D01*
X55149463Y-180345506D01*
X55090498Y-180455820D01*
X55054188Y-180575518D01*
X55041928Y-180700000D01*
X52591317Y-180700000D01*
X52514637Y-180585241D01*
X52314759Y-180385363D01*
X52079727Y-180228320D01*
X51818574Y-180120147D01*
X51541335Y-180065000D01*
X51258665Y-180065000D01*
X50981426Y-180120147D01*
X50720273Y-180228320D01*
X50485241Y-180385363D01*
X50285363Y-180585241D01*
X50128320Y-180820273D01*
X50020147Y-181081426D01*
X49972151Y-181322717D01*
X47929869Y-183365000D01*
X44690132Y-183365000D01*
X42747850Y-181422718D01*
X42699853Y-181181426D01*
X42591680Y-180920273D01*
X42511317Y-180800000D01*
X44961928Y-180800000D01*
X44961928Y-182400000D01*
X44974188Y-182524482D01*
X45010498Y-182644180D01*
X45069463Y-182754494D01*
X45148815Y-182851185D01*
X45245506Y-182930537D01*
X45355820Y-182989502D01*
X45475518Y-183025812D01*
X45600000Y-183038072D01*
X47200000Y-183038072D01*
X47324482Y-183025812D01*
X47444180Y-182989502D01*
X47554494Y-182930537D01*
X47651185Y-182851185D01*
X47730537Y-182754494D01*
X47789502Y-182644180D01*
X47825812Y-182524482D01*
X47838072Y-182400000D01*
X47838072Y-180800000D01*
X47825812Y-180675518D01*
X47789502Y-180555820D01*
X47730537Y-180445506D01*
X47651185Y-180348815D01*
X47554494Y-180269463D01*
X47444180Y-180210498D01*
X47324482Y-180174188D01*
X47200000Y-180161928D01*
X45600000Y-180161928D01*
X45475518Y-180174188D01*
X45355820Y-180210498D01*
X45245506Y-180269463D01*
X45148815Y-180348815D01*
X45069463Y-180445506D01*
X45010498Y-180555820D01*
X44974188Y-180675518D01*
X44961928Y-180800000D01*
X42511317Y-180800000D01*
X42434637Y-180685241D01*
X42234759Y-180485363D01*
X41999727Y-180328320D01*
X41738574Y-180220147D01*
X41461335Y-180165000D01*
X41178665Y-180165000D01*
X40901426Y-180220147D01*
X40640273Y-180328320D01*
X40405241Y-180485363D01*
X40205363Y-180685241D01*
X40048320Y-180920273D01*
X39940147Y-181181426D01*
X39885000Y-181458665D01*
X13660000Y-181458665D01*
X13660000Y-173314344D01*
X14615000Y-173314344D01*
X14615000Y-173685656D01*
X14687439Y-174049834D01*
X14829534Y-174392882D01*
X15035825Y-174701618D01*
X15298382Y-174964175D01*
X15607118Y-175170466D01*
X15950166Y-175312561D01*
X16314344Y-175385000D01*
X16685656Y-175385000D01*
X17049834Y-175312561D01*
X17392882Y-175170466D01*
X17701618Y-174964175D01*
X17964175Y-174701618D01*
X18170466Y-174392882D01*
X18312561Y-174049834D01*
X18385000Y-173685656D01*
X18385000Y-173314344D01*
X72615000Y-173314344D01*
X72615000Y-173685656D01*
X72687439Y-174049834D01*
X72829534Y-174392882D01*
X73035825Y-174701618D01*
X73298382Y-174964175D01*
X73607118Y-175170466D01*
X73950166Y-175312561D01*
X74314344Y-175385000D01*
X74685656Y-175385000D01*
X75049834Y-175312561D01*
X75392882Y-175170466D01*
X75701618Y-174964175D01*
X75964175Y-174701618D01*
X76170466Y-174392882D01*
X76312561Y-174049834D01*
X76385000Y-173685656D01*
X76385000Y-173314344D01*
X76312561Y-172950166D01*
X76170466Y-172607118D01*
X75964175Y-172298382D01*
X75701618Y-172035825D01*
X75392882Y-171829534D01*
X75049834Y-171687439D01*
X74685656Y-171615000D01*
X74314344Y-171615000D01*
X73950166Y-171687439D01*
X73607118Y-171829534D01*
X73298382Y-172035825D01*
X73035825Y-172298382D01*
X72829534Y-172607118D01*
X72687439Y-172950166D01*
X72615000Y-173314344D01*
X18385000Y-173314344D01*
X18312561Y-172950166D01*
X18170466Y-172607118D01*
X17964175Y-172298382D01*
X17701618Y-172035825D01*
X17392882Y-171829534D01*
X17049834Y-171687439D01*
X16685656Y-171615000D01*
X16314344Y-171615000D01*
X15950166Y-171687439D01*
X15607118Y-171829534D01*
X15298382Y-172035825D01*
X15035825Y-172298382D01*
X14829534Y-172607118D01*
X14687439Y-172950166D01*
X14615000Y-173314344D01*
X13660000Y-173314344D01*
X13660000Y-170660000D01*
X77340000Y-170660000D01*
X77340001Y-183740868D01*
G36*
X77340001Y-195340000D02*
G01*
X62497396Y-195340000D01*
X62568284Y-195253623D01*
X62673676Y-195056447D01*
X62738577Y-194842499D01*
X62755000Y-194675752D01*
X62760491Y-194620000D01*
X62755000Y-194564248D01*
X62755000Y-193465107D01*
X62773475Y-193446632D01*
X62895195Y-193264466D01*
X62964822Y-193381355D01*
X63159731Y-193597588D01*
X63393080Y-193771641D01*
X63655901Y-193896825D01*
X63803110Y-193941476D01*
X64033000Y-193820155D01*
X64033000Y-192627000D01*
X64013000Y-192627000D01*
X64013000Y-192373000D01*
X64033000Y-192373000D01*
X64033000Y-192353000D01*
X64287000Y-192353000D01*
X64287000Y-192373000D01*
X64307000Y-192373000D01*
X64307000Y-192627000D01*
X64287000Y-192627000D01*
X64287000Y-193820155D01*
X64516890Y-193941476D01*
X64664099Y-193896825D01*
X64926920Y-193771641D01*
X65160269Y-193597588D01*
X65236034Y-193513534D01*
X65260498Y-193594180D01*
X65319463Y-193704494D01*
X65398815Y-193801185D01*
X65495506Y-193880537D01*
X65605820Y-193939502D01*
X65725518Y-193975812D01*
X65850000Y-193988072D01*
X67550000Y-193988072D01*
X67674482Y-193975812D01*
X67794180Y-193939502D01*
X67904494Y-193880537D01*
X68001185Y-193801185D01*
X68080537Y-193704494D01*
X68139502Y-193594180D01*
X68175812Y-193474482D01*
X68188072Y-193350000D01*
X68188072Y-192314344D01*
X72615000Y-192314344D01*
X72615000Y-192685656D01*
X72687439Y-193049834D01*
X72829534Y-193392882D01*
X73035825Y-193701618D01*
X73298382Y-193964175D01*
X73607118Y-194170466D01*
X73950166Y-194312561D01*
X74314344Y-194385000D01*
X74685656Y-194385000D01*
X75049834Y-194312561D01*
X75392882Y-194170466D01*
X75701618Y-193964175D01*
X75964175Y-193701618D01*
X76170466Y-193392882D01*
X76312561Y-193049834D01*
X76385000Y-192685656D01*
X76385000Y-192314344D01*
X76312561Y-191950166D01*
X76170466Y-191607118D01*
X75964175Y-191298382D01*
X75701618Y-191035825D01*
X75392882Y-190829534D01*
X75049834Y-190687439D01*
X74685656Y-190615000D01*
X74314344Y-190615000D01*
X73950166Y-190687439D01*
X73607118Y-190829534D01*
X73298382Y-191035825D01*
X73035825Y-191298382D01*
X72829534Y-191607118D01*
X72687439Y-191950166D01*
X72615000Y-192314344D01*
X68188072Y-192314344D01*
X68188072Y-191650000D01*
X68175812Y-191525518D01*
X68139502Y-191405820D01*
X68080537Y-191295506D01*
X68001185Y-191198815D01*
X67904494Y-191119463D01*
X67794180Y-191060498D01*
X67674482Y-191024188D01*
X67550000Y-191011928D01*
X67513203Y-191011928D01*
X67763135Y-190761996D01*
X67806449Y-190726449D01*
X67948284Y-190553623D01*
X68053676Y-190356447D01*
X68118577Y-190142499D01*
X68122341Y-190104279D01*
X68140491Y-189920001D01*
X68135000Y-189864249D01*
X68135000Y-188055000D01*
X68582317Y-188055000D01*
X68619463Y-188124494D01*
X68698815Y-188221185D01*
X68795506Y-188300537D01*
X68905820Y-188359502D01*
X69025518Y-188395812D01*
X69150000Y-188408072D01*
X70850000Y-188408072D01*
X70974482Y-188395812D01*
X71094180Y-188359502D01*
X71204494Y-188300537D01*
X71301185Y-188221185D01*
X71380537Y-188124494D01*
X71417683Y-188055000D01*
X72082317Y-188055000D01*
X72119463Y-188124494D01*
X72198815Y-188221185D01*
X72295506Y-188300537D01*
X72405820Y-188359502D01*
X72525518Y-188395812D01*
X72650000Y-188408072D01*
X74350000Y-188408072D01*
X74474482Y-188395812D01*
X74594180Y-188359502D01*
X74704494Y-188300537D01*
X74801185Y-188221185D01*
X74880537Y-188124494D01*
X74917683Y-188055000D01*
X76361749Y-188055000D01*
X76417500Y-188060491D01*
X76473251Y-188055000D01*
X76473252Y-188055000D01*
X76639999Y-188038577D01*
X76853947Y-187973676D01*
X77051123Y-187868284D01*
X77057641Y-187862935D01*
X77228285Y-187846128D01*
X77340001Y-187812239D01*
X77340001Y-195340000D01*
G37*
X77340001Y-195340000D02*
X62497396Y-195340000D01*
X62568284Y-195253623D01*
X62673676Y-195056447D01*
X62738577Y-194842499D01*
X62755000Y-194675752D01*
X62760491Y-194620000D01*
X62755000Y-194564248D01*
X62755000Y-193465107D01*
X62773475Y-193446632D01*
X62895195Y-193264466D01*
X62964822Y-193381355D01*
X63159731Y-193597588D01*
X63393080Y-193771641D01*
X63655901Y-193896825D01*
X63803110Y-193941476D01*
X64033000Y-193820155D01*
X64033000Y-192627000D01*
X64013000Y-192627000D01*
X64013000Y-192373000D01*
X64033000Y-192373000D01*
X64033000Y-192353000D01*
X64287000Y-192353000D01*
X64287000Y-192373000D01*
X64307000Y-192373000D01*
X64307000Y-192627000D01*
X64287000Y-192627000D01*
X64287000Y-193820155D01*
X64516890Y-193941476D01*
X64664099Y-193896825D01*
X64926920Y-193771641D01*
X65160269Y-193597588D01*
X65236034Y-193513534D01*
X65260498Y-193594180D01*
X65319463Y-193704494D01*
X65398815Y-193801185D01*
X65495506Y-193880537D01*
X65605820Y-193939502D01*
X65725518Y-193975812D01*
X65850000Y-193988072D01*
X67550000Y-193988072D01*
X67674482Y-193975812D01*
X67794180Y-193939502D01*
X67904494Y-193880537D01*
X68001185Y-193801185D01*
X68080537Y-193704494D01*
X68139502Y-193594180D01*
X68175812Y-193474482D01*
X68188072Y-193350000D01*
X68188072Y-192314344D01*
X72615000Y-192314344D01*
X72615000Y-192685656D01*
X72687439Y-193049834D01*
X72829534Y-193392882D01*
X73035825Y-193701618D01*
X73298382Y-193964175D01*
X73607118Y-194170466D01*
X73950166Y-194312561D01*
X74314344Y-194385000D01*
X74685656Y-194385000D01*
X75049834Y-194312561D01*
X75392882Y-194170466D01*
X75701618Y-193964175D01*
X75964175Y-193701618D01*
X76170466Y-193392882D01*
X76312561Y-193049834D01*
X76385000Y-192685656D01*
X76385000Y-192314344D01*
X76312561Y-191950166D01*
X76170466Y-191607118D01*
X75964175Y-191298382D01*
X75701618Y-191035825D01*
X75392882Y-190829534D01*
X75049834Y-190687439D01*
X74685656Y-190615000D01*
X74314344Y-190615000D01*
X73950166Y-190687439D01*
X73607118Y-190829534D01*
X73298382Y-191035825D01*
X73035825Y-191298382D01*
X72829534Y-191607118D01*
X72687439Y-191950166D01*
X72615000Y-192314344D01*
X68188072Y-192314344D01*
X68188072Y-191650000D01*
X68175812Y-191525518D01*
X68139502Y-191405820D01*
X68080537Y-191295506D01*
X68001185Y-191198815D01*
X67904494Y-191119463D01*
X67794180Y-191060498D01*
X67674482Y-191024188D01*
X67550000Y-191011928D01*
X67513203Y-191011928D01*
X67763135Y-190761996D01*
X67806449Y-190726449D01*
X67948284Y-190553623D01*
X68053676Y-190356447D01*
X68118577Y-190142499D01*
X68122341Y-190104279D01*
X68140491Y-189920001D01*
X68135000Y-189864249D01*
X68135000Y-188055000D01*
X68582317Y-188055000D01*
X68619463Y-188124494D01*
X68698815Y-188221185D01*
X68795506Y-188300537D01*
X68905820Y-188359502D01*
X69025518Y-188395812D01*
X69150000Y-188408072D01*
X70850000Y-188408072D01*
X70974482Y-188395812D01*
X71094180Y-188359502D01*
X71204494Y-188300537D01*
X71301185Y-188221185D01*
X71380537Y-188124494D01*
X71417683Y-188055000D01*
X72082317Y-188055000D01*
X72119463Y-188124494D01*
X72198815Y-188221185D01*
X72295506Y-188300537D01*
X72405820Y-188359502D01*
X72525518Y-188395812D01*
X72650000Y-188408072D01*
X74350000Y-188408072D01*
X74474482Y-188395812D01*
X74594180Y-188359502D01*
X74704494Y-188300537D01*
X74801185Y-188221185D01*
X74880537Y-188124494D01*
X74917683Y-188055000D01*
X76361749Y-188055000D01*
X76417500Y-188060491D01*
X76473251Y-188055000D01*
X76473252Y-188055000D01*
X76639999Y-188038577D01*
X76853947Y-187973676D01*
X77051123Y-187868284D01*
X77057641Y-187862935D01*
X77228285Y-187846128D01*
X77340001Y-187812239D01*
X77340001Y-195340000D01*
G36*
X54127000Y-192373000D02*
G01*
X54147000Y-192373000D01*
X54147000Y-192627000D01*
X54127000Y-192627000D01*
X54127000Y-193820155D01*
X54356890Y-193941476D01*
X54504099Y-193896825D01*
X54766920Y-193771641D01*
X55000269Y-193597588D01*
X55195178Y-193381355D01*
X55264805Y-193264466D01*
X55386525Y-193446632D01*
X55593368Y-193653475D01*
X55836589Y-193815990D01*
X56106842Y-193927932D01*
X56393740Y-193985000D01*
X56686260Y-193985000D01*
X56973158Y-193927932D01*
X57243411Y-193815990D01*
X57486632Y-193653475D01*
X57693475Y-193446632D01*
X57810000Y-193272240D01*
X57926525Y-193446632D01*
X58133368Y-193653475D01*
X58376589Y-193815990D01*
X58646842Y-193927932D01*
X58933740Y-193985000D01*
X59226260Y-193985000D01*
X59513158Y-193927932D01*
X59783411Y-193815990D01*
X60026632Y-193653475D01*
X60233475Y-193446632D01*
X60350000Y-193272240D01*
X60466525Y-193446632D01*
X60485000Y-193465107D01*
X60485001Y-194065000D01*
X52870132Y-194065000D01*
X52595000Y-193789869D01*
X52595000Y-193465107D01*
X52613475Y-193446632D01*
X52735195Y-193264466D01*
X52804822Y-193381355D01*
X52999731Y-193597588D01*
X53233080Y-193771641D01*
X53495901Y-193896825D01*
X53643110Y-193941476D01*
X53873000Y-193820155D01*
X53873000Y-192627000D01*
X53853000Y-192627000D01*
X53853000Y-192373000D01*
X53873000Y-192373000D01*
X53873000Y-192353000D01*
X54127000Y-192353000D01*
X54127000Y-192373000D01*
G37*
X54127000Y-192373000D02*
X54147000Y-192373000D01*
X54147000Y-192627000D01*
X54127000Y-192627000D01*
X54127000Y-193820155D01*
X54356890Y-193941476D01*
X54504099Y-193896825D01*
X54766920Y-193771641D01*
X55000269Y-193597588D01*
X55195178Y-193381355D01*
X55264805Y-193264466D01*
X55386525Y-193446632D01*
X55593368Y-193653475D01*
X55836589Y-193815990D01*
X56106842Y-193927932D01*
X56393740Y-193985000D01*
X56686260Y-193985000D01*
X56973158Y-193927932D01*
X57243411Y-193815990D01*
X57486632Y-193653475D01*
X57693475Y-193446632D01*
X57810000Y-193272240D01*
X57926525Y-193446632D01*
X58133368Y-193653475D01*
X58376589Y-193815990D01*
X58646842Y-193927932D01*
X58933740Y-193985000D01*
X59226260Y-193985000D01*
X59513158Y-193927932D01*
X59783411Y-193815990D01*
X60026632Y-193653475D01*
X60233475Y-193446632D01*
X60350000Y-193272240D01*
X60466525Y-193446632D01*
X60485000Y-193465107D01*
X60485001Y-194065000D01*
X52870132Y-194065000D01*
X52595000Y-193789869D01*
X52595000Y-193465107D01*
X52613475Y-193446632D01*
X52735195Y-193264466D01*
X52804822Y-193381355D01*
X52999731Y-193597588D01*
X53233080Y-193771641D01*
X53495901Y-193896825D01*
X53643110Y-193941476D01*
X53873000Y-193820155D01*
X53873000Y-192627000D01*
X53853000Y-192627000D01*
X53853000Y-192373000D01*
X53873000Y-192373000D01*
X53873000Y-192353000D01*
X54127000Y-192353000D01*
X54127000Y-192373000D01*
G36*
X43967000Y-192373000D02*
G01*
X43987000Y-192373000D01*
X43987000Y-192627000D01*
X43967000Y-192627000D01*
X43967000Y-193820155D01*
X44196890Y-193941476D01*
X44344099Y-193896825D01*
X44606920Y-193771641D01*
X44840269Y-193597588D01*
X45035178Y-193381355D01*
X45104805Y-193264466D01*
X45226525Y-193446632D01*
X45433368Y-193653475D01*
X45676589Y-193815990D01*
X45946842Y-193927932D01*
X46233740Y-193985000D01*
X46526260Y-193985000D01*
X46813158Y-193927932D01*
X47083411Y-193815990D01*
X47326632Y-193653475D01*
X47533475Y-193446632D01*
X47650000Y-193272240D01*
X47766525Y-193446632D01*
X47973368Y-193653475D01*
X48216589Y-193815990D01*
X48486842Y-193927932D01*
X48773740Y-193985000D01*
X49066260Y-193985000D01*
X49353158Y-193927932D01*
X49623411Y-193815990D01*
X49866632Y-193653475D01*
X50073475Y-193446632D01*
X50190000Y-193272240D01*
X50306525Y-193446632D01*
X50325000Y-193465107D01*
X50325000Y-193769868D01*
X50029869Y-194065000D01*
X43070132Y-194065000D01*
X42452619Y-193447488D01*
X42453475Y-193446632D01*
X42575195Y-193264466D01*
X42644822Y-193381355D01*
X42839731Y-193597588D01*
X43073080Y-193771641D01*
X43335901Y-193896825D01*
X43483110Y-193941476D01*
X43713000Y-193820155D01*
X43713000Y-192627000D01*
X43693000Y-192627000D01*
X43693000Y-192373000D01*
X43713000Y-192373000D01*
X43713000Y-192353000D01*
X43967000Y-192353000D01*
X43967000Y-192373000D01*
G37*
X43967000Y-192373000D02*
X43987000Y-192373000D01*
X43987000Y-192627000D01*
X43967000Y-192627000D01*
X43967000Y-193820155D01*
X44196890Y-193941476D01*
X44344099Y-193896825D01*
X44606920Y-193771641D01*
X44840269Y-193597588D01*
X45035178Y-193381355D01*
X45104805Y-193264466D01*
X45226525Y-193446632D01*
X45433368Y-193653475D01*
X45676589Y-193815990D01*
X45946842Y-193927932D01*
X46233740Y-193985000D01*
X46526260Y-193985000D01*
X46813158Y-193927932D01*
X47083411Y-193815990D01*
X47326632Y-193653475D01*
X47533475Y-193446632D01*
X47650000Y-193272240D01*
X47766525Y-193446632D01*
X47973368Y-193653475D01*
X48216589Y-193815990D01*
X48486842Y-193927932D01*
X48773740Y-193985000D01*
X49066260Y-193985000D01*
X49353158Y-193927932D01*
X49623411Y-193815990D01*
X49866632Y-193653475D01*
X50073475Y-193446632D01*
X50190000Y-193272240D01*
X50306525Y-193446632D01*
X50325000Y-193465107D01*
X50325000Y-193769868D01*
X50029869Y-194065000D01*
X43070132Y-194065000D01*
X42452619Y-193447488D01*
X42453475Y-193446632D01*
X42575195Y-193264466D01*
X42644822Y-193381355D01*
X42839731Y-193597588D01*
X43073080Y-193771641D01*
X43335901Y-193896825D01*
X43483110Y-193941476D01*
X43713000Y-193820155D01*
X43713000Y-192627000D01*
X43693000Y-192627000D01*
X43693000Y-192373000D01*
X43713000Y-192373000D01*
X43713000Y-192353000D01*
X43967000Y-192353000D01*
X43967000Y-192373000D01*
G36*
X33807000Y-192373000D02*
G01*
X33827000Y-192373000D01*
X33827000Y-192627000D01*
X33807000Y-192627000D01*
X33807000Y-192647000D01*
X33553000Y-192647000D01*
X33553000Y-192627000D01*
X33533000Y-192627000D01*
X33533000Y-192373000D01*
X33553000Y-192373000D01*
X33553000Y-192353000D01*
X33807000Y-192353000D01*
X33807000Y-192373000D01*
G37*
X33807000Y-192373000D02*
X33827000Y-192373000D01*
X33827000Y-192627000D01*
X33807000Y-192627000D01*
X33807000Y-192647000D01*
X33553000Y-192647000D01*
X33553000Y-192627000D01*
X33533000Y-192627000D01*
X33533000Y-192373000D01*
X33553000Y-192373000D01*
X33553000Y-192353000D01*
X33807000Y-192353000D01*
X33807000Y-192373000D01*
M02*
