G04 #@! TF.GenerationSoftware,KiCad,Pcbnew,5.1.5+dfsg1-2build2*
G04 #@! TF.CreationDate,2022-05-11T12:23:00+01:00*
G04 #@! TF.ProjectId,rrl-interface,72726c2d-696e-4746-9572-666163652e6b,rev?*
G04 #@! TF.SameCoordinates,Original*
G04 #@! TF.FileFunction,Legend,Bot*
G04 #@! TF.FilePolarity,Positive*
%FSLAX46Y46*%
G04 Gerber Fmt 4.6, Leading zero omitted, Abs format (unit mm)*
G04 Created by KiCad (PCBNEW 5.1.5+dfsg1-2build2) date 2022-05-11 12:23:00*
%MOMM*%
%LPD*%
G04 APERTURE LIST*
%ADD10C,0.120000*%
%ADD11C,0.150000*%
G04 APERTURE END LIST*
D10*
X67710000Y-185958578D02*
X67710000Y-185441422D01*
X66290000Y-185958578D02*
X66290000Y-185441422D01*
X77310000Y-186058578D02*
X77310000Y-185541422D01*
X75890000Y-186058578D02*
X75890000Y-185541422D01*
X64541422Y-183310000D02*
X65058578Y-183310000D01*
X64541422Y-181890000D02*
X65058578Y-181890000D01*
D11*
X61925000Y-181075000D02*
X61925000Y-180850000D01*
X65275000Y-181075000D02*
X65275000Y-180775000D01*
X65275000Y-177725000D02*
X65275000Y-178025000D01*
X61925000Y-177725000D02*
X61925000Y-178025000D01*
X61925000Y-181075000D02*
X65275000Y-181075000D01*
X61925000Y-177725000D02*
X65275000Y-177725000D01*
X61925000Y-180850000D02*
X60700000Y-180850000D01*
D10*
X23141422Y-190010000D02*
X23658578Y-190010000D01*
X23141422Y-188590000D02*
X23658578Y-188590000D01*
D11*
X69007142Y-185533333D02*
X69054761Y-185485714D01*
X69102380Y-185342857D01*
X69102380Y-185247619D01*
X69054761Y-185104761D01*
X68959523Y-185009523D01*
X68864285Y-184961904D01*
X68673809Y-184914285D01*
X68530952Y-184914285D01*
X68340476Y-184961904D01*
X68245238Y-185009523D01*
X68150000Y-185104761D01*
X68102380Y-185247619D01*
X68102380Y-185342857D01*
X68150000Y-185485714D01*
X68197619Y-185533333D01*
X69102380Y-186485714D02*
X69102380Y-185914285D01*
X69102380Y-186200000D02*
X68102380Y-186200000D01*
X68245238Y-186104761D01*
X68340476Y-186009523D01*
X68388095Y-185914285D01*
X78607142Y-185633333D02*
X78654761Y-185585714D01*
X78702380Y-185442857D01*
X78702380Y-185347619D01*
X78654761Y-185204761D01*
X78559523Y-185109523D01*
X78464285Y-185061904D01*
X78273809Y-185014285D01*
X78130952Y-185014285D01*
X77940476Y-185061904D01*
X77845238Y-185109523D01*
X77750000Y-185204761D01*
X77702380Y-185347619D01*
X77702380Y-185442857D01*
X77750000Y-185585714D01*
X77797619Y-185633333D01*
X77797619Y-186014285D02*
X77750000Y-186061904D01*
X77702380Y-186157142D01*
X77702380Y-186395238D01*
X77750000Y-186490476D01*
X77797619Y-186538095D01*
X77892857Y-186585714D01*
X77988095Y-186585714D01*
X78130952Y-186538095D01*
X78702380Y-185966666D01*
X78702380Y-186585714D01*
X64966666Y-184607142D02*
X65014285Y-184654761D01*
X65157142Y-184702380D01*
X65252380Y-184702380D01*
X65395238Y-184654761D01*
X65490476Y-184559523D01*
X65538095Y-184464285D01*
X65585714Y-184273809D01*
X65585714Y-184130952D01*
X65538095Y-183940476D01*
X65490476Y-183845238D01*
X65395238Y-183750000D01*
X65252380Y-183702380D01*
X65157142Y-183702380D01*
X65014285Y-183750000D01*
X64966666Y-183797619D01*
X64633333Y-183702380D02*
X64014285Y-183702380D01*
X64347619Y-184083333D01*
X64204761Y-184083333D01*
X64109523Y-184130952D01*
X64061904Y-184178571D01*
X64014285Y-184273809D01*
X64014285Y-184511904D01*
X64061904Y-184607142D01*
X64109523Y-184654761D01*
X64204761Y-184702380D01*
X64490476Y-184702380D01*
X64585714Y-184654761D01*
X64633333Y-184607142D01*
X61961904Y-181552380D02*
X61961904Y-182361904D01*
X61914285Y-182457142D01*
X61866666Y-182504761D01*
X61771428Y-182552380D01*
X61580952Y-182552380D01*
X61485714Y-182504761D01*
X61438095Y-182457142D01*
X61390476Y-182361904D01*
X61390476Y-181552380D01*
X60390476Y-182552380D02*
X60961904Y-182552380D01*
X60676190Y-182552380D02*
X60676190Y-181552380D01*
X60771428Y-181695238D01*
X60866666Y-181790476D01*
X60961904Y-181838095D01*
X23566666Y-191307142D02*
X23614285Y-191354761D01*
X23757142Y-191402380D01*
X23852380Y-191402380D01*
X23995238Y-191354761D01*
X24090476Y-191259523D01*
X24138095Y-191164285D01*
X24185714Y-190973809D01*
X24185714Y-190830952D01*
X24138095Y-190640476D01*
X24090476Y-190545238D01*
X23995238Y-190450000D01*
X23852380Y-190402380D01*
X23757142Y-190402380D01*
X23614285Y-190450000D01*
X23566666Y-190497619D01*
X22709523Y-190735714D02*
X22709523Y-191402380D01*
X22947619Y-190354761D02*
X23185714Y-191069047D01*
X22566666Y-191069047D01*
M02*
