G04 #@! TF.GenerationSoftware,KiCad,Pcbnew,5.1.5+dfsg1-2build2*
G04 #@! TF.CreationDate,2022-12-16T12:04:58+00:00*
G04 #@! TF.ProjectId,rrl-interface,72726c2d-696e-4746-9572-666163652e6b,rev?*
G04 #@! TF.SameCoordinates,Original*
G04 #@! TF.FileFunction,Legend,Bot*
G04 #@! TF.FilePolarity,Positive*
%FSLAX46Y46*%
G04 Gerber Fmt 4.6, Leading zero omitted, Abs format (unit mm)*
G04 Created by KiCad (PCBNEW 5.1.5+dfsg1-2build2) date 2022-12-16 12:04:58*
%MOMM*%
%LPD*%
G04 APERTURE LIST*
%ADD10C,0.150000*%
%ADD11C,0.120000*%
G04 APERTURE END LIST*
D10*
X37788214Y-172502380D02*
X38264404Y-172502380D01*
X38264404Y-171502380D01*
X37454880Y-172502380D02*
X37454880Y-171835714D01*
X37454880Y-171502380D02*
X37502500Y-171550000D01*
X37454880Y-171597619D01*
X37407261Y-171550000D01*
X37454880Y-171502380D01*
X37454880Y-171597619D01*
X36550119Y-172454761D02*
X36645357Y-172502380D01*
X36835833Y-172502380D01*
X36931071Y-172454761D01*
X36978690Y-172407142D01*
X37026309Y-172311904D01*
X37026309Y-172026190D01*
X36978690Y-171930952D01*
X36931071Y-171883333D01*
X36835833Y-171835714D01*
X36645357Y-171835714D01*
X36550119Y-171883333D01*
X35740595Y-172454761D02*
X35835833Y-172502380D01*
X36026309Y-172502380D01*
X36121547Y-172454761D01*
X36169166Y-172359523D01*
X36169166Y-171978571D01*
X36121547Y-171883333D01*
X36026309Y-171835714D01*
X35835833Y-171835714D01*
X35740595Y-171883333D01*
X35692976Y-171978571D01*
X35692976Y-172073809D01*
X36169166Y-172169047D01*
X35264404Y-171835714D02*
X35264404Y-172502380D01*
X35264404Y-171930952D02*
X35216785Y-171883333D01*
X35121547Y-171835714D01*
X34978690Y-171835714D01*
X34883452Y-171883333D01*
X34835833Y-171978571D01*
X34835833Y-172502380D01*
X33931071Y-172454761D02*
X34026309Y-172502380D01*
X34216785Y-172502380D01*
X34312023Y-172454761D01*
X34359642Y-172407142D01*
X34407261Y-172311904D01*
X34407261Y-172026190D01*
X34359642Y-171930952D01*
X34312023Y-171883333D01*
X34216785Y-171835714D01*
X34026309Y-171835714D01*
X33931071Y-171883333D01*
X33121547Y-172454761D02*
X33216785Y-172502380D01*
X33407261Y-172502380D01*
X33502500Y-172454761D01*
X33550119Y-172359523D01*
X33550119Y-171978571D01*
X33502500Y-171883333D01*
X33407261Y-171835714D01*
X33216785Y-171835714D01*
X33121547Y-171883333D01*
X33073928Y-171978571D01*
X33073928Y-172073809D01*
X33550119Y-172169047D01*
X32645357Y-172407142D02*
X32597738Y-172454761D01*
X32645357Y-172502380D01*
X32692976Y-172454761D01*
X32645357Y-172407142D01*
X32645357Y-172502380D01*
X32645357Y-171883333D02*
X32597738Y-171930952D01*
X32645357Y-171978571D01*
X32692976Y-171930952D01*
X32645357Y-171883333D01*
X32645357Y-171978571D01*
X30883452Y-171550000D02*
X30978690Y-171502380D01*
X31121547Y-171502380D01*
X31264404Y-171550000D01*
X31359642Y-171645238D01*
X31407261Y-171740476D01*
X31454880Y-171930952D01*
X31454880Y-172073809D01*
X31407261Y-172264285D01*
X31359642Y-172359523D01*
X31264404Y-172454761D01*
X31121547Y-172502380D01*
X31026309Y-172502380D01*
X30883452Y-172454761D01*
X30835833Y-172407142D01*
X30835833Y-172073809D01*
X31026309Y-172073809D01*
X30407261Y-172502380D02*
X30407261Y-171502380D01*
X30026309Y-171502380D01*
X29931071Y-171550000D01*
X29883452Y-171597619D01*
X29835833Y-171692857D01*
X29835833Y-171835714D01*
X29883452Y-171930952D01*
X29931071Y-171978571D01*
X30026309Y-172026190D01*
X30407261Y-172026190D01*
X28931071Y-172502380D02*
X29407261Y-172502380D01*
X29407261Y-171502380D01*
X38407261Y-173152380D02*
X38073928Y-174152380D01*
X37740595Y-173152380D01*
X37026309Y-174104761D02*
X37121547Y-174152380D01*
X37312023Y-174152380D01*
X37407261Y-174104761D01*
X37454880Y-174009523D01*
X37454880Y-173628571D01*
X37407261Y-173533333D01*
X37312023Y-173485714D01*
X37121547Y-173485714D01*
X37026309Y-173533333D01*
X36978690Y-173628571D01*
X36978690Y-173723809D01*
X37454880Y-173819047D01*
X36550119Y-174152380D02*
X36550119Y-173485714D01*
X36550119Y-173676190D02*
X36502500Y-173580952D01*
X36454880Y-173533333D01*
X36359642Y-173485714D01*
X36264404Y-173485714D01*
X35978690Y-174104761D02*
X35883452Y-174152380D01*
X35692976Y-174152380D01*
X35597738Y-174104761D01*
X35550119Y-174009523D01*
X35550119Y-173961904D01*
X35597738Y-173866666D01*
X35692976Y-173819047D01*
X35835833Y-173819047D01*
X35931071Y-173771428D01*
X35978690Y-173676190D01*
X35978690Y-173628571D01*
X35931071Y-173533333D01*
X35835833Y-173485714D01*
X35692976Y-173485714D01*
X35597738Y-173533333D01*
X35121547Y-174152380D02*
X35121547Y-173485714D01*
X35121547Y-173152380D02*
X35169166Y-173200000D01*
X35121547Y-173247619D01*
X35073928Y-173200000D01*
X35121547Y-173152380D01*
X35121547Y-173247619D01*
X34502500Y-174152380D02*
X34597738Y-174104761D01*
X34645357Y-174057142D01*
X34692976Y-173961904D01*
X34692976Y-173676190D01*
X34645357Y-173580952D01*
X34597738Y-173533333D01*
X34502500Y-173485714D01*
X34359642Y-173485714D01*
X34264404Y-173533333D01*
X34216785Y-173580952D01*
X34169166Y-173676190D01*
X34169166Y-173961904D01*
X34216785Y-174057142D01*
X34264404Y-174104761D01*
X34359642Y-174152380D01*
X34502500Y-174152380D01*
X33740595Y-173485714D02*
X33740595Y-174152380D01*
X33740595Y-173580952D02*
X33692976Y-173533333D01*
X33597738Y-173485714D01*
X33454880Y-173485714D01*
X33359642Y-173533333D01*
X33312023Y-173628571D01*
X33312023Y-174152380D01*
X32835833Y-174057142D02*
X32788214Y-174104761D01*
X32835833Y-174152380D01*
X32883452Y-174104761D01*
X32835833Y-174057142D01*
X32835833Y-174152380D01*
X32835833Y-173533333D02*
X32788214Y-173580952D01*
X32835833Y-173628571D01*
X32883452Y-173580952D01*
X32835833Y-173533333D01*
X32835833Y-173628571D01*
X31645357Y-173247619D02*
X31597738Y-173200000D01*
X31502500Y-173152380D01*
X31264404Y-173152380D01*
X31169166Y-173200000D01*
X31121547Y-173247619D01*
X31073928Y-173342857D01*
X31073928Y-173438095D01*
X31121547Y-173580952D01*
X31692976Y-174152380D01*
X31073928Y-174152380D01*
X38264404Y-175802380D02*
X38264404Y-174802380D01*
X38026309Y-174802380D01*
X37883452Y-174850000D01*
X37788214Y-174945238D01*
X37740595Y-175040476D01*
X37692976Y-175230952D01*
X37692976Y-175373809D01*
X37740595Y-175564285D01*
X37788214Y-175659523D01*
X37883452Y-175754761D01*
X38026309Y-175802380D01*
X38264404Y-175802380D01*
X36883452Y-175754761D02*
X36978690Y-175802380D01*
X37169166Y-175802380D01*
X37264404Y-175754761D01*
X37312023Y-175659523D01*
X37312023Y-175278571D01*
X37264404Y-175183333D01*
X37169166Y-175135714D01*
X36978690Y-175135714D01*
X36883452Y-175183333D01*
X36835833Y-175278571D01*
X36835833Y-175373809D01*
X37312023Y-175469047D01*
X36454880Y-175754761D02*
X36359642Y-175802380D01*
X36169166Y-175802380D01*
X36073928Y-175754761D01*
X36026309Y-175659523D01*
X36026309Y-175611904D01*
X36073928Y-175516666D01*
X36169166Y-175469047D01*
X36312023Y-175469047D01*
X36407261Y-175421428D01*
X36454880Y-175326190D01*
X36454880Y-175278571D01*
X36407261Y-175183333D01*
X36312023Y-175135714D01*
X36169166Y-175135714D01*
X36073928Y-175183333D01*
X35597738Y-175802380D02*
X35597738Y-175135714D01*
X35597738Y-174802380D02*
X35645357Y-174850000D01*
X35597738Y-174897619D01*
X35550119Y-174850000D01*
X35597738Y-174802380D01*
X35597738Y-174897619D01*
X34692976Y-175135714D02*
X34692976Y-175945238D01*
X34740595Y-176040476D01*
X34788214Y-176088095D01*
X34883452Y-176135714D01*
X35026309Y-176135714D01*
X35121547Y-176088095D01*
X34692976Y-175754761D02*
X34788214Y-175802380D01*
X34978690Y-175802380D01*
X35073928Y-175754761D01*
X35121547Y-175707142D01*
X35169166Y-175611904D01*
X35169166Y-175326190D01*
X35121547Y-175230952D01*
X35073928Y-175183333D01*
X34978690Y-175135714D01*
X34788214Y-175135714D01*
X34692976Y-175183333D01*
X34216785Y-175135714D02*
X34216785Y-175802380D01*
X34216785Y-175230952D02*
X34169166Y-175183333D01*
X34073928Y-175135714D01*
X33931071Y-175135714D01*
X33835833Y-175183333D01*
X33788214Y-175278571D01*
X33788214Y-175802380D01*
X33312023Y-175707142D02*
X33264404Y-175754761D01*
X33312023Y-175802380D01*
X33359642Y-175754761D01*
X33312023Y-175707142D01*
X33312023Y-175802380D01*
X33312023Y-175183333D02*
X33264404Y-175230952D01*
X33312023Y-175278571D01*
X33359642Y-175230952D01*
X33312023Y-175183333D01*
X33312023Y-175278571D01*
X32121547Y-175754761D02*
X31978690Y-175802380D01*
X31740595Y-175802380D01*
X31645357Y-175754761D01*
X31597738Y-175707142D01*
X31550119Y-175611904D01*
X31550119Y-175516666D01*
X31597738Y-175421428D01*
X31645357Y-175373809D01*
X31740595Y-175326190D01*
X31931071Y-175278571D01*
X32026309Y-175230952D01*
X32073928Y-175183333D01*
X32121547Y-175088095D01*
X32121547Y-174992857D01*
X32073928Y-174897619D01*
X32026309Y-174850000D01*
X31931071Y-174802380D01*
X31692976Y-174802380D01*
X31550119Y-174850000D01*
X30692976Y-175802380D02*
X30692976Y-175278571D01*
X30740595Y-175183333D01*
X30835833Y-175135714D01*
X31026309Y-175135714D01*
X31121547Y-175183333D01*
X30692976Y-175754761D02*
X30788214Y-175802380D01*
X31026309Y-175802380D01*
X31121547Y-175754761D01*
X31169166Y-175659523D01*
X31169166Y-175564285D01*
X31121547Y-175469047D01*
X31026309Y-175421428D01*
X30788214Y-175421428D01*
X30692976Y-175373809D01*
X30073928Y-175802380D02*
X30169166Y-175754761D01*
X30216785Y-175659523D01*
X30216785Y-174802380D01*
X29550119Y-175802380D02*
X29645357Y-175754761D01*
X29692976Y-175659523D01*
X29692976Y-174802380D01*
X29264404Y-175135714D02*
X29026309Y-175802380D01*
X28788214Y-175135714D02*
X29026309Y-175802380D01*
X29121547Y-176040476D01*
X29169166Y-176088095D01*
X29264404Y-176135714D01*
X27312023Y-175278571D02*
X27169166Y-175326190D01*
X27121547Y-175373809D01*
X27073928Y-175469047D01*
X27073928Y-175611904D01*
X27121547Y-175707142D01*
X27169166Y-175754761D01*
X27264404Y-175802380D01*
X27645357Y-175802380D01*
X27645357Y-174802380D01*
X27312023Y-174802380D01*
X27216785Y-174850000D01*
X27169166Y-174897619D01*
X27121547Y-174992857D01*
X27121547Y-175088095D01*
X27169166Y-175183333D01*
X27216785Y-175230952D01*
X27312023Y-175278571D01*
X27645357Y-175278571D01*
X26502500Y-175802380D02*
X26597738Y-175754761D01*
X26645357Y-175707142D01*
X26692976Y-175611904D01*
X26692976Y-175326190D01*
X26645357Y-175230952D01*
X26597738Y-175183333D01*
X26502500Y-175135714D01*
X26359642Y-175135714D01*
X26264404Y-175183333D01*
X26216785Y-175230952D01*
X26169166Y-175326190D01*
X26169166Y-175611904D01*
X26216785Y-175707142D01*
X26264404Y-175754761D01*
X26359642Y-175802380D01*
X26502500Y-175802380D01*
X25835833Y-175135714D02*
X25645357Y-175802380D01*
X25454880Y-175326190D01*
X25264404Y-175802380D01*
X25073928Y-175135714D01*
X24788214Y-175135714D02*
X24550119Y-175802380D01*
X24312023Y-175135714D02*
X24550119Y-175802380D01*
X24645357Y-176040476D01*
X24692976Y-176088095D01*
X24788214Y-176135714D01*
X23550119Y-175754761D02*
X23645357Y-175802380D01*
X23835833Y-175802380D01*
X23931071Y-175754761D01*
X23978690Y-175659523D01*
X23978690Y-175278571D01*
X23931071Y-175183333D01*
X23835833Y-175135714D01*
X23645357Y-175135714D01*
X23550119Y-175183333D01*
X23502500Y-175278571D01*
X23502500Y-175373809D01*
X23978690Y-175469047D01*
X23073928Y-175802380D02*
X23073928Y-175135714D01*
X23073928Y-175326190D02*
X23026309Y-175230952D01*
X22978690Y-175183333D01*
X22883452Y-175135714D01*
X22788214Y-175135714D01*
X48276190Y-172752380D02*
X48752380Y-172752380D01*
X48752380Y-171752380D01*
X48085714Y-171752380D02*
X47514285Y-171752380D01*
X47800000Y-172752380D02*
X47800000Y-171752380D01*
X46609523Y-172657142D02*
X46657142Y-172704761D01*
X46800000Y-172752380D01*
X46895238Y-172752380D01*
X47038095Y-172704761D01*
X47133333Y-172609523D01*
X47180952Y-172514285D01*
X47228571Y-172323809D01*
X47228571Y-172180952D01*
X47180952Y-171990476D01*
X47133333Y-171895238D01*
X47038095Y-171800000D01*
X46895238Y-171752380D01*
X46800000Y-171752380D01*
X46657142Y-171800000D01*
X46609523Y-171847619D01*
X46228571Y-171847619D02*
X46180952Y-171800000D01*
X46085714Y-171752380D01*
X45847619Y-171752380D01*
X45752380Y-171800000D01*
X45704761Y-171847619D01*
X45657142Y-171942857D01*
X45657142Y-172038095D01*
X45704761Y-172180952D01*
X46276190Y-172752380D01*
X45657142Y-172752380D01*
X45180952Y-172752380D02*
X44990476Y-172752380D01*
X44895238Y-172704761D01*
X44847619Y-172657142D01*
X44752380Y-172514285D01*
X44704761Y-172323809D01*
X44704761Y-171942857D01*
X44752380Y-171847619D01*
X44800000Y-171800000D01*
X44895238Y-171752380D01*
X45085714Y-171752380D01*
X45180952Y-171800000D01*
X45228571Y-171847619D01*
X45276190Y-171942857D01*
X45276190Y-172180952D01*
X45228571Y-172276190D01*
X45180952Y-172323809D01*
X45085714Y-172371428D01*
X44895238Y-172371428D01*
X44800000Y-172323809D01*
X44752380Y-172276190D01*
X44704761Y-172180952D01*
X44228571Y-172752380D02*
X44038095Y-172752380D01*
X43942857Y-172704761D01*
X43895238Y-172657142D01*
X43800000Y-172514285D01*
X43752380Y-172323809D01*
X43752380Y-171942857D01*
X43800000Y-171847619D01*
X43847619Y-171800000D01*
X43942857Y-171752380D01*
X44133333Y-171752380D01*
X44228571Y-171800000D01*
X44276190Y-171847619D01*
X44323809Y-171942857D01*
X44323809Y-172180952D01*
X44276190Y-172276190D01*
X44228571Y-172323809D01*
X44133333Y-172371428D01*
X43942857Y-172371428D01*
X43847619Y-172323809D01*
X43800000Y-172276190D01*
X43752380Y-172180952D01*
X43133333Y-171752380D02*
X43038095Y-171752380D01*
X42942857Y-171800000D01*
X42895238Y-171847619D01*
X42847619Y-171942857D01*
X42800000Y-172133333D01*
X42800000Y-172371428D01*
X42847619Y-172561904D01*
X42895238Y-172657142D01*
X42942857Y-172704761D01*
X43038095Y-172752380D01*
X43133333Y-172752380D01*
X43228571Y-172704761D01*
X43276190Y-172657142D01*
X43323809Y-172561904D01*
X43371428Y-172371428D01*
X43371428Y-172133333D01*
X43323809Y-171942857D01*
X43276190Y-171847619D01*
X43228571Y-171800000D01*
X43133333Y-171752380D01*
D11*
X47290000Y-181341422D02*
X47290000Y-181858578D01*
X48710000Y-181341422D02*
X48710000Y-181858578D01*
D10*
X44125000Y-176675000D02*
X44125000Y-176450000D01*
X47475000Y-176675000D02*
X47475000Y-176375000D01*
X47475000Y-173325000D02*
X47475000Y-173625000D01*
X44125000Y-173325000D02*
X44125000Y-173625000D01*
X44125000Y-176675000D02*
X47475000Y-176675000D01*
X44125000Y-173325000D02*
X47475000Y-173325000D01*
X44125000Y-176450000D02*
X42900000Y-176450000D01*
D11*
X21310000Y-184058578D02*
X21310000Y-183541422D01*
X19890000Y-184058578D02*
X19890000Y-183541422D01*
X57065000Y-185511252D02*
X57065000Y-184988748D01*
X58535000Y-185511252D02*
X58535000Y-184988748D01*
X68335000Y-185511252D02*
X68335000Y-184988748D01*
X66865000Y-185511252D02*
X66865000Y-184988748D01*
X48735000Y-185511252D02*
X48735000Y-184988748D01*
X47265000Y-185511252D02*
X47265000Y-184988748D01*
D10*
X46707142Y-181433333D02*
X46754761Y-181385714D01*
X46802380Y-181242857D01*
X46802380Y-181147619D01*
X46754761Y-181004761D01*
X46659523Y-180909523D01*
X46564285Y-180861904D01*
X46373809Y-180814285D01*
X46230952Y-180814285D01*
X46040476Y-180861904D01*
X45945238Y-180909523D01*
X45850000Y-181004761D01*
X45802380Y-181147619D01*
X45802380Y-181242857D01*
X45850000Y-181385714D01*
X45897619Y-181433333D01*
X46802380Y-182385714D02*
X46802380Y-181814285D01*
X46802380Y-182100000D02*
X45802380Y-182100000D01*
X45945238Y-182004761D01*
X46040476Y-181909523D01*
X46088095Y-181814285D01*
X21057142Y-180933333D02*
X21104761Y-180885714D01*
X21152380Y-180742857D01*
X21152380Y-180647619D01*
X21104761Y-180504761D01*
X21009523Y-180409523D01*
X20914285Y-180361904D01*
X20723809Y-180314285D01*
X20580952Y-180314285D01*
X20390476Y-180361904D01*
X20295238Y-180409523D01*
X20200000Y-180504761D01*
X20152380Y-180647619D01*
X20152380Y-180742857D01*
X20200000Y-180885714D01*
X20247619Y-180933333D01*
X20485714Y-181790476D02*
X21152380Y-181790476D01*
X20104761Y-181552380D02*
X20819047Y-181314285D01*
X20819047Y-181933333D01*
X58057142Y-182333333D02*
X58104761Y-182285714D01*
X58152380Y-182142857D01*
X58152380Y-182047619D01*
X58104761Y-181904761D01*
X58009523Y-181809523D01*
X57914285Y-181761904D01*
X57723809Y-181714285D01*
X57580952Y-181714285D01*
X57390476Y-181761904D01*
X57295238Y-181809523D01*
X57200000Y-181904761D01*
X57152380Y-182047619D01*
X57152380Y-182142857D01*
X57200000Y-182285714D01*
X57247619Y-182333333D01*
X57152380Y-183238095D02*
X57152380Y-182761904D01*
X57628571Y-182714285D01*
X57580952Y-182761904D01*
X57533333Y-182857142D01*
X57533333Y-183095238D01*
X57580952Y-183190476D01*
X57628571Y-183238095D01*
X57723809Y-183285714D01*
X57961904Y-183285714D01*
X58057142Y-183238095D01*
X58104761Y-183190476D01*
X58152380Y-183095238D01*
X58152380Y-182857142D01*
X58104761Y-182761904D01*
X58057142Y-182714285D01*
X67957142Y-182233333D02*
X68004761Y-182185714D01*
X68052380Y-182042857D01*
X68052380Y-181947619D01*
X68004761Y-181804761D01*
X67909523Y-181709523D01*
X67814285Y-181661904D01*
X67623809Y-181614285D01*
X67480952Y-181614285D01*
X67290476Y-181661904D01*
X67195238Y-181709523D01*
X67100000Y-181804761D01*
X67052380Y-181947619D01*
X67052380Y-182042857D01*
X67100000Y-182185714D01*
X67147619Y-182233333D01*
X67052380Y-183090476D02*
X67052380Y-182900000D01*
X67100000Y-182804761D01*
X67147619Y-182757142D01*
X67290476Y-182661904D01*
X67480952Y-182614285D01*
X67861904Y-182614285D01*
X67957142Y-182661904D01*
X68004761Y-182709523D01*
X68052380Y-182804761D01*
X68052380Y-182995238D01*
X68004761Y-183090476D01*
X67957142Y-183138095D01*
X67861904Y-183185714D01*
X67623809Y-183185714D01*
X67528571Y-183138095D01*
X67480952Y-183090476D01*
X67433333Y-182995238D01*
X67433333Y-182804761D01*
X67480952Y-182709523D01*
X67528571Y-182661904D01*
X67623809Y-182614285D01*
X46657142Y-184933333D02*
X46704761Y-184885714D01*
X46752380Y-184742857D01*
X46752380Y-184647619D01*
X46704761Y-184504761D01*
X46609523Y-184409523D01*
X46514285Y-184361904D01*
X46323809Y-184314285D01*
X46180952Y-184314285D01*
X45990476Y-184361904D01*
X45895238Y-184409523D01*
X45800000Y-184504761D01*
X45752380Y-184647619D01*
X45752380Y-184742857D01*
X45800000Y-184885714D01*
X45847619Y-184933333D01*
X46180952Y-185504761D02*
X46133333Y-185409523D01*
X46085714Y-185361904D01*
X45990476Y-185314285D01*
X45942857Y-185314285D01*
X45847619Y-185361904D01*
X45800000Y-185409523D01*
X45752380Y-185504761D01*
X45752380Y-185695238D01*
X45800000Y-185790476D01*
X45847619Y-185838095D01*
X45942857Y-185885714D01*
X45990476Y-185885714D01*
X46085714Y-185838095D01*
X46133333Y-185790476D01*
X46180952Y-185695238D01*
X46180952Y-185504761D01*
X46228571Y-185409523D01*
X46276190Y-185361904D01*
X46371428Y-185314285D01*
X46561904Y-185314285D01*
X46657142Y-185361904D01*
X46704761Y-185409523D01*
X46752380Y-185504761D01*
X46752380Y-185695238D01*
X46704761Y-185790476D01*
X46657142Y-185838095D01*
X46561904Y-185885714D01*
X46371428Y-185885714D01*
X46276190Y-185838095D01*
X46228571Y-185790476D01*
X46180952Y-185695238D01*
M02*
