G04 #@! TF.GenerationSoftware,KiCad,Pcbnew,5.1.5+dfsg1-2build2*
G04 #@! TF.CreationDate,2022-05-11T13:02:20+01:00*
G04 #@! TF.ProjectId,rrl-interface,72726c2d-696e-4746-9572-666163652e6b,rev?*
G04 #@! TF.SameCoordinates,Original*
G04 #@! TF.FileFunction,Soldermask,Bot*
G04 #@! TF.FilePolarity,Negative*
%FSLAX46Y46*%
G04 Gerber Fmt 4.6, Leading zero omitted, Abs format (unit mm)*
G04 Created by KiCad (PCBNEW 5.1.5+dfsg1-2build2) date 2022-05-11 13:02:20*
%MOMM*%
%LPD*%
G04 APERTURE LIST*
%ADD10C,0.100000*%
G04 APERTURE END LIST*
D10*
G36*
X74879487Y-191248996D02*
G01*
X75116253Y-191347068D01*
X75116255Y-191347069D01*
X75329339Y-191489447D01*
X75510553Y-191670661D01*
X75597073Y-191800147D01*
X75652932Y-191883747D01*
X75751004Y-192120513D01*
X75801000Y-192371861D01*
X75801000Y-192628139D01*
X75751004Y-192879487D01*
X75670287Y-193074354D01*
X75652931Y-193116255D01*
X75510553Y-193329339D01*
X75329339Y-193510553D01*
X75116255Y-193652931D01*
X75116254Y-193652932D01*
X75116253Y-193652932D01*
X74879487Y-193751004D01*
X74628139Y-193801000D01*
X74371861Y-193801000D01*
X74120513Y-193751004D01*
X73883747Y-193652932D01*
X73883746Y-193652932D01*
X73883745Y-193652931D01*
X73670661Y-193510553D01*
X73489447Y-193329339D01*
X73347069Y-193116255D01*
X73329713Y-193074354D01*
X73248996Y-192879487D01*
X73199000Y-192628139D01*
X73199000Y-192371861D01*
X73248996Y-192120513D01*
X73347068Y-191883747D01*
X73402928Y-191800147D01*
X73489447Y-191670661D01*
X73670661Y-191489447D01*
X73883745Y-191347069D01*
X73883747Y-191347068D01*
X74120513Y-191248996D01*
X74371861Y-191199000D01*
X74628139Y-191199000D01*
X74879487Y-191248996D01*
G37*
G36*
X16879487Y-191248996D02*
G01*
X17116253Y-191347068D01*
X17116255Y-191347069D01*
X17329339Y-191489447D01*
X17510553Y-191670661D01*
X17597073Y-191800147D01*
X17652932Y-191883747D01*
X17751004Y-192120513D01*
X17801000Y-192371861D01*
X17801000Y-192628139D01*
X17751004Y-192879487D01*
X17670287Y-193074354D01*
X17652931Y-193116255D01*
X17510553Y-193329339D01*
X17329339Y-193510553D01*
X17116255Y-193652931D01*
X17116254Y-193652932D01*
X17116253Y-193652932D01*
X16879487Y-193751004D01*
X16628139Y-193801000D01*
X16371861Y-193801000D01*
X16120513Y-193751004D01*
X15883747Y-193652932D01*
X15883746Y-193652932D01*
X15883745Y-193652931D01*
X15670661Y-193510553D01*
X15489447Y-193329339D01*
X15347069Y-193116255D01*
X15329713Y-193074354D01*
X15248996Y-192879487D01*
X15199000Y-192628139D01*
X15199000Y-192371861D01*
X15248996Y-192120513D01*
X15347068Y-191883747D01*
X15402928Y-191800147D01*
X15489447Y-191670661D01*
X15670661Y-191489447D01*
X15883745Y-191347069D01*
X15883747Y-191347068D01*
X16120513Y-191248996D01*
X16371861Y-191199000D01*
X16628139Y-191199000D01*
X16879487Y-191248996D01*
G37*
G36*
X24713512Y-191603927D02*
G01*
X24862812Y-191633624D01*
X25026784Y-191701544D01*
X25174354Y-191800147D01*
X25299853Y-191925646D01*
X25398456Y-192073216D01*
X25466376Y-192237188D01*
X25501000Y-192411259D01*
X25501000Y-192588741D01*
X25466376Y-192762812D01*
X25398456Y-192926784D01*
X25299853Y-193074354D01*
X25174354Y-193199853D01*
X25026784Y-193298456D01*
X24862812Y-193366376D01*
X24713512Y-193396073D01*
X24688742Y-193401000D01*
X24511258Y-193401000D01*
X24486488Y-193396073D01*
X24337188Y-193366376D01*
X24173216Y-193298456D01*
X24025646Y-193199853D01*
X23900147Y-193074354D01*
X23801544Y-192926784D01*
X23733624Y-192762812D01*
X23699000Y-192588741D01*
X23699000Y-192411259D01*
X23733624Y-192237188D01*
X23801544Y-192073216D01*
X23900147Y-191925646D01*
X24025646Y-191800147D01*
X24173216Y-191701544D01*
X24337188Y-191633624D01*
X24486488Y-191603927D01*
X24511258Y-191599000D01*
X24688742Y-191599000D01*
X24713512Y-191603927D01*
G37*
G36*
X22961000Y-193401000D02*
G01*
X21159000Y-193401000D01*
X21159000Y-191599000D01*
X22961000Y-191599000D01*
X22961000Y-193401000D01*
G37*
G36*
X67601000Y-193401000D02*
G01*
X65799000Y-193401000D01*
X65799000Y-191599000D01*
X67601000Y-191599000D01*
X67601000Y-193401000D01*
G37*
G36*
X64273512Y-191603927D02*
G01*
X64422812Y-191633624D01*
X64586784Y-191701544D01*
X64734354Y-191800147D01*
X64859853Y-191925646D01*
X64958456Y-192073216D01*
X65026376Y-192237188D01*
X65061000Y-192411259D01*
X65061000Y-192588741D01*
X65026376Y-192762812D01*
X64958456Y-192926784D01*
X64859853Y-193074354D01*
X64734354Y-193199853D01*
X64586784Y-193298456D01*
X64422812Y-193366376D01*
X64273512Y-193396073D01*
X64248742Y-193401000D01*
X64071258Y-193401000D01*
X64046488Y-193396073D01*
X63897188Y-193366376D01*
X63733216Y-193298456D01*
X63585646Y-193199853D01*
X63460147Y-193074354D01*
X63361544Y-192926784D01*
X63293624Y-192762812D01*
X63259000Y-192588741D01*
X63259000Y-192411259D01*
X63293624Y-192237188D01*
X63361544Y-192073216D01*
X63460147Y-191925646D01*
X63585646Y-191800147D01*
X63733216Y-191701544D01*
X63897188Y-191633624D01*
X64046488Y-191603927D01*
X64071258Y-191599000D01*
X64248742Y-191599000D01*
X64273512Y-191603927D01*
G37*
G36*
X61733512Y-191603927D02*
G01*
X61882812Y-191633624D01*
X62046784Y-191701544D01*
X62194354Y-191800147D01*
X62319853Y-191925646D01*
X62418456Y-192073216D01*
X62486376Y-192237188D01*
X62521000Y-192411259D01*
X62521000Y-192588741D01*
X62486376Y-192762812D01*
X62418456Y-192926784D01*
X62319853Y-193074354D01*
X62194354Y-193199853D01*
X62046784Y-193298456D01*
X61882812Y-193366376D01*
X61733512Y-193396073D01*
X61708742Y-193401000D01*
X61531258Y-193401000D01*
X61506488Y-193396073D01*
X61357188Y-193366376D01*
X61193216Y-193298456D01*
X61045646Y-193199853D01*
X60920147Y-193074354D01*
X60821544Y-192926784D01*
X60753624Y-192762812D01*
X60719000Y-192588741D01*
X60719000Y-192411259D01*
X60753624Y-192237188D01*
X60821544Y-192073216D01*
X60920147Y-191925646D01*
X61045646Y-191800147D01*
X61193216Y-191701544D01*
X61357188Y-191633624D01*
X61506488Y-191603927D01*
X61531258Y-191599000D01*
X61708742Y-191599000D01*
X61733512Y-191603927D01*
G37*
G36*
X56653512Y-191603927D02*
G01*
X56802812Y-191633624D01*
X56966784Y-191701544D01*
X57114354Y-191800147D01*
X57239853Y-191925646D01*
X57338456Y-192073216D01*
X57406376Y-192237188D01*
X57441000Y-192411259D01*
X57441000Y-192588741D01*
X57406376Y-192762812D01*
X57338456Y-192926784D01*
X57239853Y-193074354D01*
X57114354Y-193199853D01*
X56966784Y-193298456D01*
X56802812Y-193366376D01*
X56653512Y-193396073D01*
X56628742Y-193401000D01*
X56451258Y-193401000D01*
X56426488Y-193396073D01*
X56277188Y-193366376D01*
X56113216Y-193298456D01*
X55965646Y-193199853D01*
X55840147Y-193074354D01*
X55741544Y-192926784D01*
X55673624Y-192762812D01*
X55639000Y-192588741D01*
X55639000Y-192411259D01*
X55673624Y-192237188D01*
X55741544Y-192073216D01*
X55840147Y-191925646D01*
X55965646Y-191800147D01*
X56113216Y-191701544D01*
X56277188Y-191633624D01*
X56426488Y-191603927D01*
X56451258Y-191599000D01*
X56628742Y-191599000D01*
X56653512Y-191603927D01*
G37*
G36*
X54113512Y-191603927D02*
G01*
X54262812Y-191633624D01*
X54426784Y-191701544D01*
X54574354Y-191800147D01*
X54699853Y-191925646D01*
X54798456Y-192073216D01*
X54866376Y-192237188D01*
X54901000Y-192411259D01*
X54901000Y-192588741D01*
X54866376Y-192762812D01*
X54798456Y-192926784D01*
X54699853Y-193074354D01*
X54574354Y-193199853D01*
X54426784Y-193298456D01*
X54262812Y-193366376D01*
X54113512Y-193396073D01*
X54088742Y-193401000D01*
X53911258Y-193401000D01*
X53886488Y-193396073D01*
X53737188Y-193366376D01*
X53573216Y-193298456D01*
X53425646Y-193199853D01*
X53300147Y-193074354D01*
X53201544Y-192926784D01*
X53133624Y-192762812D01*
X53099000Y-192588741D01*
X53099000Y-192411259D01*
X53133624Y-192237188D01*
X53201544Y-192073216D01*
X53300147Y-191925646D01*
X53425646Y-191800147D01*
X53573216Y-191701544D01*
X53737188Y-191633624D01*
X53886488Y-191603927D01*
X53911258Y-191599000D01*
X54088742Y-191599000D01*
X54113512Y-191603927D01*
G37*
G36*
X51573512Y-191603927D02*
G01*
X51722812Y-191633624D01*
X51886784Y-191701544D01*
X52034354Y-191800147D01*
X52159853Y-191925646D01*
X52258456Y-192073216D01*
X52326376Y-192237188D01*
X52361000Y-192411259D01*
X52361000Y-192588741D01*
X52326376Y-192762812D01*
X52258456Y-192926784D01*
X52159853Y-193074354D01*
X52034354Y-193199853D01*
X51886784Y-193298456D01*
X51722812Y-193366376D01*
X51573512Y-193396073D01*
X51548742Y-193401000D01*
X51371258Y-193401000D01*
X51346488Y-193396073D01*
X51197188Y-193366376D01*
X51033216Y-193298456D01*
X50885646Y-193199853D01*
X50760147Y-193074354D01*
X50661544Y-192926784D01*
X50593624Y-192762812D01*
X50559000Y-192588741D01*
X50559000Y-192411259D01*
X50593624Y-192237188D01*
X50661544Y-192073216D01*
X50760147Y-191925646D01*
X50885646Y-191800147D01*
X51033216Y-191701544D01*
X51197188Y-191633624D01*
X51346488Y-191603927D01*
X51371258Y-191599000D01*
X51548742Y-191599000D01*
X51573512Y-191603927D01*
G37*
G36*
X59193512Y-191603927D02*
G01*
X59342812Y-191633624D01*
X59506784Y-191701544D01*
X59654354Y-191800147D01*
X59779853Y-191925646D01*
X59878456Y-192073216D01*
X59946376Y-192237188D01*
X59981000Y-192411259D01*
X59981000Y-192588741D01*
X59946376Y-192762812D01*
X59878456Y-192926784D01*
X59779853Y-193074354D01*
X59654354Y-193199853D01*
X59506784Y-193298456D01*
X59342812Y-193366376D01*
X59193512Y-193396073D01*
X59168742Y-193401000D01*
X58991258Y-193401000D01*
X58966488Y-193396073D01*
X58817188Y-193366376D01*
X58653216Y-193298456D01*
X58505646Y-193199853D01*
X58380147Y-193074354D01*
X58281544Y-192926784D01*
X58213624Y-192762812D01*
X58179000Y-192588741D01*
X58179000Y-192411259D01*
X58213624Y-192237188D01*
X58281544Y-192073216D01*
X58380147Y-191925646D01*
X58505646Y-191800147D01*
X58653216Y-191701544D01*
X58817188Y-191633624D01*
X58966488Y-191603927D01*
X58991258Y-191599000D01*
X59168742Y-191599000D01*
X59193512Y-191603927D01*
G37*
G36*
X46493512Y-191603927D02*
G01*
X46642812Y-191633624D01*
X46806784Y-191701544D01*
X46954354Y-191800147D01*
X47079853Y-191925646D01*
X47178456Y-192073216D01*
X47246376Y-192237188D01*
X47281000Y-192411259D01*
X47281000Y-192588741D01*
X47246376Y-192762812D01*
X47178456Y-192926784D01*
X47079853Y-193074354D01*
X46954354Y-193199853D01*
X46806784Y-193298456D01*
X46642812Y-193366376D01*
X46493512Y-193396073D01*
X46468742Y-193401000D01*
X46291258Y-193401000D01*
X46266488Y-193396073D01*
X46117188Y-193366376D01*
X45953216Y-193298456D01*
X45805646Y-193199853D01*
X45680147Y-193074354D01*
X45581544Y-192926784D01*
X45513624Y-192762812D01*
X45479000Y-192588741D01*
X45479000Y-192411259D01*
X45513624Y-192237188D01*
X45581544Y-192073216D01*
X45680147Y-191925646D01*
X45805646Y-191800147D01*
X45953216Y-191701544D01*
X46117188Y-191633624D01*
X46266488Y-191603927D01*
X46291258Y-191599000D01*
X46468742Y-191599000D01*
X46493512Y-191603927D01*
G37*
G36*
X43953512Y-191603927D02*
G01*
X44102812Y-191633624D01*
X44266784Y-191701544D01*
X44414354Y-191800147D01*
X44539853Y-191925646D01*
X44638456Y-192073216D01*
X44706376Y-192237188D01*
X44741000Y-192411259D01*
X44741000Y-192588741D01*
X44706376Y-192762812D01*
X44638456Y-192926784D01*
X44539853Y-193074354D01*
X44414354Y-193199853D01*
X44266784Y-193298456D01*
X44102812Y-193366376D01*
X43953512Y-193396073D01*
X43928742Y-193401000D01*
X43751258Y-193401000D01*
X43726488Y-193396073D01*
X43577188Y-193366376D01*
X43413216Y-193298456D01*
X43265646Y-193199853D01*
X43140147Y-193074354D01*
X43041544Y-192926784D01*
X42973624Y-192762812D01*
X42939000Y-192588741D01*
X42939000Y-192411259D01*
X42973624Y-192237188D01*
X43041544Y-192073216D01*
X43140147Y-191925646D01*
X43265646Y-191800147D01*
X43413216Y-191701544D01*
X43577188Y-191633624D01*
X43726488Y-191603927D01*
X43751258Y-191599000D01*
X43928742Y-191599000D01*
X43953512Y-191603927D01*
G37*
G36*
X41413512Y-191603927D02*
G01*
X41562812Y-191633624D01*
X41726784Y-191701544D01*
X41874354Y-191800147D01*
X41999853Y-191925646D01*
X42098456Y-192073216D01*
X42166376Y-192237188D01*
X42201000Y-192411259D01*
X42201000Y-192588741D01*
X42166376Y-192762812D01*
X42098456Y-192926784D01*
X41999853Y-193074354D01*
X41874354Y-193199853D01*
X41726784Y-193298456D01*
X41562812Y-193366376D01*
X41413512Y-193396073D01*
X41388742Y-193401000D01*
X41211258Y-193401000D01*
X41186488Y-193396073D01*
X41037188Y-193366376D01*
X40873216Y-193298456D01*
X40725646Y-193199853D01*
X40600147Y-193074354D01*
X40501544Y-192926784D01*
X40433624Y-192762812D01*
X40399000Y-192588741D01*
X40399000Y-192411259D01*
X40433624Y-192237188D01*
X40501544Y-192073216D01*
X40600147Y-191925646D01*
X40725646Y-191800147D01*
X40873216Y-191701544D01*
X41037188Y-191633624D01*
X41186488Y-191603927D01*
X41211258Y-191599000D01*
X41388742Y-191599000D01*
X41413512Y-191603927D01*
G37*
G36*
X38873512Y-191603927D02*
G01*
X39022812Y-191633624D01*
X39186784Y-191701544D01*
X39334354Y-191800147D01*
X39459853Y-191925646D01*
X39558456Y-192073216D01*
X39626376Y-192237188D01*
X39661000Y-192411259D01*
X39661000Y-192588741D01*
X39626376Y-192762812D01*
X39558456Y-192926784D01*
X39459853Y-193074354D01*
X39334354Y-193199853D01*
X39186784Y-193298456D01*
X39022812Y-193366376D01*
X38873512Y-193396073D01*
X38848742Y-193401000D01*
X38671258Y-193401000D01*
X38646488Y-193396073D01*
X38497188Y-193366376D01*
X38333216Y-193298456D01*
X38185646Y-193199853D01*
X38060147Y-193074354D01*
X37961544Y-192926784D01*
X37893624Y-192762812D01*
X37859000Y-192588741D01*
X37859000Y-192411259D01*
X37893624Y-192237188D01*
X37961544Y-192073216D01*
X38060147Y-191925646D01*
X38185646Y-191800147D01*
X38333216Y-191701544D01*
X38497188Y-191633624D01*
X38646488Y-191603927D01*
X38671258Y-191599000D01*
X38848742Y-191599000D01*
X38873512Y-191603927D01*
G37*
G36*
X36333512Y-191603927D02*
G01*
X36482812Y-191633624D01*
X36646784Y-191701544D01*
X36794354Y-191800147D01*
X36919853Y-191925646D01*
X37018456Y-192073216D01*
X37086376Y-192237188D01*
X37121000Y-192411259D01*
X37121000Y-192588741D01*
X37086376Y-192762812D01*
X37018456Y-192926784D01*
X36919853Y-193074354D01*
X36794354Y-193199853D01*
X36646784Y-193298456D01*
X36482812Y-193366376D01*
X36333512Y-193396073D01*
X36308742Y-193401000D01*
X36131258Y-193401000D01*
X36106488Y-193396073D01*
X35957188Y-193366376D01*
X35793216Y-193298456D01*
X35645646Y-193199853D01*
X35520147Y-193074354D01*
X35421544Y-192926784D01*
X35353624Y-192762812D01*
X35319000Y-192588741D01*
X35319000Y-192411259D01*
X35353624Y-192237188D01*
X35421544Y-192073216D01*
X35520147Y-191925646D01*
X35645646Y-191800147D01*
X35793216Y-191701544D01*
X35957188Y-191633624D01*
X36106488Y-191603927D01*
X36131258Y-191599000D01*
X36308742Y-191599000D01*
X36333512Y-191603927D01*
G37*
G36*
X33793512Y-191603927D02*
G01*
X33942812Y-191633624D01*
X34106784Y-191701544D01*
X34254354Y-191800147D01*
X34379853Y-191925646D01*
X34478456Y-192073216D01*
X34546376Y-192237188D01*
X34581000Y-192411259D01*
X34581000Y-192588741D01*
X34546376Y-192762812D01*
X34478456Y-192926784D01*
X34379853Y-193074354D01*
X34254354Y-193199853D01*
X34106784Y-193298456D01*
X33942812Y-193366376D01*
X33793512Y-193396073D01*
X33768742Y-193401000D01*
X33591258Y-193401000D01*
X33566488Y-193396073D01*
X33417188Y-193366376D01*
X33253216Y-193298456D01*
X33105646Y-193199853D01*
X32980147Y-193074354D01*
X32881544Y-192926784D01*
X32813624Y-192762812D01*
X32779000Y-192588741D01*
X32779000Y-192411259D01*
X32813624Y-192237188D01*
X32881544Y-192073216D01*
X32980147Y-191925646D01*
X33105646Y-191800147D01*
X33253216Y-191701544D01*
X33417188Y-191633624D01*
X33566488Y-191603927D01*
X33591258Y-191599000D01*
X33768742Y-191599000D01*
X33793512Y-191603927D01*
G37*
G36*
X31253512Y-191603927D02*
G01*
X31402812Y-191633624D01*
X31566784Y-191701544D01*
X31714354Y-191800147D01*
X31839853Y-191925646D01*
X31938456Y-192073216D01*
X32006376Y-192237188D01*
X32041000Y-192411259D01*
X32041000Y-192588741D01*
X32006376Y-192762812D01*
X31938456Y-192926784D01*
X31839853Y-193074354D01*
X31714354Y-193199853D01*
X31566784Y-193298456D01*
X31402812Y-193366376D01*
X31253512Y-193396073D01*
X31228742Y-193401000D01*
X31051258Y-193401000D01*
X31026488Y-193396073D01*
X30877188Y-193366376D01*
X30713216Y-193298456D01*
X30565646Y-193199853D01*
X30440147Y-193074354D01*
X30341544Y-192926784D01*
X30273624Y-192762812D01*
X30239000Y-192588741D01*
X30239000Y-192411259D01*
X30273624Y-192237188D01*
X30341544Y-192073216D01*
X30440147Y-191925646D01*
X30565646Y-191800147D01*
X30713216Y-191701544D01*
X30877188Y-191633624D01*
X31026488Y-191603927D01*
X31051258Y-191599000D01*
X31228742Y-191599000D01*
X31253512Y-191603927D01*
G37*
G36*
X28713512Y-191603927D02*
G01*
X28862812Y-191633624D01*
X29026784Y-191701544D01*
X29174354Y-191800147D01*
X29299853Y-191925646D01*
X29398456Y-192073216D01*
X29466376Y-192237188D01*
X29501000Y-192411259D01*
X29501000Y-192588741D01*
X29466376Y-192762812D01*
X29398456Y-192926784D01*
X29299853Y-193074354D01*
X29174354Y-193199853D01*
X29026784Y-193298456D01*
X28862812Y-193366376D01*
X28713512Y-193396073D01*
X28688742Y-193401000D01*
X28511258Y-193401000D01*
X28486488Y-193396073D01*
X28337188Y-193366376D01*
X28173216Y-193298456D01*
X28025646Y-193199853D01*
X27900147Y-193074354D01*
X27801544Y-192926784D01*
X27733624Y-192762812D01*
X27699000Y-192588741D01*
X27699000Y-192411259D01*
X27733624Y-192237188D01*
X27801544Y-192073216D01*
X27900147Y-191925646D01*
X28025646Y-191800147D01*
X28173216Y-191701544D01*
X28337188Y-191633624D01*
X28486488Y-191603927D01*
X28511258Y-191599000D01*
X28688742Y-191599000D01*
X28713512Y-191603927D01*
G37*
G36*
X49033512Y-191603927D02*
G01*
X49182812Y-191633624D01*
X49346784Y-191701544D01*
X49494354Y-191800147D01*
X49619853Y-191925646D01*
X49718456Y-192073216D01*
X49786376Y-192237188D01*
X49821000Y-192411259D01*
X49821000Y-192588741D01*
X49786376Y-192762812D01*
X49718456Y-192926784D01*
X49619853Y-193074354D01*
X49494354Y-193199853D01*
X49346784Y-193298456D01*
X49182812Y-193366376D01*
X49033512Y-193396073D01*
X49008742Y-193401000D01*
X48831258Y-193401000D01*
X48806488Y-193396073D01*
X48657188Y-193366376D01*
X48493216Y-193298456D01*
X48345646Y-193199853D01*
X48220147Y-193074354D01*
X48121544Y-192926784D01*
X48053624Y-192762812D01*
X48019000Y-192588741D01*
X48019000Y-192411259D01*
X48053624Y-192237188D01*
X48121544Y-192073216D01*
X48220147Y-191925646D01*
X48345646Y-191800147D01*
X48493216Y-191701544D01*
X48657188Y-191633624D01*
X48806488Y-191603927D01*
X48831258Y-191599000D01*
X49008742Y-191599000D01*
X49033512Y-191603927D01*
G37*
G36*
X46648228Y-188401703D02*
G01*
X46803100Y-188465853D01*
X46942481Y-188558985D01*
X47061015Y-188677519D01*
X47154147Y-188816900D01*
X47218297Y-188971772D01*
X47251000Y-189136184D01*
X47251000Y-189303816D01*
X47218297Y-189468228D01*
X47154147Y-189623100D01*
X47061015Y-189762481D01*
X46942481Y-189881015D01*
X46803100Y-189974147D01*
X46648228Y-190038297D01*
X46483816Y-190071000D01*
X46316184Y-190071000D01*
X46151772Y-190038297D01*
X45996900Y-189974147D01*
X45857519Y-189881015D01*
X45738985Y-189762481D01*
X45645853Y-189623100D01*
X45581703Y-189468228D01*
X45549000Y-189303816D01*
X45549000Y-189136184D01*
X45581703Y-188971772D01*
X45645853Y-188816900D01*
X45738985Y-188677519D01*
X45857519Y-188558985D01*
X45996900Y-188465853D01*
X46151772Y-188401703D01*
X46316184Y-188369000D01*
X46483816Y-188369000D01*
X46648228Y-188401703D01*
G37*
G36*
X41568228Y-188401703D02*
G01*
X41723100Y-188465853D01*
X41862481Y-188558985D01*
X41981015Y-188677519D01*
X42074147Y-188816900D01*
X42138297Y-188971772D01*
X42171000Y-189136184D01*
X42171000Y-189303816D01*
X42138297Y-189468228D01*
X42074147Y-189623100D01*
X41981015Y-189762481D01*
X41862481Y-189881015D01*
X41723100Y-189974147D01*
X41568228Y-190038297D01*
X41403816Y-190071000D01*
X41236184Y-190071000D01*
X41071772Y-190038297D01*
X40916900Y-189974147D01*
X40777519Y-189881015D01*
X40658985Y-189762481D01*
X40565853Y-189623100D01*
X40501703Y-189468228D01*
X40469000Y-189303816D01*
X40469000Y-189136184D01*
X40501703Y-188971772D01*
X40565853Y-188816900D01*
X40658985Y-188677519D01*
X40777519Y-188558985D01*
X40916900Y-188465853D01*
X41071772Y-188401703D01*
X41236184Y-188369000D01*
X41403816Y-188369000D01*
X41568228Y-188401703D01*
G37*
G36*
X22834468Y-188553565D02*
G01*
X22873138Y-188565296D01*
X22908777Y-188584346D01*
X22940017Y-188609983D01*
X22965654Y-188641223D01*
X22984704Y-188676862D01*
X22996435Y-188715532D01*
X23001000Y-188761888D01*
X23001000Y-189838112D01*
X22996435Y-189884468D01*
X22984704Y-189923138D01*
X22965654Y-189958777D01*
X22940017Y-189990017D01*
X22908777Y-190015654D01*
X22873138Y-190034704D01*
X22834468Y-190046435D01*
X22788112Y-190051000D01*
X22136888Y-190051000D01*
X22090532Y-190046435D01*
X22051862Y-190034704D01*
X22016223Y-190015654D01*
X21984983Y-189990017D01*
X21959346Y-189958777D01*
X21940296Y-189923138D01*
X21928565Y-189884468D01*
X21924000Y-189838112D01*
X21924000Y-188761888D01*
X21928565Y-188715532D01*
X21940296Y-188676862D01*
X21959346Y-188641223D01*
X21984983Y-188609983D01*
X22016223Y-188584346D01*
X22051862Y-188565296D01*
X22090532Y-188553565D01*
X22136888Y-188549000D01*
X22788112Y-188549000D01*
X22834468Y-188553565D01*
G37*
G36*
X24709468Y-188553565D02*
G01*
X24748138Y-188565296D01*
X24783777Y-188584346D01*
X24815017Y-188609983D01*
X24840654Y-188641223D01*
X24859704Y-188676862D01*
X24871435Y-188715532D01*
X24876000Y-188761888D01*
X24876000Y-189838112D01*
X24871435Y-189884468D01*
X24859704Y-189923138D01*
X24840654Y-189958777D01*
X24815017Y-189990017D01*
X24783777Y-190015654D01*
X24748138Y-190034704D01*
X24709468Y-190046435D01*
X24663112Y-190051000D01*
X24011888Y-190051000D01*
X23965532Y-190046435D01*
X23926862Y-190034704D01*
X23891223Y-190015654D01*
X23859983Y-189990017D01*
X23834346Y-189958777D01*
X23815296Y-189923138D01*
X23803565Y-189884468D01*
X23799000Y-189838112D01*
X23799000Y-188761888D01*
X23803565Y-188715532D01*
X23815296Y-188676862D01*
X23834346Y-188641223D01*
X23859983Y-188609983D01*
X23891223Y-188584346D01*
X23926862Y-188565296D01*
X23965532Y-188553565D01*
X24011888Y-188549000D01*
X24663112Y-188549000D01*
X24709468Y-188553565D01*
G37*
G36*
X56728228Y-188301703D02*
G01*
X56883100Y-188365853D01*
X57022481Y-188458985D01*
X57141015Y-188577519D01*
X57234147Y-188716900D01*
X57298297Y-188871772D01*
X57331000Y-189036184D01*
X57331000Y-189203816D01*
X57298297Y-189368228D01*
X57234147Y-189523100D01*
X57141015Y-189662481D01*
X57022481Y-189781015D01*
X56883100Y-189874147D01*
X56728228Y-189938297D01*
X56563816Y-189971000D01*
X56396184Y-189971000D01*
X56231772Y-189938297D01*
X56076900Y-189874147D01*
X55937519Y-189781015D01*
X55818985Y-189662481D01*
X55725853Y-189523100D01*
X55661703Y-189368228D01*
X55629000Y-189203816D01*
X55629000Y-189036184D01*
X55661703Y-188871772D01*
X55725853Y-188716900D01*
X55818985Y-188577519D01*
X55937519Y-188458985D01*
X56076900Y-188365853D01*
X56231772Y-188301703D01*
X56396184Y-188269000D01*
X56563816Y-188269000D01*
X56728228Y-188301703D01*
G37*
G36*
X51648228Y-188301703D02*
G01*
X51803100Y-188365853D01*
X51942481Y-188458985D01*
X52061015Y-188577519D01*
X52154147Y-188716900D01*
X52218297Y-188871772D01*
X52251000Y-189036184D01*
X52251000Y-189203816D01*
X52218297Y-189368228D01*
X52154147Y-189523100D01*
X52061015Y-189662481D01*
X51942481Y-189781015D01*
X51803100Y-189874147D01*
X51648228Y-189938297D01*
X51483816Y-189971000D01*
X51316184Y-189971000D01*
X51151772Y-189938297D01*
X50996900Y-189874147D01*
X50857519Y-189781015D01*
X50738985Y-189662481D01*
X50645853Y-189523100D01*
X50581703Y-189368228D01*
X50549000Y-189203816D01*
X50549000Y-189036184D01*
X50581703Y-188871772D01*
X50645853Y-188716900D01*
X50738985Y-188577519D01*
X50857519Y-188458985D01*
X50996900Y-188365853D01*
X51151772Y-188301703D01*
X51316184Y-188269000D01*
X51483816Y-188269000D01*
X51648228Y-188301703D01*
G37*
G36*
X74401000Y-187821000D02*
G01*
X72599000Y-187821000D01*
X72599000Y-186019000D01*
X74401000Y-186019000D01*
X74401000Y-187821000D01*
G37*
G36*
X70901000Y-187821000D02*
G01*
X69099000Y-187821000D01*
X69099000Y-186019000D01*
X70901000Y-186019000D01*
X70901000Y-187821000D01*
G37*
G36*
X77184468Y-186203565D02*
G01*
X77223138Y-186215296D01*
X77258777Y-186234346D01*
X77290017Y-186259983D01*
X77315654Y-186291223D01*
X77334704Y-186326862D01*
X77346435Y-186365532D01*
X77351000Y-186411888D01*
X77351000Y-187063112D01*
X77346435Y-187109468D01*
X77334704Y-187148138D01*
X77315654Y-187183777D01*
X77290017Y-187215017D01*
X77258777Y-187240654D01*
X77223138Y-187259704D01*
X77184468Y-187271435D01*
X77138112Y-187276000D01*
X76061888Y-187276000D01*
X76015532Y-187271435D01*
X75976862Y-187259704D01*
X75941223Y-187240654D01*
X75909983Y-187215017D01*
X75884346Y-187183777D01*
X75865296Y-187148138D01*
X75853565Y-187109468D01*
X75849000Y-187063112D01*
X75849000Y-186411888D01*
X75853565Y-186365532D01*
X75865296Y-186326862D01*
X75884346Y-186291223D01*
X75909983Y-186259983D01*
X75941223Y-186234346D01*
X75976862Y-186215296D01*
X76015532Y-186203565D01*
X76061888Y-186199000D01*
X77138112Y-186199000D01*
X77184468Y-186203565D01*
G37*
G36*
X67584468Y-186103565D02*
G01*
X67623138Y-186115296D01*
X67658777Y-186134346D01*
X67690017Y-186159983D01*
X67715654Y-186191223D01*
X67734704Y-186226862D01*
X67746435Y-186265532D01*
X67751000Y-186311888D01*
X67751000Y-186963112D01*
X67746435Y-187009468D01*
X67734704Y-187048138D01*
X67715654Y-187083777D01*
X67690017Y-187115017D01*
X67658777Y-187140654D01*
X67623138Y-187159704D01*
X67584468Y-187171435D01*
X67538112Y-187176000D01*
X66461888Y-187176000D01*
X66415532Y-187171435D01*
X66376862Y-187159704D01*
X66341223Y-187140654D01*
X66309983Y-187115017D01*
X66284346Y-187083777D01*
X66265296Y-187048138D01*
X66253565Y-187009468D01*
X66249000Y-186963112D01*
X66249000Y-186311888D01*
X66253565Y-186265532D01*
X66265296Y-186226862D01*
X66284346Y-186191223D01*
X66309983Y-186159983D01*
X66341223Y-186134346D01*
X66376862Y-186115296D01*
X66415532Y-186103565D01*
X66461888Y-186099000D01*
X67538112Y-186099000D01*
X67584468Y-186103565D01*
G37*
G36*
X77184468Y-184328565D02*
G01*
X77223138Y-184340296D01*
X77258777Y-184359346D01*
X77290017Y-184384983D01*
X77315654Y-184416223D01*
X77334704Y-184451862D01*
X77346435Y-184490532D01*
X77351000Y-184536888D01*
X77351000Y-185188112D01*
X77346435Y-185234468D01*
X77334704Y-185273138D01*
X77315654Y-185308777D01*
X77290017Y-185340017D01*
X77258777Y-185365654D01*
X77223138Y-185384704D01*
X77184468Y-185396435D01*
X77138112Y-185401000D01*
X76061888Y-185401000D01*
X76015532Y-185396435D01*
X75976862Y-185384704D01*
X75941223Y-185365654D01*
X75909983Y-185340017D01*
X75884346Y-185308777D01*
X75865296Y-185273138D01*
X75853565Y-185234468D01*
X75849000Y-185188112D01*
X75849000Y-184536888D01*
X75853565Y-184490532D01*
X75865296Y-184451862D01*
X75884346Y-184416223D01*
X75909983Y-184384983D01*
X75941223Y-184359346D01*
X75976862Y-184340296D01*
X76015532Y-184328565D01*
X76061888Y-184324000D01*
X77138112Y-184324000D01*
X77184468Y-184328565D01*
G37*
G36*
X67584468Y-184228565D02*
G01*
X67623138Y-184240296D01*
X67658777Y-184259346D01*
X67690017Y-184284983D01*
X67715654Y-184316223D01*
X67734704Y-184351862D01*
X67746435Y-184390532D01*
X67751000Y-184436888D01*
X67751000Y-185088112D01*
X67746435Y-185134468D01*
X67734704Y-185173138D01*
X67715654Y-185208777D01*
X67690017Y-185240017D01*
X67658777Y-185265654D01*
X67623138Y-185284704D01*
X67584468Y-185296435D01*
X67538112Y-185301000D01*
X66461888Y-185301000D01*
X66415532Y-185296435D01*
X66376862Y-185284704D01*
X66341223Y-185265654D01*
X66309983Y-185240017D01*
X66284346Y-185208777D01*
X66265296Y-185173138D01*
X66253565Y-185134468D01*
X66249000Y-185088112D01*
X66249000Y-184436888D01*
X66253565Y-184390532D01*
X66265296Y-184351862D01*
X66284346Y-184316223D01*
X66309983Y-184284983D01*
X66341223Y-184259346D01*
X66376862Y-184240296D01*
X66415532Y-184228565D01*
X66461888Y-184224000D01*
X67538112Y-184224000D01*
X67584468Y-184228565D01*
G37*
G36*
X73613512Y-183483927D02*
G01*
X73762812Y-183513624D01*
X73926784Y-183581544D01*
X74074354Y-183680147D01*
X74199853Y-183805646D01*
X74298456Y-183953216D01*
X74366376Y-184117188D01*
X74401000Y-184291259D01*
X74401000Y-184468741D01*
X74366376Y-184642812D01*
X74298456Y-184806784D01*
X74199853Y-184954354D01*
X74074354Y-185079853D01*
X73926784Y-185178456D01*
X73762812Y-185246376D01*
X73613512Y-185276073D01*
X73588742Y-185281000D01*
X73411258Y-185281000D01*
X73386488Y-185276073D01*
X73237188Y-185246376D01*
X73073216Y-185178456D01*
X72925646Y-185079853D01*
X72800147Y-184954354D01*
X72701544Y-184806784D01*
X72633624Y-184642812D01*
X72599000Y-184468741D01*
X72599000Y-184291259D01*
X72633624Y-184117188D01*
X72701544Y-183953216D01*
X72800147Y-183805646D01*
X72925646Y-183680147D01*
X73073216Y-183581544D01*
X73237188Y-183513624D01*
X73386488Y-183483927D01*
X73411258Y-183479000D01*
X73588742Y-183479000D01*
X73613512Y-183483927D01*
G37*
G36*
X70113512Y-183483927D02*
G01*
X70262812Y-183513624D01*
X70426784Y-183581544D01*
X70574354Y-183680147D01*
X70699853Y-183805646D01*
X70798456Y-183953216D01*
X70866376Y-184117188D01*
X70901000Y-184291259D01*
X70901000Y-184468741D01*
X70866376Y-184642812D01*
X70798456Y-184806784D01*
X70699853Y-184954354D01*
X70574354Y-185079853D01*
X70426784Y-185178456D01*
X70262812Y-185246376D01*
X70113512Y-185276073D01*
X70088742Y-185281000D01*
X69911258Y-185281000D01*
X69886488Y-185276073D01*
X69737188Y-185246376D01*
X69573216Y-185178456D01*
X69425646Y-185079853D01*
X69300147Y-184954354D01*
X69201544Y-184806784D01*
X69133624Y-184642812D01*
X69099000Y-184468741D01*
X69099000Y-184291259D01*
X69133624Y-184117188D01*
X69201544Y-183953216D01*
X69300147Y-183805646D01*
X69425646Y-183680147D01*
X69573216Y-183581544D01*
X69737188Y-183513624D01*
X69886488Y-183483927D01*
X69911258Y-183479000D01*
X70088742Y-183479000D01*
X70113512Y-183483927D01*
G37*
G36*
X64234468Y-181853565D02*
G01*
X64273138Y-181865296D01*
X64308777Y-181884346D01*
X64340017Y-181909983D01*
X64365654Y-181941223D01*
X64384704Y-181976862D01*
X64396435Y-182015532D01*
X64401000Y-182061888D01*
X64401000Y-183138112D01*
X64396435Y-183184468D01*
X64384704Y-183223138D01*
X64365654Y-183258777D01*
X64340017Y-183290017D01*
X64308777Y-183315654D01*
X64273138Y-183334704D01*
X64234468Y-183346435D01*
X64188112Y-183351000D01*
X63536888Y-183351000D01*
X63490532Y-183346435D01*
X63451862Y-183334704D01*
X63416223Y-183315654D01*
X63384983Y-183290017D01*
X63359346Y-183258777D01*
X63340296Y-183223138D01*
X63328565Y-183184468D01*
X63324000Y-183138112D01*
X63324000Y-182061888D01*
X63328565Y-182015532D01*
X63340296Y-181976862D01*
X63359346Y-181941223D01*
X63384983Y-181909983D01*
X63416223Y-181884346D01*
X63451862Y-181865296D01*
X63490532Y-181853565D01*
X63536888Y-181849000D01*
X64188112Y-181849000D01*
X64234468Y-181853565D01*
G37*
G36*
X66109468Y-181853565D02*
G01*
X66148138Y-181865296D01*
X66183777Y-181884346D01*
X66215017Y-181909983D01*
X66240654Y-181941223D01*
X66259704Y-181976862D01*
X66271435Y-182015532D01*
X66276000Y-182061888D01*
X66276000Y-183138112D01*
X66271435Y-183184468D01*
X66259704Y-183223138D01*
X66240654Y-183258777D01*
X66215017Y-183290017D01*
X66183777Y-183315654D01*
X66148138Y-183334704D01*
X66109468Y-183346435D01*
X66063112Y-183351000D01*
X65411888Y-183351000D01*
X65365532Y-183346435D01*
X65326862Y-183334704D01*
X65291223Y-183315654D01*
X65259983Y-183290017D01*
X65234346Y-183258777D01*
X65215296Y-183223138D01*
X65203565Y-183184468D01*
X65199000Y-183138112D01*
X65199000Y-182061888D01*
X65203565Y-182015532D01*
X65215296Y-181976862D01*
X65234346Y-181941223D01*
X65259983Y-181909983D01*
X65291223Y-181884346D01*
X65326862Y-181865296D01*
X65365532Y-181853565D01*
X65411888Y-181849000D01*
X66063112Y-181849000D01*
X66109468Y-181853565D01*
G37*
G36*
X70113512Y-180943927D02*
G01*
X70262812Y-180973624D01*
X70426784Y-181041544D01*
X70574354Y-181140147D01*
X70699853Y-181265646D01*
X70798456Y-181413216D01*
X70866376Y-181577188D01*
X70901000Y-181751259D01*
X70901000Y-181928741D01*
X70866376Y-182102812D01*
X70798456Y-182266784D01*
X70699853Y-182414354D01*
X70574354Y-182539853D01*
X70426784Y-182638456D01*
X70262812Y-182706376D01*
X70113512Y-182736073D01*
X70088742Y-182741000D01*
X69911258Y-182741000D01*
X69886488Y-182736073D01*
X69737188Y-182706376D01*
X69573216Y-182638456D01*
X69425646Y-182539853D01*
X69300147Y-182414354D01*
X69201544Y-182266784D01*
X69133624Y-182102812D01*
X69099000Y-181928741D01*
X69099000Y-181751259D01*
X69133624Y-181577188D01*
X69201544Y-181413216D01*
X69300147Y-181265646D01*
X69425646Y-181140147D01*
X69573216Y-181041544D01*
X69737188Y-180973624D01*
X69886488Y-180943927D01*
X69911258Y-180939000D01*
X70088742Y-180939000D01*
X70113512Y-180943927D01*
G37*
G36*
X73613512Y-180943927D02*
G01*
X73762812Y-180973624D01*
X73926784Y-181041544D01*
X74074354Y-181140147D01*
X74199853Y-181265646D01*
X74298456Y-181413216D01*
X74366376Y-181577188D01*
X74401000Y-181751259D01*
X74401000Y-181928741D01*
X74366376Y-182102812D01*
X74298456Y-182266784D01*
X74199853Y-182414354D01*
X74074354Y-182539853D01*
X73926784Y-182638456D01*
X73762812Y-182706376D01*
X73613512Y-182736073D01*
X73588742Y-182741000D01*
X73411258Y-182741000D01*
X73386488Y-182736073D01*
X73237188Y-182706376D01*
X73073216Y-182638456D01*
X72925646Y-182539853D01*
X72800147Y-182414354D01*
X72701544Y-182266784D01*
X72633624Y-182102812D01*
X72599000Y-181928741D01*
X72599000Y-181751259D01*
X72633624Y-181577188D01*
X72701544Y-181413216D01*
X72800147Y-181265646D01*
X72925646Y-181140147D01*
X73073216Y-181041544D01*
X73237188Y-180973624D01*
X73386488Y-180943927D01*
X73411258Y-180939000D01*
X73588742Y-180939000D01*
X73613512Y-180943927D01*
G37*
G36*
X47251000Y-182451000D02*
G01*
X45549000Y-182451000D01*
X45549000Y-180749000D01*
X47251000Y-180749000D01*
X47251000Y-182451000D01*
G37*
G36*
X41568228Y-180781703D02*
G01*
X41723100Y-180845853D01*
X41862481Y-180938985D01*
X41981015Y-181057519D01*
X42074147Y-181196900D01*
X42138297Y-181351772D01*
X42171000Y-181516184D01*
X42171000Y-181683816D01*
X42138297Y-181848228D01*
X42074147Y-182003100D01*
X41981015Y-182142481D01*
X41862481Y-182261015D01*
X41723100Y-182354147D01*
X41568228Y-182418297D01*
X41403816Y-182451000D01*
X41236184Y-182451000D01*
X41071772Y-182418297D01*
X40916900Y-182354147D01*
X40777519Y-182261015D01*
X40658985Y-182142481D01*
X40565853Y-182003100D01*
X40501703Y-181848228D01*
X40469000Y-181683816D01*
X40469000Y-181516184D01*
X40501703Y-181351772D01*
X40565853Y-181196900D01*
X40658985Y-181057519D01*
X40777519Y-180938985D01*
X40916900Y-180845853D01*
X41071772Y-180781703D01*
X41236184Y-180749000D01*
X41403816Y-180749000D01*
X41568228Y-180781703D01*
G37*
G36*
X57331000Y-182351000D02*
G01*
X55629000Y-182351000D01*
X55629000Y-180649000D01*
X57331000Y-180649000D01*
X57331000Y-182351000D01*
G37*
G36*
X51648228Y-180681703D02*
G01*
X51803100Y-180745853D01*
X51942481Y-180838985D01*
X52061015Y-180957519D01*
X52154147Y-181096900D01*
X52218297Y-181251772D01*
X52251000Y-181416184D01*
X52251000Y-181583816D01*
X52218297Y-181748228D01*
X52154147Y-181903100D01*
X52061015Y-182042481D01*
X51942481Y-182161015D01*
X51803100Y-182254147D01*
X51648228Y-182318297D01*
X51483816Y-182351000D01*
X51316184Y-182351000D01*
X51151772Y-182318297D01*
X50996900Y-182254147D01*
X50857519Y-182161015D01*
X50738985Y-182042481D01*
X50645853Y-181903100D01*
X50581703Y-181748228D01*
X50549000Y-181583816D01*
X50549000Y-181416184D01*
X50581703Y-181251772D01*
X50645853Y-181096900D01*
X50738985Y-180957519D01*
X50857519Y-180838985D01*
X50996900Y-180745853D01*
X51151772Y-180681703D01*
X51316184Y-180649000D01*
X51483816Y-180649000D01*
X51648228Y-180681703D01*
G37*
G36*
X66551000Y-180601000D02*
G01*
X65049000Y-180601000D01*
X65049000Y-178199000D01*
X66551000Y-178199000D01*
X66551000Y-180601000D01*
G37*
G36*
X62151000Y-180601000D02*
G01*
X60649000Y-180601000D01*
X60649000Y-178199000D01*
X62151000Y-178199000D01*
X62151000Y-180601000D01*
G37*
G36*
X70113512Y-178403927D02*
G01*
X70262812Y-178433624D01*
X70426784Y-178501544D01*
X70574354Y-178600147D01*
X70699853Y-178725646D01*
X70798456Y-178873216D01*
X70866376Y-179037188D01*
X70901000Y-179211259D01*
X70901000Y-179388741D01*
X70866376Y-179562812D01*
X70798456Y-179726784D01*
X70699853Y-179874354D01*
X70574354Y-179999853D01*
X70426784Y-180098456D01*
X70262812Y-180166376D01*
X70113512Y-180196073D01*
X70088742Y-180201000D01*
X69911258Y-180201000D01*
X69886488Y-180196073D01*
X69737188Y-180166376D01*
X69573216Y-180098456D01*
X69425646Y-179999853D01*
X69300147Y-179874354D01*
X69201544Y-179726784D01*
X69133624Y-179562812D01*
X69099000Y-179388741D01*
X69099000Y-179211259D01*
X69133624Y-179037188D01*
X69201544Y-178873216D01*
X69300147Y-178725646D01*
X69425646Y-178600147D01*
X69573216Y-178501544D01*
X69737188Y-178433624D01*
X69886488Y-178403927D01*
X69911258Y-178399000D01*
X70088742Y-178399000D01*
X70113512Y-178403927D01*
G37*
G36*
X73613512Y-178403927D02*
G01*
X73762812Y-178433624D01*
X73926784Y-178501544D01*
X74074354Y-178600147D01*
X74199853Y-178725646D01*
X74298456Y-178873216D01*
X74366376Y-179037188D01*
X74401000Y-179211259D01*
X74401000Y-179388741D01*
X74366376Y-179562812D01*
X74298456Y-179726784D01*
X74199853Y-179874354D01*
X74074354Y-179999853D01*
X73926784Y-180098456D01*
X73762812Y-180166376D01*
X73613512Y-180196073D01*
X73588742Y-180201000D01*
X73411258Y-180201000D01*
X73386488Y-180196073D01*
X73237188Y-180166376D01*
X73073216Y-180098456D01*
X72925646Y-179999853D01*
X72800147Y-179874354D01*
X72701544Y-179726784D01*
X72633624Y-179562812D01*
X72599000Y-179388741D01*
X72599000Y-179211259D01*
X72633624Y-179037188D01*
X72701544Y-178873216D01*
X72800147Y-178725646D01*
X72925646Y-178600147D01*
X73073216Y-178501544D01*
X73237188Y-178433624D01*
X73386488Y-178403927D01*
X73411258Y-178399000D01*
X73588742Y-178399000D01*
X73613512Y-178403927D01*
G37*
G36*
X74879487Y-172248996D02*
G01*
X75116253Y-172347068D01*
X75116255Y-172347069D01*
X75329339Y-172489447D01*
X75510553Y-172670661D01*
X75652932Y-172883747D01*
X75751004Y-173120513D01*
X75801000Y-173371861D01*
X75801000Y-173628139D01*
X75751004Y-173879487D01*
X75652932Y-174116253D01*
X75652931Y-174116255D01*
X75510553Y-174329339D01*
X75329339Y-174510553D01*
X75116255Y-174652931D01*
X75116254Y-174652932D01*
X75116253Y-174652932D01*
X74879487Y-174751004D01*
X74628139Y-174801000D01*
X74371861Y-174801000D01*
X74120513Y-174751004D01*
X73883747Y-174652932D01*
X73883746Y-174652932D01*
X73883745Y-174652931D01*
X73670661Y-174510553D01*
X73489447Y-174329339D01*
X73347069Y-174116255D01*
X73347068Y-174116253D01*
X73248996Y-173879487D01*
X73199000Y-173628139D01*
X73199000Y-173371861D01*
X73248996Y-173120513D01*
X73347068Y-172883747D01*
X73489447Y-172670661D01*
X73670661Y-172489447D01*
X73883745Y-172347069D01*
X73883747Y-172347068D01*
X74120513Y-172248996D01*
X74371861Y-172199000D01*
X74628139Y-172199000D01*
X74879487Y-172248996D01*
G37*
G36*
X16879487Y-172248996D02*
G01*
X17116253Y-172347068D01*
X17116255Y-172347069D01*
X17329339Y-172489447D01*
X17510553Y-172670661D01*
X17652932Y-172883747D01*
X17751004Y-173120513D01*
X17801000Y-173371861D01*
X17801000Y-173628139D01*
X17751004Y-173879487D01*
X17652932Y-174116253D01*
X17652931Y-174116255D01*
X17510553Y-174329339D01*
X17329339Y-174510553D01*
X17116255Y-174652931D01*
X17116254Y-174652932D01*
X17116253Y-174652932D01*
X16879487Y-174751004D01*
X16628139Y-174801000D01*
X16371861Y-174801000D01*
X16120513Y-174751004D01*
X15883747Y-174652932D01*
X15883746Y-174652932D01*
X15883745Y-174652931D01*
X15670661Y-174510553D01*
X15489447Y-174329339D01*
X15347069Y-174116255D01*
X15347068Y-174116253D01*
X15248996Y-173879487D01*
X15199000Y-173628139D01*
X15199000Y-173371861D01*
X15248996Y-173120513D01*
X15347068Y-172883747D01*
X15489447Y-172670661D01*
X15670661Y-172489447D01*
X15883745Y-172347069D01*
X15883747Y-172347068D01*
X16120513Y-172248996D01*
X16371861Y-172199000D01*
X16628139Y-172199000D01*
X16879487Y-172248996D01*
G37*
M02*
