M48
; DRILL file {KiCad 5.1.5+dfsg1-2build2} date Wed May 11 13:02:19 2022
; FORMAT={-:-/ absolute / metric / decimal}
; #@! TF.CreationDate,2022-05-11T13:02:19+01:00
; #@! TF.GenerationSoftware,Kicad,Pcbnew,5.1.5+dfsg1-2build2
FMAT,2
METRIC
T1C0.800
T2C1.000
T3C2.500
%
G90
G05
T1
X41.32Y-181.6
X41.32Y-189.22
X46.4Y-181.6
X46.4Y-189.22
X51.4Y-181.5
X51.4Y-189.12
X56.48Y-181.5
X56.48Y-189.12
T2
X70.0Y-179.3
X70.0Y-181.84
X70.0Y-184.38
X70.0Y-186.92
X22.06Y-192.5
X24.6Y-192.5
X28.6Y-192.5
X31.14Y-192.5
X33.68Y-192.5
X36.22Y-192.5
X38.76Y-192.5
X41.3Y-192.5
X43.84Y-192.5
X46.38Y-192.5
X48.92Y-192.5
X51.46Y-192.5
X54.0Y-192.5
X56.54Y-192.5
X59.08Y-192.5
X61.62Y-192.5
X64.16Y-192.5
X66.7Y-192.5
X73.5Y-179.3
X73.5Y-181.84
X73.5Y-184.38
X73.5Y-186.92
T3
X74.5Y-192.5
X74.5Y-173.5
X16.5Y-173.5
X16.5Y-192.5
T0
M30
