G04 #@! TF.GenerationSoftware,KiCad,Pcbnew,5.1.5+dfsg1-2build2*
G04 #@! TF.CreationDate,2022-02-17T11:45:05+00:00*
G04 #@! TF.ProjectId,foot-rectifier,666f6f74-2d72-4656-9374-69666965722e,rev?*
G04 #@! TF.SameCoordinates,Original*
G04 #@! TF.FileFunction,Copper,L2,Bot*
G04 #@! TF.FilePolarity,Positive*
%FSLAX46Y46*%
G04 Gerber Fmt 4.6, Leading zero omitted, Abs format (unit mm)*
G04 Created by KiCad (PCBNEW 5.1.5+dfsg1-2build2) date 2022-02-17 11:45:05*
%MOMM*%
%LPD*%
G04 APERTURE LIST*
%ADD10O,1.600000X1.600000*%
%ADD11R,1.600000X1.600000*%
%ADD12R,1.700000X1.700000*%
%ADD13O,1.700000X1.700000*%
%ADD14C,1.000000*%
G04 APERTURE END LIST*
D10*
X162620000Y28000000D03*
X155000000Y22920000D03*
X162620000Y22920000D03*
D11*
X155000000Y28000000D03*
X155000000Y18000000D03*
D10*
X162620000Y12920000D03*
X155000000Y12920000D03*
X162620000Y18000000D03*
D12*
X168000000Y29000000D03*
D13*
X168000000Y26460000D03*
X168000000Y23920000D03*
X168000000Y21380000D03*
D12*
X149000000Y24000000D03*
D13*
X149000000Y26540000D03*
D14*
X163620000Y29000000D02*
X162620000Y28000000D01*
X168000000Y29000000D02*
X163620000Y29000000D01*
X153920000Y24000000D02*
X155000000Y22920000D01*
X149000000Y24000000D02*
X153920000Y24000000D01*
X155000000Y12920000D02*
X153000000Y14920000D01*
X153000000Y20920000D02*
X155000000Y22920000D01*
X153000000Y14920000D02*
X153000000Y20920000D01*
X166797919Y26460000D02*
X166753919Y26416000D01*
X168000000Y26460000D02*
X166797919Y26460000D01*
X166116000Y26416000D02*
X162620000Y22920000D01*
X166753919Y26416000D02*
X166116000Y26416000D01*
X153540000Y26540000D02*
X155000000Y28000000D01*
X149000000Y26540000D02*
X153540000Y26540000D01*
X155000000Y18000000D02*
X159000000Y22000000D01*
X159000000Y22000000D02*
X159000000Y28000000D01*
X159000000Y28000000D02*
X155000000Y28000000D01*
X165020000Y18400000D02*
X168000000Y21380000D01*
X165020000Y15320000D02*
X165020000Y18400000D01*
X162620000Y12920000D02*
X165020000Y15320000D01*
X162620000Y18000000D02*
X162620000Y18540000D01*
X168000000Y23920000D02*
X166414000Y23920000D01*
X165227000Y22733000D02*
X165227000Y21463000D01*
X166414000Y23920000D02*
X165227000Y22733000D01*
X162620000Y18540000D02*
X165227000Y21463000D01*
M02*
