<?xml version="1.0" standalone="no"?>
<!DOCTYPE svg PUBLIC "-//W3C//DTD SVG 1.1//EN"
"http://www.w3.org/Graphics/SVG/1.1/DTD/svg11.dtd">
<svg width="99.3638" height="246.765" viewBox="0 0 2070.08 5140.94" version="1.1"
xmlns="http://www.w3.org/2000/svg"
xmlns:xlink="http://www.w3.org/1999/xlink">
<polyline points="6.69072,5129.53 6.69072,11.4176 6.78272,10.4976 7.05072,9.61156 7.48672,8.79356 8.07472,8.07756 8.79072,7.48956 9.60872,7.05356 10.4947,6.78556 11.4167,6.69356 2058.66,6.69356 2059.58,6.78556 2060.47,7.05356 2061.28,7.48956 2062,8.07756 2062.59,8.79356 2063.02,9.61156 2063.29,10.4976 2063.38,11.4176 2063.38,5129.53 2063.29,5130.45 2063.02,5131.33 2062.59,5132.15 2062,5132.87 2061.28,5133.46 2060.47,5133.89 2059.58,5134.16 2058.66,5134.25 11.4167,5134.25 10.4947,5134.16 9.60872,5133.89 8.79072,5133.46 8.07472,5132.87 7.48672,5132.15 7.05072,5131.33 6.78272,5130.45 6.69072,5129.53" style="stroke:rgb(103,198,105);stroke-width:9.448819;fill:none;stroke-opacity:0.5;stroke-linecap:round;stroke-linejoin:round;;fill:none"/>
<polyline points="6.69072,5129.53 6.69072,11.4176 6.78272,10.4976 7.05072,9.61156 7.48672,8.79356 8.07472,8.07756 8.79072,7.48956 9.60872,7.05356 10.4947,6.78556 11.4167,6.69356 2058.66,6.69356 2059.58,6.78556 2060.47,7.05356 2061.28,7.48956 2062,8.07756 2062.59,8.79356 2063.02,9.61156 2063.29,10.4976 2063.38,11.4176 2063.38,5129.53 2063.29,5130.45 2063.02,5131.33 2062.59,5132.15 2062,5132.87 2061.28,5133.46 2060.47,5133.89 2059.58,5134.16 2058.66,5134.25 11.4167,5134.25 10.4947,5134.16 9.60872,5133.89 8.79072,5133.46 8.07472,5132.87 7.48672,5132.15 7.05072,5131.33 6.78272,5130.45 6.69072,5129.53" style="stroke:rgb(0,0,0);stroke-width:1px;fill:none;stroke-opacity:1;stroke-linecap:round;stroke-linejoin:round;;fill:none"/>
</svg>
