<?xml version="1.0" standalone="no"?>
<!DOCTYPE svg PUBLIC "-//W3C//DTD SVG 1.1//EN"
"http://www.w3.org/Graphics/SVG/1.1/DTD/svg11.dtd">
<svg width="99.3638" height="76.6866" viewBox="0 0 2070.08 1597.64" version="1.1"
xmlns="http://www.w3.org/2000/svg"
xmlns:xlink="http://www.w3.org/1999/xlink">
<g fill-rule="evenodd"><path d="M 1281.33,985.759 L 1283.29,978.498 L 1286.44,972.068 L 1290.7,966.315 L 1485.98,747.356 L 1485.98,662.362 L 1486.74,654.681 L 1488.98,647.296 L 1492.62,640.489 L 1497.52,634.523 L 1590.98,541.059 L 1596.95,536.163 L 1603.75,532.525 L 1611.14,530.285 L 1618.82,529.528 L 1689.58,529.528 L 1698.92,519.16 L 1710.24,510.935 L 1723.02,505.244 L 1736.7,502.335 L 1750.7,502.335 L 1764.38,505.244 L 1777.17,510.935 L 1788.49,519.16 L 1797.85,529.558 L 1804.84,541.675 L 1809.17,554.982 L 1810.63,568.898 L 1809.17,582.813 L 1804.84,596.12 L 1797.85,608.238 L 1788.49,618.636 L 1777.17,626.86 L 1764.38,632.551 L 1750.7,635.46 L 1736.7,635.46 L 1723.02,632.551 L 1710.24,626.86 L 1698.92,618.636 L 1689.58,608.268 L 1635.13,608.268 L 1564.72,678.67 L 1564.72,762.362 L 1564.07,769.491 L 1562.14,776.384 L 1559,782.814 L 1554.74,788.568 L 1369.48,996.28 L 1371.04,998.014 L 1377.62,1009.42 L 1381.69,1021.94 L 1383.07,1035.04 L 1381.69,1048.14 L 1377.62,1060.66 L 1371.04,1072.07 L 1362.23,1081.85 L 1351.57,1089.59 L 1339.54,1094.95 L 1326.66,1097.69 L 1313.49,1097.69 L 1300.61,1094.95 L 1288.58,1089.59 L 1277.93,1081.85 L 1269.12,1072.07 L 1262.53,1060.66 L 1258.46,1048.14 L 1257.09,1035.04 L 1258.46,1021.94 L 1262.53,1009.42 L 1269.12,998.014 L 1277.93,988.227 L 1281.33,985.759 z " style="fill-opacity:1.000000;fill:rgb(103,198,105);stroke:rgb(0,0,0);stroke-width:2"/></g>
<g fill-rule="evenodd"><path d="M 783.071,208.268 L 1035.04,208.268 L 1042.72,209.025 L 1050.1,211.265 L 1056.91,214.903 L 1062.88,219.799 L 1067.77,225.765 L 1071.41,232.572 L 1073.65,239.957 L 1074.41,247.638 L 1074.41,720.08 L 1073.65,727.761 L 1071.41,735.146 L 1067.77,741.953 L 1062.88,747.919 L 783.071,1027.73 L 783.071,1098.03 L 657.087,1098.03 L 657.087,972.047 L 727.394,972.047 L 995.668,703.773 L 995.668,287.008 L 783.071,287.008 L 783.071,310.63 L 712.764,310.63 L 632.955,390.439 L 626.989,395.335 L 620.183,398.973 L 612.797,401.214 L 605.116,401.97 L 301.756,401.97 L 292.422,412.336 L 281.102,420.561 L 268.32,426.252 L 254.634,429.161 L 240.642,429.161 L 226.956,426.252 L 214.173,420.561 L 202.853,412.336 L 193.491,401.938 L 186.495,389.821 L 182.171,376.514 L 180.709,362.598 L 182.171,348.683 L 186.495,335.376 L 193.491,323.258 L 202.853,312.86 L 214.173,304.636 L 226.956,298.945 L 240.642,296.036 L 254.634,296.036 L 268.32,298.945 L 281.102,304.636 L 292.422,312.86 L 301.759,323.23 L 588.809,323.23 L 657.087,254.952 L 657.087,184.646 L 783.071,184.646 L 783.071,208.268 z " style="fill-opacity:1.000000;fill:rgb(115,81,255);stroke:rgb(0,0,0);stroke-width:2"/></g>
<g fill-rule="evenodd"><path d="M 713.177,710.217 L 601.968,821.426 L 601.968,1261.25 L 713.176,1372.46 L 726.663,1372.39 L 739.544,1375.13 L 751.575,1380.49 L 762.229,1388.23 L 771.04,1398.01 L 777.625,1409.42 L 781.694,1421.94 L 783.071,1435.04 L 781.694,1448.14 L 777.625,1460.66 L 771.04,1472.07 L 762.229,1481.85 L 751.575,1489.59 L 739.544,1494.95 L 726.663,1497.69 L 713.494,1497.69 L 700.613,1494.95 L 688.583,1489.59 L 677.929,1481.85 L 669.117,1472.07 L 662.533,1460.66 L 658.463,1448.14 L 657.087,1435.04 L 657.782,1428.42 L 534.759,1305.4 L 529.863,1299.43 L 526.225,1292.63 L 523.985,1285.24 L 523.228,1277.56 L 523.228,805.118 L 523.985,797.437 L 526.225,790.052 L 529.863,783.245 L 534.759,777.279 L 657.782,654.257 L 657.087,647.638 L 657.782,641.021 L 618.731,601.97 L 314.567,601.97 L 314.567,629.528 L 180.709,629.528 L 180.709,495.669 L 314.567,495.669 L 314.567,523.23 L 635.038,523.23 L 642.719,523.987 L 650.104,526.227 L 656.911,529.865 L 662.877,534.761 L 713.176,585.058 L 726.663,584.991 L 739.544,587.729 L 751.575,593.085 L 762.229,600.826 L 771.04,610.612 L 777.625,622.017 L 781.694,634.541 L 783.071,647.638 L 781.694,660.735 L 777.625,673.259 L 771.04,684.664 L 762.229,694.45 L 751.575,702.191 L 739.544,707.547 L 726.663,710.285 L 713.177,710.217 z " style="fill-opacity:1.000000;fill:rgb(74,236,41);stroke:rgb(0,0,0);stroke-width:2"/></g>
<g fill-rule="evenodd"><path d="M 1382.38,1428.42 L 1383.07,1435.04 L 1381.69,1448.14 L 1377.62,1460.66 L 1371.04,1472.07 L 1362.23,1481.85 L 1351.57,1489.59 L 1339.54,1494.95 L 1326.66,1497.69 L 1313.49,1497.69 L 1300.61,1494.95 L 1288.58,1489.59 L 1277.93,1481.85 L 1269.12,1472.07 L 1262.53,1460.66 L 1258.46,1448.14 L 1257.09,1435.04 L 1258.46,1421.94 L 1262.53,1409.42 L 1269.12,1398.01 L 1277.93,1388.23 L 1288.58,1380.49 L 1300.61,1375.13 L 1313.49,1372.39 L 1326.98,1372.46 L 1469.68,1229.76 L 1469.68,1003.54 L 1470.44,995.863 L 1472.68,988.478 L 1476.32,981.671 L 1481.22,975.705 L 1677.84,779.079 L 1676.77,768.898 L 1678.23,754.982 L 1682.56,741.675 L 1689.55,729.558 L 1698.92,719.16 L 1710.24,710.935 L 1723.02,705.244 L 1736.7,702.335 L 1750.7,702.335 L 1764.38,705.244 L 1777.17,710.935 L 1788.49,719.16 L 1797.85,729.558 L 1804.84,741.675 L 1809.17,754.982 L 1810.63,768.898 L 1809.17,782.813 L 1804.84,796.12 L 1797.85,808.238 L 1788.49,818.636 L 1777.17,826.86 L 1764.38,832.551 L 1750.7,835.46 L 1736.7,835.46 L 1733.5,834.778 L 1548.42,1019.85 L 1548.42,1246.06 L 1547.67,1253.74 L 1545.43,1261.13 L 1541.79,1267.94 L 1536.89,1273.9 L 1382.38,1428.42 z " style="fill-opacity:1.000000;fill:rgb(205,186,171);stroke:rgb(0,0,0);stroke-width:2"/></g>
<g fill-rule="evenodd"><path d="M 1382.38,241.019 L 1383.07,247.638 L 1381.69,260.735 L 1377.62,273.259 L 1371.04,284.664 L 1362.23,294.45 L 1351.57,302.191 L 1339.54,307.547 L 1326.66,310.285 L 1313.49,310.285 L 1300.61,307.547 L 1288.58,302.191 L 1277.93,294.45 L 1269.12,284.664 L 1262.53,273.259 L 1258.46,260.735 L 1257.09,247.638 L 1258.46,234.541 L 1262.53,222.017 L 1269.12,210.612 L 1277.93,200.826 L 1288.58,193.085 L 1300.61,187.729 L 1313.49,184.991 L 1326.98,185.058 L 1370.98,141.059 L 1376.95,136.163 L 1383.75,132.525 L 1391.14,130.285 L 1398.82,129.528 L 1676.77,129.528 L 1676.77,101.969 L 1810.63,101.969 L 1810.63,235.827 L 1676.77,235.827 L 1676.77,208.268 L 1415.13,208.268 L 1382.38,241.019 z " style="fill-opacity:1.000000;fill:rgb(242,251,227);stroke:rgb(0,0,0);stroke-width:2"/></g>
<g fill-rule="evenodd"><path d="M 1382.38,641.019 L 1383.07,647.638 L 1381.69,660.735 L 1377.62,673.259 L 1371.04,684.664 L 1362.23,694.45 L 1351.57,702.191 L 1339.54,707.547 L 1326.66,710.285 L 1313.49,710.285 L 1300.61,707.547 L 1288.58,702.191 L 1277.93,694.45 L 1269.12,684.664 L 1262.53,673.259 L 1258.46,660.735 L 1257.09,647.638 L 1258.46,634.541 L 1262.53,622.017 L 1269.12,610.612 L 1277.93,600.826 L 1288.58,593.085 L 1300.61,587.729 L 1313.49,584.991 L 1326.98,585.058 L 1567.52,344.523 L 1573.48,339.627 L 1580.29,335.989 L 1587.67,333.749 L 1595.35,332.992 L 1633.11,332.992 L 1641.37,330.284 L 1649.05,329.528 L 1689.58,329.528 L 1698.92,319.16 L 1710.24,310.935 L 1723.02,305.244 L 1736.7,302.335 L 1750.7,302.335 L 1764.38,305.244 L 1777.17,310.935 L 1788.49,319.16 L 1797.85,329.558 L 1804.84,341.675 L 1809.17,354.982 L 1810.63,368.898 L 1809.17,382.813 L 1804.84,396.12 L 1797.85,408.238 L 1788.49,418.636 L 1777.17,426.86 L 1764.38,432.551 L 1750.7,435.46 L 1736.7,435.46 L 1723.02,432.551 L 1710.24,426.86 L 1698.92,418.636 L 1689.58,408.268 L 1661.52,408.268 L 1653.26,410.976 L 1645.58,411.732 L 1611.66,411.732 L 1382.38,641.019 z " style="fill-opacity:1.000000;fill:rgb(70,124,194);stroke:rgb(0,0,0);stroke-width:2"/></g>
</svg>
