<?xml version="1.0" standalone="no"?>
<!DOCTYPE svg PUBLIC "-//W3C//DTD SVG 1.1//EN"
"http://www.w3.org/Graphics/SVG/1.1/DTD/svg11.dtd">
<svg width="99.3638" height="76.6866" viewBox="0 0 2070.08 1597.64" version="1.1"
xmlns="http://www.w3.org/2000/svg"
xmlns:xlink="http://www.w3.org/1999/xlink">
<g fill-rule="evenodd"><path d="M 2070.08,468.899 L 2070.08,668.899 L 2028.83,668.898 L 2028.8,668.898 L 1930.9,668.898 L 1902.92,668.898 L 1865.22,668.898 L 1844.31,668.898 L 1825,668.898 L 1807.71,668.898 L 1795.88,668.898 L 1795.88,668.898 L 1780.57,668.899 L 1780.56,668.899 L 1772.11,668.899 L 1772.11,668.899 L 1757.81,668.898 L 1757.8,668.898 L 1750.7,668.898 L 1736.7,668.898 L 1729.6,668.898 L 1729.59,668.898 L 1715.3,668.899 L 1715.29,668.899 L 1706.84,668.899 L 1706.84,668.899 L 1691.52,668.898 L 1691.52,668.898 L 1679.69,668.898 L 1664.95,668.898 L 1662.88,669.57 L 1660.8,670.265 L 1652.99,677.803 L 1643.36,687.956 L 1634.82,697.958 L 1629.14,705.353 L 1627.87,710.105 L 1625.12,723.014 L 1622.9,737.006 L 1621.63,749.037 L 1621.29,755.639 L 1618.5,762.362 L 1616.42,767.089 L 1613.19,773.984 L 1608.95,782.057 L 1605.22,788.445 L 1600.78,795.307 L 1596.56,801.21 L 1591.88,807.164 L 1587.2,812.602 L 1584.74,815.328 L 1456.55,951.046 L 1454.27,953.591 L 1449.25,959.456 L 1445.01,964.936 L 1440.56,971.308 L 1436.64,977.549 L 1432.78,984.441 L 1429.12,991.786 L 1425.86,999.219 L 1424.09,1003.54 L 1423.94,1003.94 L 1424.58,1008.01 L 1425.57,1017.33 L 1426.26,1030.5 L 1426.26,1039.58 L 1425.57,1052.75 L 1424.58,1062.07 L 1422.5,1075.24 L 1420.35,1085.33 L 1416.82,1098.5 L 1413.09,1109.93 L 1408.04,1123.1 L 1402.01,1136.61 L 1395.3,1149.77 L 1385.73,1166.28 L 1377.18,1179.45 L 1370.78,1188.79 L 1360.73,1194.62 L 1348.66,1201.17 L 1326.66,1211.63 L 1313.49,1217.09 L 1286.05,1226.77 L 1271.69,1231.02 L 1256.83,1235.04 L 1238.24,1235.04 L 1238.22,1235.04 L 1223.83,1235.04 L 1223.8,1235.04 L 1182.92,1235.04 L 1166.64,1235.04 L 1107.81,1235.04 L 1088.13,1235.04 L 1034.11,1235.04 L 1032.69,1208.56 L 1031.73,1193.91 L 1027.3,1137.09 L 1026.88,1132.06 L 1029.14,1122.65 L 1044.47,1070.62 L 1049.34,1056.87 L 1066.62,1015.03 L 1072.63,1002.42 L 1091.46,967.68 L 1098.53,956.131 L 1118.89,926.485 L 1126.97,915.948 L 1143.88,895.655 L 1158.52,877.365 L 1163.2,871.927 L 1172.86,861.223 L 1174.47,859.518 L 1184.83,848.001 L 1189.85,842.135 L 1198.01,832.196 L 1233.28,826.411 L 1249.22,822.983 L 1277.7,815.334 L 1292.17,810.595 L 1313.49,802.387 L 1326.66,796.486 L 1343.19,788.038 L 1355.17,781.081 L 1368.43,772.438 L 1379.31,764.495 L 1390.34,755.534 L 1400.16,746.647 L 1409.63,737.133 L 1418.42,727.326 L 1422.11,723.013 L 1424.39,715.462 L 1427.91,702.294 L 1430.44,690.425 L 1432.53,677.257 L 1433.7,666.199 L 1433.85,663.275 L 1434.23,662.362 L 1436.39,657.468 L 1439.9,650.059 L 1444.3,641.811 L 1448.39,634.987 L 1453.01,628.068 L 1457.66,621.802 L 1462.56,615.823 L 1467.75,610.098 L 1470.35,607.363 L 1563.82,513.899 L 1566.55,511.296 L 1572.28,506.107 L 1578.26,501.202 L 1584.52,496.555 L 1591.44,491.937 L 1598.27,487.847 L 1606.51,483.445 L 1613.93,479.939 L 1618.82,477.771 L 1636.06,470.631 L 1645.58,470.631 L 1651.37,470.489 L 1659.08,470.11 L 1665.19,469.653 L 1666.87,468.898 L 1679.69,468.898 L 1691.52,468.898 L 1691.52,468.898 L 1706.84,468.899 L 1706.84,468.899 L 1715.29,468.899 L 1715.3,468.899 L 1729.59,468.898 L 1729.6,468.898 L 1736.7,468.898 L 1750.7,468.898 L 1757.8,468.898 L 1757.81,468.898 L 1772.11,468.899 L 1772.11,468.899 L 1780.56,468.899 L 1780.57,468.899 L 1795.88,468.898 L 1795.88,468.898 L 1807.71,468.898 L 1825,468.898 L 1844.31,468.898 L 1865.22,468.898 L 1902.92,468.898 L 1930.9,468.898 L 2028.8,468.898 L 2028.83,468.898 L 2070.08,468.899 z " style="fill-opacity:0.200000;fill:rgb(103,198,105);"/></g>
<g fill-rule="evenodd"><path d="M 1153.93,-4.50502e-05 L 1154.59,8.64764 L 1155.05,14.9397 L 1156.04,29.4435 L 1156.31,33.4171 L 1159.88,89.436 L 1160.25,94.8632 L 1160.69,100.614 L 1161.47,113.683 L 1162.56,137.997 L 1163.13,147.515 L 1163.28,149.517 L 1164.02,165.154 L 1164.2,174.225 L 1164.51,182.805 L 1164.93,190.299 L 1165.25,204.114 L 1165.25,204.249 L 1165.32,212.157 L 1165.69,224.795 L 1165.77,230.866 L 1165.75,238.041 L 1165.75,238.623 L 1165.75,247.638 L 1166,257.207 L 1166.69,270.377 L 1168.74,289.892 L 1170.83,303.061 L 1175.22,323.667 L 1178.75,336.835 L 1186.11,359.41 L 1191.16,372.578 L 1202.58,398.138 L 1209.29,411.308 L 1226.66,441.279 L 1230.79,447.639 L 1226.66,453.999 L 1209.3,483.954 L 1202.59,497.123 L 1191.16,522.698 L 1186.11,535.867 L 1178.75,558.449 L 1175.22,571.619 L 1170.83,592.217 L 1168.74,605.386 L 1166.69,624.899 L 1166,638.068 L 1166,657.207 L 1166.69,670.377 L 1168.74,689.892 L 1170.83,703.061 L 1174.3,720.08 L 1175.19,723.684 L 1176.7,730.174 L 1178.21,737.15 L 1178.41,738.099 L 1183.48,761.071 L 1183.61,761.661 L 1185.41,769.72 L 1186.83,776.485 L 1191.31,799.238 L 1193.4,809.105 L 1193.69,810.379 L 1197.23,827.9 L 1198.01,832.196 L 1189.85,842.135 L 1184.83,848.001 L 1174.47,859.518 L 1172.86,861.223 L 1163.2,871.927 L 1158.52,877.365 L 1143.88,895.655 L 1126.97,915.948 L 1118.89,926.485 L 1098.53,956.131 L 1091.46,967.68 L 1072.63,1002.42 L 1066.62,1015.03 L 1049.34,1056.87 L 1044.47,1070.62 L 1029.14,1122.65 L 1026.88,1132.06 L 1027.3,1137.09 L 1031.73,1193.91 L 1032.69,1208.56 L 1034.11,1235.04 L 1021.69,1255.16 L 1020.08,1257.75 L 1014.35,1257.54 L 930.765,1254.19 L 912.231,1253.16 L 862.93,1249.61 L 847.666,1248.22 L 812.223,1244.27 L 798.62,1242.44 L 783.07,1240 L 780.566,1239.62 L 717.384,1213.45 L 657.086,1153.15 L 645.029,1139.37 L 636.417,1125.59 L 631.25,1111.81 L 629.527,1098.03 L 629.527,972.048 L 631.25,958.269 L 636.417,944.489 L 645.029,930.71 L 657.086,916.93 L 690.656,883.36 L 699.565,861.852 L 758.019,803.399 L 759.72,802.475 L 777.079,791.853 L 788.116,784.268 L 802.951,772.893 L 812.996,764.313 L 826.054,751.923 L 835.122,742.367 L 846.963,728.497 L 855.048,717.96 L 866.016,701.985 L 873.092,690.438 L 883.398,671.421 L 889.033,659.605 L 889.077,658.775 L 889.077,636.5 L 888.387,623.332 L 885.996,600.647 L 883.91,587.478 L 878.821,563.604 L 875.292,550.434 L 866.802,524.382 L 861.747,511.213 L 848.643,481.878 L 841.932,468.71 L 837.145,459.644 L 812.223,456.865 L 798.62,455.041 L 783.07,452.599 L 780.563,452.216 L 769.516,447.64 L 749.998,447.64 L 734.059,448.022 L 723.656,448.534 L 699.119,450.901 L 694.152,451.638 L 689.644,452.257 L 684.244,452.939 L 675.361,454.281 L 671.73,454.922 L 663.281,456.186 L 659.746,456.619 L 651.648,457.84 L 649.204,458.281 L 641.332,459.462 L 638.625,459.785 L 635.038,460.265 L 630.892,460.88 L 618.803,462.074 L 611.086,462.454 L 605.116,462.601 L 365.383,462.601 L 343.648,453.334 L 321.913,449.109 L 319.588,449.727 L 314.566,451.207 L 305.509,454.151 L 297.062,456.42 L 283.069,459.394 L 275.617,460.578 L 261.625,462.049 L 254.632,462.416 L 240.64,462.416 L 233.648,462.049 L 219.656,460.578 L 212.201,459.394 L 198.21,456.42 L 189.769,454.152 L 180.708,451.208 L 175.689,449.728 L 164.598,446.781 L 147.445,443.398 L 126.604,440.555 L 102.502,438.313 L 46.6502,435.26 L 5.45244,433.933 L 7.47245e-05,433.866 L 1.81899e-12,0 L 1153.93,-4.50502e-05 z " style="fill-opacity:0.200000;fill:rgb(115,81,255);"/></g>
<g fill-rule="evenodd"><path d="M 0.00019107,433.866 L 5.45244,433.933 L 46.6502,435.26 L 102.502,438.313 L 126.604,440.555 L 147.445,443.398 L 164.598,446.781 L 175.689,449.728 L 180.708,451.208 L 189.769,454.152 L 198.21,456.42 L 212.201,459.394 L 219.656,460.578 L 233.648,462.049 L 240.64,462.416 L 254.632,462.416 L 261.625,462.049 L 275.617,460.578 L 283.069,459.394 L 297.062,456.42 L 305.509,454.151 L 314.566,451.207 L 319.588,449.727 L 321.913,449.109 L 343.648,453.334 L 365.383,462.601 L 605.116,462.601 L 611.086,462.454 L 618.803,462.074 L 630.892,460.88 L 635.038,460.265 L 638.625,459.785 L 641.332,459.462 L 649.204,458.281 L 651.648,457.84 L 659.746,456.619 L 663.281,456.186 L 671.73,454.922 L 675.361,454.281 L 684.244,452.939 L 689.644,452.257 L 694.152,451.638 L 699.119,450.901 L 723.656,448.534 L 734.059,448.022 L 749.998,447.64 L 769.516,447.64 L 780.563,452.216 L 783.07,452.599 L 798.62,455.041 L 812.223,456.865 L 837.145,459.644 L 841.932,468.71 L 848.643,481.878 L 861.747,511.213 L 866.802,524.382 L 875.292,550.434 L 878.821,563.604 L 883.91,587.478 L 885.996,600.647 L 888.387,623.332 L 889.077,636.5 L 889.077,658.775 L 889.033,659.605 L 883.398,671.421 L 873.092,690.438 L 866.016,701.985 L 855.048,717.96 L 846.963,728.497 L 835.122,742.367 L 826.054,751.923 L 812.996,764.313 L 802.951,772.893 L 788.116,784.268 L 777.079,791.853 L 759.72,802.475 L 758.019,803.399 L 699.565,861.852 L 690.656,883.36 L 657.086,916.93 L 645.029,930.71 L 636.417,944.489 L 631.25,958.269 L 629.527,972.048 L 629.527,1098.03 L 631.25,1111.81 L 636.417,1125.59 L 645.029,1139.37 L 657.086,1153.15 L 717.384,1213.45 L 780.566,1239.62 L 783.07,1240 L 798.62,1242.44 L 812.223,1244.27 L 847.666,1248.22 L 862.93,1249.61 L 912.231,1253.16 L 930.765,1254.19 L 1014.35,1257.54 L 1020.08,1257.75 L 1020.08,1269.44 L 1020.08,1330.64 L 1020.08,1344.49 L 1020.08,1396.9 L 1020.08,1410.14 L 1020.08,1459.94 L 1020.08,1473.18 L 1020.08,1525.59 L 1020.08,1539.44 L 1020.08,1597.64 L 1.81899e-12,1597.64 L 0.00019107,433.866 z " style="fill-opacity:0.200000;fill:rgb(74,236,41);"/></g>
<g fill-rule="evenodd"><path d="M 2070.08,668.899 L 2070.08,1597.64 L 1020.08,1597.64 L 1020.08,1539.44 L 1020.08,1525.59 L 1020.08,1473.18 L 1020.08,1459.94 L 1020.08,1410.14 L 1020.08,1396.9 L 1020.08,1344.49 L 1020.08,1330.64 L 1020.08,1269.44 L 1020.08,1257.75 L 1021.69,1255.16 L 1034.11,1235.04 L 1088.13,1235.04 L 1107.81,1235.04 L 1166.64,1235.04 L 1182.92,1235.04 L 1223.8,1235.04 L 1223.83,1235.04 L 1238.22,1235.04 L 1238.24,1235.04 L 1256.83,1235.04 L 1271.69,1231.02 L 1286.05,1226.77 L 1313.49,1217.09 L 1326.66,1211.63 L 1348.66,1201.17 L 1360.73,1194.62 L 1370.78,1188.79 L 1377.18,1179.45 L 1385.73,1166.28 L 1395.3,1149.77 L 1402.01,1136.61 L 1408.04,1123.1 L 1413.09,1109.93 L 1416.82,1098.5 L 1420.35,1085.33 L 1422.5,1075.24 L 1424.58,1062.07 L 1425.57,1052.75 L 1426.26,1039.58 L 1426.26,1030.5 L 1425.57,1017.33 L 1424.58,1008.01 L 1423.94,1003.94 L 1424.09,1003.54 L 1425.86,999.219 L 1429.12,991.786 L 1432.78,984.441 L 1436.64,977.549 L 1440.56,971.308 L 1445.01,964.936 L 1449.25,959.456 L 1454.27,953.591 L 1456.55,951.046 L 1584.74,815.328 L 1587.2,812.602 L 1591.88,807.164 L 1596.56,801.21 L 1600.78,795.307 L 1605.22,788.445 L 1608.95,782.057 L 1613.19,773.984 L 1616.42,767.089 L 1618.5,762.362 L 1621.29,755.639 L 1621.63,749.037 L 1622.9,737.006 L 1625.12,723.014 L 1627.87,710.105 L 1629.14,705.353 L 1634.82,697.958 L 1643.36,687.956 L 1652.99,677.803 L 1660.8,670.265 L 1662.88,669.57 L 1664.95,668.898 L 1679.69,668.898 L 1691.52,668.898 L 1691.52,668.898 L 1706.84,668.899 L 1706.84,668.899 L 1715.29,668.899 L 1715.3,668.899 L 1729.59,668.898 L 1729.6,668.898 L 1736.7,668.898 L 1750.7,668.898 L 1757.8,668.898 L 1757.81,668.898 L 1772.11,668.899 L 1772.11,668.899 L 1780.56,668.899 L 1780.57,668.899 L 1795.88,668.898 L 1795.88,668.898 L 1807.71,668.898 L 1825,668.898 L 1844.31,668.898 L 1865.22,668.898 L 1902.92,668.898 L 1930.9,668.898 L 2028.8,668.898 L 2028.83,668.898 L 2070.08,668.899 z " style="fill-opacity:0.200000;fill:rgb(205,186,171);"/></g>
<g fill-rule="evenodd"><path d="M 1153.93,0.000342324 L 2070.08,0 L 2070.08,298.599 L 1985.88,297.565 L 1944.69,296.238 L 1888.83,293.185 L 1864.73,290.943 L 1843.89,288.101 L 1826.74,284.717 L 1815.65,281.77 L 1810.63,280.291 L 1801.57,277.347 L 1793.13,275.078 L 1779.14,272.105 L 1771.68,270.921 L 1757.69,269.45 L 1750.7,269.082 L 1736.7,269.082 L 1729.71,269.45 L 1715.72,270.921 L 1708.27,272.104 L 1694.27,275.078 L 1685.83,277.348 L 1676.77,280.291 L 1671.75,281.771 L 1669.42,282.39 L 1649.05,278.577 L 1643.88,277.049 L 1635.86,274.359 L 1625.17,270.352 L 1623.19,270.631 L 1595.35,270.631 L 1589.22,270.782 L 1581.5,271.162 L 1569.06,272.39 L 1561.35,273.535 L 1548.29,276.137 L 1540.58,278.07 L 1526.48,282.357 L 1518.76,285.119 L 1511.08,288.086 L 1469.28,305.398 L 1458.97,320.226 L 1450.89,330.763 L 1438.43,345.35 L 1429.37,354.906 L 1415.63,367.938 L 1405.59,376.519 L 1389.99,388.477 L 1378.95,396.063 L 1360.73,407.214 L 1348.66,413.768 L 1326.66,424.233 L 1313.49,429.688 L 1286.05,439.364 L 1271.69,443.62 L 1256.83,447.639 L 1238.24,447.639 L 1230.79,447.639 L 1226.66,441.279 L 1209.29,411.308 L 1202.58,398.138 L 1191.16,372.578 L 1186.11,359.41 L 1178.75,336.835 L 1175.22,323.667 L 1170.83,303.061 L 1168.74,289.892 L 1166.69,270.377 L 1166,257.207 L 1165.75,247.638 L 1165.75,238.623 L 1165.75,238.041 L 1165.77,230.866 L 1165.69,224.795 L 1165.32,212.157 L 1165.25,204.249 L 1165.25,204.114 L 1164.93,190.299 L 1164.51,182.805 L 1164.2,174.225 L 1164.02,165.154 L 1163.28,149.517 L 1163.13,147.515 L 1162.56,137.997 L 1161.47,113.683 L 1160.69,100.614 L 1160.25,94.8632 L 1159.88,89.436 L 1156.31,33.4171 L 1156.04,29.4435 L 1155.05,14.9397 L 1154.59,8.64764 L 1153.93,0.000342324 z " style="fill-opacity:0.200000;fill:rgb(242,251,227);"/></g>
<g fill-rule="evenodd"><path d="M 2070.08,298.599 L 2070.08,468.899 L 2028.83,468.898 L 2028.8,468.898 L 1930.9,468.898 L 1902.92,468.898 L 1865.22,468.898 L 1844.31,468.898 L 1825,468.898 L 1807.71,468.898 L 1795.88,468.898 L 1795.88,468.898 L 1780.57,468.899 L 1780.56,468.899 L 1772.11,468.899 L 1772.11,468.899 L 1757.81,468.898 L 1757.8,468.898 L 1750.7,468.898 L 1736.7,468.898 L 1729.6,468.898 L 1729.59,468.898 L 1715.3,468.899 L 1715.29,468.899 L 1706.84,468.899 L 1706.84,468.899 L 1691.52,468.898 L 1691.52,468.898 L 1679.69,468.898 L 1666.87,468.898 L 1665.19,469.653 L 1659.08,470.11 L 1651.37,470.489 L 1645.58,470.631 L 1636.06,470.631 L 1618.82,477.771 L 1613.93,479.939 L 1606.51,483.445 L 1598.27,487.847 L 1591.44,491.937 L 1584.52,496.555 L 1578.26,501.202 L 1572.28,506.107 L 1566.55,511.296 L 1563.82,513.899 L 1470.35,607.363 L 1467.75,610.098 L 1462.56,615.823 L 1457.66,621.802 L 1453.01,628.068 L 1448.39,634.987 L 1444.3,641.811 L 1439.9,650.059 L 1436.39,657.468 L 1434.23,662.362 L 1433.85,663.275 L 1433.7,666.199 L 1432.53,677.257 L 1430.44,690.425 L 1427.91,702.294 L 1424.39,715.462 L 1422.11,723.013 L 1418.42,727.326 L 1409.63,737.133 L 1400.16,746.647 L 1390.34,755.534 L 1379.31,764.495 L 1368.43,772.438 L 1355.17,781.081 L 1343.19,788.038 L 1326.66,796.486 L 1313.49,802.387 L 1292.17,810.595 L 1277.7,815.334 L 1249.22,822.983 L 1233.28,826.411 L 1198.01,832.196 L 1197.23,827.9 L 1193.69,810.379 L 1193.4,809.105 L 1191.31,799.238 L 1186.83,776.485 L 1185.41,769.72 L 1183.61,761.661 L 1183.48,761.071 L 1178.41,738.099 L 1178.21,737.15 L 1176.7,730.174 L 1175.19,723.684 L 1174.3,720.08 L 1170.83,703.061 L 1168.74,689.892 L 1166.69,670.377 L 1166,657.207 L 1166,638.068 L 1166.69,624.899 L 1168.74,605.386 L 1170.83,592.217 L 1175.22,571.619 L 1178.75,558.449 L 1186.11,535.867 L 1191.16,522.698 L 1202.59,497.123 L 1209.3,483.954 L 1226.66,453.999 L 1230.79,447.639 L 1238.24,447.639 L 1256.83,447.639 L 1271.69,443.62 L 1286.05,439.364 L 1313.49,429.688 L 1326.66,424.233 L 1348.66,413.768 L 1360.73,407.214 L 1378.95,396.063 L 1389.99,388.477 L 1405.59,376.519 L 1415.63,367.938 L 1429.37,354.906 L 1438.43,345.35 L 1450.89,330.763 L 1458.97,320.226 L 1469.28,305.398 L 1511.08,288.086 L 1518.76,285.119 L 1526.48,282.357 L 1540.58,278.07 L 1548.29,276.137 L 1561.35,273.535 L 1569.06,272.39 L 1581.5,271.162 L 1589.22,270.782 L 1595.35,270.631 L 1623.19,270.631 L 1625.17,270.352 L 1635.86,274.359 L 1643.88,277.049 L 1649.05,278.577 L 1669.42,282.39 L 1671.75,281.771 L 1676.77,280.291 L 1685.83,277.348 L 1694.27,275.078 L 1708.27,272.104 L 1715.72,270.921 L 1729.71,269.45 L 1736.7,269.082 L 1750.7,269.082 L 1757.69,269.45 L 1771.68,270.921 L 1779.14,272.105 L 1793.13,275.078 L 1801.57,277.347 L 1810.63,280.291 L 1815.65,281.77 L 1826.74,284.717 L 1843.89,288.101 L 1864.73,290.943 L 1888.83,293.185 L 1944.69,296.238 L 1985.88,297.565 L 2070.08,298.599 z " style="fill-opacity:0.200000;fill:rgb(70,124,194);"/></g>
<polyline points="1252.36,1035.04 1253.97,1049.6 1258.22,1062.58 1265.02,1074.43 1275.15,1085.67 1285.8,1093.42 1298.69,1099.27 1313,1102.39 1327.64,1102.31 1341.46,1099.27 1353.5,1093.91 1365.39,1085.36 1374.55,1075.23 1381.72,1063.02 1386.39,1048.63 1387.79,1035.04 1386.31,1020.96 1381.94,1007.5 1375.62,996.496 1558.26,791.712 1563.24,784.892 1568.62,770.766 1569.43,762.792 1569.45,680.628 1637.08,612.994 1687.48,612.994 1695.75,622.148 1708.31,631.176 1721.56,637.046 1736.7,640.186 1751.68,640.082 1765.84,637.046 1779.09,631.176 1791.26,622.458 1801.67,611.016 1808.93,598.484 1813.66,584.274 1815.35,568.898 1813.86,554.49 1809.34,540.216 1801.67,526.782 1791.99,516 1779.94,507.114 1765.84,500.752 1750.7,497.612 1735.72,497.714 1721.56,500.752 1708.31,506.62 1695.75,515.65 1687.48,524.804 1610.67,525.584 1601.52,528.36 1593.95,532.512 1587.64,537.72 1494.17,631.184 1488.97,637.494 1484.81,645.07 1482.22,653.31 1481.26,662.362 1481.26,745.556 1286.9,963.504 1282.19,969.992 1277.2,982.918 1265.6,994.854 1258.22,1007.5 1253.84,1020.96 1252.36,1035.04" style="stroke:rgb(103,198,105);stroke-width:9.448819;fill:none;stroke-opacity:0.5;stroke-linecap:round;stroke-linejoin:round;;fill:none"/>
<polyline points="1252.36,1035.04 1253.97,1049.6 1258.22,1062.58 1265.02,1074.43 1275.15,1085.67 1285.8,1093.42 1298.69,1099.27 1313,1102.39 1327.64,1102.31 1341.46,1099.27 1353.5,1093.91 1365.39,1085.36 1374.55,1075.23 1381.72,1063.02 1386.39,1048.63 1387.79,1035.04 1386.31,1020.96 1381.94,1007.5 1375.62,996.496 1558.26,791.712 1563.24,784.892 1568.62,770.766 1569.43,762.792 1569.45,680.628 1637.08,612.994 1687.48,612.994 1695.75,622.148 1708.31,631.176 1721.56,637.046 1736.7,640.186 1751.68,640.082 1765.84,637.046 1779.09,631.176 1791.26,622.458 1801.67,611.016 1808.93,598.484 1813.66,584.274 1815.35,568.898 1813.86,554.49 1809.34,540.216 1801.67,526.782 1791.99,516 1779.94,507.114 1765.84,500.752 1750.7,497.612 1735.72,497.714 1721.56,500.752 1708.31,506.62 1695.75,515.65 1687.48,524.804 1610.67,525.584 1601.52,528.36 1593.95,532.512 1587.64,537.72 1494.17,631.184 1488.97,637.494 1484.81,645.07 1482.22,653.31 1481.26,662.362 1481.26,745.556 1286.9,963.504 1282.19,969.992 1277.2,982.918 1265.6,994.854 1258.22,1007.5 1253.84,1020.96 1252.36,1035.04" style="stroke:rgb(0,0,0);stroke-width:1px;fill:none;stroke-opacity:1;stroke-linecap:round;stroke-linejoin:round;;fill:none"/>
<polyline points="175.982,362.6 177.472,377.008 182,391.282 189.668,404.716 199.342,415.498 212.25,424.878 225.494,430.746 240.64,433.886 255.614,433.782 270.24,430.568 283.878,424.384 295.582,415.848 303.858,406.696 605.578,406.672 621.552,403.496 629.214,399.502 635.95,394.092 714.72,315.356 784.878,314.996 787.704,311.552 787.794,291.734 990.942,291.734 990.942,701.816 725.436,967.324 657.086,967.324 653.744,968.708 652.36,972.048 652.36,1098.03 653.158,1100.66 655.278,1102.4 783.07,1102.76 786.41,1101.37 787.794,1098.03 787.794,1029.68 1066.22,751.26 1071.42,744.95 1075.58,737.374 1078.17,729.134 1079.13,720.08 1079.13,247.638 1078.17,238.586 1071.94,223.54 1065.87,216.148 1052.33,207.1 1044.09,204.504 1035.04,203.544 787.794,203.544 787.704,183.724 786.41,181.306 783.992,180.012 656.164,180.012 653.744,181.306 652.36,184.646 652.36,252.996 586.85,318.506 303.862,318.506 295.582,309.35 283.878,300.814 270.24,294.63 254.632,291.312 239.658,291.416 225.494,294.452 211.394,300.814 199.69,309.35 189.978,320.098 182,333.916 177.472,348.19 175.982,362.6" style="stroke:rgb(115,81,255);stroke-width:9.448819;fill:none;stroke-opacity:0.5;stroke-linecap:round;stroke-linejoin:round;;fill:none"/>
<polyline points="175.982,362.6 177.472,377.008 182,391.282 189.668,404.716 199.342,415.498 212.25,424.878 225.494,430.746 240.64,433.886 255.614,433.782 270.24,430.568 283.878,424.384 295.582,415.848 303.858,406.696 605.578,406.672 621.552,403.496 629.214,399.502 635.95,394.092 714.72,315.356 784.878,314.996 787.704,311.552 787.794,291.734 990.942,291.734 990.942,701.816 725.436,967.324 657.086,967.324 653.744,968.708 652.36,972.048 652.36,1098.03 653.158,1100.66 655.278,1102.4 783.07,1102.76 786.41,1101.37 787.794,1098.03 787.794,1029.68 1066.22,751.26 1071.42,744.95 1075.58,737.374 1078.17,729.134 1079.13,720.08 1079.13,247.638 1078.17,238.586 1071.94,223.54 1065.87,216.148 1052.33,207.1 1044.09,204.504 1035.04,203.544 787.794,203.544 787.704,183.724 786.41,181.306 783.992,180.012 656.164,180.012 653.744,181.306 652.36,184.646 652.36,252.996 586.85,318.506 303.862,318.506 295.582,309.35 283.878,300.814 270.24,294.63 254.632,291.312 239.658,291.416 225.494,294.452 211.394,300.814 199.69,309.35 189.978,320.098 182,333.916 177.472,348.19 175.982,362.6" style="stroke:rgb(0,0,0);stroke-width:1px;fill:none;stroke-opacity:1;stroke-linecap:round;stroke-linejoin:round;;fill:none"/>
<polyline points="175.982,629.528 175.982,495.67 177.366,492.33 180.708,490.946 315.488,491.036 317.906,492.33 319.2,494.748 319.29,518.506 643.18,519.286 652.33,522.062 665.872,531.11 715.122,580.326 727.144,580.292 740.526,583.108 753.496,588.77 765.388,597.316 775.13,608.25 781.94,620.096 786.186,633.082 787.794,647.638 786.314,661.718 782.116,674.72 774.55,687.826 765.388,697.962 753.496,706.508 740.526,712.168 727.144,714.986 715.122,714.952 606.692,823.384 606.692,1259.3 715.122,1367.73 727.144,1367.69 740.526,1370.51 753.496,1376.17 765.388,1384.72 775.13,1395.65 781.94,1407.5 786.314,1420.96 787.794,1435.04 786.314,1449.12 781.94,1462.58 775.13,1474.43 765.388,1485.36 754.35,1493.42 740.526,1499.57 727.156,1502.39 713,1502.39 698.69,1499.27 685.804,1493.42 674.766,1485.36 665.604,1475.23 658.216,1462.58 653.84,1449.12 652.846,1430.17 531.418,1308.74 526.21,1302.43 522.058,1294.85 519.282,1285.7 518.502,805.118 519.462,796.066 525.696,781.02 531.418,773.94 652.846,652.51 652.846,642.768 616.772,606.696 319.29,606.696 319.2,630.45 317.906,632.87 315.488,634.162 180.708,634.252 177.366,632.87 175.982,629.528" style="stroke:rgb(74,236,41);stroke-width:9.448819;fill:none;stroke-opacity:0.5;stroke-linecap:round;stroke-linejoin:round;;fill:none"/>
<polyline points="175.982,629.528 175.982,495.67 177.366,492.33 180.708,490.946 315.488,491.036 317.906,492.33 319.2,494.748 319.29,518.506 643.18,519.286 652.33,522.062 665.872,531.11 715.122,580.326 727.144,580.292 740.526,583.108 753.496,588.77 765.388,597.316 775.13,608.25 781.94,620.096 786.186,633.082 787.794,647.638 786.314,661.718 782.116,674.72 774.55,687.826 765.388,697.962 753.496,706.508 740.526,712.168 727.144,714.986 715.122,714.952 606.692,823.384 606.692,1259.3 715.122,1367.73 727.144,1367.69 740.526,1370.51 753.496,1376.17 765.388,1384.72 775.13,1395.65 781.94,1407.5 786.314,1420.96 787.794,1435.04 786.314,1449.12 781.94,1462.58 775.13,1474.43 765.388,1485.36 754.35,1493.42 740.526,1499.57 727.156,1502.39 713,1502.39 698.69,1499.27 685.804,1493.42 674.766,1485.36 665.604,1475.23 658.216,1462.58 653.84,1449.12 652.846,1430.17 531.418,1308.74 526.21,1302.43 522.058,1294.85 519.282,1285.7 518.502,805.118 519.462,796.066 525.696,781.02 531.418,773.94 652.846,652.51 652.846,642.768 616.772,606.696 319.29,606.696 319.2,630.45 317.906,632.87 315.488,634.162 180.708,634.252 177.366,632.87 175.982,629.528" style="stroke:rgb(0,0,0);stroke-width:1px;fill:none;stroke-opacity:1;stroke-linecap:round;stroke-linejoin:round;;fill:none"/>
<polyline points="1252.36,1435.04 1253.84,1449.12 1258.44,1463.02 1265.6,1475.23 1274.77,1485.36 1285.8,1493.42 1298.69,1499.27 1313.49,1502.41 1327.16,1502.39 1340.53,1499.57 1353.5,1493.91 1365.74,1485.01 1374.55,1475.23 1381.72,1463.02 1386.31,1449.12 1387.31,1430.17 1545.44,1270.93 1549.95,1262.5 1552.37,1254.21 1553.15,1246.06 1553.15,1021.81 1735.02,839.934 1750.7,840.186 1766.3,836.868 1779.09,831.176 1791.26,822.458 1801.67,811.016 1808.93,798.484 1813.66,784.274 1815.35,768.898 1813.86,754.49 1809.34,740.216 1801.94,727.196 1791.26,715.338 1779.09,706.62 1765.84,700.752 1751.68,697.714 1736.7,697.612 1721.1,700.93 1707.46,707.114 1695.75,715.65 1685.73,726.782 1678.06,740.216 1673.53,754.49 1672.05,768.898 1672.91,777.332 1472.67,978.676 1468.16,987.108 1465.74,995.402 1464.96,1003.54 1464.96,1227.8 1325.03,1367.73 1313.01,1367.69 1298.69,1370.82 1285.8,1376.67 1274.77,1384.72 1265.02,1395.65 1258.22,1407.5 1253.84,1420.96 1252.36,1435.04" style="stroke:rgb(205,186,171);stroke-width:9.448819;fill:none;stroke-opacity:0.5;stroke-linecap:round;stroke-linejoin:round;;fill:none"/>
<polyline points="1252.36,1435.04 1253.84,1449.12 1258.44,1463.02 1265.6,1475.23 1274.77,1485.36 1285.8,1493.42 1298.69,1499.27 1313.49,1502.41 1327.16,1502.39 1340.53,1499.57 1353.5,1493.91 1365.74,1485.01 1374.55,1475.23 1381.72,1463.02 1386.31,1449.12 1387.31,1430.17 1545.44,1270.93 1549.95,1262.5 1552.37,1254.21 1553.15,1246.06 1553.15,1021.81 1735.02,839.934 1750.7,840.186 1766.3,836.868 1779.09,831.176 1791.26,822.458 1801.67,811.016 1808.93,798.484 1813.66,784.274 1815.35,768.898 1813.86,754.49 1809.34,740.216 1801.94,727.196 1791.26,715.338 1779.09,706.62 1765.84,700.752 1751.68,697.714 1736.7,697.612 1721.1,700.93 1707.46,707.114 1695.75,715.65 1685.73,726.782 1678.06,740.216 1673.53,754.49 1672.05,768.898 1672.91,777.332 1472.67,978.676 1468.16,987.108 1465.74,995.402 1464.96,1003.54 1464.96,1227.8 1325.03,1367.73 1313.01,1367.69 1298.69,1370.82 1285.8,1376.67 1274.77,1384.72 1265.02,1395.65 1258.22,1407.5 1253.84,1420.96 1252.36,1435.04" style="stroke:rgb(0,0,0);stroke-width:1px;fill:none;stroke-opacity:1;stroke-linecap:round;stroke-linejoin:round;;fill:none"/>
<polyline points="1252.36,247.638 1253.84,261.718 1258.22,275.182 1265.6,287.826 1274.77,297.962 1285.8,306.014 1298.69,311.864 1313,314.984 1326.66,315.01 1340.53,312.168 1353.5,306.508 1365.39,297.962 1374.55,287.826 1381.94,275.182 1386.19,262.196 1387.31,242.768 1417.08,212.994 1672.05,212.994 1672.14,236.75 1673.43,239.168 1675.85,240.462 1811.55,240.462 1813.97,239.168 1815.35,235.828 1815.26,101.048 1813.97,98.6282 1810.63,97.2442 1675.85,97.3362 1673.43,98.6282 1672.14,101.048 1672.05,124.804 1398.82,124.804 1389.76,125.764 1374.72,131.998 1367.98,137.408 1325.03,180.324 1313.01,180.292 1298.69,183.414 1285.8,189.264 1274.77,197.316 1265.02,208.25 1258.22,220.096 1253.84,233.56 1252.36,247.638" style="stroke:rgb(242,251,227);stroke-width:9.448819;fill:none;stroke-opacity:0.5;stroke-linecap:round;stroke-linejoin:round;;fill:none"/>
<polyline points="1252.36,247.638 1253.84,261.718 1258.22,275.182 1265.6,287.826 1274.77,297.962 1285.8,306.014 1298.69,311.864 1313,314.984 1326.66,315.01 1340.53,312.168 1353.5,306.508 1365.39,297.962 1374.55,287.826 1381.94,275.182 1386.19,262.196 1387.31,242.768 1417.08,212.994 1672.05,212.994 1672.14,236.75 1673.43,239.168 1675.85,240.462 1811.55,240.462 1813.97,239.168 1815.35,235.828 1815.26,101.048 1813.97,98.6282 1810.63,97.2442 1675.85,97.3362 1673.43,98.6282 1672.14,101.048 1672.05,124.804 1398.82,124.804 1389.76,125.764 1374.72,131.998 1367.98,137.408 1325.03,180.324 1313.01,180.292 1298.69,183.414 1285.8,189.264 1274.77,197.316 1265.02,208.25 1258.22,220.096 1253.84,233.56 1252.36,247.638" style="stroke:rgb(0,0,0);stroke-width:1px;fill:none;stroke-opacity:1;stroke-linecap:round;stroke-linejoin:round;;fill:none"/>
<polyline points="1252.36,647.638 1253.84,661.718 1258.44,675.622 1265.6,687.826 1274.77,697.962 1285.8,706.014 1298.69,711.864 1313.49,715.01 1327.64,714.906 1341.46,711.864 1353.5,706.508 1365.74,697.612 1374.55,687.826 1381.72,675.622 1386.31,661.718 1387.31,642.766 1613.62,416.458 1645.58,416.458 1654.23,415.6 1662.27,412.994 1687.48,412.994 1695.75,422.148 1707.46,430.682 1721.56,437.046 1735.72,440.082 1750.7,440.186 1766.3,436.868 1779.94,430.682 1791.65,422.148 1801.67,411.016 1809.34,397.58 1813.86,383.308 1815.35,368.898 1813.66,353.524 1808.93,339.314 1801.36,326.398 1791.65,315.65 1779.94,307.114 1765.84,300.752 1750.7,297.612 1735.72,297.714 1721.1,300.93 1707.46,307.114 1695.75,315.65 1687.48,324.804 1649.05,324.804 1640.4,325.662 1632.35,328.268 1594.89,328.292 1586.3,329.228 1571.25,335.462 1564.17,341.184 1325.03,580.324 1313.01,580.292 1298.69,583.414 1285.8,589.264 1274.77,597.316 1265.02,608.25 1258.22,620.096 1253.84,633.56 1252.36,647.638" style="stroke:rgb(70,124,194);stroke-width:9.448819;fill:none;stroke-opacity:0.5;stroke-linecap:round;stroke-linejoin:round;;fill:none"/>
<polyline points="1252.36,647.638 1253.84,661.718 1258.44,675.622 1265.6,687.826 1274.77,697.962 1285.8,706.014 1298.69,711.864 1313.49,715.01 1327.64,714.906 1341.46,711.864 1353.5,706.508 1365.74,697.612 1374.55,687.826 1381.72,675.622 1386.31,661.718 1387.31,642.766 1613.62,416.458 1645.58,416.458 1654.23,415.6 1662.27,412.994 1687.48,412.994 1695.75,422.148 1707.46,430.682 1721.56,437.046 1735.72,440.082 1750.7,440.186 1766.3,436.868 1779.94,430.682 1791.65,422.148 1801.67,411.016 1809.34,397.58 1813.86,383.308 1815.35,368.898 1813.66,353.524 1808.93,339.314 1801.36,326.398 1791.65,315.65 1779.94,307.114 1765.84,300.752 1750.7,297.612 1735.72,297.714 1721.1,300.93 1707.46,307.114 1695.75,315.65 1687.48,324.804 1649.05,324.804 1640.4,325.662 1632.35,328.268 1594.89,328.292 1586.3,329.228 1571.25,335.462 1564.17,341.184 1325.03,580.324 1313.01,580.292 1298.69,583.414 1285.8,589.264 1274.77,597.316 1265.02,608.25 1258.22,620.096 1253.84,633.56 1252.36,647.638" style="stroke:rgb(0,0,0);stroke-width:1px;fill:none;stroke-opacity:1;stroke-linecap:round;stroke-linejoin:round;;fill:none"/>
<g fill-rule="evenodd"><path d="M 1281.33,985.759 L 1283.29,978.498 L 1286.44,972.068 L 1290.7,966.315 L 1485.98,747.356 L 1485.98,662.362 L 1486.74,654.681 L 1488.98,647.296 L 1492.62,640.489 L 1497.52,634.523 L 1590.98,541.059 L 1596.95,536.163 L 1603.75,532.525 L 1611.14,530.285 L 1618.82,529.528 L 1689.58,529.528 L 1698.92,519.16 L 1710.24,510.935 L 1723.02,505.244 L 1736.7,502.335 L 1750.7,502.335 L 1764.38,505.244 L 1777.17,510.935 L 1788.49,519.16 L 1797.85,529.558 L 1804.84,541.675 L 1809.17,554.982 L 1810.63,568.898 L 1809.17,582.813 L 1804.84,596.12 L 1797.85,608.238 L 1788.49,618.636 L 1777.17,626.86 L 1764.38,632.551 L 1750.7,635.46 L 1736.7,635.46 L 1723.02,632.551 L 1710.24,626.86 L 1698.92,618.636 L 1689.58,608.268 L 1635.13,608.268 L 1564.72,678.67 L 1564.72,762.362 L 1564.07,769.491 L 1562.14,776.384 L 1559,782.814 L 1554.74,788.568 L 1369.48,996.28 L 1371.04,998.014 L 1377.62,1009.42 L 1381.69,1021.94 L 1383.07,1035.04 L 1381.69,1048.14 L 1377.62,1060.66 L 1371.04,1072.07 L 1362.23,1081.85 L 1351.57,1089.59 L 1339.54,1094.95 L 1326.66,1097.69 L 1313.49,1097.69 L 1300.61,1094.95 L 1288.58,1089.59 L 1277.93,1081.85 L 1269.12,1072.07 L 1262.53,1060.66 L 1258.46,1048.14 L 1257.09,1035.04 L 1258.46,1021.94 L 1262.53,1009.42 L 1269.12,998.014 L 1277.93,988.227 L 1281.33,985.759 z " style="fill-opacity:1.000000;fill:rgb(103,198,105);stroke:rgb(0,0,0);stroke-width:2"/></g>
<g fill-rule="evenodd"><path d="M 783.071,208.268 L 1035.04,208.268 L 1042.72,209.025 L 1050.1,211.265 L 1056.91,214.903 L 1062.88,219.799 L 1067.77,225.765 L 1071.41,232.572 L 1073.65,239.957 L 1074.41,247.638 L 1074.41,720.08 L 1073.65,727.761 L 1071.41,735.146 L 1067.77,741.953 L 1062.88,747.919 L 783.071,1027.73 L 783.071,1098.03 L 657.087,1098.03 L 657.087,972.047 L 727.394,972.047 L 995.668,703.773 L 995.668,287.008 L 783.071,287.008 L 783.071,310.63 L 712.764,310.63 L 632.955,390.439 L 626.989,395.335 L 620.183,398.973 L 612.797,401.214 L 605.116,401.97 L 301.756,401.97 L 292.422,412.336 L 281.102,420.561 L 268.32,426.252 L 254.634,429.161 L 240.642,429.161 L 226.956,426.252 L 214.173,420.561 L 202.853,412.336 L 193.491,401.938 L 186.495,389.821 L 182.171,376.514 L 180.709,362.598 L 182.171,348.683 L 186.495,335.376 L 193.491,323.258 L 202.853,312.86 L 214.173,304.636 L 226.956,298.945 L 240.642,296.036 L 254.634,296.036 L 268.32,298.945 L 281.102,304.636 L 292.422,312.86 L 301.759,323.23 L 588.809,323.23 L 657.087,254.952 L 657.087,184.646 L 783.071,184.646 L 783.071,208.268 z " style="fill-opacity:1.000000;fill:rgb(115,81,255);stroke:rgb(0,0,0);stroke-width:2"/></g>
<g fill-rule="evenodd"><path d="M 713.177,710.217 L 601.968,821.426 L 601.968,1261.25 L 713.176,1372.46 L 726.663,1372.39 L 739.544,1375.13 L 751.575,1380.49 L 762.229,1388.23 L 771.04,1398.01 L 777.625,1409.42 L 781.694,1421.94 L 783.071,1435.04 L 781.694,1448.14 L 777.625,1460.66 L 771.04,1472.07 L 762.229,1481.85 L 751.575,1489.59 L 739.544,1494.95 L 726.663,1497.69 L 713.494,1497.69 L 700.613,1494.95 L 688.583,1489.59 L 677.929,1481.85 L 669.117,1472.07 L 662.533,1460.66 L 658.463,1448.14 L 657.087,1435.04 L 657.782,1428.42 L 534.759,1305.4 L 529.863,1299.43 L 526.225,1292.63 L 523.985,1285.24 L 523.228,1277.56 L 523.228,805.118 L 523.985,797.437 L 526.225,790.052 L 529.863,783.245 L 534.759,777.279 L 657.782,654.257 L 657.087,647.638 L 657.782,641.021 L 618.731,601.97 L 314.567,601.97 L 314.567,629.528 L 180.709,629.528 L 180.709,495.669 L 314.567,495.669 L 314.567,523.23 L 635.038,523.23 L 642.719,523.987 L 650.104,526.227 L 656.911,529.865 L 662.877,534.761 L 713.176,585.058 L 726.663,584.991 L 739.544,587.729 L 751.575,593.085 L 762.229,600.826 L 771.04,610.612 L 777.625,622.017 L 781.694,634.541 L 783.071,647.638 L 781.694,660.735 L 777.625,673.259 L 771.04,684.664 L 762.229,694.45 L 751.575,702.191 L 739.544,707.547 L 726.663,710.285 L 713.177,710.217 z " style="fill-opacity:1.000000;fill:rgb(74,236,41);stroke:rgb(0,0,0);stroke-width:2"/></g>
<g fill-rule="evenodd"><path d="M 1382.38,1428.42 L 1383.07,1435.04 L 1381.69,1448.14 L 1377.62,1460.66 L 1371.04,1472.07 L 1362.23,1481.85 L 1351.57,1489.59 L 1339.54,1494.95 L 1326.66,1497.69 L 1313.49,1497.69 L 1300.61,1494.95 L 1288.58,1489.59 L 1277.93,1481.85 L 1269.12,1472.07 L 1262.53,1460.66 L 1258.46,1448.14 L 1257.09,1435.04 L 1258.46,1421.94 L 1262.53,1409.42 L 1269.12,1398.01 L 1277.93,1388.23 L 1288.58,1380.49 L 1300.61,1375.13 L 1313.49,1372.39 L 1326.98,1372.46 L 1469.68,1229.76 L 1469.68,1003.54 L 1470.44,995.863 L 1472.68,988.478 L 1476.32,981.671 L 1481.22,975.705 L 1677.84,779.079 L 1676.77,768.898 L 1678.23,754.982 L 1682.56,741.675 L 1689.55,729.558 L 1698.92,719.16 L 1710.24,710.935 L 1723.02,705.244 L 1736.7,702.335 L 1750.7,702.335 L 1764.38,705.244 L 1777.17,710.935 L 1788.49,719.16 L 1797.85,729.558 L 1804.84,741.675 L 1809.17,754.982 L 1810.63,768.898 L 1809.17,782.813 L 1804.84,796.12 L 1797.85,808.238 L 1788.49,818.636 L 1777.17,826.86 L 1764.38,832.551 L 1750.7,835.46 L 1736.7,835.46 L 1733.5,834.778 L 1548.42,1019.85 L 1548.42,1246.06 L 1547.67,1253.74 L 1545.43,1261.13 L 1541.79,1267.94 L 1536.89,1273.9 L 1382.38,1428.42 z " style="fill-opacity:1.000000;fill:rgb(205,186,171);stroke:rgb(0,0,0);stroke-width:2"/></g>
<g fill-rule="evenodd"><path d="M 1382.38,241.019 L 1383.07,247.638 L 1381.69,260.735 L 1377.62,273.259 L 1371.04,284.664 L 1362.23,294.45 L 1351.57,302.191 L 1339.54,307.547 L 1326.66,310.285 L 1313.49,310.285 L 1300.61,307.547 L 1288.58,302.191 L 1277.93,294.45 L 1269.12,284.664 L 1262.53,273.259 L 1258.46,260.735 L 1257.09,247.638 L 1258.46,234.541 L 1262.53,222.017 L 1269.12,210.612 L 1277.93,200.826 L 1288.58,193.085 L 1300.61,187.729 L 1313.49,184.991 L 1326.98,185.058 L 1370.98,141.059 L 1376.95,136.163 L 1383.75,132.525 L 1391.14,130.285 L 1398.82,129.528 L 1676.77,129.528 L 1676.77,101.969 L 1810.63,101.969 L 1810.63,235.827 L 1676.77,235.827 L 1676.77,208.268 L 1415.13,208.268 L 1382.38,241.019 z " style="fill-opacity:1.000000;fill:rgb(242,251,227);stroke:rgb(0,0,0);stroke-width:2"/></g>
<g fill-rule="evenodd"><path d="M 1382.38,641.019 L 1383.07,647.638 L 1381.69,660.735 L 1377.62,673.259 L 1371.04,684.664 L 1362.23,694.45 L 1351.57,702.191 L 1339.54,707.547 L 1326.66,710.285 L 1313.49,710.285 L 1300.61,707.547 L 1288.58,702.191 L 1277.93,694.45 L 1269.12,684.664 L 1262.53,673.259 L 1258.46,660.735 L 1257.09,647.638 L 1258.46,634.541 L 1262.53,622.017 L 1269.12,610.612 L 1277.93,600.826 L 1288.58,593.085 L 1300.61,587.729 L 1313.49,584.991 L 1326.98,585.058 L 1567.52,344.523 L 1573.48,339.627 L 1580.29,335.989 L 1587.67,333.749 L 1595.35,332.992 L 1633.11,332.992 L 1641.37,330.284 L 1649.05,329.528 L 1689.58,329.528 L 1698.92,319.16 L 1710.24,310.935 L 1723.02,305.244 L 1736.7,302.335 L 1750.7,302.335 L 1764.38,305.244 L 1777.17,310.935 L 1788.49,319.16 L 1797.85,329.558 L 1804.84,341.675 L 1809.17,354.982 L 1810.63,368.898 L 1809.17,382.813 L 1804.84,396.12 L 1797.85,408.238 L 1788.49,418.636 L 1777.17,426.86 L 1764.38,432.551 L 1750.7,435.46 L 1736.7,435.46 L 1723.02,432.551 L 1710.24,426.86 L 1698.92,418.636 L 1689.58,408.268 L 1661.52,408.268 L 1653.26,410.976 L 1645.58,411.732 L 1611.66,411.732 L 1382.38,641.019 z " style="fill-opacity:1.000000;fill:rgb(70,124,194);stroke:rgb(0,0,0);stroke-width:2"/></g>
</svg>
