<?xml version="1.0" standalone="no"?>
<!DOCTYPE svg PUBLIC "-//W3C//DTD SVG 1.1//EN"
"http://www.w3.org/Graphics/SVG/1.1/DTD/svg11.dtd">
<svg width="99.3638" height="76.6866" viewBox="0 0 2070.08 1597.64" version="1.1"
xmlns="http://www.w3.org/2000/svg"
xmlns:xlink="http://www.w3.org/1999/xlink">
<polyline points="6.69033,1586.22 6.69033,11.4182 6.78233,10.4982 7.05033,9.6122 7.48633,8.7942 8.07433,8.0782 8.79033,7.4902 9.60833,7.0542 10.4943,6.7862 11.4163,6.6942 2058.66,6.6942 2059.58,6.7862 2060.47,7.0542 2061.28,7.4902 2062,8.0782 2062.59,8.7942 2063.02,9.6122 2063.29,10.4982 2063.38,11.4182 2063.38,1586.22 2063.29,1587.14 2063.02,1588.03 2062.59,1588.85 2062,1589.56 2061.28,1590.15 2060.47,1590.59 2059.58,1590.86 2058.66,1590.95 11.4163,1590.95 10.4943,1590.86 9.60833,1590.59 8.79033,1590.15 8.07433,1589.56 7.48633,1588.85 7.05033,1588.03 6.78233,1587.14 6.69033,1586.22" style="stroke:rgb(103,198,105);stroke-width:9.448819;fill:none;stroke-opacity:0.5;stroke-linecap:round;stroke-linejoin:round;;fill:none"/>
<polyline points="6.69033,1586.22 6.69033,11.4182 6.78233,10.4982 7.05033,9.6122 7.48633,8.7942 8.07433,8.0782 8.79033,7.4902 9.60833,7.0542 10.4943,6.7862 11.4163,6.6942 2058.66,6.6942 2059.58,6.7862 2060.47,7.0542 2061.28,7.4902 2062,8.0782 2062.59,8.7942 2063.02,9.6122 2063.29,10.4982 2063.38,11.4182 2063.38,1586.22 2063.29,1587.14 2063.02,1588.03 2062.59,1588.85 2062,1589.56 2061.28,1590.15 2060.47,1590.59 2059.58,1590.86 2058.66,1590.95 11.4163,1590.95 10.4943,1590.86 9.60833,1590.59 8.79033,1590.15 8.07433,1589.56 7.48633,1588.85 7.05033,1588.03 6.78233,1587.14 6.69033,1586.22" style="stroke:rgb(0,0,0);stroke-width:1px;fill:none;stroke-opacity:1;stroke-linecap:round;stroke-linejoin:round;;fill:none"/>
</svg>
