<?xml version="1.0" standalone="no"?>
<!DOCTYPE svg PUBLIC "-//W3C//DTD SVG 1.1//EN"
"http://www.w3.org/Graphics/SVG/1.1/DTD/svg11.dtd">
<svg width="99.3638" height="246.765" viewBox="0 0 2070.08 5140.94" version="1.1"
xmlns="http://www.w3.org/2000/svg"
xmlns:xlink="http://www.w3.org/1999/xlink">
<circle cx="1783.07" cy="287.008" r="31.4961" style=""/>
<circle cx="1343.7" cy="365.748" r="31.4961" style=""/>
<circle cx="1143.7" cy="365.748" r="31.4961" style=""/>
<circle cx="943.701" cy="365.748" r="31.4961" style=""/>
<circle cx="743.701" cy="365.748" r="31.4961" style=""/>
<circle cx="287.008" cy="287.008" r="31.4961" style=""/>
<circle cx="743.701" cy="641.339" r="31.4961" style=""/>
<circle cx="943.701" cy="641.339" r="31.4961" style=""/>
<circle cx="1143.7" cy="641.339" r="31.4961" style=""/>
<circle cx="1343.7" cy="641.339" r="31.4961" style=""/>
<circle cx="987.795" cy="1035.04" r="31.4961" style=""/>
<circle cx="1082.28" cy="1405.12" r="31.4961" style=""/>
<circle cx="1263.39" cy="1538.98" r="31.4961" style=""/>
<circle cx="1649.21" cy="1145.28" r="31.4961" style=""/>
<circle cx="1649.21" cy="1345.28" r="31.4961" style=""/>
<circle cx="1649.21" cy="1545.28" r="31.4961" style=""/>
<circle cx="1412.99" cy="1538.98" r="31.4961" style=""/>
<circle cx="1649.21" cy="1745.28" r="31.4961" style=""/>
<circle cx="1649.21" cy="1945.28" r="31.4961" style=""/>
<circle cx="1649.21" cy="2145.28" r="31.4961" style=""/>
<circle cx="1326.38" cy="2216.14" r="31.4961" style=""/>
<circle cx="1074.41" cy="1885.43" r="31.4961" style=""/>
<circle cx="578.346" cy="1916.93" r="31.4961" style=""/>
<circle cx="271.26" cy="1877.56" r="31.4961" style=""/>
<circle cx="806.693" cy="2153.15" r="31.4961" style=""/>
<circle cx="420.866" cy="2663.39" r="31.4961" style=""/>
<circle cx="820.866" cy="2663.39" r="31.4961" style=""/>
<circle cx="1082.28" cy="2586.22" r="31.4961" style=""/>
<circle cx="1649.21" cy="2345.28" r="31.4961" style=""/>
<circle cx="1649.21" cy="2545.28" r="31.4961" style=""/>
<circle cx="1649.21" cy="2745.28" r="31.4961" style=""/>
<circle cx="1649.21" cy="2945.28" r="31.4961" style=""/>
<circle cx="1649.21" cy="3145.28" r="31.4961" style=""/>
<circle cx="1649.21" cy="3345.28" r="31.4961" style=""/>
<circle cx="1381.5" cy="2956.3" r="31.4961" style=""/>
<circle cx="1161.02" cy="3192.52" r="31.4961" style=""/>
<circle cx="820.866" cy="3263.39" r="31.4961" style=""/>
<circle cx="812.992" cy="3507.48" r="31.4961" style=""/>
<circle cx="420.866" cy="3263.39" r="31.4961" style=""/>
<circle cx="412.992" cy="3507.48" r="31.4961" style=""/>
<circle cx="412.992" cy="4107.48" r="31.4961" style=""/>
<circle cx="287.008" cy="4853.94" r="31.4961" style=""/>
<circle cx="916.929" cy="4428.74" r="31.4961" style=""/>
<circle cx="812.992" cy="4107.48" r="31.4961" style=""/>
<circle cx="1649.21" cy="3545.28" r="31.4961" style=""/>
<circle cx="1649.21" cy="3745.28" r="31.4961" style=""/>
<circle cx="1649.21" cy="3945.28" r="31.4961" style=""/>
<circle cx="1649.21" cy="4145.28" r="31.4961" style=""/>
<circle cx="1116.93" cy="4428.74" r="31.4961" style=""/>
<circle cx="1783.07" cy="4853.94" r="31.4961" style=""/>
</svg>
