<?xml version="1.0" standalone="no"?>
<!DOCTYPE svg PUBLIC "-//W3C//DTD SVG 1.1//EN"
"http://www.w3.org/Graphics/SVG/1.1/DTD/svg11.dtd">
<svg width="99.3638" height="246.765" viewBox="0 0 2070.08 5140.94" version="1.1"
xmlns="http://www.w3.org/2000/svg"
xmlns:xlink="http://www.w3.org/1999/xlink">
<g fill-rule="evenodd"><path d="M 983.071,419.42 L 983.071,587.667 L 988.485,591.601 L 997.848,601.999 L 1004.84,614.116 L 1009.17,627.423 L 1010.63,641.339 L 1009.17,655.254 L 1004.84,668.561 L 997.848,680.679 L 988.485,691.077 L 977.165,699.301 L 964.383,704.992 L 950.697,707.901 L 936.705,707.901 L 923.019,704.992 L 910.236,699.301 L 898.916,691.077 L 889.554,680.679 L 882.558,668.561 L 878.234,655.254 L 876.772,641.339 L 878.234,627.423 L 882.558,614.116 L 889.554,601.999 L 898.916,591.601 L 904.331,587.667 L 904.331,419.42 L 898.916,415.486 L 889.554,405.088 L 882.558,392.971 L 878.234,379.663 L 876.772,365.748 L 878.234,351.833 L 882.558,338.526 L 889.554,326.408 L 898.916,316.01 L 904.331,312.076 L 904.331,287.405 L 825.193,208.27 L 704.888,208.27 L 609.841,303.317 L 609.841,515.356 L 609.084,523.036 L 606.844,530.422 L 603.206,537.228 L 598.31,543.194 L 480.2,661.304 L 474.234,666.201 L 467.427,669.839 L 460.041,672.079 L 452.361,672.836 L 271.259,672.836 L 271.259,806.694 L 270.398,814.879 L 267.855,822.707 L 266.666,824.767 L 295.358,853.46 L 296.827,855.25 L 297.919,857.292 L 298.591,859.507 L 298.818,861.812 L 298.819,1074.41 L 275.197,1074.41 L 275.196,866.704 L 249.987,841.495 L 244.055,844.137 L 236.004,845.848 L 227.773,845.848 L 219.723,844.137 L 212.204,840.789 L 205.545,835.951 L 200.038,829.835 L 195.922,822.707 L 193.379,814.879 L 192.519,806.694 L 192.519,641.34 L 193.275,633.659 L 195.516,626.273 L 199.154,619.467 L 204.05,613.501 L 211.924,605.627 L 217.89,600.731 L 224.696,597.092 L 232.082,594.852 L 239.763,594.095 L 436.053,594.095 L 531.101,499.048 L 531.101,287.01 L 531.857,279.329 L 534.098,271.943 L 537.736,265.137 L 542.632,259.171 L 660.742,141.061 L 666.708,136.165 L 673.514,132.526 L 680.9,130.286 L 688.581,129.529 L 841.501,129.529 L 849.181,130.286 L 856.567,132.526 L 863.373,136.164 L 869.339,141.06 L 971.539,243.258 L 976.436,249.224 L 980.074,256.031 L 982.314,263.417 L 983.071,271.098 L 983.071,312.076 L 988.485,316.01 L 997.848,326.408 L 1004.84,338.526 L 1009.17,351.833 L 1010.63,365.748 L 1009.17,379.663 L 1004.84,392.971 L 997.848,405.088 L 988.485,415.486 L 983.071,419.42 z " style="fill-opacity:1.000000;fill:rgb(103,198,105);stroke:rgb(0,0,0);stroke-width:2"/></g>
<g fill-rule="evenodd"><path d="M 353.937,1365.74 L 353.937,1310.63 L 377.559,1310.63 L 377.558,1671.72 L 377.331,1674.02 L 376.659,1676.24 L 375.567,1678.28 L 374.099,1680.07 L 336.518,1717.65 L 339.665,1725.64 L 340.953,1733.77 L 340.522,1741.99 L 338.392,1749.94 L 334.655,1757.27 L 329.476,1763.67 L 310.629,1782.51 L 310.629,1809.37 L 323.947,1819.04 L 334.962,1831.28 L 343.193,1845.53 L 348.279,1861.19 L 350,1877.56 L 348.279,1893.93 L 343.193,1909.59 L 334.962,1923.84 L 323.947,1936.07 L 310.63,1945.75 L 295.592,1952.45 L 279.49,1955.87 L 263.029,1955.87 L 246.928,1952.45 L 231.89,1945.75 L 218.572,1936.07 L 207.558,1923.84 L 199.327,1909.59 L 194.24,1893.93 L 192.52,1877.56 L 194.24,1861.19 L 199.327,1845.53 L 207.558,1831.28 L 218.572,1819.04 L 231.889,1809.37 L 231.889,1766.21 L 232.645,1758.52 L 234.886,1751.14 L 238.524,1744.33 L 243.42,1738.37 L 273.798,1707.99 L 280.194,1702.81 L 287.528,1699.07 L 295.478,1696.94 L 303.697,1696.51 L 311.826,1697.8 L 319.814,1700.95 L 353.936,1666.82 L 353.937,1365.74 z " style="fill-opacity:1.000000;fill:rgb(115,81,255);stroke:rgb(0,0,0);stroke-width:2"/></g>
<g fill-rule="evenodd"><path d="M 314.567,1365.74 L 314.567,1310.63 L 338.189,1310.63 L 338.188,1475.99 L 337.961,1478.29 L 337.289,1480.51 L 336.197,1482.55 L 334.728,1484.34 L 306.061,1513 L 308.702,1518.94 L 310.413,1526.99 L 310.413,1535.22 L 308.702,1543.27 L 305.354,1550.79 L 300.516,1557.45 L 294.4,1562.95 L 287.272,1567.07 L 281.086,1569.08 L 107.875,1742.29 L 107.875,4470.08 L 351.969,4470.08 L 359.649,4470.84 L 367.035,4473.08 L 373.842,4476.72 L 379.808,4481.61 L 775.756,4877.56 L 1254.95,4877.56 L 1609.84,4522.67 L 1609.84,4198.95 L 1604.43,4195.01 L 1595.07,4184.62 L 1588.07,4172.5 L 1583.75,4159.19 L 1582.28,4145.28 L 1583.75,4131.36 L 1588.07,4118.05 L 1595.07,4105.94 L 1604.43,4095.54 L 1615.75,4087.31 L 1628.53,4081.62 L 1642.22,4078.71 L 1656.21,4078.71 L 1669.89,4081.62 L 1682.68,4087.31 L 1694,4095.54 L 1703.36,4105.94 L 1710.36,4118.05 L 1714.68,4131.36 L 1716.14,4145.28 L 1714.68,4159.19 L 1710.36,4172.5 L 1703.36,4184.62 L 1694,4195.01 L 1688.58,4198.95 L 1688.58,4538.98 L 1687.82,4546.66 L 1685.58,4554.04 L 1681.95,4560.85 L 1677.05,4566.82 L 1299.1,4944.77 L 1293.13,4949.66 L 1286.33,4953.3 L 1278.94,4955.54 L 1271.26,4956.3 L 759.449,4956.3 L 751.768,4955.54 L 744.382,4953.3 L 737.576,4949.66 L 731.61,4944.77 L 335.661,4548.82 L 68.5047,4548.82 L 60.824,4548.07 L 53.4384,4545.82 L 46.6319,4542.19 L 40.6659,4537.29 L 35.7697,4531.32 L 32.1315,4524.52 L 29.8911,4517.13 L 29.1346,4509.45 L 29.1346,1725.98 L 29.8911,1718.3 L 32.1315,1710.92 L 35.7697,1704.11 L 40.6659,1698.14 L 235.546,1503.26 L 241.512,1498.37 L 248.318,1494.73 L 255.704,1492.49 L 263.385,1491.73 L 271.259,1491.73 L 279.444,1492.59 L 287.272,1495.14 L 289.332,1496.33 L 314.566,1471.09 L 314.567,1365.74 z " style="fill-opacity:1.000000;fill:rgb(74,236,41);stroke:rgb(0,0,0);stroke-width:2"/></g>
<g fill-rule="evenodd"><path d="M 432.677,1365.74 L 432.677,1310.63 L 456.299,1310.63 L 456.298,1447.47 L 473.657,1464.83 L 475.717,1463.64 L 483.545,1461.1 L 491.731,1460.24 L 940.551,1460.24 L 948.231,1460.99 L 955.617,1463.23 L 962.424,1466.87 L 968.39,1471.77 L 1202.53,1705.91 L 1595.09,1705.91 L 1604.43,1695.54 L 1615.75,1687.31 L 1628.53,1681.62 L 1642.22,1678.71 L 1656.21,1678.71 L 1669.89,1681.62 L 1682.68,1687.31 L 1694,1695.54 L 1703.36,1705.94 L 1710.36,1718.05 L 1714.68,1731.36 L 1716.14,1745.28 L 1714.68,1759.19 L 1710.36,1772.5 L 1703.36,1784.62 L 1694,1795.01 L 1682.68,1803.24 L 1669.89,1808.93 L 1656.21,1811.84 L 1642.22,1811.84 L 1628.53,1808.93 L 1615.75,1803.24 L 1604.43,1795.01 L 1595.09,1784.65 L 1186.22,1784.65 L 1178.54,1783.89 L 1171.15,1781.65 L 1164.35,1778.01 L 1158.38,1773.12 L 924.243,1538.98 L 491.731,1538.98 L 483.545,1538.12 L 475.717,1535.57 L 468.59,1531.46 L 462.473,1525.95 L 457.635,1519.29 L 454.288,1511.77 L 452.576,1503.72 L 452.576,1495.49 L 454.288,1487.44 L 456.929,1481.51 L 436.135,1460.72 L 434.666,1458.93 L 433.575,1456.88 L 432.903,1454.67 L 432.676,1452.36 L 432.677,1365.74 z " style="fill-opacity:1.000000;fill:rgb(205,186,171);stroke:rgb(0,0,0);stroke-width:2"/></g>
<g fill-rule="evenodd"><path d="M 393.307,1365.74 L 393.307,1310.63 L 416.929,1310.63 L 416.928,1581.33 L 434.287,1598.69 L 436.347,1597.5 L 444.175,1594.96 L 452.361,1594.1 L 531.101,1594.1 L 538.781,1594.85 L 546.167,1597.09 L 552.974,1600.73 L 558.94,1605.63 L 1039.26,2085.94 L 1044.15,2091.91 L 1047.79,2098.71 L 1050.03,2106.1 L 1050.79,2113.78 L 1050.79,2168.34 L 1388.35,2505.91 L 1595.09,2505.91 L 1604.43,2495.54 L 1615.75,2487.31 L 1628.53,2481.62 L 1642.22,2478.71 L 1656.21,2478.71 L 1669.89,2481.62 L 1682.68,2487.31 L 1694,2495.54 L 1703.36,2505.94 L 1710.36,2518.05 L 1714.68,2531.36 L 1716.14,2545.28 L 1714.68,2559.19 L 1710.36,2572.5 L 1703.36,2584.62 L 1694,2595.01 L 1682.68,2603.24 L 1669.89,2608.93 L 1656.21,2611.84 L 1642.22,2611.84 L 1628.53,2608.93 L 1615.75,2603.24 L 1604.43,2595.01 L 1595.09,2584.65 L 1372.05,2584.65 L 1364.37,2583.89 L 1356.98,2581.65 L 1350.17,2578.01 L 1344.21,2573.12 L 983.578,2212.49 L 978.682,2206.52 L 975.044,2199.71 L 972.803,2192.33 L 972.047,2184.65 L 972.047,2130.09 L 514.793,1672.84 L 452.361,1672.84 L 444.175,1671.98 L 436.347,1669.43 L 429.22,1665.32 L 423.103,1659.81 L 418.265,1653.15 L 414.918,1645.63 L 413.206,1637.58 L 413.206,1629.35 L 414.918,1621.3 L 417.559,1615.37 L 396.765,1594.57 L 395.296,1592.78 L 394.205,1590.74 L 393.533,1588.53 L 393.306,1586.22 L 393.307,1365.74 z " style="fill-opacity:1.000000;fill:rgb(242,251,227);stroke:rgb(0,0,0);stroke-width:2"/></g>
<g fill-rule="evenodd"><path d="M 733.498,707.219 L 629.805,810.911 L 623.839,815.807 L 617.033,819.445 L 609.647,821.685 L 601.967,822.442 L 381.495,822.442 L 373.309,821.581 L 365.481,819.038 L 363.421,817.848 L 338.188,843.082 L 338.189,1074.41 L 314.567,1074.41 L 314.566,838.19 L 314.793,835.885 L 315.465,833.67 L 316.556,831.628 L 318.025,829.838 L 346.693,801.17 L 344.052,795.238 L 342.34,787.187 L 342.34,778.956 L 344.052,770.906 L 347.399,763.387 L 352.237,756.728 L 358.354,751.22 L 365.481,747.105 L 373.309,744.562 L 381.495,743.701 L 585.659,743.701 L 677.842,651.52 L 676.772,641.339 L 678.234,627.423 L 682.558,614.116 L 689.554,601.999 L 698.916,591.601 L 704.33,587.667 L 704.33,419.42 L 698.916,415.486 L 689.554,405.088 L 682.558,392.971 L 678.234,379.663 L 676.772,365.748 L 678.234,351.833 L 682.558,338.526 L 689.554,326.408 L 698.916,316.01 L 710.236,307.786 L 723.019,302.095 L 736.705,299.186 L 750.697,299.186 L 764.383,302.095 L 777.165,307.786 L 788.485,316.01 L 797.848,326.408 L 804.844,338.526 L 809.167,351.833 L 810.63,365.748 L 809.167,379.663 L 804.844,392.971 L 797.848,405.088 L 788.485,415.486 L 783.071,419.42 L 783.071,587.667 L 788.485,591.601 L 797.848,601.999 L 804.844,614.116 L 809.167,627.423 L 810.63,641.339 L 809.167,655.254 L 804.844,668.561 L 797.848,680.679 L 788.485,691.077 L 777.165,699.301 L 764.383,704.992 L 750.697,707.901 L 736.705,707.901 L 733.498,707.219 z " style="fill-opacity:1.000000;fill:rgb(70,124,194);stroke:rgb(0,0,0);stroke-width:2"/></g>
<g fill-rule="evenodd"><path d="M 1595.09,3384.65 L 1313.78,3384.65 L 1306.1,3383.89 L 1298.71,3381.65 L 1291.91,3378.01 L 1285.94,3373.12 L 1181.13,3268.3 L 1169.25,3270.83 L 1152.79,3270.83 L 1136.69,3267.41 L 1121.65,3260.71 L 1108.34,3251.04 L 1097.32,3238.8 L 1089.09,3224.55 L 1084,3208.89 L 1082.28,3192.52 L 1084,3176.15 L 1089.09,3160.49 L 1097.32,3146.24 L 1108.34,3134 L 1121.65,3124.33 L 1136.69,3117.63 L 1152.79,3114.21 L 1169.25,3114.21 L 1185.36,3117.63 L 1200.39,3124.33 L 1213.71,3134 L 1224.73,3146.24 L 1232.96,3160.49 L 1238.04,3176.15 L 1239.76,3192.52 L 1238.04,3208.89 L 1236.82,3212.64 L 1330.09,3305.91 L 1595.09,3305.91 L 1604.43,3295.54 L 1615.75,3287.31 L 1628.53,3281.62 L 1642.22,3278.71 L 1656.21,3278.71 L 1669.89,3281.62 L 1682.68,3287.31 L 1694,3295.54 L 1703.36,3305.94 L 1710.36,3318.05 L 1714.68,3331.36 L 1716.14,3345.28 L 1714.68,3359.19 L 1710.36,3372.5 L 1703.36,3384.62 L 1694,3395.01 L 1682.68,3403.24 L 1669.89,3408.93 L 1656.21,3411.84 L 1642.22,3411.84 L 1628.53,3408.93 L 1615.75,3403.24 L 1604.43,3395.01 L 1595.09,3384.65 z " style="fill-opacity:1.000000;fill:rgb(84,248,27);stroke:rgb(0,0,0);stroke-width:2"/></g>
<g fill-rule="evenodd"><path d="M 1585.72,3725.28 L 1588.07,3718.05 L 1595.07,3705.94 L 1604.43,3695.54 L 1615.75,3687.31 L 1628.53,3681.62 L 1642.22,3678.71 L 1656.21,3678.71 L 1669.89,3681.62 L 1682.68,3687.31 L 1694,3695.54 L 1703.36,3705.94 L 1710.36,3718.05 L 1714.68,3731.36 L 1716.14,3745.28 L 1714.68,3759.19 L 1710.36,3772.5 L 1703.36,3784.62 L 1694,3795.01 L 1682.68,3803.24 L 1669.89,3808.93 L 1656.21,3811.84 L 1642.22,3811.84 L 1628.53,3808.93 L 1615.75,3803.24 L 1604.43,3795.01 L 1595.07,3784.62 L 1588.07,3772.5 L 1585.72,3765.28 L 1551.29,3765.28 L 1546.47,3774.41 L 1548.58,3781.35 L 1557.69,3800.47 L 1570.21,3817.27 L 1585.78,3831.3 L 1595.75,3837.47 L 1597.09,3838.97 L 1598.11,3840.71 L 1598.76,3842.61 L 1599.01,3844.61 L 1598.86,3846.61 L 1598.31,3848.55 L 1597.39,3850.34 L 1596.12,3851.9 L 1581.05,3862.22 L 1566.15,3877.11 L 1554.45,3894.63 L 1546.39,3914.09 L 1542.28,3934.74 L 1542.28,3955.81 L 1546.39,3976.47 L 1554.45,3995.93 L 1566.15,4013.44 L 1581.05,4028.33 L 1595.48,4038.21 L 1597.64,4041.45 L 1598.4,4045.28 L 1597.64,4049.1 L 1595.48,4052.35 L 1581.05,4062.22 L 1566.15,4077.11 L 1554.45,4094.63 L 1546.39,4114.09 L 1542.28,4134.74 L 1542.28,4155.81 L 1546.39,4176.47 L 1554.45,4195.93 L 1566.16,4213.44 L 1568.16,4215.72 L 1569.65,4219.32 L 1569.84,4221.27 L 1569.84,4501.96 L 1569.08,4505.79 L 1566.91,4509.03 L 1241.31,4834.63 L 1238.07,4836.8 L 1234.24,4837.56 L 796.467,4837.56 L 792.64,4836.8 L 789.396,4834.63 L 411.196,4456.43 L 408.363,4453.06 L 396.278,4443.14 L 382.489,4435.77 L 367.527,4431.23 L 351.968,4429.7 L 347.579,4430.08 L 157.875,4430.08 L 155.796,4429.86 L 152.875,4428.74 L 151.183,4427.51 L 149.214,4425.08 L 148.364,4423.17 L 147.875,4420.08 L 147.875,1939.59 L 148.636,1935.77 L 150.804,1932.52 L 152.319,1931.28 L 155.924,1929.79 L 157.875,1929.59 L 161.702,1930.35 L 164.946,1932.52 L 166.189,1934.04 L 179.028,1953.25 L 195.567,1969.79 L 215.014,1982.79 L 236.624,1991.74 L 259.563,1996.3 L 282.955,1996.3 L 305.893,1991.74 L 327.504,1982.79 L 346.953,1969.79 L 363.491,1953.25 L 376.485,1933.81 L 385.435,1912.19 L 389.999,1889.25 L 389.999,1865.86 L 385.435,1842.92 L 376.485,1821.32 L 363.491,1801.87 L 361.379,1799.52 L 359.895,1796.17 L 359.716,1792.51 L 360.864,1789.04 L 367.95,1780.14 L 375.319,1766.35 L 379.857,1751.39 L 381.39,1735.83 L 381.256,1732.87 L 382.143,1729.47 L 384.153,1726.58 L 400.235,1710.5 L 402.56,1708.53 L 405.407,1705.36 L 407.037,1704.27 L 410.771,1703.14 L 414.654,1703.52 L 421.84,1707.15 L 436.801,1711.69 L 448.465,1712.84 L 494.083,1712.84 L 497.91,1713.6 L 501.154,1715.76 L 567.542,1782.15 L 569.71,1785.4 L 570.471,1789.22 L 569.709,1793.05 L 568.785,1794.78 L 567.542,1796.29 L 564.297,1798.46 L 543.71,1802.75 L 522.101,1811.7 L 502.654,1824.7 L 486.114,1841.24 L 473.119,1860.69 L 464.168,1882.29 L 459.605,1905.23 L 459.605,1919.28 L 459.413,1921.23 L 457.919,1924.84 L 367.846,2015.18 L 364.469,2018.02 L 354.551,2030.1 L 350.58,2037.53 L 347.182,2043.89 L 342.644,2058.85 L 341.111,2074.41 L 341.495,2078.8 L 341.495,2593.76 L 341.303,2595.71 L 339.81,2599.31 L 329.594,2614.6 L 321.83,2633.34 L 317.873,2653.24 L 317.873,2673.53 L 321.83,2693.43 L 329.595,2712.17 L 340.866,2729.04 L 355.211,2743.39 L 372.08,2754.66 L 390.823,2762.42 L 410.722,2766.38 L 431.01,2766.38 L 450.907,2762.42 L 469.65,2754.66 L 486.518,2743.39 L 500.865,2729.04 L 512.135,2712.17 L 519.899,2693.43 L 523.857,2673.53 L 523.857,2653.24 L 519.899,2633.34 L 512.135,2614.6 L 501.92,2599.31 L 500.996,2597.58 L 500.235,2593.76 L 500.427,2109.48 L 501.92,2105.87 L 503.164,2104.36 L 570.437,2037.35 L 572.166,2036.43 L 575.993,2035.67 L 590.041,2035.67 L 612.979,2031.11 L 634.59,2022.16 L 654.038,2009.16 L 670.578,1992.62 L 683.571,1973.18 L 692.523,1951.57 L 696.814,1930.98 L 697.738,1929.25 L 700.497,1926.49 L 704.102,1925 L 706.053,1924.81 L 709.879,1925.57 L 713.124,1927.73 L 802.73,2017.34 L 804.897,2020.58 L 805.659,2024.41 L 805.467,2026.36 L 803.973,2029.97 L 802.73,2031.48 L 799.486,2033.65 L 797.61,2034.22 L 794.996,2034.41 L 772.058,2038.97 L 750.447,2047.93 L 730.999,2060.92 L 714.461,2077.46 L 701.467,2096.91 L 692.515,2118.51 L 687.953,2141.46 L 687.953,2164.84 L 692.515,2187.79 L 701.467,2209.4 L 714.461,2228.84 L 725.637,2240.29 L 726.562,2242.02 L 727.323,2245.85 L 727.323,2618.1 L 726.561,2621.93 L 721.83,2633.34 L 717.873,2653.24 L 717.873,2673.53 L 721.831,2693.43 L 729.594,2712.17 L 740.866,2729.04 L 755.212,2743.39 L 772.08,2754.66 L 790.823,2762.42 L 810.722,2766.38 L 831.01,2766.38 L 850.908,2762.42 L 869.65,2754.66 L 886.517,2743.39 L 900.865,2729.04 L 912.135,2712.17 L 919.899,2693.43 L 923.857,2673.53 L 923.857,2653.24 L 919.899,2633.34 L 912.135,2614.6 L 900.865,2597.73 L 887.748,2584.35 L 886.824,2582.62 L 886.063,2578.79 L 886.063,2245.85 L 886.255,2243.9 L 887.748,2240.29 L 898.923,2228.84 L 911.919,2209.39 L 916.084,2199.88 L 917.398,2198.32 L 919.003,2197.06 L 920.83,2196.15 L 922.805,2195.63 L 924.844,2195.52 L 926.862,2195.83 L 928.776,2196.54 L 930.505,2197.62 L 931.978,2199.04 L 933.133,2200.72 L 933.922,2202.61 L 937.732,2215.17 L 945.103,2228.95 L 955.022,2241.04 L 958.398,2243.87 L 1312.82,2598.29 L 1315.65,2601.67 L 1327.74,2611.59 L 1341.53,2618.96 L 1356.49,2623.5 L 1372.05,2625.03 L 1376.44,2624.65 L 1575.17,2624.84 L 1578.77,2626.33 L 1581.05,2628.33 L 1595.48,2638.21 L 1597.64,2641.45 L 1598.4,2645.28 L 1597.64,2649.1 L 1596.72,2650.83 L 1593.96,2653.59 L 1581.05,2662.22 L 1578.77,2664.22 L 1577.05,2665.14 L 1573.22,2665.91 L 1218.96,2665.91 L 1214.57,2665.52 L 1199.01,2667.05 L 1184.05,2671.59 L 1170.26,2678.96 L 1158.17,2688.88 L 1155.34,2692.26 L 846.096,3001.23 L 844.368,3002.15 L 840.541,3002.91 L 724.467,3002.91 L 720.078,3002.53 L 704.519,3004.06 L 689.558,3008.6 L 675.768,3015.97 L 663.683,3025.89 L 660.85,3029.26 L 533.2,3156.91 L 529.825,3159.75 L 521.727,3169.31 L 518.286,3171.15 L 514.403,3171.54 L 510.669,3170.4 L 506.189,3166.98 L 499.24,3163.26 L 491.7,3160.97 L 483.366,3160.15 L 358.364,3160.15 L 350.031,3160.97 L 342.492,3163.26 L 335.543,3166.97 L 329.453,3171.97 L 321.875,3181.53 L 318.803,3183.38 L 315.279,3184.02 L 283.523,3184.02 L 279.131,3183.63 L 263.573,3185.16 L 248.613,3189.7 L 234.823,3197.07 L 222.738,3206.99 L 219.905,3210.37 L 202.491,3227.78 L 199.117,3230.61 L 189.198,3242.7 L 181.828,3256.49 L 177.29,3271.45 L 175.757,3287.01 L 176.141,3291.4 L 176.141,4087.34 L 175.757,4091.73 L 177.29,4107.3 L 181.828,4122.26 L 189.198,4136.04 L 199.115,4148.13 L 202.492,4150.96 L 212.032,4160.5 L 214.865,4163.88 L 226.95,4173.8 L 240.739,4181.16 L 255.699,4185.7 L 271.258,4187.24 L 275.649,4186.85 L 307.405,4186.85 L 310.927,4187.49 L 312.546,4188.27 L 315.237,4190.63 L 316.58,4192.8 L 321.578,4198.89 L 331.139,4206.47 L 332.98,4209.55 L 333.621,4213.07 L 333.621,4306.24 L 333.237,4310.63 L 334.77,4326.19 L 339.308,4341.15 L 346.678,4354.94 L 356.597,4367.03 L 359.972,4369.86 L 704.946,4714.83 L 707.779,4718.21 L 719.864,4728.12 L 733.653,4735.5 L 748.612,4740.03 L 764.174,4741.57 L 768.561,4741.18 L 1112.54,4741.18 L 1116.93,4741.57 L 1132.49,4740.03 L 1147.45,4735.5 L 1161.24,4728.12 L 1173.32,4718.2 L 1183.24,4706.12 L 1190.61,4692.33 L 1195.15,4677.37 L 1196.68,4661.81 L 1196.3,4657.42 L 1196.3,4504.73 L 1196.49,4502.78 L 1197.98,4499.18 L 1199.99,4496.9 L 1211.69,4479.39 L 1219.75,4459.93 L 1223.86,4439.27 L 1223.86,4418.21 L 1219.75,4397.55 L 1211.69,4378.09 L 1199.99,4360.58 L 1185.09,4345.68 L 1167.58,4333.98 L 1148.12,4325.92 L 1127.46,4321.81 L 1106.39,4321.81 L 1085.74,4325.92 L 1066.28,4333.98 L 1048.77,4345.68 L 1037.48,4356.67 L 1035.65,4357.61 L 1033.67,4358.16 L 1031.62,4358.29 L 1029.58,4358 L 1027.65,4357.3 L 1025.9,4356.21 L 1024.41,4354.79 L 1023.24,4353.1 L 1022.44,4351.2 L 1020.99,4346.43 L 1017.28,4339.48 L 1012.28,4333.39 L 1006.19,4328.39 L 999.239,4324.68 L 991.699,4322.39 L 983.366,4321.57 L 924.194,4321.38 L 922.318,4320.81 L 919.074,4318.64 L 894.046,4293.34 L 893.122,4291.61 L 892.361,4287.79 L 892.553,4175.16 L 894.046,4171.55 L 904.26,4156.27 L 912.025,4137.52 L 915.983,4117.62 L 915.983,4097.34 L 912.025,4077.44 L 904.26,4058.7 L 892.991,4041.83 L 878.644,4027.48 L 861.776,4016.21 L 843.03,4008.45 L 836.488,4006.99 L 833.494,4005.15 L 793.728,3955.08 L 792.128,3952.16 L 791.575,3948.88 L 791.575,3645.73 L 791.958,3641.34 L 790.426,3625.78 L 789.138,3620.81 L 789.168,3618.75 L 789.617,3616.74 L 790.468,3614.87 L 791.684,3613.21 L 793.214,3611.84 L 794.992,3610.81 L 796.944,3610.16 L 798.988,3609.92 L 801.036,3610.11 L 805.247,3611.06 L 806.599,3611.65 L 820.266,3618.96 L 835.227,3623.5 L 850.788,3625.03 L 855.177,3624.65 L 1575.17,3624.84 L 1578.77,3626.33 L 1581.05,3628.33 L 1596.12,3638.65 L 1597.39,3640.22 L 1598.31,3642 L 1598.86,3643.94 L 1599.01,3645.94 L 1598.76,3647.94 L 1598.11,3649.85 L 1597.09,3651.58 L 1595.75,3653.08 L 1585.78,3659.26 L 1570.21,3673.28 L 1557.69,3690.08 L 1548.58,3709.21 L 1546.47,3716.14 L 1551.29,3725.28 L 1585.72,3725.28 z " style="fill-opacity:1.000000;fill:rgb(232,231,141);stroke:rgb(0,0,0);stroke-width:2"/></g>
<g fill-rule="evenodd"><path d="M 1712.7,2965.28 L 1710.36,2972.5 L 1703.36,2984.62 L 1694,2995.01 L 1682.68,3003.24 L 1669.89,3008.93 L 1656.21,3011.84 L 1642.22,3011.84 L 1628.53,3008.93 L 1615.75,3003.24 L 1604.43,2995.01 L 1595.07,2984.62 L 1588.07,2972.5 L 1585.72,2965.28 L 1551.29,2965.28 L 1546.47,2974.41 L 1548.58,2981.35 L 1557.69,3000.47 L 1570.21,3017.27 L 1585.78,3031.3 L 1595.75,3037.47 L 1597.09,3038.97 L 1598.11,3040.71 L 1598.76,3042.61 L 1599.01,3044.61 L 1598.86,3046.61 L 1598.31,3048.55 L 1597.39,3050.34 L 1596.12,3051.9 L 1581.05,3062.22 L 1566.15,3077.12 L 1554.45,3094.63 L 1546.39,3114.09 L 1542.28,3134.74 L 1542.28,3155.81 L 1546.39,3176.47 L 1554.45,3195.93 L 1566.15,3213.44 L 1581.05,3228.33 L 1595.48,3238.21 L 1596.72,3239.72 L 1598.21,3243.33 L 1598.21,3247.23 L 1597.64,3249.1 L 1595.48,3252.35 L 1581.05,3262.22 L 1578.77,3264.22 L 1575.17,3265.71 L 1350.8,3265.91 L 1346.97,3265.14 L 1343.73,3262.98 L 1281.45,3200.43 L 1279.95,3196.82 L 1279.76,3194.87 L 1279.76,3180.83 L 1275.2,3157.88 L 1266.25,3136.28 L 1253.25,3116.83 L 1236.71,3100.29 L 1217.27,3087.3 L 1195.66,3078.34 L 1172.72,3073.78 L 1149.33,3073.78 L 1126.39,3078.34 L 1104.78,3087.3 L 1085.33,3100.29 L 1068.79,3116.83 L 1055.8,3136.28 L 1046.85,3157.88 L 1042.28,3180.83 L 1042.28,3204.21 L 1046.85,3227.16 L 1055.8,3248.77 L 1068.79,3268.21 L 1085.33,3284.75 L 1104.78,3297.75 L 1126.39,3306.7 L 1149.33,3311.26 L 1163.37,3311.26 L 1165.33,3311.45 L 1168.93,3312.95 L 1254.55,3398.29 L 1257.38,3401.67 L 1269.47,3411.59 L 1283.26,3418.96 L 1298.22,3423.5 L 1313.78,3425.03 L 1318.17,3424.65 L 1575.17,3424.84 L 1578.77,3426.33 L 1581.05,3428.33 L 1595.48,3438.21 L 1597.64,3441.45 L 1598.4,3445.28 L 1597.64,3449.1 L 1595.48,3452.35 L 1581.05,3462.22 L 1578.77,3464.22 L 1577.05,3465.14 L 1573.22,3465.91 L 913.931,3465.91 L 910.107,3465.15 L 906.864,3462.98 L 905.62,3461.47 L 904.263,3458.7 L 892.991,3441.83 L 878.644,3427.48 L 861.776,3416.21 L 843.032,3408.45 L 823.136,3404.49 L 802.847,3404.49 L 789.691,3407.11 L 786.695,3407.24 L 783.553,3406.38 L 781.757,3405.31 L 780.222,3403.89 L 778.605,3401.36 L 777.959,3399.38 L 777.741,3397.3 L 777.741,3371.97 L 777.934,3370.01 L 779.437,3366.4 L 782.211,3363.64 L 783.949,3362.71 L 787.792,3361.97 L 810.721,3366.38 L 831.01,3366.38 L 850.908,3362.42 L 869.65,3354.66 L 886.519,3343.39 L 900.865,3329.04 L 912.135,3312.17 L 919.899,3293.43 L 923.857,3273.53 L 923.857,3253.24 L 919.899,3233.34 L 912.135,3214.6 L 900.865,3197.73 L 886.518,3183.39 L 880.758,3179.54 L 879.185,3178.24 L 877.91,3176.64 L 876.984,3174.82 L 876.448,3172.85 L 876.323,3170.81 L 876.615,3168.79 L 877.311,3166.87 L 878.382,3165.14 L 879.784,3163.65 L 881.458,3162.48 L 883.335,3161.68 L 893.117,3160.51 L 908.079,3155.97 L 921.866,3148.6 L 933.953,3138.68 L 936.786,3135.3 L 1244.51,2827.58 L 1247.76,2825.41 L 1251.58,2824.65 L 1575.17,2824.84 L 1578.77,2826.33 L 1581.05,2828.33 L 1596.12,2838.65 L 1597.39,2840.22 L 1598.31,2842 L 1598.86,2843.94 L 1599.01,2845.94 L 1598.76,2847.94 L 1598.11,2849.85 L 1597.09,2851.58 L 1595.75,2853.08 L 1585.78,2859.25 L 1570.21,2873.28 L 1557.69,2890.08 L 1548.58,2909.21 L 1546.47,2916.14 L 1551.29,2925.28 L 1585.72,2925.28 L 1588.07,2918.05 L 1595.07,2905.94 L 1604.43,2895.54 L 1615.75,2887.31 L 1628.53,2881.62 L 1642.22,2878.71 L 1656.21,2878.71 L 1669.89,2881.62 L 1682.68,2887.31 L 1694,2895.54 L 1703.36,2905.94 L 1710.36,2918.05 L 1712.7,2925.28 L 1747.13,2925.28 L 1751.95,2916.14 L 1749.85,2909.2 L 1740.74,2890.08 L 1728.21,2873.28 L 1712.64,2859.25 L 1702.67,2853.08 L 1701.33,2851.58 L 1700.31,2849.84 L 1699.66,2847.94 L 1699.41,2845.94 L 1699.56,2843.94 L 1700.11,2842 L 1701.03,2840.22 L 1702.3,2838.65 L 1717.37,2828.33 L 1732.27,2813.44 L 1743.97,2795.93 L 1752.03,2776.47 L 1756.14,2755.81 L 1756.14,2734.75 L 1752.03,2714.09 L 1743.97,2694.63 L 1732.27,2677.11 L 1717.37,2662.22 L 1702.95,2652.35 L 1700.78,2649.1 L 1700.02,2645.28 L 1700.78,2641.45 L 1702.95,2638.21 L 1717.37,2628.33 L 1732.27,2613.44 L 1743.97,2595.93 L 1752.03,2576.47 L 1756.14,2555.81 L 1756.14,2534.75 L 1752.03,2514.09 L 1743.97,2494.63 L 1732.27,2477.11 L 1717.37,2462.22 L 1702.95,2452.35 L 1700.78,2449.1 L 1700.02,2445.28 L 1700.78,2441.45 L 1702.95,2438.21 L 1717.38,2428.33 L 1719.65,2426.33 L 1721.38,2425.41 L 1725.2,2424.65 L 1749.2,2424.65 L 1753.03,2425.41 L 1756.27,2427.58 L 1779.51,2450.81 L 1781.68,2454.06 L 1782.44,2457.89 L 1782.44,3005.9 L 1781.68,3009.72 L 1779.51,3012.97 L 1730.89,3061.59 L 1729.35,3062.84 L 1725.71,3064.34 L 1723.74,3064.52 L 1719.88,3063.71 L 1702.3,3051.9 L 1701.03,3050.34 L 1700.11,3048.55 L 1699.56,3046.61 L 1699.41,3044.61 L 1699.66,3042.61 L 1700.31,3040.71 L 1701.33,3038.97 L 1702.67,3037.47 L 1712.64,3031.3 L 1728.21,3017.27 L 1740.74,3000.47 L 1749.85,2981.35 L 1751.95,2974.41 L 1747.13,2965.28 L 1712.7,2965.28 z " style="fill-opacity:1.000000;fill:rgb(118,90,46);stroke:rgb(0,0,0);stroke-width:2"/></g>
<g fill-rule="evenodd"><path d="M 1595.09,1984.65 L 1134.25,1984.65 L 1126.57,1983.89 L 1119.18,1981.65 L 1112.38,1978.01 L 1106.41,1973.12 L 1094.51,1961.22 L 1082.64,1963.74 L 1066.18,1963.74 L 1050.08,1960.32 L 1035.04,1953.62 L 1021.72,1943.95 L 1010.71,1931.72 L 1002.48,1917.46 L 997.39,1901.8 L 995.669,1885.43 L 997.39,1869.06 L 1002.48,1853.41 L 1010.71,1839.15 L 1021.72,1826.92 L 1035.04,1817.24 L 1050.08,1810.55 L 1066.18,1807.12 L 1082.64,1807.12 L 1098.74,1810.55 L 1113.78,1817.24 L 1127.1,1826.92 L 1138.11,1839.15 L 1146.34,1853.41 L 1151.43,1869.06 L 1153.15,1885.43 L 1151.43,1901.8 L 1150.21,1905.56 L 1150.56,1905.91 L 1595.09,1905.91 L 1604.43,1895.54 L 1615.75,1887.31 L 1628.53,1881.62 L 1642.22,1878.71 L 1656.21,1878.71 L 1669.89,1881.62 L 1682.68,1887.31 L 1694,1895.54 L 1703.36,1905.94 L 1710.36,1918.05 L 1714.68,1931.36 L 1716.14,1945.28 L 1714.68,1959.19 L 1710.36,1972.5 L 1703.36,1984.62 L 1694,1995.01 L 1682.68,2003.24 L 1669.89,2008.93 L 1656.21,2011.84 L 1642.22,2011.84 L 1628.53,2008.93 L 1615.75,2003.24 L 1604.43,1995.01 L 1595.09,1984.65 z " style="fill-opacity:1.000000;fill:rgb(99,51,159);stroke:rgb(0,0,0);stroke-width:2"/></g>
<g fill-rule="evenodd"><path d="M 1712.7,1325.28 L 1747.13,1325.28 L 1751.95,1316.14 L 1749.85,1309.2 L 1740.74,1290.08 L 1728.21,1273.28 L 1721.03,1266.56 L 1720.03,1264.93 L 1719.04,1261.24 L 1719.51,1257.45 L 1720.28,1255.69 L 1722.74,1252.77 L 1726.11,1250.98 L 1731.52,1249.34 L 1738.47,1245.62 L 1744.56,1240.63 L 1749.56,1234.54 L 1753.28,1227.59 L 1755.56,1220.05 L 1756.38,1211.71 L 1756.38,1078.84 L 1755.56,1070.51 L 1753.28,1062.97 L 1749.56,1056.02 L 1744.56,1049.93 L 1738.47,1044.93 L 1731.52,1041.21 L 1723.98,1038.93 L 1715.65,1038.11 L 1582.77,1038.11 L 1574.44,1038.93 L 1566.9,1041.21 L 1559.95,1044.93 L 1553.86,1049.93 L 1548.86,1056.02 L 1545.41,1062.12 L 1544.18,1063.42 L 1541.1,1065.26 L 1537.58,1065.91 L 1507.93,1065.91 L 1503.54,1065.52 L 1487.98,1067.06 L 1473.02,1071.59 L 1459.23,1078.96 L 1447.15,1088.89 L 1444.31,1092.26 L 1433.65,1102.93 L 1432.02,1104.24 L 1430.16,1105.19 L 1427.62,1105.8 L 1425.53,1105.8 L 1423.48,1105.37 L 1421.57,1104.52 L 1419.88,1103.29 L 1418.48,1101.74 L 1417.44,1099.92 L 1416.79,1097.94 L 1416.57,1095.86 L 1416.57,897.73 L 1417.1,894.544 L 1421.92,878.749 L 1423.45,863.189 L 1423.07,858.8 L 1423.23,751.177 L 1423.71,749.445 L 1425.55,746.373 L 1428.36,744.148 L 1432.96,741.688 L 1439.05,736.691 L 1444.05,730.598 L 1447.5,724.492 L 1448.74,723.19 L 1451.81,721.35 L 1455.33,720.71 L 1740.13,720.902 L 1742,721.471 L 1745.25,723.638 L 1779.51,757.9 L 1781.68,761.144 L 1782.44,764.972 L 1782.44,1455.91 L 1781.68,1459.73 L 1779.51,1462.98 L 1778,1464.22 L 1774.39,1465.71 L 1723.26,1465.71 L 1719.65,1464.22 L 1717.38,1462.22 L 1703.85,1453.18 L 1702.3,1451.9 L 1701.03,1450.34 L 1700.11,1448.55 L 1699.56,1446.61 L 1699.41,1444.61 L 1699.66,1442.61 L 1700.31,1440.71 L 1701.33,1438.97 L 1702.67,1437.47 L 1704.29,1436.28 L 1712.64,1431.3 L 1728.21,1417.27 L 1740.74,1400.47 L 1749.85,1381.35 L 1751.95,1374.41 L 1747.13,1365.28 L 1712.7,1365.28 L 1710.36,1372.5 L 1703.36,1384.62 L 1694,1395.01 L 1682.68,1403.24 L 1669.89,1408.93 L 1656.21,1411.84 L 1642.22,1411.84 L 1628.53,1408.93 L 1615.75,1403.24 L 1611.23,1399.96 L 1582.68,1428.51 L 1585.78,1431.3 L 1594.13,1436.28 L 1595.75,1437.47 L 1597.09,1438.97 L 1598.11,1440.71 L 1598.76,1442.61 L 1599.01,1444.61 L 1598.86,1446.61 L 1598.31,1448.55 L 1597.39,1450.34 L 1596.12,1451.9 L 1594.57,1453.18 L 1581.05,1462.22 L 1566.15,1477.11 L 1554.45,1494.63 L 1546.39,1514.09 L 1542.28,1534.74 L 1542.28,1555.81 L 1546.39,1576.47 L 1554.45,1595.93 L 1566.15,1613.44 L 1581.05,1628.33 L 1595.48,1638.21 L 1596.72,1639.72 L 1598.21,1643.33 L 1598.21,1647.23 L 1597.64,1649.1 L 1595.48,1652.35 L 1581.05,1662.22 L 1578.77,1664.22 L 1575.17,1665.71 L 1221.29,1665.71 L 1217.68,1664.22 L 1216.17,1662.98 L 1093.09,1539.9 L 1091.77,1538.27 L 1090.82,1536.41 L 1090.2,1533.74 L 1090.23,1531.65 L 1090.69,1529.61 L 1092.39,1526.53 L 1093.86,1525.05 L 1095.62,1523.92 L 1098.21,1523.02 L 1116.92,1519.3 L 1138.53,1510.35 L 1157.97,1497.35 L 1174.51,1480.81 L 1187.51,1461.36 L 1192.6,1449.56 L 1195.36,1446.8 L 1198.97,1445.31 L 1400.73,1445.12 L 1405.12,1445.5 L 1420.68,1443.97 L 1435.64,1439.43 L 1449.43,1432.06 L 1461.51,1422.14 L 1464.35,1418.77 L 1529,1354.11 L 1532.38,1351.28 L 1535.54,1347.67 L 1538.57,1345.9 L 1540.28,1345.43 L 1545.26,1345.28 L 1547.3,1345.49 L 1549.26,1346.11 L 1551.05,1347.12 L 1552.59,1348.47 L 1553.83,1350.11 L 1554.7,1351.97 L 1555.18,1353.97 L 1555.24,1356.02 L 1554.87,1358.04 L 1546.47,1374.41 L 1548.58,1381.35 L 1557.69,1400.47 L 1566.07,1411.71 L 1594.37,1383.41 L 1588.07,1372.5 L 1583.75,1359.19 L 1582.28,1345.28 L 1583.75,1331.36 L 1588.07,1318.05 L 1595.07,1305.94 L 1604.43,1295.54 L 1615.75,1287.31 L 1628.53,1281.62 L 1642.22,1278.71 L 1656.21,1278.71 L 1669.89,1281.62 L 1682.68,1287.31 L 1694,1295.54 L 1703.36,1305.94 L 1710.36,1318.05 L 1712.7,1325.28 z " style="fill-opacity:1.000000;fill:rgb(201,154,102);stroke:rgb(0,0,0);stroke-width:2"/></g>
<g fill-rule="evenodd"><path d="M 1582.28,1184.65 L 1519.85,1184.65 L 1515.35,1189.14 L 1515.35,1294.88 L 1514.6,1302.56 L 1512.36,1309.95 L 1508.72,1316.76 L 1503.82,1322.72 L 1432.96,1393.59 L 1426.99,1398.48 L 1420.18,1402.12 L 1412.8,1404.36 L 1405.12,1405.12 L 1161.02,1405.12 L 1159.3,1421.49 L 1154.22,1437.14 L 1145.99,1451.4 L 1134.97,1463.63 L 1121.65,1473.31 L 1106.62,1480 L 1090.51,1483.43 L 1074.05,1483.43 L 1057.95,1480 L 1042.91,1473.31 L 1029.6,1463.63 L 1018.58,1451.4 L 1010.35,1437.14 L 1005.26,1421.49 L 1003.54,1405.12 L 1005.26,1388.75 L 1010.35,1373.09 L 1018.58,1358.84 L 1029.6,1346.6 L 1042.91,1336.93 L 1057.95,1330.23 L 1074.05,1326.81 L 1090.51,1326.81 L 1105.45,1329.98 L 1106.59,1329.38 L 1113.97,1327.14 L 1121.65,1326.38 L 1388.81,1326.38 L 1436.61,1278.58 L 1436.61,1172.84 L 1437.37,1165.15 L 1439.61,1157.77 L 1443.25,1150.96 L 1448.14,1145 L 1475.7,1117.44 L 1481.67,1112.54 L 1488.48,1108.9 L 1495.86,1106.66 L 1503.54,1105.91 L 1582.28,1105.91 L 1582.28,1078.35 L 1716.14,1078.35 L 1716.14,1212.2 L 1582.28,1212.2 L 1582.28,1184.65 z " style="fill-opacity:1.000000;fill:rgb(50,13,183);stroke:rgb(0,0,0);stroke-width:2"/></g>
<g fill-rule="evenodd"><path d="M 1712.7,2165.28 L 1710.36,2172.5 L 1703.36,2184.62 L 1694,2195.01 L 1682.68,2203.24 L 1669.89,2208.93 L 1656.21,2211.84 L 1642.22,2211.84 L 1628.53,2208.93 L 1615.75,2203.24 L 1604.43,2195.01 L 1595.07,2184.62 L 1588.07,2172.5 L 1585.72,2165.28 L 1551.29,2165.28 L 1546.47,2174.41 L 1548.58,2181.35 L 1557.69,2200.47 L 1570.21,2217.27 L 1585.78,2231.3 L 1595.75,2237.47 L 1597.09,2238.97 L 1598.11,2240.71 L 1598.76,2242.61 L 1599.01,2244.61 L 1598.86,2246.61 L 1598.31,2248.55 L 1597.39,2250.34 L 1596.12,2251.9 L 1581.05,2262.22 L 1566.15,2277.11 L 1554.45,2294.63 L 1546.39,2314.09 L 1542.28,2334.74 L 1542.28,2355.81 L 1546.39,2376.47 L 1554.45,2395.93 L 1566.15,2413.44 L 1581.05,2428.33 L 1593.96,2436.96 L 1596.72,2439.72 L 1597.64,2441.45 L 1598.4,2445.28 L 1597.64,2449.1 L 1595.48,2452.35 L 1581.05,2462.22 L 1578.77,2464.22 L 1577.05,2465.14 L 1573.22,2465.91 L 1407.11,2465.71 L 1405.24,2465.14 L 1401.99,2462.98 L 1093.72,2154.7 L 1091.55,2151.45 L 1090.79,2147.63 L 1090.79,2118.17 L 1091.17,2113.78 L 1089.64,2098.22 L 1085.1,2083.26 L 1077.73,2069.47 L 1067.81,2057.39 L 1064.44,2054.55 L 1023.45,2013.56 L 1022.17,2011.9 L 1021.27,2010.02 L 1020.79,2007.98 L 1021.04,2004.09 L 1021.91,2001.91 L 1023.1,2000.18 L 1024.61,1998.74 L 1028.11,1997.02 L 1030.44,1996.68 L 1034.28,1997.34 L 1039.77,1999.61 L 1062.71,2004.17 L 1079.04,2004.32 L 1082.26,2005.47 L 1089.94,2011.59 L 1103.73,2018.96 L 1118.69,2023.5 L 1134.25,2025.03 L 1138.64,2024.65 L 1575.17,2024.84 L 1578.77,2026.33 L 1581.05,2028.33 L 1596.12,2038.65 L 1597.39,2040.22 L 1598.31,2042 L 1598.86,2043.94 L 1599.01,2045.94 L 1598.76,2047.94 L 1598.11,2049.85 L 1597.09,2051.58 L 1595.75,2053.08 L 1585.78,2059.25 L 1570.21,2073.28 L 1557.69,2090.08 L 1548.58,2109.21 L 1546.47,2116.14 L 1551.29,2125.28 L 1585.72,2125.28 L 1588.07,2118.05 L 1595.07,2105.94 L 1604.43,2095.54 L 1615.75,2087.31 L 1628.53,2081.62 L 1642.22,2078.71 L 1656.21,2078.71 L 1669.89,2081.62 L 1682.68,2087.31 L 1694,2095.54 L 1703.36,2105.94 L 1710.36,2118.05 L 1712.7,2125.28 L 1747.13,2125.28 L 1751.95,2116.14 L 1749.85,2109.21 L 1740.74,2090.08 L 1728.21,2073.28 L 1712.64,2059.25 L 1702.67,2053.08 L 1701.33,2051.58 L 1700.31,2049.84 L 1699.66,2047.94 L 1699.41,2045.94 L 1699.56,2043.94 L 1700.11,2042 L 1701.03,2040.22 L 1702.3,2038.65 L 1717.37,2028.33 L 1732.27,2013.44 L 1743.97,1995.93 L 1752.03,1976.47 L 1756.14,1955.81 L 1756.14,1934.74 L 1752.03,1914.09 L 1743.97,1894.63 L 1732.27,1877.11 L 1717.37,1862.22 L 1702.95,1852.35 L 1700.78,1849.1 L 1700.02,1845.28 L 1700.78,1841.45 L 1702.95,1838.21 L 1717.37,1828.33 L 1732.27,1813.44 L 1743.97,1795.93 L 1752.03,1776.47 L 1756.14,1755.81 L 1756.14,1734.74 L 1752.03,1714.09 L 1743.97,1694.63 L 1732.27,1677.11 L 1717.37,1662.22 L 1702.95,1652.35 L 1700.78,1649.1 L 1700.02,1645.28 L 1700.78,1641.45 L 1702.95,1638.21 L 1717.38,1628.33 L 1719.65,1626.33 L 1723.26,1624.84 L 1774.39,1624.84 L 1778,1626.33 L 1779.51,1627.58 L 1781.68,1630.82 L 1782.44,1634.65 L 1782.44,2234.24 L 1781.68,2238.07 L 1779.51,2241.31 L 1757.85,2262.98 L 1754.6,2265.14 L 1750.78,2265.91 L 1725.2,2265.91 L 1721.38,2265.15 L 1719.65,2264.22 L 1717.38,2262.22 L 1703.85,2253.18 L 1702.3,2251.9 L 1701.03,2250.34 L 1700.11,2248.55 L 1699.56,2246.61 L 1699.41,2244.61 L 1699.66,2242.61 L 1700.31,2240.71 L 1701.33,2238.97 L 1702.67,2237.47 L 1704.29,2236.28 L 1712.64,2231.3 L 1728.21,2217.27 L 1740.74,2200.47 L 1749.85,2181.35 L 1751.95,2174.41 L 1747.13,2165.28 L 1712.7,2165.28 z " style="fill-opacity:1.000000;fill:rgb(49,88,163);stroke:rgb(0,0,0);stroke-width:2"/></g>
<g fill-rule="evenodd"><path d="M 905.676,4361.81 L 983.858,4361.81 L 983.858,4495.67 L 850,4495.67 L 850,4417.49 L 785.152,4352.64 L 780.256,4346.68 L 776.618,4339.87 L 774.377,4332.48 L 773.621,4324.8 L 773.621,4156.31 L 770.842,4154.29 L 762.03,4144.51 L 755.446,4133.1 L 751.377,4120.58 L 750,4107.48 L 751.694,4093.41 L 681.313,4004.33 L 677.683,3998.85 L 675.015,3992.84 L 673.383,3986.47 L 672.835,3979.92 L 672.835,3657.65 L 625.954,3610.77 L 621.058,3604.8 L 617.42,3598 L 615.179,3590.61 L 614.423,3582.93 L 614.445,3564.57 L 617.715,3467.45 L 617.715,3444.49 L 618.471,3436.81 L 620.712,3429.42 L 624.35,3422.62 L 629.246,3416.65 L 659.001,3386.9 L 659.001,3296.8 L 659.757,3289.12 L 661.998,3281.73 L 665.636,3274.92 L 670.532,3268.96 L 703.942,3235.55 L 709.908,3230.65 L 716.714,3227.01 L 724.1,3224.77 L 731.781,3224.02 L 772.014,3224.02 L 778.716,3216.57 L 789.37,3208.83 L 801.401,3203.48 L 814.282,3200.74 L 827.451,3200.74 L 840.332,3203.48 L 852.362,3208.83 L 863.016,3216.57 L 871.828,3226.36 L 878.412,3237.76 L 882.482,3250.29 L 883.858,3263.39 L 882.482,3276.48 L 878.412,3289.01 L 871.828,3300.41 L 863.016,3310.2 L 852.362,3317.94 L 840.332,3323.29 L 827.451,3326.03 L 814.282,3326.03 L 801.401,3323.29 L 789.37,3317.94 L 778.716,3310.2 L 772.017,3302.76 L 748.088,3302.76 L 737.741,3313.11 L 737.741,3403.2 L 736.984,3410.88 L 734.744,3418.27 L 731.106,3425.08 L 726.21,3431.04 L 696.455,3460.8 L 696.433,3469.44 L 693.163,3566.62 L 740.043,3613.5 L 744.939,3619.47 L 748.578,3626.27 L 750.818,3633.66 L 751.575,3641.34 L 751.575,3966.25 L 813.668,4044.83 L 819.577,4044.83 L 832.458,4047.57 L 844.488,4052.93 L 855.142,4060.67 L 863.954,4070.45 L 870.538,4081.86 L 874.608,4094.38 L 875.984,4107.48 L 874.608,4120.58 L 870.538,4133.1 L 863.954,4144.51 L 855.142,4154.29 L 852.361,4156.31 L 852.361,4308.5 L 905.676,4361.81 z " style="fill-opacity:1.000000;fill:rgb(90,37,93);stroke:rgb(0,0,0);stroke-width:2"/></g>
<g fill-rule="evenodd"><path d="M 875.819,3505.91 L 1595.09,3505.91 L 1604.43,3495.54 L 1615.75,3487.31 L 1628.53,3481.62 L 1642.22,3478.71 L 1656.21,3478.71 L 1669.89,3481.62 L 1682.68,3487.31 L 1694,3495.54 L 1703.36,3505.94 L 1710.36,3518.05 L 1714.68,3531.36 L 1716.14,3545.28 L 1714.68,3559.19 L 1710.36,3572.5 L 1703.36,3584.62 L 1694,3595.01 L 1682.68,3603.24 L 1669.89,3608.93 L 1656.21,3611.84 L 1642.22,3611.84 L 1628.53,3608.93 L 1615.75,3603.24 L 1604.43,3595.01 L 1595.09,3584.65 L 850.787,3584.65 L 843.106,3583.89 L 835.72,3581.65 L 828.914,3578.01 L 822.948,3573.12 L 819.892,3570.06 L 806.408,3570.13 L 793.526,3567.39 L 781.496,3562.03 L 770.842,3554.29 L 762.03,3544.51 L 755.446,3533.1 L 751.377,3520.58 L 750,3507.48 L 751.377,3494.38 L 755.446,3481.86 L 762.03,3470.45 L 770.842,3460.67 L 781.496,3452.93 L 793.526,3447.57 L 806.408,3444.83 L 819.577,3444.83 L 832.458,3447.57 L 844.488,3452.93 L 855.142,3460.67 L 863.954,3470.45 L 870.538,3481.86 L 874.608,3494.38 L 875.819,3505.91 z " style="fill-opacity:1.000000;fill:rgb(5,23,88);stroke:rgb(0,0,0);stroke-width:2"/></g>
<g fill-rule="evenodd"><path d="M 381.495,2614.55 L 381.495,2074.41 L 382.251,2066.73 L 384.492,2059.34 L 388.13,2052.54 L 393.026,2046.57 L 502.546,1937.05 L 501.327,1933.3 L 499.606,1916.93 L 501.327,1900.56 L 506.414,1884.9 L 514.644,1870.65 L 525.659,1858.41 L 538.976,1848.74 L 554.014,1842.04 L 570.116,1838.62 L 586.577,1838.62 L 602.679,1842.04 L 617.717,1848.74 L 631.034,1858.41 L 642.049,1870.65 L 650.279,1884.9 L 655.366,1900.56 L 657.087,1916.93 L 655.366,1933.3 L 650.279,1948.96 L 642.049,1963.21 L 631.034,1975.44 L 617.717,1985.12 L 602.679,1991.82 L 586.577,1995.24 L 570.116,1995.24 L 558.239,1992.71 L 460.235,2090.72 L 460.235,2614.55 L 463.016,2616.57 L 471.828,2626.36 L 478.412,2637.76 L 482.482,2650.29 L 483.858,2663.39 L 482.482,2676.48 L 478.412,2689.01 L 471.828,2700.41 L 463.016,2710.2 L 452.362,2717.94 L 440.332,2723.29 L 427.451,2726.03 L 414.282,2726.03 L 401.401,2723.29 L 389.37,2717.94 L 378.716,2710.2 L 369.904,2700.41 L 363.32,2689.01 L 359.251,2676.48 L 357.874,2663.39 L 359.251,2650.29 L 363.32,2637.76 L 369.904,2626.36 L 378.716,2616.57 L 381.495,2614.55 z " style="fill-opacity:1.000000;fill:rgb(233,94,212);stroke:rgb(0,0,0);stroke-width:2"/></g>
<g fill-rule="evenodd"><path d="M 767.323,2630.83 L 767.322,2221.34 L 754.005,2211.66 L 742.991,2199.43 L 734.76,2185.18 L 729.673,2169.52 L 727.953,2153.15 L 729.673,2136.78 L 734.76,2121.12 L 742.991,2106.87 L 754.005,2094.63 L 767.323,2084.96 L 782.361,2078.26 L 798.462,2074.84 L 814.924,2074.84 L 831.025,2078.26 L 846.063,2084.96 L 859.38,2094.63 L 870.395,2106.87 L 878.626,2121.12 L 883.712,2136.78 L 885.433,2153.15 L 883.712,2169.52 L 878.626,2185.18 L 870.395,2199.43 L 859.38,2211.66 L 846.063,2221.34 L 846.063,2606.03 L 852.362,2608.83 L 863.016,2616.57 L 871.828,2626.36 L 878.412,2637.76 L 882.482,2650.29 L 883.858,2663.39 L 882.482,2676.48 L 878.412,2689.01 L 871.828,2700.41 L 863.016,2710.2 L 852.362,2717.94 L 840.332,2723.29 L 827.451,2726.03 L 814.282,2726.03 L 801.401,2723.29 L 789.37,2717.94 L 778.716,2710.2 L 769.904,2700.41 L 763.32,2689.01 L 759.251,2676.48 L 757.874,2663.39 L 759.251,2650.29 L 763.32,2637.76 L 767.323,2630.83 z " style="fill-opacity:1.000000;fill:rgb(171,178,205);stroke:rgb(0,0,0);stroke-width:2"/></g>
<g fill-rule="evenodd"><path d="M 475.289,3500.86 L 475.984,3507.48 L 474.608,3520.58 L 470.538,3533.1 L 463.954,3544.51 L 455.142,3554.29 L 444.488,3562.03 L 432.458,3567.39 L 419.577,3570.13 L 406.408,3570.13 L 393.526,3567.39 L 381.496,3562.03 L 370.842,3554.29 L 362.03,3544.51 L 355.446,3533.1 L 351.377,3520.58 L 350,3507.48 L 351.377,3494.38 L 355.446,3481.86 L 362.03,3470.45 L 370.842,3460.67 L 381.496,3452.93 L 393.526,3447.57 L 406.408,3444.83 L 419.894,3444.9 L 471.766,3393.03 L 477.732,3388.13 L 484.538,3384.49 L 491.924,3382.25 L 498.984,3381.56 L 546.849,3333.69 L 546.849,3216.14 L 547.605,3208.46 L 549.846,3201.08 L 553.484,3194.27 L 558.38,3188.3 L 692.24,3054.44 L 698.206,3049.55 L 705.012,3045.91 L 712.398,3043.67 L 720.079,3042.91 L 861.251,3042.91 L 1186.73,2717.44 L 1192.69,2712.54 L 1199.5,2708.9 L 1206.89,2706.66 L 1214.57,2705.91 L 1595.09,2705.91 L 1604.43,2695.54 L 1615.75,2687.31 L 1628.53,2681.62 L 1642.22,2678.71 L 1656.21,2678.71 L 1669.89,2681.62 L 1682.68,2687.31 L 1694,2695.54 L 1703.36,2705.94 L 1710.36,2718.05 L 1714.68,2731.36 L 1716.14,2745.28 L 1714.68,2759.19 L 1710.36,2772.5 L 1703.36,2784.62 L 1694,2795.01 L 1682.68,2803.24 L 1669.89,2808.93 L 1656.21,2811.84 L 1642.22,2811.84 L 1628.53,2808.93 L 1615.75,2803.24 L 1604.43,2795.01 L 1595.09,2784.65 L 1230.87,2784.65 L 905.397,3110.12 L 899.431,3115.02 L 892.625,3118.66 L 885.239,3120.9 L 877.559,3121.65 L 736.386,3121.65 L 625.589,3232.45 L 625.589,3350 L 624.832,3357.68 L 622.592,3365.07 L 618.954,3371.87 L 614.058,3377.84 L 543.192,3448.71 L 537.226,3453.6 L 530.419,3457.24 L 523.033,3459.48 L 515.974,3460.18 L 475.289,3500.86 z " style="fill-opacity:1.000000;fill:rgb(198,155,180);stroke:rgb(0,0,0);stroke-width:2"/></g>
<g fill-rule="evenodd"><path d="M 350,4146.85 L 271.259,4146.85 L 263.578,4146.1 L 256.192,4143.85 L 249.386,4140.22 L 243.42,4135.32 L 227.672,4119.57 L 222.776,4113.61 L 219.138,4106.8 L 216.897,4099.41 L 216.141,4091.73 L 216.141,3287.01 L 216.897,3279.33 L 219.138,3271.94 L 222.776,3265.14 L 227.672,3259.17 L 251.294,3235.55 L 257.26,3230.65 L 264.066,3227.01 L 271.452,3224.77 L 279.133,3224.02 L 357.874,3224.02 L 357.874,3200.39 L 483.858,3200.39 L 483.858,3326.38 L 357.874,3326.38 L 357.874,3302.76 L 295.44,3302.76 L 294.881,3303.32 L 294.881,4068.11 L 350,4068.11 L 350,4044.49 L 475.984,4044.49 L 475.984,4170.47 L 452.361,4170.47 L 452.361,4294.32 L 780.48,4622.44 L 1077.56,4622.44 L 1077.56,4482.41 L 1072.14,4478.48 L 1062.78,4468.08 L 1055.79,4455.96 L 1051.46,4442.66 L 1050,4428.74 L 1051.46,4414.82 L 1055.79,4401.52 L 1062.78,4389.4 L 1072.14,4379 L 1083.46,4370.78 L 1096.25,4365.09 L 1109.93,4362.18 L 1123.93,4362.18 L 1137.61,4365.09 L 1150.39,4370.78 L 1161.71,4379 L 1171.08,4389.4 L 1178.07,4401.52 L 1182.4,4414.82 L 1183.86,4428.74 L 1182.4,4442.66 L 1178.07,4455.96 L 1171.08,4468.08 L 1161.71,4478.48 L 1156.3,4482.41 L 1156.3,4661.81 L 1155.54,4669.49 L 1153.3,4676.88 L 1149.66,4683.68 L 1144.77,4689.65 L 1138.8,4694.55 L 1132,4698.18 L 1124.61,4700.43 L 1116.93,4701.18 L 764.173,4701.18 L 756.492,4700.43 L 749.106,4698.18 L 742.3,4694.55 L 736.334,4689.65 L 385.152,4338.47 L 380.256,4332.5 L 376.618,4325.7 L 374.377,4318.31 L 373.621,4310.63 L 373.621,4170.47 L 350,4170.47 L 350,4146.85 z " style="fill-opacity:1.000000;fill:rgb(84,17,14);stroke:rgb(0,0,0);stroke-width:2"/></g>
<g fill-rule="evenodd"><path d="M 632.909,1125.59 L 641.337,1124.61 L 696.455,1124.61 L 704.135,1125.36 L 711.521,1127.6 L 718.328,1131.24 L 724.294,1136.14 L 741.306,1153.15 L 1294.32,1153.15 L 1297.83,1149.64 L 1297.83,869.686 L 1298.82,861.255 L 1298.91,831.879 L 1300.28,826.415 L 1302.05,823.097 L 1304.33,820.31 L 1304.33,708.268 L 1276.77,708.268 L 1276.77,574.409 L 1304.33,574.409 L 1304.33,432.677 L 1276.77,432.677 L 1276.77,298.819 L 1304.33,298.819 L 1304.33,178.903 L 1302.05,176.116 L 1300.28,172.798 L 1298.91,167.334 L 1298.82,137.549 L 1298.32,135.68 L 1297.89,127.461 L 1298.82,121.595 L 1298.82,93.6024 L 1299.65,88.0309 L 1302.05,82.9394 L 1304.44,80.0309 L 1307.35,77.644 L 1312.44,75.2359 L 1318.01,74.4094 L 1356.4,74.4094 L 1360.14,74.7783 L 1363.74,75.8704 L 1368.57,78.7661 L 1372.36,82.9394 L 1374.13,86.2576 L 1375.5,91.7211 L 1375.59,113.123 L 1376.44,114.156 L 1380.08,120.962 L 1382.31,128.346 L 1383.07,136.026 L 1383.07,298.819 L 1410.63,298.819 L 1410.63,432.677 L 1383.07,432.677 L 1383.07,574.409 L 1410.63,574.409 L 1410.63,601.97 L 1775.19,601.969 L 1782.88,602.726 L 1790.26,604.966 L 1797.07,608.604 L 1803.03,613.5 L 1889.65,700.114 L 1894.55,706.08 L 1898.18,712.887 L 1900.42,720.273 L 1901.18,727.954 L 1901.18,2271.26 L 1900.42,2278.94 L 1898.18,2286.33 L 1894.55,2293.13 L 1889.65,2299.1 L 1842.69,2346.06 L 1889.65,2393.03 L 1894.55,2398.99 L 1898.18,2405.8 L 1900.42,2413.19 L 1901.18,2420.87 L 1901.18,3042.91 L 1900.42,3050.59 L 1898.18,3057.98 L 1894.55,3064.79 L 1889.65,3070.75 L 1811.19,3149.21 L 1873.9,3211.93 L 1878.8,3217.89 L 1882.44,3224.7 L 1884.68,3232.08 L 1885.43,3239.77 L 1885.43,3885.43 L 1884.68,3893.11 L 1882.44,3900.5 L 1878.8,3907.31 L 1873.9,3913.27 L 1814.06,3973.12 L 1808.09,3978.01 L 1801.29,3981.65 L 1793.9,3983.89 L 1786.22,3984.65 L 1703.33,3984.65 L 1694,3995.01 L 1682.68,4003.24 L 1669.89,4008.93 L 1656.21,4011.84 L 1642.22,4011.84 L 1628.53,4008.93 L 1615.75,4003.24 L 1604.43,3995.01 L 1595.07,3984.62 L 1588.07,3972.5 L 1583.75,3959.19 L 1582.28,3945.28 L 1583.75,3931.36 L 1588.07,3918.05 L 1595.07,3905.94 L 1604.43,3895.54 L 1615.75,3887.31 L 1628.53,3881.62 L 1642.22,3878.71 L 1656.21,3878.71 L 1669.89,3881.62 L 1682.68,3887.31 L 1694,3895.54 L 1703.33,3905.91 L 1769.91,3905.91 L 1806.69,3869.13 L 1806.69,3256.07 L 1735.27,3184.65 L 1703.33,3184.65 L 1694,3195.01 L 1682.68,3203.24 L 1669.89,3208.93 L 1656.21,3211.84 L 1642.22,3211.84 L 1628.53,3208.93 L 1615.75,3203.24 L 1604.43,3195.01 L 1595.07,3184.62 L 1588.07,3172.5 L 1583.75,3159.19 L 1582.28,3145.28 L 1583.75,3131.36 L 1588.07,3118.05 L 1595.07,3105.94 L 1604.43,3095.54 L 1615.75,3087.31 L 1628.53,3081.62 L 1642.22,3078.71 L 1656.21,3078.71 L 1669.89,3081.62 L 1682.68,3087.31 L 1694,3095.54 L 1703.33,3105.91 L 1743.14,3105.91 L 1822.44,3026.61 L 1822.44,2437.18 L 1769.91,2384.65 L 1703.33,2384.65 L 1694,2395.01 L 1682.68,2403.24 L 1669.89,2408.93 L 1656.21,2411.84 L 1642.22,2411.84 L 1628.53,2408.93 L 1615.75,2403.24 L 1604.43,2395.01 L 1595.07,2384.62 L 1588.07,2372.5 L 1583.75,2359.19 L 1582.28,2345.28 L 1583.75,2331.36 L 1588.07,2318.05 L 1595.07,2305.94 L 1604.43,2295.54 L 1615.75,2287.31 L 1628.53,2281.62 L 1642.22,2278.71 L 1656.21,2278.71 L 1669.89,2281.62 L 1682.68,2287.31 L 1694,2295.54 L 1703.33,2305.91 L 1771.49,2305.91 L 1822.44,2254.95 L 1822.44,1607.25 L 1799.83,1584.65 L 1703.33,1584.65 L 1694,1595.01 L 1682.68,1603.24 L 1669.89,1608.93 L 1656.21,1611.84 L 1642.22,1611.84 L 1628.53,1608.93 L 1615.75,1603.24 L 1604.43,1595.01 L 1595.07,1584.62 L 1588.07,1572.5 L 1583.75,1559.19 L 1582.28,1545.28 L 1583.75,1531.36 L 1588.07,1518.05 L 1595.07,1505.94 L 1604.43,1495.54 L 1615.75,1487.31 L 1628.53,1481.62 L 1642.22,1478.71 L 1656.21,1478.71 L 1669.89,1481.62 L 1682.68,1487.31 L 1694,1495.54 L 1703.33,1505.91 L 1816.14,1505.91 L 1822.44,1506.53 L 1822.44,744.261 L 1758.89,680.71 L 1410.63,680.71 L 1410.63,708.268 L 1383.07,708.268 L 1383.07,863.19 L 1382.31,870.87 L 1380.07,878.256 L 1376.57,884.802 L 1376.57,1165.95 L 1375.82,1173.63 L 1373.58,1181.01 L 1369.94,1187.82 L 1365.04,1193.78 L 1338.47,1220.36 L 1332.5,1225.26 L 1325.7,1228.89 L 1318.31,1231.14 L 1310.63,1231.89 L 724.999,1231.89 L 717.318,1231.14 L 709.932,1228.89 L 703.126,1225.26 L 697.16,1220.36 L 680.147,1203.35 L 657.644,1203.35 L 630.946,1230.05 L 624.98,1234.94 L 618.173,1238.58 L 610.787,1240.82 L 603.107,1241.58 L 493.545,1241.58 L 485.864,1240.82 L 478.479,1238.58 L 471.673,1234.94 L 465.707,1230.05 L 440.271,1204.61 L 435.091,1198.22 L 431.354,1190.88 L 429.224,1182.93 L 428.793,1174.71 L 430.08,1166.59 L 433.029,1158.9 L 433.689,1157.88 L 432.903,1155.46 L 432.676,1153.15 L 432.677,964.173 L 456.299,964.173 L 456.298,1139.37 L 457.918,1138.75 L 466.047,1137.46 L 474.266,1137.89 L 482.216,1140.02 L 489.55,1143.75 L 495.946,1148.93 L 509.851,1162.84 L 586.22,1162.84 L 586.22,1144.78 L 586.589,1141.04 L 587.681,1137.44 L 589.455,1134.12 L 593.238,1129.95 L 598.069,1127.05 L 603.532,1125.68 L 632.909,1125.59 z " style="fill-opacity:1.000000;fill:rgb(130,116,65);stroke:rgb(0,0,0);stroke-width:2"/></g>
<g fill-rule="evenodd"><path d="M 586.26,1036.34 L 552.861,1036.34 L 546.156,1043.04 L 545.984,1054.31 L 546.798,1062.57 L 549.086,1070.11 L 552.8,1077.06 L 557.798,1083.15 L 563.159,1087.55 L 565.629,1090.55 L 566.765,1094.28 L 566.393,1098.15 L 564.569,1101.59 L 556.034,1111.79 L 551.971,1119.05 L 549.279,1121.42 L 547.66,1122.2 L 544.137,1122.84 L 530.563,1122.84 L 528.612,1122.65 L 525.007,1121.15 L 512.417,1110.46 L 500.081,1103.68 L 497.721,1100.99 L 496.46,1097.64 L 496.541,964.665 L 495.72,956.333 L 493.431,948.793 L 489.717,941.843 L 484.719,935.753 L 478.628,930.755 L 471.679,927.041 L 464.139,924.753 L 455.808,923.932 L 433.169,923.932 L 425.524,924.685 L 422.974,924.621 L 421.312,925.682 L 417.295,927.041 L 407.921,931.826 L 405.966,932.205 L 402.025,931.779 L 393.516,927.284 L 388.853,925.658 L 386.93,924.346 L 383.83,923.459 L 380.848,921.25 L 379.715,919.77 L 378.362,916.315 L 378.189,905.119 L 377.558,905.119 L 377.559,1007.48 L 393.307,1007.48 L 393.307,964.173 L 416.929,964.173 L 416.929,1074.41 L 393.307,1074.41 L 393.307,1031.1 L 377.559,1031.1 L 377.558,1098.03 L 377.331,1100.34 L 376.659,1102.55 L 375.567,1104.6 L 372.097,1108.39 L 377.348,1111.3 L 382.013,1112.93 L 383.932,1114.24 L 387.036,1115.12 L 388.63,1116.09 L 391.15,1118.81 L 392.503,1122.27 L 392.628,1151.1 L 392.184,1153.64 L 389.888,1161.21 L 388.355,1176.77 L 389.888,1192.33 L 394.426,1207.29 L 401.796,1221.08 L 409.229,1230.14 L 434.359,1255.57 L 435.301,1257.39 L 435.852,1259.36 L 435.988,1261.41 L 435.705,1263.44 L 435.013,1265.37 L 433.942,1267.12 L 432.537,1268.61 L 430.857,1269.79 L 428.973,1270.59 L 425.771,1271.12 L 416.438,1270.39 L 393.797,1270.39 L 386.411,1271.12 L 377.068,1270.39 L 354.427,1270.39 L 345.084,1271.12 L 337.698,1270.39 L 315.058,1270.39 L 307.412,1271.14 L 304.863,1271.08 L 303.201,1272.14 L 298.818,1273.69 L 298.819,1420.87 L 275.197,1420.87 L 275.196,1277.27 L 269.016,1271.09 L 266.717,1271.34 L 259.236,1273.74 L 252.347,1277.56 L 246.334,1282.66 L 241.432,1288.82 L 237.827,1295.83 L 235.657,1303.41 L 234.964,1311.79 L 235.166,1339.08 L 241.839,1345.75 L 266.276,1345.94 L 268.152,1346.51 L 271.396,1348.68 L 273.564,1351.92 L 274.133,1353.8 L 274.325,1375.75 L 274.133,1377.7 L 272.639,1381.31 L 271.396,1382.82 L 268.152,1384.99 L 264.325,1385.75 L 241.839,1385.75 L 235.166,1392.42 L 234.964,1419.71 L 235.657,1428.09 L 237.827,1435.67 L 242.069,1444.32 L 242.402,1448.18 L 241.247,1451.87 L 240.158,1453.48 L 237.159,1455.92 L 232.864,1457.42 L 219.075,1464.79 L 206.99,1474.71 L 204.158,1478.08 L 70.4558,1611.79 L 67.2116,1613.95 L 63.3847,1614.72 L 59.5579,1613.95 L 56.3137,1611.79 L 54.1459,1608.54 L 53.3847,1604.72 L 53.3847,63.3876 L 53.5769,61.4367 L 55.07,57.8319 L 56.3137,56.3165 L 59.5579,54.1488 L 63.3847,53.3876 L 1102.27,53.3876 L 1104.33,53.6018 L 1106.3,54.2353 L 1108.1,55.261 L 1109.65,56.6349 L 1110.88,58.2981 L 1111.75,60.1794 L 1112.2,62.1981 L 1112.24,64.2678 L 1110.94,74.8631 L 1111.15,102.855 L 1117.82,109.528 L 1151.18,109.528 L 1151.27,91.7211 L 1152.64,86.2576 L 1154.42,82.9394 L 1156.8,80.0309 L 1159.71,77.644 L 1164.8,75.2359 L 1170.37,74.4094 L 1208.76,74.4094 L 1214.33,75.2359 L 1219.42,77.644 L 1222.33,80.0309 L 1224.72,82.9394 L 1226.49,86.2576 L 1227.86,91.7211 L 1227.86,167.334 L 1226.49,172.798 L 1224.72,176.116 L 1222.33,179.024 L 1219.42,181.411 L 1216.1,183.185 L 1212.5,184.277 L 1209.57,184.606 L 1209.57,218.005 L 1216.27,224.71 L 1227.54,224.88 L 1235.79,224.068 L 1243.33,221.78 L 1251.52,217.644 L 1253.55,217.272 L 1255.6,217.323 L 1257.61,217.794 L 1259.47,218.665 L 1261.12,219.899 L 1262.48,221.444 L 1263.49,223.235 L 1264.12,225.195 L 1264.33,227.242 L 1264.17,255.91 L 1263.69,257.642 L 1261.85,260.712 L 1259.05,262.937 L 1254.44,265.4 L 1248.35,270.399 L 1243.35,276.49 L 1239.64,283.439 L 1238,288.846 L 1236.21,292.222 L 1233.29,294.682 L 1229.66,295.867 L 1225.85,295.605 L 1222.41,293.934 L 1215.69,286.752 L 1198.9,274.224 L 1179.77,265.115 L 1172.83,263.01 L 1163.7,267.829 L 1163.7,301.95 L 1177.17,307.786 L 1188.49,316.01 L 1197.85,326.408 L 1204.84,338.526 L 1209.17,351.833 L 1210.63,365.748 L 1209.17,379.663 L 1204.84,392.971 L 1197.85,405.088 L 1188.49,415.486 L 1183.07,419.42 L 1183.07,464.812 L 1198.9,457.273 L 1215.69,444.746 L 1221,438.86 L 1224.05,436.564 L 1225.85,435.894 L 1229.66,435.632 L 1231.53,436.05 L 1234.87,437.907 L 1237.27,440.879 L 1239.64,448.06 L 1243.35,455.008 L 1248.35,461.099 L 1254.44,466.099 L 1260.55,469.545 L 1261.85,470.784 L 1263.69,473.855 L 1264.33,477.377 L 1264.33,529.711 L 1263.69,533.234 L 1261.85,536.306 L 1259.04,538.531 L 1254.44,540.991 L 1248.35,545.989 L 1243.35,552.08 L 1239.64,559.029 L 1238,564.436 L 1236.21,567.812 L 1233.29,570.272 L 1229.66,571.457 L 1225.85,571.195 L 1222.41,569.524 L 1215.69,562.342 L 1198.9,549.814 L 1183.07,542.277 L 1183.07,587.667 L 1188.49,591.601 L 1197.85,601.999 L 1204.84,614.116 L 1209.17,627.423 L 1210.63,641.339 L 1209.17,655.254 L 1204.84,668.561 L 1197.85,680.679 L 1188.49,691.077 L 1177.17,699.301 L 1163.7,705.137 L 1163.7,739.26 L 1172.83,744.079 L 1179.77,741.974 L 1198.9,732.865 L 1215.69,720.337 L 1222.41,713.155 L 1225.85,711.484 L 1229.66,711.222 L 1233.29,712.407 L 1236.21,714.867 L 1238,718.243 L 1239.64,723.65 L 1243.35,730.599 L 1248.35,736.69 L 1254.44,741.688 L 1259.04,744.148 L 1261.85,746.373 L 1262.91,747.826 L 1264.17,751.177 L 1264.33,771.974 L 1264.12,774.021 L 1263.49,775.981 L 1262.48,777.772 L 1261.12,779.317 L 1259.47,780.551 L 1257.61,781.422 L 1255.6,781.892 L 1253.55,781.943 L 1251.52,781.571 L 1243.33,777.433 L 1235.79,775.147 L 1227.54,774.333 L 1216.27,774.505 L 1209.57,781.21 L 1209.57,814.607 L 1212.5,814.936 L 1216.1,816.028 L 1219.42,817.801 L 1222.33,820.188 L 1224.72,823.097 L 1226.49,826.415 L 1227.58,830.016 L 1227.95,833.76 L 1227.86,907.491 L 1226.49,912.955 L 1224.72,916.273 L 1222.33,919.182 L 1219.42,921.569 L 1216.1,923.342 L 1212.5,924.434 L 1209.57,924.763 L 1209.57,958.161 L 1216.27,964.866 L 1227.54,965.038 L 1235.79,964.226 L 1245.02,961.277 L 1247.04,960.905 L 1249.1,960.954 L 1251.11,961.424 L 1252.97,962.295 L 1254.62,963.529 L 1255.98,965.074 L 1256.99,966.865 L 1257.62,968.826 L 1257.83,970.873 L 1257.83,1103.15 L 1257.64,1105.1 L 1256.15,1108.71 L 1253.39,1111.47 L 1251.66,1112.39 L 1247.83,1113.15 L 979.565,1113.35 L 760.391,1113 L 758.687,1112.53 L 755.654,1110.76 L 752.849,1107.58 L 740.764,1097.66 L 730.555,1091.99 L 728.079,1088.97 L 727.329,1087.16 L 726.947,1085.24 L 727.33,1081.35 L 728.081,1079.54 L 729.877,1077.05 L 733.59,1070.11 L 735.877,1062.57 L 736.689,1054.31 L 736.518,1043.04 L 729.813,1036.34 L 696.417,1036.34 L 696.088,1039.28 L 694.996,1042.88 L 693.222,1046.19 L 690.835,1049.1 L 687.927,1051.49 L 684.609,1053.26 L 679.145,1054.63 L 605.413,1054.72 L 601.669,1054.36 L 598.069,1053.26 L 594.75,1051.49 L 591.842,1049.1 L 589.455,1046.19 L 587.681,1042.88 L 586.589,1039.28 L 586.26,1036.34M 352.576,409.68 L 375.248,394.53 L 394.529,375.249 L 409.677,352.576 L 420.113,327.387 L 425.433,300.642 L 425.433,273.375 L 420.113,246.632 L 409.677,221.44 L 394.529,198.768 L 375.248,179.487 L 352.576,164.337 L 327.384,153.903 L 300.64,148.584 L 273.373,148.584 L 246.63,153.903 L 221.437,164.338 L 198.765,179.487 L 179.484,198.768 L 164.337,221.44 L 153.9,246.632 L 148.581,273.374 L 148.581,300.643 L 153.9,327.386 L 164.336,352.576 L 179.485,375.25 L 198.765,394.53 L 221.437,409.68 L 246.63,420.114 L 273.373,425.434 L 300.64,425.434 L 327.384,420.114 L 352.576,409.68M 1126.2,783.323 L 1122.76,786.147 L 1117.76,792.238 L 1114.05,799.187 L 1111.65,807.872 L 1125.78,793.733 L 1126.2,783.323M 1156.79,179.01 L 1155.51,180.288 L 1155.51,224.821 L 1162.86,224.71 L 1169.57,218.005 L 1169.57,184.606 L 1166.63,184.277 L 1163.03,183.185 L 1159.71,181.411 L 1156.79,179.01M 1151.18,151.211 L 1151.18,149.528 L 1117.82,149.528 L 1111.15,156.2 L 1110.94,184.194 L 1111.76,192.488 L 1114.05,200.028 L 1117.76,206.977 L 1122.76,213.068 L 1128.85,218.067 L 1131.89,219.691 L 1131.89,175.396 L 1132.12,173.091 L 1132.79,170.876 L 1133.88,168.834 L 1135.35,167.044 L 1151.18,151.211M 1104.33,419.42 L 1098.92,415.486 L 1089.55,405.088 L 1082.56,392.971 L 1078.23,379.663 L 1076.77,365.748 L 1078.23,351.833 L 1082.56,338.526 L 1089.55,326.408 L 1098.92,316.01 L 1110.24,307.786 L 1123.7,301.95 L 1123.7,267.83 L 1114.57,263.01 L 1107.63,265.115 L 1088.5,274.224 L 1071.71,286.753 L 1057.68,302.316 L 1052.7,310.673 L 1051.5,312.289 L 1050,313.633 L 1048.27,314.649 L 1046.36,315.298 L 1044.37,315.552 L 1042.36,315.402 L 1040.43,314.853 L 1038.64,313.927 L 1037.07,312.663 L 1035.79,311.111 L 1026.76,297.583 L 1024.75,295.307 L 1023.83,293.579 L 1023.07,289.756 L 1023.07,275.488 L 1023.45,271.099 L 1021.92,255.538 L 1017.38,240.576 L 1010.01,226.788 L 1000.09,214.703 L 996.72,211.871 L 900.73,115.881 L 897.896,112.506 L 885.81,102.587 L 872.021,95.2149 L 857.06,90.6768 L 841.5,89.1439 L 837.111,89.5276 L 692.971,89.5276 L 688.581,89.1439 L 673.023,90.6768 L 658.063,95.2148 L 644.273,102.587 L 632.187,112.506 L 629.354,115.881 L 517.454,227.781 L 514.076,230.615 L 504.158,242.7 L 496.788,256.489 L 492.25,271.45 L 490.717,287.011 L 491.101,291.4 L 491.101,478.338 L 490.34,482.164 L 488.172,485.409 L 422.414,551.167 L 419.17,553.334 L 415.343,554.096 L 244.153,554.096 L 239.763,553.712 L 224.203,555.245 L 209.242,559.783 L 195.453,567.153 L 183.368,577.071 L 180.536,580.447 L 175.494,584.945 L 165.576,597.03 L 158.206,610.819 L 153.668,625.78 L 152.135,641.34 L 152.519,645.73 L 152.519,810.592 L 153.668,822.253 L 158.206,837.214 L 165.576,851.003 L 175.494,863.089 L 187.579,873.007 L 201.368,880.376 L 216.33,884.916 L 227.982,886.233 L 231.252,887.879 L 232.606,889.122 L 234.527,892.239 L 235.197,895.838 L 234.955,1073.92 L 235.774,1082.25 L 238.062,1089.79 L 241.776,1096.74 L 246.774,1102.83 L 252.865,1107.83 L 259.813,1111.54 L 267.355,1113.83 L 275.687,1114.65 L 298.328,1114.65 L 307.671,1113.93 L 315.057,1114.65 L 332.426,1114.65 L 353.936,1093.14 L 353.936,893.308 L 354.163,891.003 L 354.835,888.788 L 355.926,886.746 L 357.395,884.956 L 359.185,883.487 L 361.227,882.396 L 363.443,881.723 L 365.747,881.497 L 378.189,881.496 L 378.189,872.442 L 378.95,868.615 L 381.118,865.37 L 384.362,863.203 L 388.189,862.442 L 597.577,862.442 L 601.967,862.825 L 617.526,861.294 L 632.487,856.754 L 646.276,849.384 L 658.362,839.466 L 661.196,836.09 L 747.603,749.955 L 751.208,748.462 L 754.232,748.27 L 774.89,744.16 L 794.35,736.1 L 811.864,724.396 L 826.757,709.503 L 836.63,695.074 L 838.145,693.831 L 841.75,692.338 L 845.652,692.338 L 847.528,692.907 L 850.772,695.075 L 860.642,709.503 L 875.537,724.396 L 893.05,736.1 L 912.509,744.16 L 933.168,748.27 L 954.232,748.27 L 974.89,744.16 L 994.35,736.1 L 1011.86,724.396 L 1026.76,709.503 L 1037.07,694.426 L 1038.64,693.162 L 1040.43,692.236 L 1042.36,691.687 L 1044.37,691.537 L 1046.36,691.791 L 1048.27,692.44 L 1050,693.456 L 1051.5,694.8 L 1057.68,704.774 L 1071.71,720.337 L 1088.5,732.865 L 1107.63,741.974 L 1114.57,744.079 L 1123.7,739.26 L 1123.7,705.137 L 1110.24,699.301 L 1098.92,691.077 L 1089.55,680.679 L 1082.56,668.561 L 1078.23,655.254 L 1076.77,641.339 L 1078.23,627.423 L 1082.56,614.116 L 1089.55,601.999 L 1098.92,591.601 L 1104.33,587.667 L 1104.33,542.276 L 1088.5,549.814 L 1071.71,562.343 L 1057.68,577.906 L 1051.5,587.879 L 1050,589.223 L 1048.27,590.239 L 1046.36,590.888 L 1044.37,591.142 L 1042.36,590.992 L 1040.43,590.443 L 1038.64,589.517 L 1037.07,588.253 L 1026.76,573.176 L 1024.76,570.903 L 1023.83,569.174 L 1023.07,565.348 L 1023.07,441.742 L 1023.26,439.791 L 1024.76,436.186 L 1026.76,433.913 L 1037.07,418.836 L 1038.64,417.572 L 1040.43,416.646 L 1042.36,416.097 L 1044.37,415.947 L 1046.36,416.201 L 1048.27,416.85 L 1050,417.866 L 1051.5,419.21 L 1057.68,429.184 L 1071.71,444.746 L 1088.5,457.273 L 1104.33,464.813 L 1104.33,419.42M 621.337,977.953 L 621.337,944.597 L 614.663,937.923 L 586.673,937.715 L 578.379,938.533 L 570.838,940.819 L 563.889,944.534 L 557.798,949.533 L 552.8,955.624 L 549.086,962.573 L 546.798,970.115 L 545.984,978.369 L 546.156,989.635 L 552.861,996.34 L 586.26,996.34 L 587.047,991.574 L 589.455,986.483 L 591.842,983.574 L 596.366,980.219 L 599.842,978.779 L 603.532,978.045 L 621.337,977.953M 661.337,977.953 L 679.145,978.045 L 682.835,978.779 L 686.311,980.219 L 690.835,983.574 L 693.222,986.483 L 695.63,991.574 L 696.417,996.34 L 729.813,996.34 L 736.518,989.635 L 736.689,978.368 L 735.877,970.114 L 733.589,962.573 L 729.875,955.624 L 724.877,949.533 L 718.786,944.534 L 711.837,940.819 L 704.297,938.533 L 696,937.715 L 668.01,937.923 L 661.337,944.597 L 661.337,977.953M 1169.57,924.763 L 1164.8,923.977 L 1159.71,921.569 L 1156.8,919.182 L 1153.45,914.658 L 1152.01,911.182 L 1151.27,907.491 L 1151.18,889.686 L 1117.82,889.686 L 1111.15,896.358 L 1110.94,924.35 L 1111.76,932.646 L 1114.05,940.188 L 1117.76,947.136 L 1122.76,953.226 L 1128.85,958.225 L 1135.8,961.94 L 1143.34,964.226 L 1151.6,965.038 L 1162.86,964.866 L 1169.57,958.161 L 1169.57,924.763M 1151.18,849.686 L 1151.18,848.003 L 1133.99,830.546 L 1132.25,826.706 L 1131.03,821.889 L 1111.14,841.782 L 1111.15,843.013 L 1117.82,849.686 L 1151.18,849.686M 1156.79,820.204 L 1159.71,817.801 L 1163.03,816.028 L 1166.63,814.936 L 1169.57,814.607 L 1169.57,781.21 L 1162.86,774.505 L 1150.2,774.471 L 1149.27,797.587 L 1154.36,817.773 L 1156.79,820.204 z " style="fill-opacity:1.000000;fill:rgb(33,61,220);stroke:rgb(0,0,0);stroke-width:2"/></g>
</svg>
