<?xml version="1.0" standalone="no"?>
<!DOCTYPE svg PUBLIC "-//W3C//DTD SVG 1.1//EN"
"http://www.w3.org/Graphics/SVG/1.1/DTD/svg11.dtd">
<svg width="99.3638" height="246.765" viewBox="0 0 2070.08 5140.94" version="1.1"
xmlns="http://www.w3.org/2000/svg"
xmlns:xlink="http://www.w3.org/1999/xlink">
<polyline points="187.793,806.694 187.793,641.34 188.573,633.198 190.993,624.904 195.501,616.472 214.893,597.08 223.325,592.572 231.619,590.152 434.095,589.372 526.375,497.092 526.375,287.01 527.155,278.868 529.575,270.574 533.569,262.912 539.291,255.832 663.711,132.514 672.143,128.006 680.437,125.586 688.581,124.806 841.501,124.806 849.643,125.586 857.937,128.006 865.599,132 872.679,137.722 980.087,246.228 984.595,254.662 987.015,262.956 987.795,309.67 1001.67,323.632 1009.16,336.606 1013.66,350.374 1015.33,365.256 1013.86,380.158 1009.16,394.894 1001.67,407.866 987.795,421.828 987.795,585.262 1001.67,599.224 1009.16,612.196 1013.86,626.93 1015.35,641.34 1013.66,656.716 1008.93,670.924 1001.67,683.456 991.995,694.24 979.941,703.124 965.843,709.486 951.679,712.524 935.721,712.524 921.097,709.31 908.313,703.618 896.139,694.9 886.043,683.842 878.241,670.484 873.535,655.75 872.047,641.34 873.535,626.93 878.065,612.658 886.043,598.838 899.605,585.262 899.605,421.828 885.731,407.866 878.241,394.894 873.535,380.158 872.073,365.256 873.741,350.374 878.241,336.606 886.043,323.248 899.605,309.67 899.605,289.364 823.235,212.996 706.845,212.996 614.565,305.276 614.541,515.82 613.605,524.41 611.009,532.65 606.857,540.226 601.649,546.536 483.539,664.646 476.459,670.368 468.797,674.362 460.503,676.782 452.359,677.562 275.983,677.562 275.983,806.694 275.097,815.374 272.445,823.868 299.009,850.464 302.085,855.066 303.519,861.35 303.543,1074.41 302.747,1077.04 300.627,1078.78 274.275,1079.04 271.855,1077.75 270.563,1075.33 270.471,868.662 248.941,847.134 236.985,850.47 226.791,850.47 218.263,848.632 210.281,845.106 202.767,839.774 196.527,832.998 191.605,824.63 188.679,815.374 187.793,806.694" style="stroke:rgb(103,198,105);stroke-width:9.448819;fill:none;stroke-opacity:0.5;stroke-linecap:round;stroke-linejoin:round;;fill:none"/>
<polyline points="187.793,806.694 187.793,641.34 188.573,633.198 190.993,624.904 195.501,616.472 214.893,597.08 223.325,592.572 231.619,590.152 434.095,589.372 526.375,497.092 526.375,287.01 527.155,278.868 529.575,270.574 533.569,262.912 539.291,255.832 663.711,132.514 672.143,128.006 680.437,125.586 688.581,124.806 841.501,124.806 849.643,125.586 857.937,128.006 865.599,132 872.679,137.722 980.087,246.228 984.595,254.662 987.015,262.956 987.795,309.67 1001.67,323.632 1009.16,336.606 1013.66,350.374 1015.33,365.256 1013.86,380.158 1009.16,394.894 1001.67,407.866 987.795,421.828 987.795,585.262 1001.67,599.224 1009.16,612.196 1013.86,626.93 1015.35,641.34 1013.66,656.716 1008.93,670.924 1001.67,683.456 991.995,694.24 979.941,703.124 965.843,709.486 951.679,712.524 935.721,712.524 921.097,709.31 908.313,703.618 896.139,694.9 886.043,683.842 878.241,670.484 873.535,655.75 872.047,641.34 873.535,626.93 878.065,612.658 886.043,598.838 899.605,585.262 899.605,421.828 885.731,407.866 878.241,394.894 873.535,380.158 872.073,365.256 873.741,350.374 878.241,336.606 886.043,323.248 899.605,309.67 899.605,289.364 823.235,212.996 706.845,212.996 614.565,305.276 614.541,515.82 613.605,524.41 611.009,532.65 606.857,540.226 601.649,546.536 483.539,664.646 476.459,670.368 468.797,674.362 460.503,676.782 452.359,677.562 275.983,677.562 275.983,806.694 275.097,815.374 272.445,823.868 299.009,850.464 302.085,855.066 303.519,861.35 303.543,1074.41 302.747,1077.04 300.627,1078.78 274.275,1079.04 271.855,1077.75 270.563,1075.33 270.471,868.662 248.941,847.134 236.985,850.47 226.791,850.47 218.263,848.632 210.281,845.106 202.767,839.774 196.527,832.998 191.605,824.63 188.679,815.374 187.793,806.694" style="stroke:rgb(0,0,0);stroke-width:1px;fill:none;stroke-opacity:1;stroke-linecap:round;stroke-linejoin:round;;fill:none"/>
<polyline points="187.795,1877.56 189.541,1894.43 194.833,1911.05 204.047,1927 215.411,1939.59 229.967,1950.07 245.467,1956.94 262.047,1960.49 279.983,1960.57 296.573,1957.07 313.407,1949.57 327.107,1939.59 338.473,1927 347.685,1911.05 352.977,1894.43 354.697,1878.05 352.771,1859.73 347.507,1843.61 339.053,1828.92 327.107,1815.53 315.353,1806.96 315.353,1784.47 333.147,1766.64 338.865,1759.42 342.801,1751.63 345.187,1742.73 345.671,1734.02 344.223,1724.4 342.049,1718.8 377.439,1683.41 382.031,1674.48 382.283,1310.63 381.487,1308.01 379.367,1306.27 353.015,1306 350.595,1307.29 349.211,1310.63 349.211,1664.87 318.663,1695.42 304.435,1691.85 295.229,1692.23 285.833,1694.66 277.621,1698.85 270.457,1704.65 234.871,1741.34 230.363,1749.77 227.943,1758.06 227.163,1806.96 215.411,1815.53 204.047,1828.12 195.235,1843.17 189.747,1859.73 187.795,1877.56" style="stroke:rgb(115,81,255);stroke-width:9.448819;fill:none;stroke-opacity:0.5;stroke-linecap:round;stroke-linejoin:round;;fill:none"/>
<polyline points="187.795,1877.56 189.541,1894.43 194.833,1911.05 204.047,1927 215.411,1939.59 229.967,1950.07 245.467,1956.94 262.047,1960.49 279.983,1960.57 296.573,1957.07 313.407,1949.57 327.107,1939.59 338.473,1927 347.685,1911.05 352.977,1894.43 354.697,1878.05 352.771,1859.73 347.507,1843.61 339.053,1828.92 327.107,1815.53 315.353,1806.96 315.353,1784.47 333.147,1766.64 338.865,1759.42 342.801,1751.63 345.187,1742.73 345.671,1734.02 344.223,1724.4 342.049,1718.8 377.439,1683.41 382.031,1674.48 382.283,1310.63 381.487,1308.01 379.367,1306.27 353.015,1306 350.595,1307.29 349.211,1310.63 349.211,1664.87 318.663,1695.42 304.435,1691.85 295.229,1692.23 285.833,1694.66 277.621,1698.85 270.457,1704.65 234.871,1741.34 230.363,1749.77 227.943,1758.06 227.163,1806.96 215.411,1815.53 204.047,1828.12 195.235,1843.17 189.747,1859.73 187.795,1877.56" style="stroke:rgb(0,0,0);stroke-width:1px;fill:none;stroke-opacity:1;stroke-linecap:round;stroke-linejoin:round;;fill:none"/>
<polyline points="24.4087,4509.45 24.4327,1725.52 25.3687,1716.93 27.9647,1708.69 32.1167,1701.12 37.3247,1694.81 232.549,1499.61 246.091,1490.57 255.241,1487.79 271.751,1487.04 279.937,1487.9 288.431,1490.55 309.841,1469.14 309.933,1309.71 311.225,1307.29 313.645,1306 338.189,1305.91 341.529,1307.29 342.913,1310.63 342.661,1478.75 338.379,1487.34 311.697,1514.05 315.033,1526.01 315.137,1535.22 313.323,1544.25 309.669,1552.71 304.337,1560.23 297.561,1566.47 283.623,1573.22 112.599,1744.25 112.599,4465.36 351.969,4465.36 361.021,4466.32 376.067,4472.55 383.147,4478.27 777.713,4872.84 1252.99,4872.84 1605.11,4520.71 1605.11,4201.35 1591.55,4187.78 1583.57,4173.96 1579.05,4159.69 1577.58,4145.77 1579.05,4130.87 1583.75,4116.13 1590.97,4103.57 1601.65,4091.72 1613.82,4083 1627.07,4077.13 1641.72,4074.02 1656.21,4073.99 1671.35,4077.13 1684.6,4083 1697.51,4092.38 1707.45,4103.57 1714.67,4116.13 1719.17,4129.9 1720.84,4144.78 1719.38,4159.69 1714.67,4174.42 1706.87,4187.78 1693.3,4201.36 1693.28,4539.44 1692.34,4548.03 1689.75,4556.27 1685.6,4563.85 1680.39,4570.16 1302.44,4948.11 1296.13,4953.32 1288.55,4957.47 1280.31,4960.07 1271.26,4961.03 759.449,4961.03 751.305,4960.25 743.011,4957.83 735.349,4953.83 728.269,4948.11 333.703,4553.55 60.3607,4552.77 51.2107,4549.99 43.6347,4545.84 37.0127,4540.29 31.6027,4533.55 27.6087,4525.89 25.1887,4517.6 24.4087,4509.45" style="stroke:rgb(74,236,41);stroke-width:9.448819;fill:none;stroke-opacity:0.5;stroke-linecap:round;stroke-linejoin:round;;fill:none"/>
<polyline points="24.4087,4509.45 24.4327,1725.52 25.3687,1716.93 27.9647,1708.69 32.1167,1701.12 37.3247,1694.81 232.549,1499.61 246.091,1490.57 255.241,1487.79 271.751,1487.04 279.937,1487.9 288.431,1490.55 309.841,1469.14 309.933,1309.71 311.225,1307.29 313.645,1306 338.189,1305.91 341.529,1307.29 342.913,1310.63 342.661,1478.75 338.379,1487.34 311.697,1514.05 315.033,1526.01 315.137,1535.22 313.323,1544.25 309.669,1552.71 304.337,1560.23 297.561,1566.47 283.623,1573.22 112.599,1744.25 112.599,4465.36 351.969,4465.36 361.021,4466.32 376.067,4472.55 383.147,4478.27 777.713,4872.84 1252.99,4872.84 1605.11,4520.71 1605.11,4201.35 1591.55,4187.78 1583.57,4173.96 1579.05,4159.69 1577.58,4145.77 1579.05,4130.87 1583.75,4116.13 1590.97,4103.57 1601.65,4091.72 1613.82,4083 1627.07,4077.13 1641.72,4074.02 1656.21,4073.99 1671.35,4077.13 1684.6,4083 1697.51,4092.38 1707.45,4103.57 1714.67,4116.13 1719.17,4129.9 1720.84,4144.78 1719.38,4159.69 1714.67,4174.42 1706.87,4187.78 1693.3,4201.36 1693.28,4539.44 1692.34,4548.03 1689.75,4556.27 1685.6,4563.85 1680.39,4570.16 1302.44,4948.11 1296.13,4953.32 1288.55,4957.47 1280.31,4960.07 1271.26,4961.03 759.449,4961.03 751.305,4960.25 743.011,4957.83 735.349,4953.83 728.269,4948.11 333.703,4553.55 60.3607,4552.77 51.2107,4549.99 43.6347,4545.84 37.0127,4540.29 31.6027,4533.55 27.6087,4525.89 25.1887,4517.6 24.4087,4509.45" style="stroke:rgb(0,0,0);stroke-width:1px;fill:none;stroke-opacity:1;stroke-linecap:round;stroke-linejoin:round;;fill:none"/>
<polyline points="427.951,1452.36 428.043,1309.71 429.335,1307.29 431.755,1306 457.221,1306 460.227,1308.01 461.023,1310.63 461.021,1445.52 474.557,1459.05 483.051,1456.4 491.731,1455.51 940.551,1455.51 949.603,1456.47 964.651,1462.71 971.729,1468.43 1204.48,1701.18 1592.99,1701.18 1601.27,1692.03 1612.97,1683.49 1626.61,1677.31 1641.72,1674.02 1656.7,1674.02 1671.35,1677.13 1685.04,1683.22 1697.51,1692.38 1707.45,1703.57 1714.67,1716.13 1719.38,1730.87 1720.86,1745.28 1719.17,1760.65 1714.67,1774.42 1707.45,1786.98 1697.16,1798.53 1685.45,1807.06 1671.81,1813.25 1656.21,1816.56 1641.72,1816.54 1626.61,1813.25 1612.97,1807.06 1601.65,1798.84 1592.99,1789.37 1186.22,1789.37 1177.16,1788.41 1162.12,1782.18 1155.04,1776.46 922.285,1543.7 491.731,1543.7 483.051,1542.82 473.795,1539.89 465.811,1535.28 458.961,1529.11 453.813,1522.07 449.665,1512.76 447.851,1503.72 447.955,1494.51 451.291,1482.56 431.013,1461.92 427.951,1452.36" style="stroke:rgb(205,186,171);stroke-width:9.448819;fill:none;stroke-opacity:0.5;stroke-linecap:round;stroke-linejoin:round;;fill:none"/>
<polyline points="427.951,1452.36 428.043,1309.71 429.335,1307.29 431.755,1306 457.221,1306 460.227,1308.01 461.023,1310.63 461.021,1445.52 474.557,1459.05 483.051,1456.4 491.731,1455.51 940.551,1455.51 949.603,1456.47 964.651,1462.71 971.729,1468.43 1204.48,1701.18 1592.99,1701.18 1601.27,1692.03 1612.97,1683.49 1626.61,1677.31 1641.72,1674.02 1656.7,1674.02 1671.35,1677.13 1685.04,1683.22 1697.51,1692.38 1707.45,1703.57 1714.67,1716.13 1719.38,1730.87 1720.86,1745.28 1719.17,1760.65 1714.67,1774.42 1707.45,1786.98 1697.16,1798.53 1685.45,1807.06 1671.81,1813.25 1656.21,1816.56 1641.72,1816.54 1626.61,1813.25 1612.97,1807.06 1601.65,1798.84 1592.99,1789.37 1186.22,1789.37 1177.16,1788.41 1162.12,1782.18 1155.04,1776.46 922.285,1543.7 491.731,1543.7 483.051,1542.82 473.795,1539.89 465.811,1535.28 458.961,1529.11 453.813,1522.07 449.665,1512.76 447.851,1503.72 447.955,1494.51 451.291,1482.56 431.013,1461.92 427.951,1452.36" style="stroke:rgb(0,0,0);stroke-width:1px;fill:none;stroke-opacity:1;stroke-linecap:round;stroke-linejoin:round;;fill:none"/>
<polyline points="388.581,1586.22 388.673,1309.71 389.965,1307.29 392.385,1306 417.851,1306 420.857,1308.01 421.653,1310.63 421.651,1579.37 435.187,1592.91 443.681,1590.26 452.361,1589.37 531.563,1589.4 540.153,1590.33 548.393,1592.93 555.969,1597.08 562.279,1602.29 1042.59,2082.6 1047.8,2088.91 1051.95,2096.49 1054.73,2105.64 1055.51,2166.38 1390.31,2501.18 1592.99,2501.18 1601.27,2492.03 1612.97,2483.49 1627.07,2477.13 1642.21,2473.99 1656.7,2474.02 1671.35,2477.13 1685.04,2483.22 1697.51,2492.38 1707.45,2503.57 1714.67,2516.13 1719.17,2529.9 1720.86,2545.28 1719.38,2559.69 1714.67,2574.42 1706.87,2587.78 1697.16,2598.53 1684.6,2607.56 1670.88,2613.55 1656.7,2616.54 1642.21,2616.56 1627.07,2613.42 1613.38,2607.33 1601.65,2598.84 1592.99,2589.37 1372.05,2589.37 1363.9,2588.59 1355.61,2586.17 1347.18,2581.67 979.925,2215.48 970.877,2201.94 968.101,2192.79 967.321,2132.05 512.835,1677.56 443.681,1676.68 433.985,1673.52 426.441,1669.14 419.941,1663.32 413.949,1655.07 410.295,1646.62 408.585,1638.56 408.585,1628.37 411.921,1616.41 391.643,1595.78 388.581,1586.22" style="stroke:rgb(242,251,227);stroke-width:9.448819;fill:none;stroke-opacity:0.5;stroke-linecap:round;stroke-linejoin:round;;fill:none"/>
<polyline points="388.581,1586.22 388.673,1309.71 389.965,1307.29 392.385,1306 417.851,1306 420.857,1308.01 421.653,1310.63 421.651,1579.37 435.187,1592.91 443.681,1590.26 452.361,1589.37 531.563,1589.4 540.153,1590.33 548.393,1592.93 555.969,1597.08 562.279,1602.29 1042.59,2082.6 1047.8,2088.91 1051.95,2096.49 1054.73,2105.64 1055.51,2166.38 1390.31,2501.18 1592.99,2501.18 1601.27,2492.03 1612.97,2483.49 1627.07,2477.13 1642.21,2473.99 1656.7,2474.02 1671.35,2477.13 1685.04,2483.22 1697.51,2492.38 1707.45,2503.57 1714.67,2516.13 1719.17,2529.9 1720.86,2545.28 1719.38,2559.69 1714.67,2574.42 1706.87,2587.78 1697.16,2598.53 1684.6,2607.56 1670.88,2613.55 1656.7,2616.54 1642.21,2616.56 1627.07,2613.42 1613.38,2607.33 1601.65,2598.84 1592.99,2589.37 1372.05,2589.37 1363.9,2588.59 1355.61,2586.17 1347.18,2581.67 979.925,2215.48 970.877,2201.94 968.101,2192.79 967.321,2132.05 512.835,1677.56 443.681,1676.68 433.985,1673.52 426.441,1669.14 419.941,1663.32 413.949,1655.07 410.295,1646.62 408.585,1638.56 408.585,1628.37 411.921,1616.41 391.643,1595.78 388.581,1586.22" style="stroke:rgb(0,0,0);stroke-width:1px;fill:none;stroke-opacity:1;stroke-linecap:round;stroke-linejoin:round;;fill:none"/>
<polyline points="309.841,1074.41 310.091,835.424 314.373,826.842 341.055,800.128 337.719,788.17 337.615,778.958 339.557,769.448 343.577,760.612 348.725,753.568 355.991,747.13 363.559,742.79 371.849,740.07 381.001,739.004 583.701,738.978 672.907,649.774 672.047,641.34 673.535,626.93 678.241,612.196 686.043,598.838 699.605,585.262 699.605,421.828 685.731,407.866 678.065,394.432 673.535,380.158 672.073,366.244 673.741,350.374 678.465,336.164 685.461,324.048 695.405,312.85 707.459,303.966 721.097,297.78 735.721,294.566 750.697,294.462 765.843,297.602 779.941,303.966 791.995,312.85 801.669,323.632 808.935,336.164 813.659,350.374 815.327,365.256 813.865,380.158 809.159,394.894 801.357,408.25 787.795,421.828 787.795,585.262 801.669,599.224 809.159,612.196 813.659,625.964 815.327,640.846 813.659,656.716 809.159,670.484 801.939,683.042 791.261,694.9 779.087,703.618 766.303,709.31 750.697,712.626 735.025,712.376 633.145,814.252 626.065,819.974 618.403,823.968 610.109,826.388 601.967,827.168 381.495,827.168 372.815,826.282 364.321,823.63 342.911,845.04 342.821,1075.33 341.529,1077.75 339.109,1079.04 314.567,1079.14 311.225,1077.75 309.841,1074.41" style="stroke:rgb(70,124,194);stroke-width:9.448819;fill:none;stroke-opacity:0.5;stroke-linecap:round;stroke-linejoin:round;;fill:none"/>
<polyline points="309.841,1074.41 310.091,835.424 314.373,826.842 341.055,800.128 337.719,788.17 337.615,778.958 339.557,769.448 343.577,760.612 348.725,753.568 355.991,747.13 363.559,742.79 371.849,740.07 381.001,739.004 583.701,738.978 672.907,649.774 672.047,641.34 673.535,626.93 678.241,612.196 686.043,598.838 699.605,585.262 699.605,421.828 685.731,407.866 678.065,394.432 673.535,380.158 672.073,366.244 673.741,350.374 678.465,336.164 685.461,324.048 695.405,312.85 707.459,303.966 721.097,297.78 735.721,294.566 750.697,294.462 765.843,297.602 779.941,303.966 791.995,312.85 801.669,323.632 808.935,336.164 813.659,350.374 815.327,365.256 813.865,380.158 809.159,394.894 801.357,408.25 787.795,421.828 787.795,585.262 801.669,599.224 809.159,612.196 813.659,625.964 815.327,640.846 813.659,656.716 809.159,670.484 801.939,683.042 791.261,694.9 779.087,703.618 766.303,709.31 750.697,712.626 735.025,712.376 633.145,814.252 626.065,819.974 618.403,823.968 610.109,826.388 601.967,827.168 381.495,827.168 372.815,826.282 364.321,823.63 342.911,845.04 342.821,1075.33 341.529,1077.75 339.109,1079.04 314.567,1079.14 311.225,1077.75 309.841,1074.41" style="stroke:rgb(0,0,0);stroke-width:1px;fill:none;stroke-opacity:1;stroke-linecap:round;stroke-linejoin:round;;fill:none"/>
<polyline points="1077.56,3192.52 1079.3,3209.39 1084.77,3226.47 1093.23,3241.17 1105.17,3254.55 1119.73,3265.03 1135.71,3272.03 1152.79,3275.55 1169.75,3275.53 1179.6,3273.46 1282.6,3376.46 1289.68,3382.18 1304.72,3388.41 1313.78,3389.37 1592.99,3389.37 1601.65,3398.84 1612.97,3407.06 1626.61,3413.25 1641.72,3416.54 1656.7,3416.54 1671.35,3413.42 1684.6,3407.56 1697.16,3398.53 1707.45,3386.98 1714.67,3374.42 1719.17,3360.65 1720.86,3345.28 1719.38,3330.87 1714.67,3316.13 1707.45,3303.57 1697.51,3292.38 1685.04,3283.22 1671.35,3277.13 1656.7,3274.02 1641.72,3274.02 1626.61,3277.31 1612.97,3283.49 1601.27,3292.03 1592.99,3301.18 1332.04,3301.18 1242.21,3211.35 1244.46,3192.03 1242.53,3174.69 1237.05,3158.13 1228.23,3143.08 1216.87,3130.49 1202.31,3120.01 1186.34,3113.01 1169.25,3109.49 1152.3,3109.51 1135.71,3113.01 1119.73,3120.01 1105.56,3130.18 1093.81,3143.08 1084.77,3158.57 1079.3,3175.66 1077.56,3192.52" style="stroke:rgb(84,248,27);stroke-width:9.448819;fill:none;stroke-opacity:0.5;stroke-linecap:round;stroke-linejoin:round;;fill:none"/>
<polyline points="1077.56,3192.52 1079.3,3209.39 1084.77,3226.47 1093.23,3241.17 1105.17,3254.55 1119.73,3265.03 1135.71,3272.03 1152.79,3275.55 1169.75,3275.53 1179.6,3273.46 1282.6,3376.46 1289.68,3382.18 1304.72,3388.41 1313.78,3389.37 1592.99,3389.37 1601.65,3398.84 1612.97,3407.06 1626.61,3413.25 1641.72,3416.54 1656.7,3416.54 1671.35,3413.42 1684.6,3407.56 1697.16,3398.53 1707.45,3386.98 1714.67,3374.42 1719.17,3360.65 1720.86,3345.28 1719.38,3330.87 1714.67,3316.13 1707.45,3303.57 1697.51,3292.38 1685.04,3283.22 1671.35,3277.13 1656.7,3274.02 1641.72,3274.02 1626.61,3277.31 1612.97,3283.49 1601.27,3292.03 1592.99,3301.18 1332.04,3301.18 1242.21,3211.35 1244.46,3192.03 1242.53,3174.69 1237.05,3158.13 1228.23,3143.08 1216.87,3130.49 1202.31,3120.01 1186.34,3113.01 1169.25,3109.49 1152.3,3109.51 1135.71,3113.01 1119.73,3120.01 1105.56,3130.18 1093.81,3143.08 1084.77,3158.57 1079.3,3175.66 1077.56,3192.52" style="stroke:rgb(0,0,0);stroke-width:1px;fill:none;stroke-opacity:1;stroke-linecap:round;stroke-linejoin:round;;fill:none"/>
<polyline points="143.149,4420.08 143.149,1939.59 144.707,1933.14 149.889,1927.23 157.411,1924.89 163.509,1925.99 169.841,1931.04 182.697,1950.24 198.577,1966.12 217.251,1978.6 238.001,1987.2 260.027,1991.58 282.489,1991.58 304.515,1987.2 325.265,1978.6 343.939,1966.12 359.819,1950.24 372.297,1931.57 380.891,1910.82 385.273,1888.79 385.273,1866.33 380.891,1844.3 372.297,1823.56 357.059,1801.43 355.299,1797.26 355.229,1791.03 356.707,1786.79 363.985,1777.53 370.933,1764.53 375.201,1750.46 376.557,1732.38 378.267,1726.77 402.781,1701.44 409.399,1698.62 415.117,1698.82 423.601,1702.75 437.727,1707.03 448.697,1708.11 494.081,1708.11 500.533,1709.67 504.493,1712.43 570.881,1778.81 574.073,1783.59 575.195,1789.23 572.951,1797.01 566.921,1802.39 545.109,1807.29 524.339,1815.89 505.665,1828.37 489.783,1844.25 477.305,1862.93 468.711,1883.67 464.329,1905.7 464.113,1921.7 461.849,1927.46 367.843,2021.35 358.497,2032.74 351.567,2045.71 347.299,2059.78 345.855,2074.44 346.219,2593.76 344.173,2601.12 333.781,2616.84 326.373,2634.72 322.597,2653.71 322.597,2673.07 326.373,2692.05 333.781,2709.94 344.535,2726.03 358.221,2739.72 374.319,2750.47 392.201,2757.88 411.185,2761.66 430.545,2761.66 449.529,2757.88 467.409,2750.47 483.505,2739.72 497.195,2726.03 507.947,2709.94 515.355,2692.05 519.131,2673.07 519.131,2653.71 515.355,2634.72 507.947,2616.84 496.829,2599.81 495.509,2593.76 495.793,2108.56 499.829,2101.01 567.625,2033.56 575.071,2031.04 589.575,2030.95 611.601,2026.57 632.351,2017.97 651.025,2005.49 666.907,1989.61 679.383,1970.94 687.987,1950.17 692.189,1930.02 693.943,1926.44 697.871,1922.56 705.589,1920.11 711.687,1921.2 716.463,1924.4 806.069,2014 809.261,2018.78 810.377,2024.18 808.025,2032.4 802.109,2037.58 773.435,2043.52 752.685,2052.11 734.011,2064.59 718.131,2080.47 705.653,2099.15 697.057,2119.89 692.677,2141.92 692.677,2164.38 697.057,2186.41 705.653,2207.16 718.147,2225.86 729.449,2237.5 732.047,2245.85 732.047,2618.1 726.373,2634.73 722.597,2653.71 722.597,2673.07 726.373,2692.05 733.779,2709.94 744.535,2726.03 758.223,2739.72 774.319,2750.47 792.201,2757.88 811.185,2761.66 830.545,2761.66 849.529,2757.88 867.411,2750.47 883.505,2739.72 897.195,2726.03 907.947,2709.94 915.355,2692.05 919.131,2673.07 919.131,2653.71 915.355,2634.72 907.947,2616.84 897.181,2600.72 883.939,2587.14 881.337,2578.79 881.337,2245.85 883.803,2237.69 895.235,2225.86 907.757,2207.12 912.467,2196.84 916.895,2192.83 922.553,2190.91 930.421,2192.11 935.873,2196.37 942.117,2213.35 949.051,2226.32 958.395,2237.71 1318.99,2598.3 1330.37,2607.64 1343.34,2614.58 1357.41,2618.84 1372.07,2620.29 1576.09,2620.21 1581.27,2622.32 1598.83,2634.89 1602.01,2639.64 1603.13,2645.28 1601.81,2651.33 1597.3,2656.93 1581,2668.39 1573.22,2670.63 1214.59,2670.27 1199.93,2671.71 1185.86,2675.98 1172.89,2682.91 1161.51,2692.26 848.323,3005.4 840.541,3007.64 720.105,3007.28 705.443,3008.72 691.373,3012.99 678.405,3019.92 667.019,3029.26 533.169,3163.11 525.333,3172.37 519.657,3175.68 513.031,3176.06 508.513,3174.61 497.423,3167.65 483.133,3164.88 350.955,3165.63 338.179,3170.92 332.841,3175.3 324.991,3185.09 320.467,3187.8 315.279,3188.74 279.155,3188.38 264.499,3189.82 250.429,3194.09 237.459,3201.02 226.073,3210.37 202.489,3233.95 193.145,3245.34 186.215,3258.31 181.945,3272.38 180.501,3287.04 180.501,4091.71 181.945,4106.37 186.213,4120.44 193.143,4133.41 202.489,4144.79 218.201,4160.51 229.585,4169.85 242.555,4176.78 256.623,4181.05 271.283,4182.49 307.405,4182.13 312.389,4183 318.351,4187.08 324.909,4195.51 334.689,4203.36 337.401,4207.88 338.345,4213.07 337.981,4310.61 339.425,4325.26 343.693,4339.34 350.625,4352.3 359.969,4363.69 711.115,4714.84 722.501,4724.18 735.471,4731.11 749.537,4735.38 764.199,4736.82 1116.9,4736.82 1131.56,4735.38 1145.63,4731.11 1158.6,4724.18 1169.97,4714.85 1179.29,4703.49 1186.22,4690.52 1190.49,4676.45 1191.94,4661.79 1191.6,4504.27 1193.97,4496.68 1207.5,4477.15 1215.2,4458.55 1219.13,4438.81 1219.13,4418.68 1215.2,4398.93 1207.5,4380.33 1196.31,4363.59 1182.08,4349.35 1165.34,4338.17 1146.74,4330.47 1126.99,4326.54 1106.86,4326.54 1087.11,4330.47 1068.51,4338.17 1051.75,4349.37 1040.24,4360.5 1030.95,4362.97 1026.03,4361.74 1021.15,4358.22 1013.33,4342.12 1008.92,4336.75 997.423,4329.06 983.127,4326.29 920.945,4325.33 915.715,4321.96 889.879,4295.57 887.635,4287.78 887.919,4174.23 890.117,4168.93 900.073,4154.03 907.481,4136.15 911.257,4117.16 911.257,4097.8 907.481,4078.82 900.073,4060.94 889.321,4044.84 875.631,4031.15 859.537,4020.4 841.601,4012.97 834.715,4011.37 830.363,4008.69 790.027,3958.01 787.469,3952.94 787.213,3641.37 784.413,3620.74 786.657,3612.08 793.505,3606.32 801.469,3605.41 808.511,3607.34 822.083,3614.58 836.153,3618.84 850.813,3620.29 1576.09,3620.21 1581.27,3622.32 1599.33,3635.18 1602.86,3640.72 1603.44,3648.54 1598.78,3656.7 1588.62,3663.05 1573.72,3676.48 1561.75,3692.53 1551.55,3715.66 1554.14,3720.55 1582.29,3720.55 1591.55,3702.78 1601.27,3692.03 1612.97,3683.49 1627.55,3677 1641.72,3674.02 1656.7,3674.02 1671.35,3677.13 1685.04,3683.22 1696.77,3691.72 1706.87,3702.78 1714.85,3716.59 1719.38,3730.87 1720.84,3745.77 1719.17,3760.65 1714.67,3774.42 1707.45,3786.98 1697.51,3798.18 1684.6,3807.56 1671.35,3813.42 1657.19,3816.46 1641.23,3816.46 1627.07,3813.42 1613.38,3807.33 1601.65,3798.84 1591.55,3787.78 1582.29,3770 1554.14,3770 1551.55,3774.9 1561.75,3798.02 1573.72,3814.07 1588.62,3827.51 1599.26,3834.32 1602.58,3839.19 1603.7,3844.01 1602.86,3849.84 1599.8,3854.87 1584.08,3865.87 1569.82,3880.13 1558.64,3896.87 1550.93,3915.47 1547.01,3935.21 1547.01,3955.34 1550.93,3975.09 1558.64,3993.69 1569.82,4010.43 1584.08,4024.68 1598.83,4034.89 1602.01,4039.64 1603.13,4045.28 1602.01,4050.91 1598.83,4055.67 1584.08,4065.87 1569.82,4080.13 1558.64,4096.87 1550.93,4115.47 1547.01,4135.21 1547.01,4155.34 1550.93,4175.09 1558.64,4193.69 1572.17,4213.22 1574.54,4220.81 1574.56,4501.96 1573.44,4507.6 1570.25,4512.37 1244.65,4837.97 1239.87,4841.16 1234.24,4842.29 796.467,4842.29 790.831,4841.16 786.055,4837.97 405.025,4456.43 393.639,4447.09 380.671,4440.15 366.601,4435.89 351.943,4434.44 155.301,4434.56 147.511,4430.49 144.047,4425.09 143.149,4420.08" style="stroke:rgb(232,231,141);stroke-width:9.448819;fill:none;stroke-opacity:0.5;stroke-linecap:round;stroke-linejoin:round;;fill:none"/>
<polyline points="143.149,4420.08 143.149,1939.59 144.707,1933.14 149.889,1927.23 157.411,1924.89 163.509,1925.99 169.841,1931.04 182.697,1950.24 198.577,1966.12 217.251,1978.6 238.001,1987.2 260.027,1991.58 282.489,1991.58 304.515,1987.2 325.265,1978.6 343.939,1966.12 359.819,1950.24 372.297,1931.57 380.891,1910.82 385.273,1888.79 385.273,1866.33 380.891,1844.3 372.297,1823.56 357.059,1801.43 355.299,1797.26 355.229,1791.03 356.707,1786.79 363.985,1777.53 370.933,1764.53 375.201,1750.46 376.557,1732.38 378.267,1726.77 402.781,1701.44 409.399,1698.62 415.117,1698.82 423.601,1702.75 437.727,1707.03 448.697,1708.11 494.081,1708.11 500.533,1709.67 504.493,1712.43 570.881,1778.81 574.073,1783.59 575.195,1789.23 572.951,1797.01 566.921,1802.39 545.109,1807.29 524.339,1815.89 505.665,1828.37 489.783,1844.25 477.305,1862.93 468.711,1883.67 464.329,1905.7 464.113,1921.7 461.849,1927.46 367.843,2021.35 358.497,2032.74 351.567,2045.71 347.299,2059.78 345.855,2074.44 346.219,2593.76 344.173,2601.12 333.781,2616.84 326.373,2634.72 322.597,2653.71 322.597,2673.07 326.373,2692.05 333.781,2709.94 344.535,2726.03 358.221,2739.72 374.319,2750.47 392.201,2757.88 411.185,2761.66 430.545,2761.66 449.529,2757.88 467.409,2750.47 483.505,2739.72 497.195,2726.03 507.947,2709.94 515.355,2692.05 519.131,2673.07 519.131,2653.71 515.355,2634.72 507.947,2616.84 496.829,2599.81 495.509,2593.76 495.793,2108.56 499.829,2101.01 567.625,2033.56 575.071,2031.04 589.575,2030.95 611.601,2026.57 632.351,2017.97 651.025,2005.49 666.907,1989.61 679.383,1970.94 687.987,1950.17 692.189,1930.02 693.943,1926.44 697.871,1922.56 705.589,1920.11 711.687,1921.2 716.463,1924.4 806.069,2014 809.261,2018.78 810.377,2024.18 808.025,2032.4 802.109,2037.58 773.435,2043.52 752.685,2052.11 734.011,2064.59 718.131,2080.47 705.653,2099.15 697.057,2119.89 692.677,2141.92 692.677,2164.38 697.057,2186.41 705.653,2207.16 718.147,2225.86 729.449,2237.5 732.047,2245.85 732.047,2618.1 726.373,2634.73 722.597,2653.71 722.597,2673.07 726.373,2692.05 733.779,2709.94 744.535,2726.03 758.223,2739.72 774.319,2750.47 792.201,2757.88 811.185,2761.66 830.545,2761.66 849.529,2757.88 867.411,2750.47 883.505,2739.72 897.195,2726.03 907.947,2709.94 915.355,2692.05 919.131,2673.07 919.131,2653.71 915.355,2634.72 907.947,2616.84 897.181,2600.72 883.939,2587.14 881.337,2578.79 881.337,2245.85 883.803,2237.69 895.235,2225.86 907.757,2207.12 912.467,2196.84 916.895,2192.83 922.553,2190.91 930.421,2192.11 935.873,2196.37 942.117,2213.35 949.051,2226.32 958.395,2237.71 1318.99,2598.3 1330.37,2607.64 1343.34,2614.58 1357.41,2618.84 1372.07,2620.29 1576.09,2620.21 1581.27,2622.32 1598.83,2634.89 1602.01,2639.64 1603.13,2645.28 1601.81,2651.33 1597.3,2656.93 1581,2668.39 1573.22,2670.63 1214.59,2670.27 1199.93,2671.71 1185.86,2675.98 1172.89,2682.91 1161.51,2692.26 848.323,3005.4 840.541,3007.64 720.105,3007.28 705.443,3008.72 691.373,3012.99 678.405,3019.92 667.019,3029.26 533.169,3163.11 525.333,3172.37 519.657,3175.68 513.031,3176.06 508.513,3174.61 497.423,3167.65 483.133,3164.88 350.955,3165.63 338.179,3170.92 332.841,3175.3 324.991,3185.09 320.467,3187.8 315.279,3188.74 279.155,3188.38 264.499,3189.82 250.429,3194.09 237.459,3201.02 226.073,3210.37 202.489,3233.95 193.145,3245.34 186.215,3258.31 181.945,3272.38 180.501,3287.04 180.501,4091.71 181.945,4106.37 186.213,4120.44 193.143,4133.41 202.489,4144.79 218.201,4160.51 229.585,4169.85 242.555,4176.78 256.623,4181.05 271.283,4182.49 307.405,4182.13 312.389,4183 318.351,4187.08 324.909,4195.51 334.689,4203.36 337.401,4207.88 338.345,4213.07 337.981,4310.61 339.425,4325.26 343.693,4339.34 350.625,4352.3 359.969,4363.69 711.115,4714.84 722.501,4724.18 735.471,4731.11 749.537,4735.38 764.199,4736.82 1116.9,4736.82 1131.56,4735.38 1145.63,4731.11 1158.6,4724.18 1169.97,4714.85 1179.29,4703.49 1186.22,4690.52 1190.49,4676.45 1191.94,4661.79 1191.6,4504.27 1193.97,4496.68 1207.5,4477.15 1215.2,4458.55 1219.13,4438.81 1219.13,4418.68 1215.2,4398.93 1207.5,4380.33 1196.31,4363.59 1182.08,4349.35 1165.34,4338.17 1146.74,4330.47 1126.99,4326.54 1106.86,4326.54 1087.11,4330.47 1068.51,4338.17 1051.75,4349.37 1040.24,4360.5 1030.95,4362.97 1026.03,4361.74 1021.15,4358.22 1013.33,4342.12 1008.92,4336.75 997.423,4329.06 983.127,4326.29 920.945,4325.33 915.715,4321.96 889.879,4295.57 887.635,4287.78 887.919,4174.23 890.117,4168.93 900.073,4154.03 907.481,4136.15 911.257,4117.16 911.257,4097.8 907.481,4078.82 900.073,4060.94 889.321,4044.84 875.631,4031.15 859.537,4020.4 841.601,4012.97 834.715,4011.37 830.363,4008.69 790.027,3958.01 787.469,3952.94 787.213,3641.37 784.413,3620.74 786.657,3612.08 793.505,3606.32 801.469,3605.41 808.511,3607.34 822.083,3614.58 836.153,3618.84 850.813,3620.29 1576.09,3620.21 1581.27,3622.32 1599.33,3635.18 1602.86,3640.72 1603.44,3648.54 1598.78,3656.7 1588.62,3663.05 1573.72,3676.48 1561.75,3692.53 1551.55,3715.66 1554.14,3720.55 1582.29,3720.55 1591.55,3702.78 1601.27,3692.03 1612.97,3683.49 1627.55,3677 1641.72,3674.02 1656.7,3674.02 1671.35,3677.13 1685.04,3683.22 1696.77,3691.72 1706.87,3702.78 1714.85,3716.59 1719.38,3730.87 1720.84,3745.77 1719.17,3760.65 1714.67,3774.42 1707.45,3786.98 1697.51,3798.18 1684.6,3807.56 1671.35,3813.42 1657.19,3816.46 1641.23,3816.46 1627.07,3813.42 1613.38,3807.33 1601.65,3798.84 1591.55,3787.78 1582.29,3770 1554.14,3770 1551.55,3774.9 1561.75,3798.02 1573.72,3814.07 1588.62,3827.51 1599.26,3834.32 1602.58,3839.19 1603.7,3844.01 1602.86,3849.84 1599.8,3854.87 1584.08,3865.87 1569.82,3880.13 1558.64,3896.87 1550.93,3915.47 1547.01,3935.21 1547.01,3955.34 1550.93,3975.09 1558.64,3993.69 1569.82,4010.43 1584.08,4024.68 1598.83,4034.89 1602.01,4039.64 1603.13,4045.28 1602.01,4050.91 1598.83,4055.67 1584.08,4065.87 1569.82,4080.13 1558.64,4096.87 1550.93,4115.47 1547.01,4135.21 1547.01,4155.34 1550.93,4175.09 1558.64,4193.69 1572.17,4213.22 1574.54,4220.81 1574.56,4501.96 1573.44,4507.6 1570.25,4512.37 1244.65,4837.97 1239.87,4841.16 1234.24,4842.29 796.467,4842.29 790.831,4841.16 786.055,4837.97 405.025,4456.43 393.639,4447.09 380.671,4440.15 366.601,4435.89 351.943,4434.44 155.301,4434.56 147.511,4430.49 144.047,4425.09 143.149,4420.08" style="stroke:rgb(0,0,0);stroke-width:1px;fill:none;stroke-opacity:1;stroke-linecap:round;stroke-linejoin:round;;fill:none"/>
<polyline points="773.015,3397.3 773.231,3369.55 775.513,3363.77 779.407,3359.83 787.787,3357.24 811.171,3361.66 830.545,3361.66 849.529,3357.88 867.411,3350.47 883.507,3339.72 897.195,3326.03 907.947,3309.94 915.355,3292.05 919.131,3273.07 919.131,3253.71 915.355,3234.72 907.947,3216.84 897.195,3200.74 873.697,3178.78 871.647,3170.14 874.947,3161.89 882.111,3157.12 892.143,3155.87 906.261,3151.58 919.227,3144.65 930.615,3135.31 1241.17,2824.24 1245.95,2821.05 1251.59,2819.92 1576.09,2820.21 1581.27,2822.32 1599.33,2835.18 1602.86,2840.72 1603.44,2848.54 1598.78,2856.7 1588.62,2863.05 1573.72,2876.48 1561.75,2892.53 1551.55,2915.66 1554.14,2920.55 1582.29,2920.55 1590.97,2903.57 1601.65,2891.72 1613.82,2883 1626.61,2877.31 1642.21,2873.99 1656.7,2874.02 1670.88,2877 1685.04,2883.22 1696.77,2891.72 1706.87,2902.78 1716.13,2920.55 1744.28,2920.55 1746.86,2915.66 1736.67,2892.53 1724.7,2876.48 1709.79,2863.05 1697.81,2854.74 1694.7,2845.59 1695.91,2839.83 1698.62,2835.68 1714.34,2824.68 1728.6,2810.43 1739.78,2793.69 1747.49,2775.09 1751.41,2755.34 1751.41,2735.21 1747.49,2715.47 1739.78,2696.87 1728.6,2680.13 1714.34,2665.87 1699.59,2655.67 1696.41,2650.91 1695.29,2645.28 1696.41,2639.65 1699.59,2634.89 1714.34,2624.68 1728.6,2610.43 1739.78,2593.69 1747.49,2575.09 1751.41,2555.34 1751.41,2535.21 1747.49,2515.47 1739.78,2496.87 1728.6,2480.13 1714.34,2465.87 1699.59,2455.67 1696.41,2450.91 1695.29,2445.28 1696.41,2439.65 1699.59,2434.89 1719.15,2421.24 1725.2,2419.92 1749.2,2419.92 1754.83,2421.05 1759.61,2424.24 1782.85,2447.47 1786.04,2452.25 1787.16,2457.89 1787.16,3005.9 1786.31,3010.65 1782.85,3016.31 1734.22,3064.93 1727.5,3068.71 1722.77,3069.15 1717.25,3067.64 1699.11,3055.39 1695.56,3049.84 1694.98,3042.02 1699.64,3033.85 1709.79,3027.51 1724.7,3014.07 1736.67,2998.02 1746.86,2974.9 1744.28,2970 1716.13,2970 1707.45,2986.98 1696.77,2998.84 1684.6,3007.56 1671.81,3013.25 1656.21,3016.56 1641.72,3016.54 1627.55,3013.55 1613.38,3007.33 1601.65,2998.84 1591.55,2987.78 1582.29,2970 1554.14,2970 1551.55,2974.9 1561.75,2998.02 1573.72,3014.07 1588.62,3027.51 1598.78,3033.85 1603.44,3042.02 1602.86,3049.84 1599.8,3054.87 1584.08,3065.87 1569.82,3080.13 1558.64,3096.87 1550.93,3115.47 1547.01,3135.21 1547.01,3155.34 1550.93,3175.09 1558.64,3193.69 1569.82,3210.43 1584.08,3224.68 1598.14,3234.31 1600.77,3237.29 1602.84,3242.41 1602.88,3247.92 1598.83,3255.67 1581.27,3268.23 1575.17,3270.44 1350.8,3270.63 1345.16,3269.51 1340.38,3266.31 1277.52,3203.05 1275.25,3197.29 1275.04,3181.29 1270.65,3159.26 1262.06,3138.52 1249.58,3119.84 1233.7,3103.96 1215.03,3091.48 1194.28,3082.89 1172.25,3078.51 1149.79,3078.51 1127.76,3082.89 1107.01,3091.48 1088.34,3103.96 1072.46,3119.84 1059.98,3138.52 1051.39,3159.26 1047.01,3181.29 1047.01,3203.75 1051.39,3225.78 1059.98,3246.53 1072.46,3265.2 1088.34,3281.08 1107.01,3293.56 1127.76,3302.16 1149.79,3306.54 1165.79,3306.75 1171.55,3309.02 1260.72,3398.3 1272.11,3407.64 1285.07,3414.58 1299.14,3418.84 1313.8,3420.29 1576.09,3420.21 1581.27,3422.32 1598.14,3434.31 1601.57,3438.83 1603.04,3446.2 1602.01,3450.91 1598.83,3455.67 1581,3468.39 1573.22,3470.63 913.931,3470.63 908.299,3469.51 903.693,3466.48 889.321,3444.84 875.633,3431.15 859.537,3420.4 841.653,3412.99 822.669,3409.22 803.311,3409.22 785.441,3411.8 781.137,3410.44 776.599,3406.92 774.111,3402.83 773.015,3397.3" style="stroke:rgb(118,90,46);stroke-width:9.448819;fill:none;stroke-opacity:0.5;stroke-linecap:round;stroke-linejoin:round;;fill:none"/>
<polyline points="773.015,3397.3 773.231,3369.55 775.513,3363.77 779.407,3359.83 787.787,3357.24 811.171,3361.66 830.545,3361.66 849.529,3357.88 867.411,3350.47 883.507,3339.72 897.195,3326.03 907.947,3309.94 915.355,3292.05 919.131,3273.07 919.131,3253.71 915.355,3234.72 907.947,3216.84 897.195,3200.74 873.697,3178.78 871.647,3170.14 874.947,3161.89 882.111,3157.12 892.143,3155.87 906.261,3151.58 919.227,3144.65 930.615,3135.31 1241.17,2824.24 1245.95,2821.05 1251.59,2819.92 1576.09,2820.21 1581.27,2822.32 1599.33,2835.18 1602.86,2840.72 1603.44,2848.54 1598.78,2856.7 1588.62,2863.05 1573.72,2876.48 1561.75,2892.53 1551.55,2915.66 1554.14,2920.55 1582.29,2920.55 1590.97,2903.57 1601.65,2891.72 1613.82,2883 1626.61,2877.31 1642.21,2873.99 1656.7,2874.02 1670.88,2877 1685.04,2883.22 1696.77,2891.72 1706.87,2902.78 1716.13,2920.55 1744.28,2920.55 1746.86,2915.66 1736.67,2892.53 1724.7,2876.48 1709.79,2863.05 1697.81,2854.74 1694.7,2845.59 1695.91,2839.83 1698.62,2835.68 1714.34,2824.68 1728.6,2810.43 1739.78,2793.69 1747.49,2775.09 1751.41,2755.34 1751.41,2735.21 1747.49,2715.47 1739.78,2696.87 1728.6,2680.13 1714.34,2665.87 1699.59,2655.67 1696.41,2650.91 1695.29,2645.28 1696.41,2639.65 1699.59,2634.89 1714.34,2624.68 1728.6,2610.43 1739.78,2593.69 1747.49,2575.09 1751.41,2555.34 1751.41,2535.21 1747.49,2515.47 1739.78,2496.87 1728.6,2480.13 1714.34,2465.87 1699.59,2455.67 1696.41,2450.91 1695.29,2445.28 1696.41,2439.65 1699.59,2434.89 1719.15,2421.24 1725.2,2419.92 1749.2,2419.92 1754.83,2421.05 1759.61,2424.24 1782.85,2447.47 1786.04,2452.25 1787.16,2457.89 1787.16,3005.9 1786.31,3010.65 1782.85,3016.31 1734.22,3064.93 1727.5,3068.71 1722.77,3069.15 1717.25,3067.64 1699.11,3055.39 1695.56,3049.84 1694.98,3042.02 1699.64,3033.85 1709.79,3027.51 1724.7,3014.07 1736.67,2998.02 1746.86,2974.9 1744.28,2970 1716.13,2970 1707.45,2986.98 1696.77,2998.84 1684.6,3007.56 1671.81,3013.25 1656.21,3016.56 1641.72,3016.54 1627.55,3013.55 1613.38,3007.33 1601.65,2998.84 1591.55,2987.78 1582.29,2970 1554.14,2970 1551.55,2974.9 1561.75,2998.02 1573.72,3014.07 1588.62,3027.51 1598.78,3033.85 1603.44,3042.02 1602.86,3049.84 1599.8,3054.87 1584.08,3065.87 1569.82,3080.13 1558.64,3096.87 1550.93,3115.47 1547.01,3135.21 1547.01,3155.34 1550.93,3175.09 1558.64,3193.69 1569.82,3210.43 1584.08,3224.68 1598.14,3234.31 1600.77,3237.29 1602.84,3242.41 1602.88,3247.92 1598.83,3255.67 1581.27,3268.23 1575.17,3270.44 1350.8,3270.63 1345.16,3269.51 1340.38,3266.31 1277.52,3203.05 1275.25,3197.29 1275.04,3181.29 1270.65,3159.26 1262.06,3138.52 1249.58,3119.84 1233.7,3103.96 1215.03,3091.48 1194.28,3082.89 1172.25,3078.51 1149.79,3078.51 1127.76,3082.89 1107.01,3091.48 1088.34,3103.96 1072.46,3119.84 1059.98,3138.52 1051.39,3159.26 1047.01,3181.29 1047.01,3203.75 1051.39,3225.78 1059.98,3246.53 1072.46,3265.2 1088.34,3281.08 1107.01,3293.56 1127.76,3302.16 1149.79,3306.54 1165.79,3306.75 1171.55,3309.02 1260.72,3398.3 1272.11,3407.64 1285.07,3414.58 1299.14,3418.84 1313.8,3420.29 1576.09,3420.21 1581.27,3422.32 1598.14,3434.31 1601.57,3438.83 1603.04,3446.2 1602.01,3450.91 1598.83,3455.67 1581,3468.39 1573.22,3470.63 913.931,3470.63 908.299,3469.51 903.693,3466.48 889.321,3444.84 875.633,3431.15 859.537,3420.4 841.653,3412.99 822.669,3409.22 803.311,3409.22 785.441,3411.8 781.137,3410.44 776.599,3406.92 774.111,3402.83 773.015,3397.3" style="stroke:rgb(0,0,0);stroke-width:1px;fill:none;stroke-opacity:1;stroke-linecap:round;stroke-linejoin:round;;fill:none"/>
<polyline points="990.945,1885.43 992.691,1902.3 998.161,1919.38 1007.19,1934.88 1018.94,1947.77 1033.12,1957.94 1049.09,1964.94 1066.18,1968.47 1083.13,1968.44 1092.99,1966.37 1110.15,1982.18 1117.81,1986.17 1133.79,1989.35 1592.99,1989.37 1601.65,1998.84 1612.97,2007.06 1626.61,2013.25 1641.72,2016.54 1656.7,2016.54 1671.35,2013.42 1684.6,2007.56 1697.51,1998.18 1707.45,1986.98 1714.67,1974.42 1719.17,1960.65 1720.84,1945.77 1719.38,1930.87 1714.85,1916.59 1706.87,1902.78 1696.77,1891.72 1685.04,1883.22 1671.35,1877.13 1656.7,1874.02 1641.72,1874.02 1626.61,1877.31 1612.97,1883.49 1601.27,1892.03 1592.99,1901.18 1156.24,1901.18 1157.87,1885.43 1155.92,1867.6 1150.66,1851.49 1141.62,1835.99 1130.26,1823.41 1115.7,1812.93 1100.2,1806.05 1083.13,1802.43 1065.68,1802.43 1048.62,1806.05 1032.26,1813.42 1018.56,1823.41 1007.19,1835.99 998.161,1851.49 992.691,1868.57 990.945,1885.43" style="stroke:rgb(99,51,159);stroke-width:9.448819;fill:none;stroke-opacity:0.5;stroke-linecap:round;stroke-linejoin:round;;fill:none"/>
<polyline points="990.945,1885.43 992.691,1902.3 998.161,1919.38 1007.19,1934.88 1018.94,1947.77 1033.12,1957.94 1049.09,1964.94 1066.18,1968.47 1083.13,1968.44 1092.99,1966.37 1110.15,1982.18 1117.81,1986.17 1133.79,1989.35 1592.99,1989.37 1601.65,1998.84 1612.97,2007.06 1626.61,2013.25 1641.72,2016.54 1656.7,2016.54 1671.35,2013.42 1684.6,2007.56 1697.51,1998.18 1707.45,1986.98 1714.67,1974.42 1719.17,1960.65 1720.84,1945.77 1719.38,1930.87 1714.85,1916.59 1706.87,1902.78 1696.77,1891.72 1685.04,1883.22 1671.35,1877.13 1656.7,1874.02 1641.72,1874.02 1626.61,1877.31 1612.97,1883.49 1601.27,1892.03 1592.99,1901.18 1156.24,1901.18 1157.87,1885.43 1155.92,1867.6 1150.66,1851.49 1141.62,1835.99 1130.26,1823.41 1115.7,1812.93 1100.2,1806.05 1083.13,1802.43 1065.68,1802.43 1048.62,1806.05 1032.26,1813.42 1018.56,1823.41 1007.19,1835.99 998.161,1851.49 992.691,1868.57 990.945,1885.43" style="stroke:rgb(0,0,0);stroke-width:1px;fill:none;stroke-opacity:1;stroke-linecap:round;stroke-linejoin:round;;fill:none"/>
<polyline points="1085.47,1533.68 1086.61,1538.56 1089.74,1543.24 1212.83,1666.32 1220.36,1670.35 1575.17,1670.44 1581.27,1668.23 1598.83,1655.67 1602.73,1648.6 1602.84,1642.41 1598.67,1634.73 1584.08,1624.68 1569.82,1610.43 1558.64,1593.69 1550.93,1575.09 1547.01,1555.34 1547.01,1535.21 1550.93,1515.47 1558.64,1496.87 1569.82,1480.13 1584.06,1465.89 1599.13,1455.55 1602.51,1450.72 1603.7,1444.01 1602.19,1438.32 1598.56,1433.68 1589.72,1428.15 1611.72,1406.15 1627.07,1413.42 1641.72,1416.54 1656.7,1416.54 1671.35,1413.42 1684.6,1407.56 1697.16,1398.53 1707.45,1386.98 1716.13,1370 1744.28,1370 1746.86,1374.9 1736.67,1398.02 1724.7,1414.07 1709.83,1427.48 1697.81,1435.82 1694.98,1442.02 1695.91,1450.72 1701.22,1457.11 1717.15,1468.24 1722.33,1470.35 1774.39,1470.44 1783.01,1466.15 1786.04,1461.54 1787.16,1455.91 1787.16,764.972 1786.04,759.338 1782.85,754.56 1747.87,719.712 1740.13,716.178 1455.33,715.986 1449.38,717.3 1444.07,721.236 1435.69,733.336 1422,743.26 1418.68,749.918 1418.71,863.164 1417.26,877.82 1411.85,897.73 1411.85,1095.86 1414.39,1104.1 1419.65,1108.84 1427.62,1110.53 1434.17,1108.45 1450.48,1092.26 1461.87,1082.91 1474.84,1075.98 1488.91,1071.71 1503.57,1070.27 1537.58,1070.63 1542.77,1069.69 1547.59,1066.68 1557.22,1053.29 1562.59,1048.88 1575.37,1043.58 1715.41,1042.83 1729.7,1045.6 1741.2,1053.29 1745.61,1058.66 1750.9,1071.43 1751.66,1079.08 1750.9,1219.12 1748.89,1225.77 1741.2,1237.27 1735.83,1241.68 1719.77,1249.09 1715.18,1255.56 1714.33,1261.56 1717.36,1269.55 1724.67,1276.45 1736.67,1292.53 1746.86,1315.66 1744.28,1320.55 1716.13,1320.55 1707.45,1303.57 1697.51,1292.38 1685.04,1283.22 1671.35,1277.13 1656.21,1273.99 1641.72,1274.02 1627.07,1277.13 1613.82,1283 1601.27,1292.03 1590.97,1303.57 1583.75,1316.13 1579.05,1330.87 1577.58,1345.77 1579.25,1360.65 1583.75,1374.42 1588.47,1382.64 1566.59,1404.51 1561.75,1398.02 1551.55,1374.87 1559.35,1359.55 1558.97,1349.96 1556.36,1345.63 1551.58,1342 1545.75,1340.58 1539.04,1340.88 1532.53,1344.03 1458.17,1418.77 1446.79,1428.12 1433.82,1435.05 1419.75,1439.32 1405.09,1440.76 1198.04,1440.68 1192.74,1442.88 1188.69,1446.91 1183.34,1459.1 1170.84,1477.8 1154.96,1493.68 1136.29,1506.16 1115.54,1514.75 1093.04,1519.95 1088.25,1524.25 1086.08,1528.57 1085.47,1533.68" style="stroke:rgb(201,154,102);stroke-width:9.448819;fill:none;stroke-opacity:0.5;stroke-linecap:round;stroke-linejoin:round;;fill:none"/>
<polyline points="1085.47,1533.68 1086.61,1538.56 1089.74,1543.24 1212.83,1666.32 1220.36,1670.35 1575.17,1670.44 1581.27,1668.23 1598.83,1655.67 1602.73,1648.6 1602.84,1642.41 1598.67,1634.73 1584.08,1624.68 1569.82,1610.43 1558.64,1593.69 1550.93,1575.09 1547.01,1555.34 1547.01,1535.21 1550.93,1515.47 1558.64,1496.87 1569.82,1480.13 1584.06,1465.89 1599.13,1455.55 1602.51,1450.72 1603.7,1444.01 1602.19,1438.32 1598.56,1433.68 1589.72,1428.15 1611.72,1406.15 1627.07,1413.42 1641.72,1416.54 1656.7,1416.54 1671.35,1413.42 1684.6,1407.56 1697.16,1398.53 1707.45,1386.98 1716.13,1370 1744.28,1370 1746.86,1374.9 1736.67,1398.02 1724.7,1414.07 1709.83,1427.48 1697.81,1435.82 1694.98,1442.02 1695.91,1450.72 1701.22,1457.11 1717.15,1468.24 1722.33,1470.35 1774.39,1470.44 1783.01,1466.15 1786.04,1461.54 1787.16,1455.91 1787.16,764.972 1786.04,759.338 1782.85,754.56 1747.87,719.712 1740.13,716.178 1455.33,715.986 1449.38,717.3 1444.07,721.236 1435.69,733.336 1422,743.26 1418.68,749.918 1418.71,863.164 1417.26,877.82 1411.85,897.73 1411.85,1095.86 1414.39,1104.1 1419.65,1108.84 1427.62,1110.53 1434.17,1108.45 1450.48,1092.26 1461.87,1082.91 1474.84,1075.98 1488.91,1071.71 1503.57,1070.27 1537.58,1070.63 1542.77,1069.69 1547.59,1066.68 1557.22,1053.29 1562.59,1048.88 1575.37,1043.58 1715.41,1042.83 1729.7,1045.6 1741.2,1053.29 1745.61,1058.66 1750.9,1071.43 1751.66,1079.08 1750.9,1219.12 1748.89,1225.77 1741.2,1237.27 1735.83,1241.68 1719.77,1249.09 1715.18,1255.56 1714.33,1261.56 1717.36,1269.55 1724.67,1276.45 1736.67,1292.53 1746.86,1315.66 1744.28,1320.55 1716.13,1320.55 1707.45,1303.57 1697.51,1292.38 1685.04,1283.22 1671.35,1277.13 1656.21,1273.99 1641.72,1274.02 1627.07,1277.13 1613.82,1283 1601.27,1292.03 1590.97,1303.57 1583.75,1316.13 1579.05,1330.87 1577.58,1345.77 1579.25,1360.65 1583.75,1374.42 1588.47,1382.64 1566.59,1404.51 1561.75,1398.02 1551.55,1374.87 1559.35,1359.55 1558.97,1349.96 1556.36,1345.63 1551.58,1342 1545.75,1340.58 1539.04,1340.88 1532.53,1344.03 1458.17,1418.77 1446.79,1428.12 1433.82,1435.05 1419.75,1439.32 1405.09,1440.76 1198.04,1440.68 1192.74,1442.88 1188.69,1446.91 1183.34,1459.1 1170.84,1477.8 1154.96,1493.68 1136.29,1506.16 1115.54,1514.75 1093.04,1519.95 1088.25,1524.25 1086.08,1528.57 1085.47,1533.68" style="stroke:rgb(0,0,0);stroke-width:1px;fill:none;stroke-opacity:1;stroke-linecap:round;stroke-linejoin:round;;fill:none"/>
<polyline points="998.819,1405.12 1000.56,1421.98 1006.03,1439.07 1014.49,1453.76 1026.08,1466.8 1040.13,1477.13 1056.03,1484.32 1074.05,1488.15 1091.01,1488.13 1108.07,1484.5 1123.57,1477.63 1138.13,1467.15 1150.08,1453.76 1158.53,1439.07 1163.79,1422.95 1165.28,1409.85 1405.11,1409.85 1414.17,1408.89 1422.41,1406.29 1429.98,1402.14 1436.29,1396.93 1507.16,1326.06 1512.37,1319.75 1516.52,1312.18 1519.12,1303.94 1520.08,1294.89 1520.08,1191.1 1521.8,1189.37 1577.56,1189.37 1577.65,1213.13 1578.94,1215.55 1581.36,1216.84 1716.14,1216.93 1719.48,1215.55 1720.86,1212.21 1720.5,1076.54 1718.76,1074.42 1716.14,1073.62 1581.36,1073.71 1578.94,1075.01 1577.65,1077.43 1577.56,1101.18 1503.08,1101.21 1487.1,1104.38 1478.67,1108.89 1444.49,1142 1439.08,1148.74 1432.85,1163.78 1431.89,1172.84 1431.89,1276.62 1386.85,1321.66 1121.65,1321.66 1112.6,1322.62 1104.82,1325.02 1090.51,1322.09 1074.05,1322.09 1056.97,1325.61 1040.13,1333.11 1026.43,1343.09 1015.07,1355.68 1005.86,1371.63 1000.56,1388.25 998.819,1405.12" style="stroke:rgb(50,13,183);stroke-width:9.448819;fill:none;stroke-opacity:0.5;stroke-linecap:round;stroke-linejoin:round;;fill:none"/>
<polyline points="998.819,1405.12 1000.56,1421.98 1006.03,1439.07 1014.49,1453.76 1026.08,1466.8 1040.13,1477.13 1056.03,1484.32 1074.05,1488.15 1091.01,1488.13 1108.07,1484.5 1123.57,1477.63 1138.13,1467.15 1150.08,1453.76 1158.53,1439.07 1163.79,1422.95 1165.28,1409.85 1405.11,1409.85 1414.17,1408.89 1422.41,1406.29 1429.98,1402.14 1436.29,1396.93 1507.16,1326.06 1512.37,1319.75 1516.52,1312.18 1519.12,1303.94 1520.08,1294.89 1520.08,1191.1 1521.8,1189.37 1577.56,1189.37 1577.65,1213.13 1578.94,1215.55 1581.36,1216.84 1716.14,1216.93 1719.48,1215.55 1720.86,1212.21 1720.5,1076.54 1718.76,1074.42 1716.14,1073.62 1581.36,1073.71 1578.94,1075.01 1577.65,1077.43 1577.56,1101.18 1503.08,1101.21 1487.1,1104.38 1478.67,1108.89 1444.49,1142 1439.08,1148.74 1432.85,1163.78 1431.89,1172.84 1431.89,1276.62 1386.85,1321.66 1121.65,1321.66 1112.6,1322.62 1104.82,1325.02 1090.51,1322.09 1074.05,1322.09 1056.97,1325.61 1040.13,1333.11 1026.43,1343.09 1015.07,1355.68 1005.86,1371.63 1000.56,1388.25 998.819,1405.12" style="stroke:rgb(0,0,0);stroke-width:1px;fill:none;stroke-opacity:1;stroke-linecap:round;stroke-linejoin:round;;fill:none"/>
<polyline points="1016.07,2007.68 1017.01,2012.05 1020.1,2016.9 1064.44,2060.72 1073.78,2072.11 1080.71,2085.08 1084.98,2099.15 1086.42,2113.81 1086.15,2148.55 1087.18,2153.26 1090.37,2158.04 1399.37,2466.91 1407.11,2470.44 1573.21,2470.63 1579.27,2469.31 1599.4,2454.98 1602.28,2450.03 1603.13,2445.28 1602.28,2440.53 1597.3,2433.62 1584.06,2424.67 1569.82,2410.43 1558.64,2393.69 1550.93,2375.09 1547.01,2355.34 1547.01,2335.21 1550.93,2315.47 1558.64,2296.87 1569.82,2280.13 1584.08,2265.87 1599.8,2254.87 1602.86,2249.84 1603.7,2244.01 1602.58,2239.19 1599.26,2234.32 1588.62,2227.51 1573.72,2214.07 1561.75,2198.02 1551.55,2174.9 1554.14,2170 1582.29,2170 1590.97,2186.98 1601.65,2198.84 1613.38,2207.33 1626.61,2213.25 1642.21,2216.56 1656.7,2216.54 1670.88,2213.55 1685.45,2207.06 1697.16,2198.53 1706.87,2187.78 1716.13,2170 1744.28,2170 1746.86,2174.9 1736.67,2198.02 1724.7,2214.07 1709.83,2227.48 1699.86,2233.68 1696.23,2238.32 1694.7,2244.96 1696.84,2252.51 1700.84,2256.83 1719.79,2269.6 1725.2,2270.63 1751.7,2270.54 1756.41,2269.51 1761.19,2266.32 1782.85,2244.65 1786.31,2238.99 1787.16,2234.24 1787.16,1634.65 1786.04,1629.01 1782.51,1623.93 1775.31,1620.21 1722.33,1620.21 1717.15,1622.32 1699.59,1634.89 1696.41,1639.65 1695.29,1645.28 1696.41,1650.91 1699.59,1655.67 1714.34,1665.87 1728.6,1680.13 1739.78,1696.87 1747.49,1715.47 1751.41,1735.21 1751.41,1755.34 1747.49,1775.09 1739.78,1793.69 1728.6,1810.43 1714.34,1824.68 1699.59,1834.89 1696.41,1839.65 1695.29,1845.28 1696.41,1850.91 1699.59,1855.67 1714.34,1865.87 1728.6,1880.13 1739.78,1896.87 1747.49,1915.47 1751.41,1935.21 1751.41,1955.34 1747.49,1975.09 1739.78,1993.69 1728.6,2010.43 1714.34,2024.68 1698.62,2035.68 1695.91,2039.83 1694.7,2045.59 1697.81,2054.74 1709.8,2063.05 1724.7,2076.48 1736.67,2092.53 1746.86,2115.66 1744.28,2120.55 1716.13,2120.55 1707.45,2103.57 1696.77,2091.72 1685.04,2083.22 1671.81,2077.31 1656.21,2073.99 1641.72,2074.02 1627.55,2077 1612.97,2083.49 1601.27,2092.03 1591.55,2102.78 1582.29,2120.55 1554.14,2120.55 1551.55,2115.66 1561.75,2092.53 1573.72,2076.48 1588.62,2063.05 1598.78,2056.7 1603.44,2048.54 1602.86,2040.72 1599.33,2035.18 1581.27,2022.32 1576.09,2020.21 1134.28,2020.29 1119.62,2018.84 1105.54,2014.58 1080.63,1999.87 1063.2,1999.45 1030.5,1991.96 1026.02,1992.78 1019.5,1997.12 1016.65,2002.34 1016.07,2007.68" style="stroke:rgb(49,88,163);stroke-width:9.448819;fill:none;stroke-opacity:0.5;stroke-linecap:round;stroke-linejoin:round;;fill:none"/>
<polyline points="1016.07,2007.68 1017.01,2012.05 1020.1,2016.9 1064.44,2060.72 1073.78,2072.11 1080.71,2085.08 1084.98,2099.15 1086.42,2113.81 1086.15,2148.55 1087.18,2153.26 1090.37,2158.04 1399.37,2466.91 1407.11,2470.44 1573.21,2470.63 1579.27,2469.31 1599.4,2454.98 1602.28,2450.03 1603.13,2445.28 1602.28,2440.53 1597.3,2433.62 1584.06,2424.67 1569.82,2410.43 1558.64,2393.69 1550.93,2375.09 1547.01,2355.34 1547.01,2335.21 1550.93,2315.47 1558.64,2296.87 1569.82,2280.13 1584.08,2265.87 1599.8,2254.87 1602.86,2249.84 1603.7,2244.01 1602.58,2239.19 1599.26,2234.32 1588.62,2227.51 1573.72,2214.07 1561.75,2198.02 1551.55,2174.9 1554.14,2170 1582.29,2170 1590.97,2186.98 1601.65,2198.84 1613.38,2207.33 1626.61,2213.25 1642.21,2216.56 1656.7,2216.54 1670.88,2213.55 1685.45,2207.06 1697.16,2198.53 1706.87,2187.78 1716.13,2170 1744.28,2170 1746.86,2174.9 1736.67,2198.02 1724.7,2214.07 1709.83,2227.48 1699.86,2233.68 1696.23,2238.32 1694.7,2244.96 1696.84,2252.51 1700.84,2256.83 1719.79,2269.6 1725.2,2270.63 1751.7,2270.54 1756.41,2269.51 1761.19,2266.32 1782.85,2244.65 1786.31,2238.99 1787.16,2234.24 1787.16,1634.65 1786.04,1629.01 1782.51,1623.93 1775.31,1620.21 1722.33,1620.21 1717.15,1622.32 1699.59,1634.89 1696.41,1639.65 1695.29,1645.28 1696.41,1650.91 1699.59,1655.67 1714.34,1665.87 1728.6,1680.13 1739.78,1696.87 1747.49,1715.47 1751.41,1735.21 1751.41,1755.34 1747.49,1775.09 1739.78,1793.69 1728.6,1810.43 1714.34,1824.68 1699.59,1834.89 1696.41,1839.65 1695.29,1845.28 1696.41,1850.91 1699.59,1855.67 1714.34,1865.87 1728.6,1880.13 1739.78,1896.87 1747.49,1915.47 1751.41,1935.21 1751.41,1955.34 1747.49,1975.09 1739.78,1993.69 1728.6,2010.43 1714.34,2024.68 1698.62,2035.68 1695.91,2039.83 1694.7,2045.59 1697.81,2054.74 1709.8,2063.05 1724.7,2076.48 1736.67,2092.53 1746.86,2115.66 1744.28,2120.55 1716.13,2120.55 1707.45,2103.57 1696.77,2091.72 1685.04,2083.22 1671.81,2077.31 1656.21,2073.99 1641.72,2074.02 1627.55,2077 1612.97,2083.49 1601.27,2092.03 1591.55,2102.78 1582.29,2120.55 1554.14,2120.55 1551.55,2115.66 1561.75,2092.53 1573.72,2076.48 1588.62,2063.05 1598.78,2056.7 1603.44,2048.54 1602.86,2040.72 1599.33,2035.18 1581.27,2022.32 1576.09,2020.21 1134.28,2020.29 1119.62,2018.84 1105.54,2014.58 1080.63,1999.87 1063.2,1999.45 1030.5,1991.96 1026.02,1992.78 1019.5,1997.12 1016.65,2002.34 1016.07,2007.68" style="stroke:rgb(0,0,0);stroke-width:1px;fill:none;stroke-opacity:1;stroke-linecap:round;stroke-linejoin:round;;fill:none"/>
<polyline points="609.697,3582.93 613.769,3436.35 616.189,3428.05 620.697,3419.62 654.275,3384.94 654.299,3296.34 655.235,3287.75 661.469,3272.7 667.191,3265.62 700.601,3232.21 707.681,3226.49 715.343,3222.49 731.317,3219.32 769.909,3219.29 775.555,3213.06 787.447,3204.52 799.939,3198.99 813.787,3196.04 827.943,3196.04 841.313,3198.86 855.139,3205.01 866.177,3213.06 875.339,3223.2 882.503,3235.4 886.975,3248.83 888.557,3263.88 887.103,3277.47 882.905,3290.47 875.919,3302.78 865.793,3314.02 854.283,3322.26 841.791,3327.79 828.433,3330.66 813.787,3330.73 799.479,3327.61 786.593,3321.76 775.555,3313.71 769.913,3307.48 750.045,3307.48 742.465,3315.06 741.685,3411.35 739.265,3419.64 734.757,3428.07 701.173,3462.76 697.953,3564.73 743.695,3610.5 752.743,3624.05 755.519,3633.2 756.299,3964.61 815.955,4040.11 834.379,4043.26 847.265,4049.11 858.653,4057.51 867.465,4067.29 874.629,4079.5 879.229,4093.4 880.683,4107.98 879.229,4121.56 875.031,4134.56 867.465,4147.67 857.085,4158.72 857.085,4306.54 907.633,4357.09 983.857,4357.09 987.785,4359.19 988.581,4495.67 987.785,4498.3 985.665,4500.04 849.999,4500.4 847.375,4499.6 845.275,4495.67 845.275,4419.45 781.811,4355.98 776.089,4348.9 772.095,4341.24 769.675,4332.95 768.895,4324.8 768.895,4158.72 758.519,4147.67 750.953,4134.56 746.677,4121.07 745.275,4107.45 746.767,4094.79 677.605,4007.26 670.697,3994.76 668.675,3986.87 668.109,3659.61 617.405,3607.8 612.897,3599.37 610.477,3591.07 609.697,3582.93" style="stroke:rgb(90,37,93);stroke-width:9.448819;fill:none;stroke-opacity:0.5;stroke-linecap:round;stroke-linejoin:round;;fill:none"/>
<polyline points="609.697,3582.93 613.769,3436.35 616.189,3428.05 620.697,3419.62 654.275,3384.94 654.299,3296.34 655.235,3287.75 661.469,3272.7 667.191,3265.62 700.601,3232.21 707.681,3226.49 715.343,3222.49 731.317,3219.32 769.909,3219.29 775.555,3213.06 787.447,3204.52 799.939,3198.99 813.787,3196.04 827.943,3196.04 841.313,3198.86 855.139,3205.01 866.177,3213.06 875.339,3223.2 882.503,3235.4 886.975,3248.83 888.557,3263.88 887.103,3277.47 882.905,3290.47 875.919,3302.78 865.793,3314.02 854.283,3322.26 841.791,3327.79 828.433,3330.66 813.787,3330.73 799.479,3327.61 786.593,3321.76 775.555,3313.71 769.913,3307.48 750.045,3307.48 742.465,3315.06 741.685,3411.35 739.265,3419.64 734.757,3428.07 701.173,3462.76 697.953,3564.73 743.695,3610.5 752.743,3624.05 755.519,3633.2 756.299,3964.61 815.955,4040.11 834.379,4043.26 847.265,4049.11 858.653,4057.51 867.465,4067.29 874.629,4079.5 879.229,4093.4 880.683,4107.98 879.229,4121.56 875.031,4134.56 867.465,4147.67 857.085,4158.72 857.085,4306.54 907.633,4357.09 983.857,4357.09 987.785,4359.19 988.581,4495.67 987.785,4498.3 985.665,4500.04 849.999,4500.4 847.375,4499.6 845.275,4495.67 845.275,4419.45 781.811,4355.98 776.089,4348.9 772.095,4341.24 769.675,4332.95 768.895,4324.8 768.895,4158.72 758.519,4147.67 750.953,4134.56 746.677,4121.07 745.275,4107.45 746.767,4094.79 677.605,4007.26 670.697,3994.76 668.675,3986.87 668.109,3659.61 617.405,3607.8 612.897,3599.37 610.477,3591.07 609.697,3582.93" style="stroke:rgb(0,0,0);stroke-width:1px;fill:none;stroke-opacity:1;stroke-linecap:round;stroke-linejoin:round;;fill:none"/>
<polyline points="745.301,3507.98 746.755,3493.4 750.953,3480.4 757.939,3468.09 767.681,3457.16 778.719,3449.11 792.065,3443.08 805.913,3440.14 819.575,3440.11 834.379,3443.26 847.265,3449.11 858.653,3457.51 867.465,3467.29 874.629,3479.5 879.229,3493.4 880.073,3501.18 1592.99,3501.18 1601.27,3492.03 1612.97,3483.49 1626.61,3477.31 1641.72,3474.02 1656.7,3474.02 1671.35,3477.13 1684.6,3483 1697.51,3492.38 1707.45,3503.57 1714.67,3516.13 1719.38,3530.87 1720.86,3545.28 1719.38,3559.69 1714.67,3574.42 1707.45,3586.98 1697.51,3598.18 1684.6,3607.56 1671.35,3613.42 1656.21,3616.56 1641.72,3616.54 1626.61,3613.25 1612.97,3607.06 1601.65,3598.84 1592.99,3589.37 850.787,3589.37 841.733,3588.41 833.493,3585.82 825.917,3581.67 817.943,3574.8 805.925,3574.83 792.065,3571.88 779.573,3566.35 768.065,3558.12 758.519,3547.67 751.353,3535.47 746.755,3521.56 745.301,3507.98" style="stroke:rgb(5,23,88);stroke-width:9.448819;fill:none;stroke-opacity:0.5;stroke-linecap:round;stroke-linejoin:round;;fill:none"/>
<polyline points="745.301,3507.98 746.755,3493.4 750.953,3480.4 757.939,3468.09 767.681,3457.16 778.719,3449.11 792.065,3443.08 805.913,3440.14 819.575,3440.11 834.379,3443.26 847.265,3449.11 858.653,3457.51 867.465,3467.29 874.629,3479.5 879.229,3493.4 880.073,3501.18 1592.99,3501.18 1601.27,3492.03 1612.97,3483.49 1626.61,3477.31 1641.72,3474.02 1656.7,3474.02 1671.35,3477.13 1684.6,3483 1697.51,3492.38 1707.45,3503.57 1714.67,3516.13 1719.38,3530.87 1720.86,3545.28 1719.38,3559.69 1714.67,3574.42 1707.45,3586.98 1697.51,3598.18 1684.6,3607.56 1671.35,3613.42 1656.21,3616.56 1641.72,3616.54 1626.61,3613.25 1612.97,3607.06 1601.65,3598.84 1592.99,3589.37 850.787,3589.37 841.733,3588.41 833.493,3585.82 825.917,3581.67 817.943,3574.8 805.925,3574.83 792.065,3571.88 779.573,3566.35 768.065,3558.12 758.519,3547.67 751.353,3535.47 746.755,3521.56 745.301,3507.98" style="stroke:rgb(0,0,0);stroke-width:1px;fill:none;stroke-opacity:1;stroke-linecap:round;stroke-linejoin:round;;fill:none"/>
<polyline points="353.175,2663.88 354.629,2649.31 359.227,2635.4 366.393,2623.2 376.769,2612.15 376.769,2074.41 377.549,2066.27 379.969,2057.97 383.963,2050.31 389.685,2043.23 497.157,1935.76 494.881,1916.93 496.833,1899.1 502.097,1882.98 510.553,1868.29 522.497,1854.9 537.055,1844.42 552.553,1837.55 569.133,1834 587.071,1833.92 604.137,1837.55 620.493,1844.92 634.195,1854.9 646.139,1868.29 654.595,1882.98 659.859,1899.1 661.811,1916.93 659.859,1934.76 654.369,1951.32 646.139,1965.58 634.545,1978.61 619.637,1989.44 604.137,1996.31 587.071,1999.94 569.621,1999.94 559.765,1997.87 464.959,2092.68 464.959,2612.15 475.339,2623.2 482.905,2636.31 487.103,2649.31 488.557,2662.89 486.975,2677.94 482.905,2690.47 475.919,2702.78 466.177,2713.71 455.139,2721.76 441.313,2727.92 427.943,2730.73 413.787,2730.73 399.939,2727.79 387.447,2722.26 375.205,2713.36 365.813,2702.78 359.227,2691.37 354.629,2677.47 353.175,2663.88" style="stroke:rgb(233,94,212);stroke-width:9.448819;fill:none;stroke-opacity:0.5;stroke-linecap:round;stroke-linejoin:round;;fill:none"/>
<polyline points="353.175,2663.88 354.629,2649.31 359.227,2635.4 366.393,2623.2 376.769,2612.15 376.769,2074.41 377.549,2066.27 379.969,2057.97 383.963,2050.31 389.685,2043.23 497.157,1935.76 494.881,1916.93 496.833,1899.1 502.097,1882.98 510.553,1868.29 522.497,1854.9 537.055,1844.42 552.553,1837.55 569.133,1834 587.071,1833.92 604.137,1837.55 620.493,1844.92 634.195,1854.9 646.139,1868.29 654.595,1882.98 659.859,1899.1 661.811,1916.93 659.859,1934.76 654.369,1951.32 646.139,1965.58 634.545,1978.61 619.637,1989.44 604.137,1996.31 587.071,1999.94 569.621,1999.94 559.765,1997.87 464.959,2092.68 464.959,2612.15 475.339,2623.2 482.905,2636.31 487.103,2649.31 488.557,2662.89 486.975,2677.94 482.905,2690.47 475.919,2702.78 466.177,2713.71 455.139,2721.76 441.313,2727.92 427.943,2730.73 413.787,2730.73 399.939,2727.79 387.447,2722.26 375.205,2713.36 365.813,2702.78 359.227,2691.37 354.629,2677.47 353.175,2663.88" style="stroke:rgb(0,0,0);stroke-width:1px;fill:none;stroke-opacity:1;stroke-linecap:round;stroke-linejoin:round;;fill:none"/>
<polyline points="723.227,2153.15 725.179,2170.98 730.669,2187.54 739.479,2202.59 750.843,2215.18 762.597,2223.75 762.597,2629.57 758.827,2636.31 754.629,2649.31 753.175,2662.89 754.629,2677.47 758.827,2690.47 765.813,2702.78 775.555,2713.71 786.593,2721.76 800.417,2727.92 813.787,2730.73 828.433,2730.66 841.791,2727.79 855.139,2721.76 866.177,2713.71 875.339,2703.57 882.905,2690.47 887.103,2677.47 888.557,2663.88 886.975,2648.83 882.905,2636.31 875.919,2624 866.177,2613.06 850.787,2602.96 850.787,2223.75 862.541,2215.18 873.905,2202.59 882.941,2187.1 888.411,2170.02 890.157,2153.15 888.411,2136.29 882.717,2118.76 873.905,2103.71 862.157,2090.81 847.983,2080.64 832.485,2073.77 815.417,2070.14 797.967,2070.14 780.901,2073.77 765.401,2080.64 750.493,2091.47 738.899,2104.51 730.443,2119.2 725.179,2135.32 723.227,2153.15" style="stroke:rgb(171,178,205);stroke-width:9.448819;fill:none;stroke-opacity:0.5;stroke-linecap:round;stroke-linejoin:round;;fill:none"/>
<polyline points="723.227,2153.15 725.179,2170.98 730.669,2187.54 739.479,2202.59 750.843,2215.18 762.597,2223.75 762.597,2629.57 758.827,2636.31 754.629,2649.31 753.175,2662.89 754.629,2677.47 758.827,2690.47 765.813,2702.78 775.555,2713.71 786.593,2721.76 800.417,2727.92 813.787,2730.73 828.433,2730.66 841.791,2727.79 855.139,2721.76 866.177,2713.71 875.339,2703.57 882.905,2690.47 887.103,2677.47 888.557,2663.88 886.975,2648.83 882.905,2636.31 875.919,2624 866.177,2613.06 850.787,2602.96 850.787,2223.75 862.541,2215.18 873.905,2202.59 882.941,2187.1 888.411,2170.02 890.157,2153.15 888.411,2136.29 882.717,2118.76 873.905,2103.71 862.157,2090.81 847.983,2080.64 832.485,2073.77 815.417,2070.14 797.967,2070.14 780.901,2073.77 765.401,2080.64 750.493,2091.47 738.899,2104.51 730.443,2119.2 725.179,2135.32 723.227,2153.15" style="stroke:rgb(0,0,0);stroke-width:1px;fill:none;stroke-opacity:1;stroke-linecap:round;stroke-linejoin:round;;fill:none"/>
<polyline points="345.301,3507.98 346.755,3493.4 350.953,3480.4 357.939,3468.09 367.681,3457.16 378.719,3449.11 392.065,3443.08 405.925,3440.13 417.947,3440.17 468.769,3389.38 482.311,3380.33 496.837,3377.02 542.123,3331.74 542.123,3216.14 543.083,3207.09 545.679,3198.85 549.831,3191.28 555.039,3184.97 688.899,3051.11 695.209,3045.9 702.785,3041.75 711.025,3039.15 719.615,3038.21 859.293,3038.19 1183.39,2714.1 1190.47,2708.38 1205.51,2702.14 1214.56,2701.18 1592.99,2701.18 1601.27,2692.03 1613.82,2683 1627.07,2677.13 1642.21,2673.99 1656.7,2674.02 1670.88,2677 1684.6,2683 1696.77,2691.72 1707.45,2703.57 1714.67,2716.13 1719.17,2729.9 1720.84,2744.78 1719.38,2759.69 1714.67,2774.42 1706.87,2787.78 1696.77,2798.84 1684.6,2807.56 1671.35,2813.42 1657.19,2816.46 1641.72,2816.54 1626.61,2813.25 1612.97,2807.06 1601.65,2798.84 1592.99,2789.37 1232.83,2789.37 902.427,3118.67 893.995,3123.18 885.701,3125.6 877.559,3126.38 738.343,3126.38 630.313,3234.41 630.313,3350 629.353,3359.06 623.119,3374.1 617.397,3381.18 546.187,3452.36 532.645,3461.41 518.119,3464.71 480.221,3502.61 479.229,3521.56 475.031,3534.56 468.045,3546.87 457.919,3558.12 447.265,3565.86 434.379,3571.71 420.069,3574.83 405.425,3574.75 392.065,3571.88 379.573,3566.35 367.681,3557.8 357.939,3546.87 351.353,3535.47 346.883,3522.04 345.301,3507.98" style="stroke:rgb(198,155,180);stroke-width:9.448819;fill:none;stroke-opacity:0.5;stroke-linecap:round;stroke-linejoin:round;;fill:none"/>
<polyline points="345.301,3507.98 346.755,3493.4 350.953,3480.4 357.939,3468.09 367.681,3457.16 378.719,3449.11 392.065,3443.08 405.925,3440.13 417.947,3440.17 468.769,3389.38 482.311,3380.33 496.837,3377.02 542.123,3331.74 542.123,3216.14 543.083,3207.09 545.679,3198.85 549.831,3191.28 555.039,3184.97 688.899,3051.11 695.209,3045.9 702.785,3041.75 711.025,3039.15 719.615,3038.21 859.293,3038.19 1183.39,2714.1 1190.47,2708.38 1205.51,2702.14 1214.56,2701.18 1592.99,2701.18 1601.27,2692.03 1613.82,2683 1627.07,2677.13 1642.21,2673.99 1656.7,2674.02 1670.88,2677 1684.6,2683 1696.77,2691.72 1707.45,2703.57 1714.67,2716.13 1719.17,2729.9 1720.84,2744.78 1719.38,2759.69 1714.67,2774.42 1706.87,2787.78 1696.77,2798.84 1684.6,2807.56 1671.35,2813.42 1657.19,2816.46 1641.72,2816.54 1626.61,2813.25 1612.97,2807.06 1601.65,2798.84 1592.99,2789.37 1232.83,2789.37 902.427,3118.67 893.995,3123.18 885.701,3125.6 877.559,3126.38 738.343,3126.38 630.313,3234.41 630.313,3350 629.353,3359.06 623.119,3374.1 617.397,3381.18 546.187,3452.36 532.645,3461.41 518.119,3464.71 480.221,3502.61 479.229,3521.56 475.031,3534.56 468.045,3546.87 457.919,3558.12 447.265,3565.86 434.379,3571.71 420.069,3574.83 405.425,3574.75 392.065,3571.88 379.573,3566.35 367.681,3557.8 357.939,3546.87 351.353,3535.47 346.883,3522.04 345.301,3507.98" style="stroke:rgb(0,0,0);stroke-width:1px;fill:none;stroke-opacity:1;stroke-linecap:round;stroke-linejoin:round;;fill:none"/>
<polyline points="211.415,4091.73 211.415,3287.01 212.195,3278.87 214.615,3270.57 218.609,3262.91 224.331,3255.83 248.297,3231.9 261.839,3222.85 270.079,3220.25 279.131,3219.29 353.149,3219.29 353.239,3199.47 354.533,3197.05 356.951,3195.76 485.665,3196.03 487.785,3197.77 488.581,3200.4 488.581,3326.38 486.483,3330.31 356.951,3331.01 354.533,3329.72 353.239,3327.3 353.149,3307.48 299.605,3307.48 299.605,4063.39 345.275,4063.39 345.365,4043.57 346.659,4041.15 349.077,4039.86 475.983,4039.77 479.325,4041.15 480.707,4044.49 480.707,4170.47 479.325,4173.81 476.905,4175.11 457.085,4175.2 457.085,4292.37 782.437,4617.72 1072.83,4617.72 1072.83,4484.82 1058.69,4470.44 1051.47,4457.89 1046.84,4443.64 1045.3,4428.25 1046.84,4413.84 1051.29,4400.06 1058.69,4387.04 1068.98,4375.49 1081.54,4366.46 1095.26,4360.47 1109.44,4357.48 1124.91,4357.56 1139.53,4360.77 1152.75,4366.69 1164.49,4375.18 1174.59,4386.24 1182.39,4399.6 1187.02,4413.84 1188.56,4429.24 1187.02,4443.64 1182.39,4457.89 1174.59,4471.24 1161.02,4484.82 1161.02,4661.81 1160.06,4670.87 1153.83,4685.91 1147.76,4693.3 1141.03,4698.71 1125.98,4704.95 1116.93,4705.91 764.173,4705.91 755.119,4704.95 740.073,4698.71 732.993,4692.99 376.603,4335.5 372.095,4327.07 369.675,4318.78 368.895,4310.63 368.895,4175.2 349.999,4175.2 346.659,4173.81 345.275,4170.47 345.275,4151.58 271.259,4151.58 262.205,4150.62 253.965,4148.02 240.423,4138.97 219.123,4116.6 214.615,4108.17 212.195,4099.88 211.415,4091.73" style="stroke:rgb(84,17,14);stroke-width:9.448819;fill:none;stroke-opacity:0.5;stroke-linecap:round;stroke-linejoin:round;;fill:none"/>
<polyline points="211.415,4091.73 211.415,3287.01 212.195,3278.87 214.615,3270.57 218.609,3262.91 224.331,3255.83 248.297,3231.9 261.839,3222.85 270.079,3220.25 279.131,3219.29 353.149,3219.29 353.239,3199.47 354.533,3197.05 356.951,3195.76 485.665,3196.03 487.785,3197.77 488.581,3200.4 488.581,3326.38 486.483,3330.31 356.951,3331.01 354.533,3329.72 353.239,3327.3 353.149,3307.48 299.605,3307.48 299.605,4063.39 345.275,4063.39 345.365,4043.57 346.659,4041.15 349.077,4039.86 475.983,4039.77 479.325,4041.15 480.707,4044.49 480.707,4170.47 479.325,4173.81 476.905,4175.11 457.085,4175.2 457.085,4292.37 782.437,4617.72 1072.83,4617.72 1072.83,4484.82 1058.69,4470.44 1051.47,4457.89 1046.84,4443.64 1045.3,4428.25 1046.84,4413.84 1051.29,4400.06 1058.69,4387.04 1068.98,4375.49 1081.54,4366.46 1095.26,4360.47 1109.44,4357.48 1124.91,4357.56 1139.53,4360.77 1152.75,4366.69 1164.49,4375.18 1174.59,4386.24 1182.39,4399.6 1187.02,4413.84 1188.56,4429.24 1187.02,4443.64 1182.39,4457.89 1174.59,4471.24 1161.02,4484.82 1161.02,4661.81 1160.06,4670.87 1153.83,4685.91 1147.76,4693.3 1141.03,4698.71 1125.98,4704.95 1116.93,4705.91 764.173,4705.91 755.119,4704.95 740.073,4698.71 732.993,4692.99 376.603,4335.5 372.095,4327.07 369.675,4318.78 368.895,4310.63 368.895,4175.2 349.999,4175.2 346.659,4173.81 345.275,4170.47 345.275,4151.58 271.259,4151.58 262.205,4150.62 253.965,4148.02 240.423,4138.97 219.123,4116.6 214.615,4108.17 212.195,4099.88 211.415,4091.73" style="stroke:rgb(0,0,0);stroke-width:1px;fill:none;stroke-opacity:1;stroke-linecap:round;stroke-linejoin:round;;fill:none"/>
<polyline points="424.073,1174.96 425.413,1165.85 428.555,1157.37 427.953,964.174 429.335,960.834 432.677,959.45 457.221,959.542 459.639,960.834 460.933,963.254 461.021,1133.47 474.513,1133.17 484.361,1135.81 492.123,1139.79 498.919,1145.26 511.807,1158.11 581.495,1158.11 582.067,1139.67 585.591,1131.4 590.807,1125.9 596.259,1122.69 602.945,1121 641.337,1119.88 696.455,1119.88 705.507,1120.84 713.747,1123.44 721.323,1127.59 743.263,1148.43 1293.11,1147.68 1293.11,869.686 1294.22,831.294 1295.87,824.716 1299.6,818.626 1299.6,712.994 1275.85,712.902 1273.43,711.61 1272.14,709.19 1272.05,574.41 1272.84,571.786 1275.85,569.778 1299.6,569.686 1299.6,437.404 1275.85,437.312 1273.43,436.02 1272.14,433.6 1272.05,298.82 1272.84,296.196 1275.85,294.186 1299.6,294.096 1299.6,180.588 1295.87,174.5 1294.22,167.922 1293.17,127.71 1294.09,93.6036 1295.12,86.6596 1298.4,79.9436 1304.35,73.9936 1311.07,70.7156 1318.01,69.6856 1361.51,70.2576 1371.57,75.1156 1378.54,84.5576 1380.18,91.1336 1380.31,111.486 1384.59,119.592 1387.01,127.884 1387.79,136.026 1387.79,294.096 1411.55,294.186 1413.97,295.48 1415.26,297.898 1415.26,433.6 1413.97,436.02 1411.55,437.312 1387.79,437.404 1387.79,569.686 1410.63,569.686 1413.97,571.07 1415.35,574.41 1415.35,597.246 1775.19,597.246 1784.25,598.206 1799.29,604.44 1806.37,610.162 1892.99,696.776 1898.2,703.084 1902.35,710.662 1904.94,718.902 1905.9,727.954 1905.9,2271.26 1905.12,2279.41 1902.7,2287.7 1898.2,2296.13 1849.36,2346.07 1898.2,2396 1902.7,2404.43 1905.88,2420.41 1905.9,3042.91 1905.12,3051.06 1902.7,3059.35 1898.71,3067.01 1893.3,3073.75 1817.87,3149.22 1882.45,3214.9 1886.96,3223.33 1890.13,3239.3 1890.16,3885.43 1889.38,3893.58 1886.96,3901.87 1882.96,3909.53 1877.55,3916.27 1817.4,3976.46 1811.09,3981.67 1803.51,3985.82 1795.27,3988.41 1786.22,3989.37 1705.43,3989.37 1697.16,3998.53 1685.45,4007.06 1671.81,4013.25 1656.7,4016.54 1641.72,4016.54 1626.61,4013.25 1613.38,4007.33 1601.65,3998.84 1590.97,3986.98 1583.75,3974.42 1579.25,3960.65 1577.58,3945.77 1579.05,3930.87 1583.98,3915.69 1591.55,3902.78 1601.27,3892.03 1612.97,3883.49 1626.61,3877.31 1642.21,3873.99 1656.7,3874.02 1671.35,3877.13 1685.45,3883.49 1696.77,3891.72 1705.44,3901.18 1767.95,3901.18 1801.97,3867.17 1801.97,3258.03 1733.31,3189.37 1705.43,3189.37 1697.16,3198.53 1684.6,3207.56 1671.35,3213.42 1656.7,3216.54 1641.23,3216.46 1627.07,3213.42 1613.82,3207.56 1601.65,3198.84 1590.97,3186.98 1583.75,3174.42 1579.25,3160.65 1577.58,3144.78 1579.05,3130.87 1583.57,3116.59 1590.97,3103.57 1601.27,3092.03 1613.82,3083 1627.07,3077.13 1641.23,3074.09 1656.7,3074.02 1671.35,3077.13 1685.04,3083.22 1696.77,3091.72 1705.44,3101.18 1741.18,3101.18 1817.71,3024.65 1817.71,2439.13 1767.95,2389.37 1705.43,2389.37 1697.16,2398.53 1685.45,2407.06 1671.35,2413.42 1656.7,2416.54 1642.21,2416.56 1626.61,2413.25 1613.38,2407.33 1601.65,2398.84 1590.97,2386.98 1583.75,2374.42 1579.25,2360.65 1577.56,2345.28 1579.25,2329.9 1583.75,2316.13 1590.97,2303.57 1601.65,2291.72 1613.82,2283 1627.07,2277.13 1642.21,2273.99 1656.7,2274.02 1671.35,2277.13 1685.45,2283.49 1696.77,2291.72 1705.44,2301.18 1769.53,2301.18 1817.71,2253 1817.71,1609.21 1797.87,1589.37 1705.43,1589.37 1697.16,1598.53 1685.45,1607.06 1671.35,1613.42 1656.21,1616.56 1641.72,1616.54 1627.55,1613.55 1612.97,1607.06 1601.65,1598.84 1591.55,1587.78 1583.57,1573.96 1579.05,1559.69 1577.56,1545.28 1579.05,1530.87 1583.57,1516.59 1591.55,1502.78 1601.27,1492.03 1613.82,1483 1627.07,1477.13 1641.23,1474.09 1656.7,1474.02 1671.81,1477.31 1685.45,1483.49 1696.77,1491.72 1705.44,1501.18 1817.71,1501.32 1817.71,746.22 1756.93,685.436 1415.35,685.436 1415.35,708.27 1413.97,711.61 1410.63,712.994 1387.79,712.994 1387.79,863.192 1386.83,872.244 1381.3,885.988 1380.52,1174.09 1377.74,1183.24 1368.69,1196.78 1341.46,1224.01 1334.73,1229.42 1327.06,1233.42 1318.77,1235.84 1310.63,1236.62 724.999,1236.62 715.945,1235.66 700.899,1229.42 678.189,1208.07 659.601,1208.07 627.975,1238.6 620.399,1242.75 612.159,1245.34 603.107,1246.3 493.081,1246.28 477.107,1243.1 468.675,1238.6 436.929,1207.96 430.881,1200.36 426.943,1192.58 424.659,1184.16 424.073,1174.96" style="stroke:rgb(130,116,65);stroke-width:9.448819;fill:none;stroke-opacity:0.5;stroke-linecap:round;stroke-linejoin:round;;fill:none"/>
<polyline points="424.073,1174.96 425.413,1165.85 428.555,1157.37 427.953,964.174 429.335,960.834 432.677,959.45 457.221,959.542 459.639,960.834 460.933,963.254 461.021,1133.47 474.513,1133.17 484.361,1135.81 492.123,1139.79 498.919,1145.26 511.807,1158.11 581.495,1158.11 582.067,1139.67 585.591,1131.4 590.807,1125.9 596.259,1122.69 602.945,1121 641.337,1119.88 696.455,1119.88 705.507,1120.84 713.747,1123.44 721.323,1127.59 743.263,1148.43 1293.11,1147.68 1293.11,869.686 1294.22,831.294 1295.87,824.716 1299.6,818.626 1299.6,712.994 1275.85,712.902 1273.43,711.61 1272.14,709.19 1272.05,574.41 1272.84,571.786 1275.85,569.778 1299.6,569.686 1299.6,437.404 1275.85,437.312 1273.43,436.02 1272.14,433.6 1272.05,298.82 1272.84,296.196 1275.85,294.186 1299.6,294.096 1299.6,180.588 1295.87,174.5 1294.22,167.922 1293.17,127.71 1294.09,93.6036 1295.12,86.6596 1298.4,79.9436 1304.35,73.9936 1311.07,70.7156 1318.01,69.6856 1361.51,70.2576 1371.57,75.1156 1378.54,84.5576 1380.18,91.1336 1380.31,111.486 1384.59,119.592 1387.01,127.884 1387.79,136.026 1387.79,294.096 1411.55,294.186 1413.97,295.48 1415.26,297.898 1415.26,433.6 1413.97,436.02 1411.55,437.312 1387.79,437.404 1387.79,569.686 1410.63,569.686 1413.97,571.07 1415.35,574.41 1415.35,597.246 1775.19,597.246 1784.25,598.206 1799.29,604.44 1806.37,610.162 1892.99,696.776 1898.2,703.084 1902.35,710.662 1904.94,718.902 1905.9,727.954 1905.9,2271.26 1905.12,2279.41 1902.7,2287.7 1898.2,2296.13 1849.36,2346.07 1898.2,2396 1902.7,2404.43 1905.88,2420.41 1905.9,3042.91 1905.12,3051.06 1902.7,3059.35 1898.71,3067.01 1893.3,3073.75 1817.87,3149.22 1882.45,3214.9 1886.96,3223.33 1890.13,3239.3 1890.16,3885.43 1889.38,3893.58 1886.96,3901.87 1882.96,3909.53 1877.55,3916.27 1817.4,3976.46 1811.09,3981.67 1803.51,3985.82 1795.27,3988.41 1786.22,3989.37 1705.43,3989.37 1697.16,3998.53 1685.45,4007.06 1671.81,4013.25 1656.7,4016.54 1641.72,4016.54 1626.61,4013.25 1613.38,4007.33 1601.65,3998.84 1590.97,3986.98 1583.75,3974.42 1579.25,3960.65 1577.58,3945.77 1579.05,3930.87 1583.98,3915.69 1591.55,3902.78 1601.27,3892.03 1612.97,3883.49 1626.61,3877.31 1642.21,3873.99 1656.7,3874.02 1671.35,3877.13 1685.45,3883.49 1696.77,3891.72 1705.44,3901.18 1767.95,3901.18 1801.97,3867.17 1801.97,3258.03 1733.31,3189.37 1705.43,3189.37 1697.16,3198.53 1684.6,3207.56 1671.35,3213.42 1656.7,3216.54 1641.23,3216.46 1627.07,3213.42 1613.82,3207.56 1601.65,3198.84 1590.97,3186.98 1583.75,3174.42 1579.25,3160.65 1577.58,3144.78 1579.05,3130.87 1583.57,3116.59 1590.97,3103.57 1601.27,3092.03 1613.82,3083 1627.07,3077.13 1641.23,3074.09 1656.7,3074.02 1671.35,3077.13 1685.04,3083.22 1696.77,3091.72 1705.44,3101.18 1741.18,3101.18 1817.71,3024.65 1817.71,2439.13 1767.95,2389.37 1705.43,2389.37 1697.16,2398.53 1685.45,2407.06 1671.35,2413.42 1656.7,2416.54 1642.21,2416.56 1626.61,2413.25 1613.38,2407.33 1601.65,2398.84 1590.97,2386.98 1583.75,2374.42 1579.25,2360.65 1577.56,2345.28 1579.25,2329.9 1583.75,2316.13 1590.97,2303.57 1601.65,2291.72 1613.82,2283 1627.07,2277.13 1642.21,2273.99 1656.7,2274.02 1671.35,2277.13 1685.45,2283.49 1696.77,2291.72 1705.44,2301.18 1769.53,2301.18 1817.71,2253 1817.71,1609.21 1797.87,1589.37 1705.43,1589.37 1697.16,1598.53 1685.45,1607.06 1671.35,1613.42 1656.21,1616.56 1641.72,1616.54 1627.55,1613.55 1612.97,1607.06 1601.65,1598.84 1591.55,1587.78 1583.57,1573.96 1579.05,1559.69 1577.56,1545.28 1579.05,1530.87 1583.57,1516.59 1591.55,1502.78 1601.27,1492.03 1613.82,1483 1627.07,1477.13 1641.23,1474.09 1656.7,1474.02 1671.81,1477.31 1685.45,1483.49 1696.77,1491.72 1705.44,1501.18 1817.71,1501.32 1817.71,746.22 1756.93,685.436 1415.35,685.436 1415.35,708.27 1413.97,711.61 1410.63,712.994 1387.79,712.994 1387.79,863.192 1386.83,872.244 1381.3,885.988 1380.52,1174.09 1377.74,1183.24 1368.69,1196.78 1341.46,1224.01 1334.73,1229.42 1327.06,1233.42 1318.77,1235.84 1310.63,1236.62 724.999,1236.62 715.945,1235.66 700.899,1229.42 678.189,1208.07 659.601,1208.07 627.975,1238.6 620.399,1242.75 612.159,1245.34 603.107,1246.3 493.081,1246.28 477.107,1243.1 468.675,1238.6 436.929,1207.96 430.881,1200.36 426.943,1192.58 424.659,1184.16 424.073,1174.96" style="stroke:rgb(0,0,0);stroke-width:1px;fill:none;stroke-opacity:1;stroke-linecap:round;stroke-linejoin:round;;fill:none"/>
<polyline points="48.6587,1604.72 48.6587,63.3876 51.4167,54.8356 57.7487,49.7856 63.3847,48.6636 1102.27,48.6636 1111.24,51.7276 1116.35,59.1356 1115.86,100.884 1119.78,104.804 1146.48,104.804 1146.58,91.1316 1148.47,84.0316 1153.8,76.3796 1163.43,70.7156 1170.37,69.6856 1208.76,69.6856 1215.7,70.7156 1222.42,73.9936 1228.88,80.7136 1232.55,91.1436 1232.58,167.336 1230.9,174.5 1225.98,182.022 1221.65,185.58 1214.29,188.674 1214.29,216.05 1218.26,220.016 1227.34,220.154 1234.87,219.414 1252.69,212.626 1258.69,213.196 1263.95,216.12 1267.6,220.908 1268.82,224.71 1268.72,257.172 1265.4,263.828 1251.7,273.758 1247.3,279.13 1239.89,295.19 1235.58,298.812 1230.24,300.558 1224.63,300.172 1220.35,298.184 1212.53,290.29 1196.44,278.29 1173.32,268.096 1168.42,270.68 1168.42,298.85 1179.51,303.684 1191.26,312.19 1201.36,323.248 1209.16,336.606 1213.86,351.34 1215.35,365.75 1213.86,380.158 1209.34,394.432 1201.36,408.25 1187.79,421.828 1187.79,457.33 1196.44,453.21 1212.49,441.238 1221.78,432.422 1230.01,430.922 1237.91,434.294 1241.41,438.62 1247.3,452.372 1251.71,457.744 1263.8,466.124 1268.11,472.192 1269.05,477.378 1269.05,529.712 1268.11,534.9 1265.4,539.422 1251.7,549.348 1247.3,554.72 1239.89,570.78 1235.58,574.402 1231.12,575.95 1224.63,575.762 1219.61,573.328 1212.53,565.878 1196.44,553.88 1187.79,549.76 1187.79,585.262 1201.67,599.224 1209.16,612.196 1213.86,626.93 1215.33,641.834 1213.86,655.75 1209.34,670.022 1201.94,683.042 1191.26,694.9 1179.51,703.406 1168.42,708.24 1168.42,736.412 1173.32,738.996 1196.44,728.802 1212.53,716.802 1219.61,709.354 1224.63,706.92 1230.24,706.534 1235.58,708.28 1239.89,711.902 1247.3,727.962 1251.7,733.334 1265.25,743.104 1268.81,750.314 1268.82,774.508 1266.59,780.102 1262.3,784.334 1256.68,786.494 1252.69,786.59 1234.87,779.804 1227.34,779.062 1218.26,779.2 1214.29,783.168 1214.29,810.542 1222.42,814.15 1228.37,820.102 1231.01,825.046 1232.68,833.768 1232.55,908.074 1230.66,915.184 1225.98,922.18 1221.65,925.736 1214.29,928.83 1214.29,956.206 1218.26,960.174 1227.34,960.312 1250.18,956.356 1257.45,959.748 1262.12,967.39 1262.56,1103.15 1260.08,1111.33 1255.62,1115.63 1247.84,1117.88 759.761,1117.68 752.651,1114.4 738.095,1101.59 727.527,1095.62 723.713,1090.78 722.227,1085.47 722.747,1080.21 729.203,1068.29 731.961,1054.12 731.823,1045.03 727.855,1041.07 700.481,1041.07 697.387,1048.42 693.831,1052.76 686.835,1057.43 679.725,1059.32 605.419,1059.45 596.697,1057.79 591.753,1055.14 585.803,1049.19 582.193,1041.07 554.817,1041.07 550.849,1045.03 551.453,1061.64 556.747,1074.42 569.793,1088.32 571.465,1093.81 570.917,1099.51 555.643,1122.03 551.887,1125.36 544.137,1127.57 527.463,1127.23 522.543,1125.19 509.723,1114.37 497.121,1107.37 493.667,1103.42 491.811,1098.49 491.815,964.898 491.063,957.262 485.769,944.482 475.991,934.704 463.211,929.41 424.297,929.382 406.163,936.928 400.643,936.298 382.281,927.908 382.283,1002.76 388.583,1002.76 388.581,964.174 389.965,960.834 393.307,959.45 416.929,959.45 419.553,960.246 421.563,963.252 421.563,1075.33 419.553,1078.34 416.929,1079.14 393.307,1079.14 389.965,1077.75 388.581,1074.41 388.583,1035.83 382.283,1035.83 382.281,1098.04 379.577,1107.08 391.615,1112.43 395.153,1116.31 397.143,1121.38 397.351,1151.08 394.543,1162.14 393.101,1176.77 394.543,1191.41 398.811,1205.48 405.743,1218.45 412.743,1226.98 438.181,1252.79 440.701,1261.1 439.041,1267.84 433.565,1273.66 425.969,1275.84 315.289,1275.12 303.541,1277.03 302.747,1423.49 298.819,1425.59 272.571,1424.8 270.471,1420.87 270.471,1389.08 264.325,1390.48 243.795,1390.48 239.875,1394.4 239.689,1419.53 242.253,1433.97 246.775,1443.92 246.911,1449.59 243.643,1456.67 239.465,1460.05 221.713,1468.74 210.327,1478.08 73.0787,1615.72 69.0187,1618.32 64.3047,1619.35 57.7487,1618.32 52.9727,1615.13 50.2167,1611.17 48.6587,1604.72" style="stroke:rgb(33,61,220);stroke-width:9.448819;fill:none;stroke-opacity:0.5;stroke-linecap:round;stroke-linejoin:round;;fill:none"/>
<polyline points="48.6587,1604.72 48.6587,63.3876 51.4167,54.8356 57.7487,49.7856 63.3847,48.6636 1102.27,48.6636 1111.24,51.7276 1116.35,59.1356 1115.86,100.884 1119.78,104.804 1146.48,104.804 1146.58,91.1316 1148.47,84.0316 1153.8,76.3796 1163.43,70.7156 1170.37,69.6856 1208.76,69.6856 1215.7,70.7156 1222.42,73.9936 1228.88,80.7136 1232.55,91.1436 1232.58,167.336 1230.9,174.5 1225.98,182.022 1221.65,185.58 1214.29,188.674 1214.29,216.05 1218.26,220.016 1227.34,220.154 1234.87,219.414 1252.69,212.626 1258.69,213.196 1263.95,216.12 1267.6,220.908 1268.82,224.71 1268.72,257.172 1265.4,263.828 1251.7,273.758 1247.3,279.13 1239.89,295.19 1235.58,298.812 1230.24,300.558 1224.63,300.172 1220.35,298.184 1212.53,290.29 1196.44,278.29 1173.32,268.096 1168.42,270.68 1168.42,298.85 1179.51,303.684 1191.26,312.19 1201.36,323.248 1209.16,336.606 1213.86,351.34 1215.35,365.75 1213.86,380.158 1209.34,394.432 1201.36,408.25 1187.79,421.828 1187.79,457.33 1196.44,453.21 1212.49,441.238 1221.78,432.422 1230.01,430.922 1237.91,434.294 1241.41,438.62 1247.3,452.372 1251.71,457.744 1263.8,466.124 1268.11,472.192 1269.05,477.378 1269.05,529.712 1268.11,534.9 1265.4,539.422 1251.7,549.348 1247.3,554.72 1239.89,570.78 1235.58,574.402 1231.12,575.95 1224.63,575.762 1219.61,573.328 1212.53,565.878 1196.44,553.88 1187.79,549.76 1187.79,585.262 1201.67,599.224 1209.16,612.196 1213.86,626.93 1215.33,641.834 1213.86,655.75 1209.34,670.022 1201.94,683.042 1191.26,694.9 1179.51,703.406 1168.42,708.24 1168.42,736.412 1173.32,738.996 1196.44,728.802 1212.53,716.802 1219.61,709.354 1224.63,706.92 1230.24,706.534 1235.58,708.28 1239.89,711.902 1247.3,727.962 1251.7,733.334 1265.25,743.104 1268.81,750.314 1268.82,774.508 1266.59,780.102 1262.3,784.334 1256.68,786.494 1252.69,786.59 1234.87,779.804 1227.34,779.062 1218.26,779.2 1214.29,783.168 1214.29,810.542 1222.42,814.15 1228.37,820.102 1231.01,825.046 1232.68,833.768 1232.55,908.074 1230.66,915.184 1225.98,922.18 1221.65,925.736 1214.29,928.83 1214.29,956.206 1218.26,960.174 1227.34,960.312 1250.18,956.356 1257.45,959.748 1262.12,967.39 1262.56,1103.15 1260.08,1111.33 1255.62,1115.63 1247.84,1117.88 759.761,1117.68 752.651,1114.4 738.095,1101.59 727.527,1095.62 723.713,1090.78 722.227,1085.47 722.747,1080.21 729.203,1068.29 731.961,1054.12 731.823,1045.03 727.855,1041.07 700.481,1041.07 697.387,1048.42 693.831,1052.76 686.835,1057.43 679.725,1059.32 605.419,1059.45 596.697,1057.79 591.753,1055.14 585.803,1049.19 582.193,1041.07 554.817,1041.07 550.849,1045.03 551.453,1061.64 556.747,1074.42 569.793,1088.32 571.465,1093.81 570.917,1099.51 555.643,1122.03 551.887,1125.36 544.137,1127.57 527.463,1127.23 522.543,1125.19 509.723,1114.37 497.121,1107.37 493.667,1103.42 491.811,1098.49 491.815,964.898 491.063,957.262 485.769,944.482 475.991,934.704 463.211,929.41 424.297,929.382 406.163,936.928 400.643,936.298 382.281,927.908 382.283,1002.76 388.583,1002.76 388.581,964.174 389.965,960.834 393.307,959.45 416.929,959.45 419.553,960.246 421.563,963.252 421.563,1075.33 419.553,1078.34 416.929,1079.14 393.307,1079.14 389.965,1077.75 388.581,1074.41 388.583,1035.83 382.283,1035.83 382.281,1098.04 379.577,1107.08 391.615,1112.43 395.153,1116.31 397.143,1121.38 397.351,1151.08 394.543,1162.14 393.101,1176.77 394.543,1191.41 398.811,1205.48 405.743,1218.45 412.743,1226.98 438.181,1252.79 440.701,1261.1 439.041,1267.84 433.565,1273.66 425.969,1275.84 315.289,1275.12 303.541,1277.03 302.747,1423.49 298.819,1425.59 272.571,1424.8 270.471,1420.87 270.471,1389.08 264.325,1390.48 243.795,1390.48 239.875,1394.4 239.689,1419.53 242.253,1433.97 246.775,1443.92 246.911,1449.59 243.643,1456.67 239.465,1460.05 221.713,1468.74 210.327,1478.08 73.0787,1615.72 69.0187,1618.32 64.3047,1619.35 57.7487,1618.32 52.9727,1615.13 50.2167,1611.17 48.6587,1604.72" style="stroke:rgb(0,0,0);stroke-width:1px;fill:none;stroke-opacity:1;stroke-linecap:round;stroke-linejoin:round;;fill:none"/>
<polyline points="156.879,641.368 157.243,810.362 158.323,821.328 162.591,835.4 169.523,848.366 178.851,859.734 190.215,869.06 203.185,875.992 217.287,880.272 230.105,882.014 235.799,885.642 239.171,891.376 239.679,1073.69 242.447,1087.98 245.723,1094.11 255.501,1103.89 268.279,1109.18 330.467,1109.93 349.211,1091.19 349.641,889.634 352.273,883.75 356.957,879.322 362.979,877.024 373.463,876.774 374.585,866.808 377.777,862.032 382.553,858.84 388.189,857.718 601.939,858.082 616.599,856.64 630.671,852.37 643.637,845.438 655.025,836.094 744.981,746.026 750.139,743.862 773.511,739.618 792.111,731.914 808.851,720.728 823.105,706.474 833.147,691.884 840.829,687.706 847.023,687.818 853.397,691.148 864.293,706.474 878.547,720.728 895.287,731.914 913.887,739.618 933.633,743.546 953.765,743.546 973.511,739.618 992.111,731.914 1008.85,720.728 1023.1,706.474 1034.1,690.752 1038.25,688.042 1044.01,686.828 1053.16,689.942 1061.47,701.928 1074.9,716.83 1090.95,728.802 1114.08,738.996 1118.97,736.412 1118.97,708.24 1107.89,703.406 1096.14,694.9 1085.73,683.456 1078.06,670.022 1073.53,655.75 1072.07,641.834 1073.53,626.93 1078.24,612.196 1086.04,598.838 1099.6,585.262 1099.6,549.76 1090.95,553.88 1074.9,565.852 1061.47,580.754 1055.12,590.914 1046.96,595.576 1039.14,594.99 1033.6,591.46 1020.59,573.132 1018.34,565.348 1018.56,439.33 1020.74,433.688 1033.17,416.17 1036.46,413.378 1042.01,411.388 1047.89,411.73 1052.39,413.792 1055.12,416.178 1061.47,426.336 1074.9,441.238 1090.95,453.21 1099.6,457.33 1099.6,421.828 1085.73,407.866 1078.24,394.894 1073.53,380.158 1072.07,365.256 1073.74,350.374 1078.24,336.606 1085.46,324.048 1096.14,312.19 1107.89,303.684 1118.97,298.85 1118.97,270.68 1114.08,268.096 1090.95,278.29 1074.9,290.262 1061.5,305.134 1053.16,317.15 1046.96,319.986 1039.14,319.4 1032.15,314.12 1019.38,295.17 1017.26,256.466 1013,242.394 1006.07,229.428 996.719,218.04 894.559,115.882 883.171,106.536 870.203,99.6016 856.133,95.3336 841.473,93.8896 688.607,93.8896 673.949,95.3336 659.879,99.6016 646.911,106.536 635.523,115.882 517.449,233.954 508.105,245.34 501.173,258.306 496.905,272.378 495.461,287.038 495.825,478.338 494.703,483.974 491.511,488.75 425.753,554.508 420.091,557.97 415.343,558.822 239.789,558.458 225.129,559.902 211.057,564.17 198.089,571.102 186.705,580.446 169.523,599.67 162.591,612.636 158.323,626.708 156.879,641.368" style="stroke:rgb(33,61,220);stroke-width:9.448819;fill:none;stroke-opacity:0.5;stroke-linecap:round;stroke-linejoin:round;;fill:none"/>
<polyline points="156.879,641.368 157.243,810.362 158.323,821.328 162.591,835.4 169.523,848.366 178.851,859.734 190.215,869.06 203.185,875.992 217.287,880.272 230.105,882.014 235.799,885.642 239.171,891.376 239.679,1073.69 242.447,1087.98 245.723,1094.11 255.501,1103.89 268.279,1109.18 330.467,1109.93 349.211,1091.19 349.641,889.634 352.273,883.75 356.957,879.322 362.979,877.024 373.463,876.774 374.585,866.808 377.777,862.032 382.553,858.84 388.189,857.718 601.939,858.082 616.599,856.64 630.671,852.37 643.637,845.438 655.025,836.094 744.981,746.026 750.139,743.862 773.511,739.618 792.111,731.914 808.851,720.728 823.105,706.474 833.147,691.884 840.829,687.706 847.023,687.818 853.397,691.148 864.293,706.474 878.547,720.728 895.287,731.914 913.887,739.618 933.633,743.546 953.765,743.546 973.511,739.618 992.111,731.914 1008.85,720.728 1023.1,706.474 1034.1,690.752 1038.25,688.042 1044.01,686.828 1053.16,689.942 1061.47,701.928 1074.9,716.83 1090.95,728.802 1114.08,738.996 1118.97,736.412 1118.97,708.24 1107.89,703.406 1096.14,694.9 1085.73,683.456 1078.06,670.022 1073.53,655.75 1072.07,641.834 1073.53,626.93 1078.24,612.196 1086.04,598.838 1099.6,585.262 1099.6,549.76 1090.95,553.88 1074.9,565.852 1061.47,580.754 1055.12,590.914 1046.96,595.576 1039.14,594.99 1033.6,591.46 1020.59,573.132 1018.34,565.348 1018.56,439.33 1020.74,433.688 1033.17,416.17 1036.46,413.378 1042.01,411.388 1047.89,411.73 1052.39,413.792 1055.12,416.178 1061.47,426.336 1074.9,441.238 1090.95,453.21 1099.6,457.33 1099.6,421.828 1085.73,407.866 1078.24,394.894 1073.53,380.158 1072.07,365.256 1073.74,350.374 1078.24,336.606 1085.46,324.048 1096.14,312.19 1107.89,303.684 1118.97,298.85 1118.97,270.68 1114.08,268.096 1090.95,278.29 1074.9,290.262 1061.5,305.134 1053.16,317.15 1046.96,319.986 1039.14,319.4 1032.15,314.12 1019.38,295.17 1017.26,256.466 1013,242.394 1006.07,229.428 996.719,218.04 894.559,115.882 883.171,106.536 870.203,99.6016 856.133,95.3336 841.473,93.8896 688.607,93.8896 673.949,95.3336 659.879,99.6016 646.911,106.536 635.523,115.882 517.449,233.954 508.105,245.34 501.173,258.306 496.905,272.378 495.461,287.038 495.825,478.338 494.703,483.974 491.511,488.75 425.753,554.508 420.091,557.97 415.343,558.822 239.789,558.458 225.129,559.902 211.057,564.17 198.089,571.102 186.705,580.446 169.523,599.67 162.591,612.636 158.323,626.708 156.879,641.368" style="stroke:rgb(0,0,0);stroke-width:1px;fill:none;stroke-opacity:1;stroke-linecap:round;stroke-linejoin:round;;fill:none"/>
<polyline points="239.689,1311.97 239.875,1337.11 243.811,1341.04 266.313,1341.22 270.471,1342.41 270.471,1279.23 267.345,1276.11 255.045,1281.47 245.419,1291.4 240.327,1304.26 239.689,1311.97" style="stroke:rgb(33,61,220);stroke-width:9.448819;fill:none;stroke-opacity:0.5;stroke-linecap:round;stroke-linejoin:round;;fill:none"/>
<polyline points="239.689,1311.97 239.875,1337.11 243.811,1341.04 266.313,1341.22 270.471,1342.41 270.471,1279.23 267.345,1276.11 255.045,1281.47 245.419,1291.4 240.327,1304.26 239.689,1311.97" style="stroke:rgb(0,0,0);stroke-width:1px;fill:none;stroke-opacity:1;stroke-linecap:round;stroke-linejoin:round;;fill:none"/>
<polyline points="550.711,978.568 550.849,987.65 554.817,991.616 582.251,991.616 585.803,983.486 594.037,976.11 602.609,973.414 616.611,973.254 616.611,946.556 612.691,942.634 586.887,942.442 572.655,945.206 566.527,948.482 556.747,958.262 551.453,971.042 550.711,978.568" style="stroke:rgb(33,61,220);stroke-width:9.448819;fill:none;stroke-opacity:0.5;stroke-linecap:round;stroke-linejoin:round;;fill:none"/>
<polyline points="550.711,978.568 550.849,987.65 554.817,991.616 582.251,991.616 585.803,983.486 594.037,976.11 602.609,973.414 616.611,973.254 616.611,946.556 612.691,942.634 586.887,942.442 572.655,945.206 566.527,948.482 556.747,958.262 551.453,971.042 550.711,978.568" style="stroke:rgb(0,0,0);stroke-width:1px;fill:none;stroke-opacity:1;stroke-linecap:round;stroke-linejoin:round;;fill:none"/>
<polyline points="153.305,300.18 153.305,273.842 158.443,248.012 168.523,223.68 183.153,201.782 201.777,183.158 223.675,168.526 248.007,158.448 273.837,153.31 300.173,153.31 326.005,158.448 350.337,168.526 372.235,183.158 390.859,201.782 405.489,223.68 415.569,248.012 420.707,273.842 420.707,300.178 415.569,326.01 405.489,350.34 390.859,372.238 372.235,390.862 350.337,405.494 326.005,415.572 300.173,420.71 273.839,420.71 248.007,415.572 223.675,405.494 201.777,390.862 183.153,372.24 168.523,350.34 158.443,326.01 153.305,300.18" style="stroke:rgb(33,61,220);stroke-width:9.448819;fill:none;stroke-opacity:0.5;stroke-linecap:round;stroke-linejoin:round;;fill:none"/>
<polyline points="153.305,300.18 153.305,273.842 158.443,248.012 168.523,223.68 183.153,201.782 201.777,183.158 223.675,168.526 248.007,158.448 273.837,153.31 300.173,153.31 326.005,158.448 350.337,168.526 372.235,183.158 390.859,201.782 405.489,223.68 415.569,248.012 420.707,273.842 420.707,300.178 415.569,326.01 405.489,350.34 390.859,372.238 372.235,390.862 350.337,405.494 326.005,415.572 300.173,420.71 273.839,420.71 248.007,415.572 223.675,405.494 201.777,390.862 183.153,372.24 168.523,350.34 158.443,326.01 153.305,300.18" style="stroke:rgb(0,0,0);stroke-width:1px;fill:none;stroke-opacity:1;stroke-linecap:round;stroke-linejoin:round;;fill:none"/>
<polyline points="1117.21,842.394 1119.78,844.962 1141.55,844.962 1128.88,830.724 1117.21,842.394" style="stroke:rgb(33,61,220);stroke-width:9.448819;fill:none;stroke-opacity:0.5;stroke-linecap:round;stroke-linejoin:round;;fill:none"/>
<polyline points="1117.21,842.394 1119.78,844.962 1141.55,844.962 1128.88,830.724 1117.21,842.394" style="stroke:rgb(0,0,0);stroke-width:1px;fill:none;stroke-opacity:1;stroke-linecap:round;stroke-linejoin:round;;fill:none"/>
<polyline points="666.061,973.254 666.061,946.556 669.981,942.634 703.371,943.19 716.147,948.482 725.927,958.262 731.221,971.042 731.823,987.65 727.855,991.616 700.425,991.616 696.873,983.486 688.639,976.11 680.065,973.414 666.061,973.254" style="stroke:rgb(33,61,220);stroke-width:9.448819;fill:none;stroke-opacity:0.5;stroke-linecap:round;stroke-linejoin:round;;fill:none"/>
<polyline points="666.061,973.254 666.061,946.556 669.981,942.634 703.371,943.19 716.147,948.482 725.927,958.262 731.221,971.042 731.823,987.65 727.855,991.616 700.425,991.616 696.873,983.486 688.639,976.11 680.065,973.414 666.061,973.254" style="stroke:rgb(0,0,0);stroke-width:1px;fill:none;stroke-opacity:1;stroke-linecap:round;stroke-linejoin:round;;fill:none"/>
<polyline points="1115.67,924.138 1115.86,898.332 1119.78,894.412 1146.48,894.412 1146.64,908.414 1149.34,916.988 1156.71,925.222 1164.84,928.774 1164.84,956.206 1160.87,960.174 1151.79,960.312 1144.26,959.572 1131.49,954.28 1121.7,944.5 1118.43,938.374 1115.67,924.138" style="stroke:rgb(33,61,220);stroke-width:9.448819;fill:none;stroke-opacity:0.5;stroke-linecap:round;stroke-linejoin:round;;fill:none"/>
<polyline points="1115.67,924.138 1115.86,898.332 1119.78,894.412 1146.48,894.412 1146.64,908.414 1149.34,916.988 1156.71,925.222 1164.84,928.774 1164.84,956.206 1160.87,960.174 1151.79,960.312 1144.26,959.572 1131.49,954.28 1121.7,944.5 1118.43,938.374 1115.67,924.138" style="stroke:rgb(0,0,0);stroke-width:1px;fill:none;stroke-opacity:1;stroke-linecap:round;stroke-linejoin:round;;fill:none"/>
<polyline points="1154.02,797.096 1154.73,779.208 1160.9,779.226 1164.84,783.168 1164.84,810.542 1158.1,813.306 1154.02,797.096" style="stroke:rgb(33,61,220);stroke-width:9.448819;fill:none;stroke-opacity:0.5;stroke-linecap:round;stroke-linejoin:round;;fill:none"/>
<polyline points="1154.02,797.096 1154.73,779.208 1160.9,779.226 1164.84,783.168 1164.84,810.542 1158.1,813.306 1154.02,797.096" style="stroke:rgb(0,0,0);stroke-width:1px;fill:none;stroke-opacity:1;stroke-linecap:round;stroke-linejoin:round;;fill:none"/>
<polyline points="1115.67,183.982 1115.86,158.174 1119.78,154.254 1141.46,154.254 1130.23,165.838 1127.59,171.722 1127.16,210.574 1121.71,204.34 1118.43,198.214 1115.67,183.982" style="stroke:rgb(33,61,220);stroke-width:9.448819;fill:none;stroke-opacity:0.5;stroke-linecap:round;stroke-linejoin:round;;fill:none"/>
<polyline points="1115.67,183.982 1115.86,158.174 1119.78,154.254 1141.46,154.254 1130.23,165.838 1127.59,171.722 1127.16,210.574 1121.71,204.34 1118.43,198.214 1115.67,183.982" style="stroke:rgb(0,0,0);stroke-width:1px;fill:none;stroke-opacity:1;stroke-linecap:round;stroke-linejoin:round;;fill:none"/>
<polyline points="1160.23,220.026 1160.23,187.05 1164.84,188.674 1164.84,216.05 1160.23,220.026" style="stroke:rgb(33,61,220);stroke-width:9.448819;fill:none;stroke-opacity:0.5;stroke-linecap:round;stroke-linejoin:round;;fill:none"/>
<polyline points="1160.23,220.026 1160.23,187.05 1164.84,188.674 1164.84,216.05 1160.23,220.026" style="stroke:rgb(0,0,0);stroke-width:1px;fill:none;stroke-opacity:1;stroke-linecap:round;stroke-linejoin:round;;fill:none"/>
</svg>
